<svg width="57" height="68" xmlns="http://www.w3.org/2000/svg"><g fill="none" fill-rule="evenodd"><path d="M10.8 13c2-6.9 6.8-14 13-9.3 4 3.1 1.3 11.4-8.5 24.8 4.6 0 5.4 2 2.3 5.7-4.5 5.7-6.8 8.1-8.2 8.1-3.3 0-.7-22.6 1.4-29.4z" fill="#3B3B3B" stroke="#3B3B3B" stroke-width="2"/><path d="M38.7 15.4h.1c.4-.2.7-.2 1-.1.3 0 .5.2.7.5.3.4.3 1.1.2 2.2l-1.2 7.6-1.8 10.8-.2 1c-1 6-2 11.5-3 14A45 45 0 0125.3 63a13 13 0 01-4 2.9c-.7.2-1.2.1-1.5-.1-.3-.3-.6-.7-.6-1.4-.2-5 1-19.3 3.7-28 1.4-4.5 6.4-12 10.6-16.6 2.1-2.3 4-4 5.2-4.4z" fill="#FF6C6C" stroke="#FF6C6C"/></g></svg>