<svg width="73" height="79" xmlns="http://www.w3.org/2000/svg"><g fill="#FF6C6C" stroke="#FF6C6C" stroke-width="2" fill-rule="evenodd"><path d="M26.3 2.4c1.7-.6 3.5-.5 5.3.4a6 6 0 013.5 4.4c.3 1.8 0 4.2-1 7C26.4 27.5 21 37.9 18.4 45.9c-2.6 7.5-3 12.8-.7 15.8a7 7 0 004.5 2.6c2 .4 4.7.2 7.8-.5A99.7 99.7 0 0055 52c2.3-.9 4.2-1 6-.3 1.8.6 3.4 1.8 5 3.8.8 1.2 1 2.4.8 3.6-.2 1-1 2.2-2.2 3.4-2.3 2-6.3 4-12.1 6-12.7 5.6-23 8.7-31 9.3-8.4.6-14.3-1.4-17.8-6C.4 67.4 0 59.6 3.2 48.4c3-10.8 9.2-24.8 18.7-42a10 10 0 014.4-4z"/><path d="M56.2 1.5c1.7-.6 3-.6 4-.2.6.2 1 .6 1.4 1.2.2.5.4 1 .4 1.8 0 5.7-11 20.3-14.6 23.5C45 30 41.5 31.1 37 31h-1.3c0-.5.2-.9.3-1.3A59.4 59.4 0 0146 8.9c2.8-3.1 7-6.2 10.2-7.4zM65.6 17.8a7 7 0 013.7 1.4c1 .8 1.4 1.9 1.2 3.1-.3 2.2-9 9.6-16.2 14.4-3.2 2.1-6 3.7-7.6 4.1h-1.2c-1.3-1.3-1.2-2.1-.4-3.5l3.7-6.3c3-5.1 5-8.6 8.3-11.1 2.4-1.8 5.8-2.5 8.5-2.1z"/></g></svg>