<svg width="61" height="75" xmlns="http://www.w3.org/2000/svg"><g fill="#3B3B3B" stroke="#3B3B3B" stroke-width="2" fill-rule="evenodd"><path d="M57.1 48c-.7 2.6-4.5 9.8-12.4 13.2-4.7 2-10.8 2.7-18.6.3a22.9 22.9 0 01-13.7-11.3c-2.1-3.9-3-8-3.1-11-.1-2.5.2-4.3.7-5.2.2-.4.5-.6.7-.8 1.7-.1 2.3.3 2.8 1.3a25.6 25.6 0 0017.3 12c6.1 1.3 10.4 1.2 13 .3 1.3-.4 2.2-1 2.6-1.9.3-.7.1-1.6-.4-2.4-.2-.3-.4-.6-.4-.9l-.1-.5c1.2-1.5 1.6-1.4 2-1.4h.2c1.2.2 3.3 1 5.1 2.2 1.4.9 2.6 2 3.4 3 .9 1 1.2 2.2 1 3.2zM38 10a26 26 0 019.5 8c1 1.5 1.7 3 2 4.5.3 1.5 0 3-.5 4.2a4 4 0 01-2 2 5 5 0 01-3 .3 35 35 0 01-8.9-4l-3.7-2-3.9-2a33.8 33.8 0 01-8.2-4.9 5 5 0 01-1.5-2.5c-.1-.9 0-1.8.5-2.8a6.4 6.4 0 013-2.9c1.4-.6 3-1 4.9-1 3.4 0 7.7 1 11.8 3z"/></g></svg>