<svg width="71" height="79" xmlns="http://www.w3.org/2000/svg"><g fill="#3B3B3B" stroke="#3B3B3B" stroke-width="2" fill-rule="evenodd"><path d="M77.8 14c2-6.9 6.8-14 13-9.3 4 3.1 1.3 11.4-8.5 24.8 4.6 0 5.4 2 2.3 5.7-4.5 5.7-6.8 8.1-8.2 8.1-3.3 0-.7-22.6 1.4-29.4zM59.7 25.7a5.6 5.6 0 01-4 6.9h0L43 35c-3.2.5-6.5-.4-8.9-2.6a3.5 3.5 0 011.5-6h0l17-4.7a5.8 5.8 0 017.1 4z"/><path d="M36.8 1h.3c1 0 1.7.4 2.4 1 1 .9 1.7 2.6 1.7 5.1v.4L43 48.2H46.5c12.3 0 19.6.4 21.8 1.1.8.3 1.3.7 1.5 1.4.2.5.3 1.2 0 2a19.7 19.7 0 01-12.3 11.1c-4.2 1-8.8-.6-14-5l-.3-.3v9c0 3.1-1.5 5.8-4.4 7.7a20 20 0 01-11 2.8c-4.3 0-10.5-2.7-15.7-6.2C5.9 67.8 1 63 1 60.3c0-1 .5-2.2 2.2-3.3 1.2-.8 3.1-1.7 5.7-2.6 4.6-1.6 11.5-3.2 20.7-4.8l.7-.2-2.5-41.9c0-1.2.5-2.4 1.8-3.5a14.2 14.2 0 017-3h.2zM26.3 59c-2.3 0-5 .6-7 1.4-.8.3-1.5.7-2 1.2-.3.3-.5.6-.5.9 0 1 .6 1.7 1.6 2.3 1.2.7 3 1 5.3 1 1.8 0 4.8.2 6.6-1.8.4-.4.6-.9.6-1.4a3 3 0 00-.6-1.7c-.8-1-2.2-1.8-4-1.8z"/></g></svg>