<svg width="68" height="92" xmlns="http://www.w3.org/2000/svg"><g fill="#3B3B3B" stroke="#3B3B3B" stroke-width="2" fill-rule="evenodd"><path d="M54 14.7c.4 1 .4 2.1 0 3.6-1.1 4.8-9.7 10.3-26.2 16.1 10 1.2 17.6 3.5 23 7 6.3 4 9.4 9.7 9.4 16.9 0 3.7-1.9 13.4-7.2 20.3a18.2 18.2 0 01-14.8 7.6c-8.1 0-17.6-6.6-23.4-13.4C11.5 69 9.5 65 9.5 62.1c0-1.5.5-2.8 1.7-3.6a7 7 0 014.3-1.2A45 45 0 0130.7 61c4.7 1.8 9 3.6 11.6 2.2 1-.5 1.7-1.4 2.2-2.8.5-1.5.8-3.6.8-6.4 0-1.6-.4-3-1.2-4.2-1-1.4-2.3-2.5-4-3.3-4.8-2.6-12-3.4-17.6-4-4.4-.6-7.9-1-9.2-2-.5-.4-.8-.8-.9-1.2a2 2 0 01.2-1.4 7 7 0 012.3-2.4c8.1-5.6 17.3-13 27.6-22 4.6-1.5 7.6-1.8 9.3-1 1.2.4 2 1.1 2.3 2.2z"/><path d="M31 6.6c4.9-1.2 9.8-.9 13.7 0 2.4.7 4.5 1.6 6 2.5 1.8 1.2 2.9 2.5 3.1 3.7a3 3 0 01-.6 2.6c-.5.6-1.3 1.2-2.5 1.8-2 .9-4.8 1.6-8.2 2.4l-1 .2-2.1.5-2.7.6h0l-1.2.3-4.5 1c-5 1.3-9.4 2.4-12.4 2.5-1.4 0-2.4 0-3.2-.4-1-.4-1.6-1.1-1.8-2.1-.3-1.2 0-2.8 1.1-4.7a20 20 0 014.2-4.8c3-2.6 7.1-5 12-6.1z"/></g></svg>