<svg width="74" height="85" xmlns="http://www.w3.org/2000/svg"><g stroke-width="2" fill="none" fill-rule="evenodd"><path d="M8.7 3.1a6.3 6.3 0 018 5h0L20 25a11 11 0 01-2.4 9h0l-.7.8a4 4 0 01-7-1.5h0l-6-21.5A7 7 0 018.8 3z" fill="#3B3B3B" stroke="#3B3B3B"/><g fill="#FF6C6C" stroke="#FF6C6C"><path d="M27.3 8.4c1.7-.6 3.5-.5 5.3.4a6 6 0 013.5 4.4c.3 1.8 0 4.2-1 7C27.4 33.5 22 43.9 19.4 51.9c-2.6 7.5-3 12.8-.7 15.8a7 7 0 004.5 2.6c2 .4 4.7.2 7.8-.5A99.7 99.7 0 0056 58c2.3-.9 4.2-1 6-.3 1.8.6 3.4 1.8 5 3.8.8 1.2 1 2.4.8 3.6-.2 1-1 2.2-2.2 3.4-2.3 2-6.3 4-12.1 6-12.7 5.6-23 8.7-31 9.3-8.4.6-14.3-1.4-17.8-6-3.4-4.5-3.8-12.3-.6-23.5 3-10.8 9.2-24.8 18.7-42a10 10 0 014.4-4z"/><path d="M57.2 7.5c1.7-.6 3-.6 4-.2.6.2 1 .6 1.4 1.2.2.5.4 1 .4 1.8 0 5.7-11 20.3-14.6 23.5C46 36 42.5 37.1 38 37h-1.3c0-.5.2-.9.3-1.3a59.4 59.4 0 0110-20.8c2.8-3.1 7-6.2 10.2-7.4zM66.6 23.8a7 7 0 013.7 1.4c1 .8 1.4 1.9 1.2 3.1-.3 2.2-9 9.6-16.2 14.4-3.2 2.1-6 3.7-7.6 4.1h-1.2c-1.3-1.3-1.2-2.1-.4-3.5l3.7-6.3c3-5.1 5-8.6 8.3-11.1 2.4-1.8 5.8-2.5 8.5-2.1z"/></g><g fill="#3B3B3B" stroke="#3B3B3B"><path d="M124.1 58c-.7 2.6-4.5 9.8-12.4 13.2-4.7 2-10.8 2.7-18.6.3a22.9 22.9 0 01-13.7-11.3c-2.1-3.9-3-8-3.1-11-.1-2.5.2-4.3.7-5.2.2-.4.5-.6.7-.8 1.7-.1 2.3.3 2.8 1.3a25.6 25.6 0 0017.3 12c6.1 1.3 10.4 1.2 13 .3 1.3-.4 2.2-1 2.6-1.9.3-.7.1-1.6-.4-2.4-.2-.3-.4-.6-.4-.9l-.1-.5c1.2-1.5 1.6-1.4 2-1.4h.2c1.2.2 3.3 1 5.1 2.2 1.4.9 2.6 2 3.4 3 .9 1 1.2 2.2 1 3.2z"/></g></g></svg>