<svg width="861" height="583" xmlns="http://www.w3.org/2000/svg" xmlns:xlink="http://www.w3.org/1999/xlink"><defs><rect id="b" x="0" y="0" width="841" height="563" rx="35"/><filter x="-1.5%" y="-2.2%" width="104.2%" height="106.2%" filterUnits="objectBoundingBox" id="a"><feOffset dx="5" dy="5" in="SourceAlpha" result="shadowOffsetOuter1"/><feGaussianBlur stdDeviation="5" in="shadowOffsetOuter1" result="shadowBlurOuter1"/><feColorMatrix values="0 0 0 0 0   0 0 0 0 0   0 0 0 0 0  0 0 0 0.190559441 0" in="shadowBlurOuter1"/></filter><filter x="-5%" y="-5%" width="109.9%" height="109.9%" filterUnits="objectBoundingBox" id="c"><feGaussianBlur stdDeviation="5" in="SourceGraphic"/></filter><filter x="-4.3%" y="-4.3%" width="108.7%" height="108.7%" filterUnits="objectBoundingBox" id="d"><feGaussianBlur stdDeviation="5" in="SourceGraphic"/></filter><filter x="-4.9%" y="-4.9%" width="109.9%" height="109.9%" filterUnits="objectBoundingBox" id="e"><feGaussianBlur stdDeviation="5" in="SourceGraphic"/></filter><linearGradient x1="50%" y1="100%" x2="50%" y2="0%" id="f"><stop stop-color="gray" stop-opacity=".3" offset="0%"/><stop stop-color="gray" stop-opacity=".1" offset="54%"/><stop stop-color="gray" stop-opacity=".1" offset="100%"/></linearGradient><linearGradient x1="50%" y1="58%" x2="50%" y2="42%" id="g"><stop stop-color="gray" stop-opacity=".3" offset="0%"/><stop stop-color="gray" stop-opacity=".1" offset="54%"/><stop stop-color="gray" stop-opacity=".1" offset="100%"/></linearGradient><linearGradient x1="50.1%" y1="100%" x2="50.1%" y2=".3%" id="h"><stop stop-color="gray" stop-opacity=".3" offset="0%"/><stop stop-color="gray" stop-opacity=".1" offset="54%"/><stop stop-color="gray" stop-opacity=".1" offset="100%"/></linearGradient><linearGradient x1="50%" y1="100%" x2="50%" y2="0%" id="i"><stop stop-color="gray" stop-opacity=".3" offset="0%"/><stop stop-color="gray" stop-opacity=".1" offset="54%"/><stop stop-color="gray" stop-opacity=".1" offset="100%"/></linearGradient><circle id="k" cx="28.5" cy="28.5" r="28.5"/><filter x="-8.8%" y="-8.8%" width="124.6%" height="124.6%" filterUnits="objectBoundingBox" id="j"><feMorphology radius="2" operator="dilate" in="SourceAlpha" result="shadowSpreadOuter1"/><feOffset dx="2" dy="2" in="shadowSpreadOuter1" result="shadowOffsetOuter1"/><feComposite in="shadowOffsetOuter1" in2="SourceAlpha" operator="out" result="shadowOffsetOuter1"/><feColorMatrix values="0 0 0 0 0   0 0 0 0 0   0 0 0 0 0  0 0 0 0.5 0" in="shadowOffsetOuter1"/></filter><path d="M34.1 50.4c-.3-2.3-.4-4-.4-7.1v-2.1h7c2 0 3.2 0 5 .3v-6.4c-1.6.2-2.9.3-5 .3h-7v-1l1.7-2.6h5.4c2 0 3.5 0 5 .3v-6.4c-1.7.2-2.7.3-4.8.3h-2.2l5.9-9.7 3.8-5.9H36.8c-.4 1.4-.8 2.5-2.2 5.1L29 26.1l-5.6-10.6a24.3 24.3 0 01-2.2-5H9.5a83 83 0 013.8 5.8l6 9.7h-2c-2.3 0-3.7 0-5.2-.3V32c2-.3 2.9-.3 5.1-.3h5.5l1.6 2.7v1H17c-2.2 0-3.7-.2-5-.4v6.4c1.4-.2 2.9-.3 5-.3h7.2v2c0 2.7-.1 4.7-.4 7.1H34z" id="l"/><filter x="-3.9%" y="-3.8%" width="107.7%" height="107.5%" filterUnits="objectBoundingBox" id="m"><feOffset dx="-3" dy="-3" in="SourceAlpha" result="shadowOffsetInner1"/><feComposite in="shadowOffsetInner1" in2="SourceAlpha" operator="arithmetic" k2="-1" k3="1" result="shadowInnerInner1"/><feColorMatrix values="0 0 0 0 0   0 0 0 0 0   0 0 0 0 0  0 0 0 1 0" in="shadowInnerInner1"/></filter><linearGradient x1="58.4%" y1="60.7%" x2="39.6%" y2="39.3%" id="n"><stop stop-color="#FFF" stop-opacity="0" offset="0%"/><stop stop-color="#006837" offset="100%"/></linearGradient><linearGradient x1="58.9%" y1="60.4%" x2="41.7%" y2="38.7%" id="o"><stop stop-color="#FFF" stop-opacity="0" offset="0%"/><stop stop-color="#006837" offset="100%"/></linearGradient><linearGradient x1="127.5%" y1="20.4%" x2="7.5%" y2="66.8%" id="p"><stop stop-color="#5B6E16" offset="0%"/><stop stop-color="#AFD32F" offset="100%"/></linearGradient><linearGradient x1="124.6%" y1="24.3%" x2="9.6%" y2="60%" id="q"><stop stop-color="#6A7F1D" offset="0%"/><stop stop-color="#AFD32F" offset="100%"/></linearGradient><linearGradient x1="32.3%" y1="56.4%" x2="83.4%" y2="36.4%" id="r"><stop stop-opacity="0" offset="0%"/><stop stop-color="#1A1A1A" offset="99%"/></linearGradient><linearGradient x1="32.3%" y1="54.4%" x2="83.4%" y2="40.7%" id="s"><stop stop-opacity="0" offset="0%"/><stop stop-color="#1A1A1A" offset="99%"/></linearGradient><linearGradient x1="32.3%" y1="56.4%" x2="83.4%" y2="36.4%" id="t"><stop stop-opacity="0" offset="0%"/><stop stop-color="#1A1A1A" offset="99%"/></linearGradient><linearGradient x1="40.4%" y1="51.9%" x2="93.1%" y2="34.1%" id="u"><stop stop-color="#AFD32F" offset="0%"/><stop stop-color="#788F23" offset="100%"/></linearGradient><linearGradient x1="40.4%" y1="52.1%" x2="59.1%" y2="44.7%" id="v"><stop stop-color="#AFD32F" offset="0%"/><stop stop-color="#738B1E" offset="100%"/></linearGradient></defs><g transform="translate(5 5)" fill="none" fill-rule="evenodd"><use fill="#000" filter="url(#a)" xlink:href="#b"/><use fill="#FFD967" xlink:href="#b"/><circle fill="#FF7800" opacity=".3" filter="url(#c)" cx="192.5" cy="406.5" r="151.5"/><circle fill="#FF7800" opacity=".3" filter="url(#d)" cx="432" cy="187" r="173"/><circle fill="#FF7800" opacity=".3" filter="url(#e)" cx="622" cy="396" r="152"/><g transform="translate(443 276)"><path d="M88 206.7s-11.9-39.2 2.2-68c6-12.2 8-25.8 5.2-39a102 102 0 00-5.7-18.2" stroke="#535461" stroke-width="2"/><path d="M98.5 63.7c0 4.8-8.5 18.8-8.5 18.8s-8.6-14-8.6-18.8c0-4.8 3.9-8.7 8.6-8.7 4.7 0 8.5 3.9 8.5 8.7zM113.2 90.3c-2.6 4.1-17.5 11.1-17.5 11.1s.2-16.5 2.8-20.6a8.7 8.7 0 0115.1.8 8.8 8.8 0 01-.4 8.7zM112.7 136.3c-4.3 2.2-20.8.6-20.8.6s8.5-14.3 12.9-16.5a8.7 8.7 0 0111.7 4 9 9 0 01-3.8 11.9zM104.4 170.3c-3.9 2.8-20.1 4.1-20.1 4.1s6-15.3 9.8-18.1a8.6 8.6 0 0113.8 6c.4 3-1 6.1-3.5 8zM77.4 102.2c3.4 3.3 19.2 6.8 19.2 6.8s-3.9-16-7.3-19.4a8.5 8.5 0 00-12 .3 8.8 8.8 0 000 12.3zM68.3 142.9c4.3 2.2 20.7.7 20.7.7s-8.5-14.3-12.8-16.5a8.6 8.6 0 00-8.8.4 9 9 0 001 15.4zM64 182.6c4 2.8 20.3 4.1 20.3 4.1s-6-15.3-9.9-18.2a8.7 8.7 0 00-12 1.9 8.8 8.8 0 001.7 12.2z" fill="#FA0" fill-rule="nonzero"/><path d="M98.5 63.7c0 4.8-8.5 18.8-8.5 18.8s-8.6-14-8.6-18.8c0-4.8 3.9-8.7 8.6-8.7 4.7 0 8.5 3.9 8.5 8.7zM113.2 90.3c-2.6 4.1-17.5 11.1-17.5 11.1s.2-16.5 2.8-20.6a8.7 8.7 0 0115.1.8 8.8 8.8 0 01-.4 8.7zM112.7 136.3c-4.3 2.2-20.8.6-20.8.6s8.5-14.3 12.9-16.5a8.7 8.7 0 0111.7 4 9 9 0 01-3.8 11.9zM104.4 170.3c-3.9 2.8-20.1 4.1-20.1 4.1s6-15.3 9.8-18.1a8.6 8.6 0 0113.8 6c.4 3-1 6.1-3.5 8zM77.4 102.2c3.4 3.3 19.2 6.8 19.2 6.8s-3.9-16-7.3-19.4a8.5 8.5 0 00-12 .3 8.8 8.8 0 000 12.3zM68.3 142.9c4.3 2.2 20.7.7 20.7.7s-8.5-14.3-12.8-16.5a8.6 8.6 0 00-8.8.4 9 9 0 001 15.4zM64 182.6c4 2.8 20.3 4.1 20.3 4.1s-6-15.3-9.9-18.2a8.7 8.7 0 00-12 1.9 8.8 8.8 0 001.7 12.2z" fill="#000" fill-rule="nonzero" opacity=".3"/><path d="M310.6 185.8s-11.9-39.2 2.2-68c6-12.2 7.9-25.7 5.2-38.9a102 102 0 00-5.7-18.2" stroke="#535461" stroke-width="2"/><path d="M320.1 41.9c0 4.8-8.5 18.8-8.5 18.8s-8.5-14-8.5-18.8c0-4.8 3.8-8.7 8.5-8.7s8.5 3.9 8.5 8.7zM334.8 69.5c-2.6 4-17.5 11-17.5 11s.2-16.5 2.9-20.6a8.7 8.7 0 0115 .8 8.8 8.8 0 01-.4 8.8zM335 114.5c-4.3 2.2-20.6.6-20.6.6s8.5-14.2 12.8-16.4a8.5 8.5 0 018.8.3 8.9 8.9 0 01-1 15.5zM326 149.4c-3.9 2.9-20 4.2-20 4.2s5.9-15.3 9.7-18.1a8.6 8.6 0 0113.8 6c.4 3-1 6.1-3.6 8zM299 81.3c3.4 3.4 19.2 6.9 19.2 6.9s-3.9-16-7.2-19.4a8.5 8.5 0 00-8.3-2.1c-3 .8-5.3 3.2-6 6.2-.8 3 .1 6.3 2.3 8.4zM290 121c4.2 2.3 20.6.8 20.6.8s-8.5-14.3-12.8-16.5a8.6 8.6 0 00-8.8.4 9 9 0 001 15.4zM286.6 161.7c3.9 2.9 20.3 4.2 20.3 4.2s-6-15.4-10-18.3a8.7 8.7 0 00-12 2 8.8 8.8 0 001.7 12.1z" fill="#FA0" fill-rule="nonzero"/><path d="M320.1 41.9c0 4.8-8.5 18.8-8.5 18.8s-8.5-14-8.5-18.8c0-4.8 3.8-8.7 8.5-8.7s8.5 3.9 8.5 8.7zM334.8 69.5c-2.6 4-17.5 11-17.5 11s.2-16.5 2.9-20.6a8.7 8.7 0 0115 .8 8.8 8.8 0 01-.4 8.8zM335 114.5c-4.3 2.2-20.6.6-20.6.6s8.5-14.2 12.8-16.4a8.5 8.5 0 018.8.3 8.9 8.9 0 01-1 15.5zM326 149.4c-3.9 2.9-20 4.2-20 4.2s5.9-15.3 9.7-18.1a8.6 8.6 0 0113.8 6c.4 3-1 6.1-3.6 8zM299 81.3c3.4 3.4 19.2 6.9 19.2 6.9s-3.9-16-7.2-19.4a8.5 8.5 0 00-8.3-2.1c-3 .8-5.3 3.2-6 6.2-.8 3 .1 6.3 2.3 8.4zM290 121c4.2 2.3 20.6.8 20.6.8s-8.5-14.3-12.8-16.5a8.6 8.6 0 00-8.8.4 9 9 0 001 15.4zM286.6 161.7c3.9 2.9 20.3 4.2 20.3 4.2s-6-15.4-10-18.3a8.7 8.7 0 00-12 2 8.8 8.8 0 001.7 12.1z" fill="#000" fill-rule="nonzero" opacity=".3"/><path d="M.4 254c4.5-1.3.5-.3-.3 0h.3zM.8 254.4H.6z" opacity=".1" fill="#0FF" fill-rule="nonzero"/><path d="M304.2 205.2v-.2c.1 0 0 0 0 0v-.3l-1-2.5c-1-1.9-2-4.5-2-6.3 0 0-9.3-32.6-15.6-36.1 0 0-5.2-9.2-5.1-14.4 0-1.7-.1-3.4-.4-5-1-5.7-2.5-16.7-1-18.7a20.5 20.5 0 00-2.4-22l1.2-.2-.1-.2h.1s-2.7-3.3-2.7-10.6c0-4.2 1-9.6 3.8-16.5.4-1 .8-1.9 1-2.8 1.4-.6 2.6-1.5 3.7-2.5l.1-.2.1-.1c2.7-2.6 4.3-6.1 5.4-9.7a46 46 0 001.9-10c.3-3.7.1-7.4 0-11A35 35 0 00289 23c-.7-1.5-1.6-3-2-4.6a27 27 0 01-.5-3.4c-.6-4.5-2.7-8.8-6.2-11.7a14.4 14.4 0 00-12.7-3c-2.5.7-4.7 2.2-6.8 3.7a23 23 0 00-2.5 2.2c-2.5 2.5-4.4 5.7-2.6 9l.5.8a12.3 12.3 0 005.8 18l.3.5c1 1.7 2 4 2.3 5.6-1.2.8-2.3 1.8-3.2 3-3.2 3.8-5 6.4-6 8-.9 1.6-2 3.1-3.1 4.5-1.5 1.7-3.2 5.1-3.2 11.4v1.4c-7.8 8.4-38 2.3-38 2.3-3.5-1.4-7.8.3-9.8 1.3a1.2 1.2 0 00-.4 1.8c3.2 3.8 11.1 1.5 11.1 1.5s28.2 5 30.4 6.6c1.5 1.1 4.2.2 5.7-.5l-.3.4.4-.2-2.2 19.5v.2h1.3l.7 1.7.6 1.6.6 1.4c-1.7 6.1-8.6 31.4-7.9 37.2 0 0-4.3 10.4-2.7 16.2 0 0-6 43.2-9.9 45.4l.6.3c-4.1 2.3-13 6.7-19.2 4.6 0 0-3.9 1.1 2.2 5 0 0 24.7 6.5 28 4.4l-.6-9.5h.3c0-.5.4-4.4 1.9-6.2 0 0 9.9-26.8 9.3-40.5l9.2-22.2c1 2.5 2.1 4.7 3.2 6l3.8 10 6.3 8.1s19.8 31.3 18.4 40.6h.4c-1.8 3.4-6.4 10-13 10 0 0-5.8 6.1 4.9 5.3 0 0 13.4-.8 23.3-6.3l-3.6-9.3z" fill="url(#f)" fill-rule="nonzero"/><path d="M234 202s-12.7 8.3-20.7 5.7c0 0-3.7 1 2.1 4.7 0 0 23.9 6.4 27 4.3l-.7-13.7-7.7-1zM293.3 202.5s-5 11.4-13.4 11.4c0 0-5.5 5.8 4.7 5 0 0 12.8-.8 22.3-6l-4.6-12-9 1.6z" fill="#333" fill-rule="nonzero"/><path fill="#FDB797" fill-rule="nonzero" d="M248.1 101.1l2 5 13.2-.8-1.4-8.6z"/><path d="M251 106.2s-8.6 30.9-7.8 37.2c0 0-4.2 10-2.7 15.6 0 0-5.7 41.7-9.4 43.8 0 0 10.7 5 11 4.8 3.7-1.3-.3 0-.3 0s.3-4.2 1.9-6c0 0 9.4-26 8.9-39.2l12.6-30.6-14.2-25.6z" fill="#252A62" fill-rule="nonzero"/><path d="M251 106.2s-8.6 30.9-7.8 37.2c0 0-4.2 10-2.7 15.6 0 0-5.7 41.7-9.4 43.8 0 0 10.7 5 11 4.8 3.7-1.3-.3 0-.3 0s.3-4.2 1.9-6c0 0 9.4-26 8.9-39.2l12.6-30.6-14.2-25.6z" fill="#000" fill-rule="nonzero" opacity=".1"/><path d="M250 104.6l5.8 13.7s4.5 22.5 9.2 28.6l3.7 9.5 6 8s19 30.2 17.7 39.1c0 0 11.9 3.2 11.6-.8 0 0-2.9-5.5-2.9-8.4 0 0-9-31.5-15-35 0 0-5-8.9-5-13.9 0-1.6 0-3.2-.3-4.8-1-5.5-2.4-16.1-1-18 1.8-2.7 5-14.9-4-23l-25.8 5z" fill="#252A62" fill-rule="nonzero"/><path d="M304 202.8s-2.9-5.6-2.9-8.5c0 0-8.8-31.5-14.8-35 0 0-4.9-8.9-4.9-13.9 0-1.6 0-3.2-.3-4.8-1-5.5-2.4-16.1-1-18 1.8-2.7 4.9-14.9-4-23l-1.4.2a20 20 0 013.5 22.8c-1.8 2.6 1.6 21.4 1.6 21.4-1.3 4.5 4.7 15.4 4.7 15.4 6 3.4 14.8 34.9 14.8 34.9 0 2.9 2.9 8.5 2.9 8.5 0 1.3-1.1 1.8-2.8 2 2.5 0 4.7-.3 4.6-2z" fill="#000" fill-rule="nonzero" opacity=".1"/><path d="M261.4 36.3s5.1 7.7 3.8 10.1l13.2-3.2s-3.5-3.7-2.7-12.9l-14.3 6z" fill="#FDB797" fill-rule="nonzero"/><path d="M280.4 42s-10.8-2.4-17.6 5.9c-3 3.7-4.7 6.2-5.7 7.9-.8 1.5-1.9 3-3 4.3-1.7 2-3.8 6.4-2.8 15.4l-3.2 28.6s9.2-.8 11.6 0c2.3.8 18.8-1.8 18.8-1.8s-6.5-8 1-26.6c7.7-18.5.9-33.7.9-33.7z" fill="#000" fill-rule="nonzero" opacity=".1"/><path d="M280.4 41s-10.8-2.3-17.6 6c-3 3.6-4.7 6.2-5.7 7.8-.8 1.6-1.9 3-3 4.3-1.7 2-3.8 6.5-2.8 15.4l-3.2 28.7s9.2-.8 11.6 0c2.3.8 18.8-1.9 18.8-1.9s-6.5-8 1-26.5c7.7-18.6.9-33.7.9-33.7z" fill="#F55F44" fill-rule="nonzero"/><path d="M267 65.4s-10.4 15-15.2 17.6l-2.7 1.4s16.9-19 18-19z" fill="#000" fill-rule="nonzero" opacity=".1"/><path d="M257.3 58.2s6.8-2.7 9.7 6.2c.2.8 0 1.6-.5 2.1l-15.9 17.2s-4.5 2.7-6.6 1.1c-2.1-1.6-29.4-6.4-29.4-6.4s-7.6 2.3-10.7-1.5a1.2 1.2 0 01.4-1.7c1.4-.8 4-.4 6.8-.7a24 24 0 016.7.1c9.1 1.4 30.6 3.8 33.9-5 4.2-11.1 5.6-11.4 5.6-11.4z" fill="#FDB797" fill-rule="nonzero"/><path d="M257.6 58.3s8.5-1.3 10.4 7.1V65s-2.4-9.3-10.4-6.6zM276.5 31.3l-14.2 5.9 1.4 2.3c1.4.6 3.3.2 5 .2 3.2 0 5.5-.9 7.7-3-.2-1.5 0-3.2.1-5.4z" fill="#000" fill-rule="nonzero" opacity=".1"/><circle fill="#FDB797" fill-rule="nonzero" cx="267.5" cy="28" r="11.8"/><path d="M268 25.7c.2 1-.5 1.8-1 2.6-2 2.7-1.7 6.4-.8 9.7.5 1.5 1.1 3.2 2.5 4 1.2.7 2.6.7 3.8 1 2.3.6 4.2 2.4 5.3 4.5 1 2 1.5 4.5 1.6 6.8.4 6.9-1.3 13.6-4.7 19.5 3.5.6 7.2-1 9.8-3.5 2.5-2.6 4-6 5.1-9.4 1-3.2 1.7-6.4 2-9.7.2-3.6 0-7.2 0-10.8-.2-4.2-.4-8.5-2.1-12.3-.7-1.5-1.6-3-2-4.5l-.5-3.3c-.5-4.3-2.6-8.5-6-11.3A14 14 0 00268.6 6c-2.4.7-4.5 2-6.5 3.6-3.3 2.4-7 6.4-4.7 10.6 2 3.7 6.4 6 10.6 5.4z" fill="#000" fill-rule="nonzero" opacity=".1"/><path d="M268 25.7c.3 1-.5 1.8-1 2.6-2 2.7-1.7 6.4-.8 9.7.5 1.5 1.1 3.2 2.5 4 1.2.7 2.6.7 3.9 1 2.2.6 4.1 2.4 5.2 4.5 1 2 1.5 4.5 1.6 6.8.4 6.8-1.3 13.6-4.7 19.5 3.5.6 7.2-1 9.8-3.5 2.5-2.6 4-6 5.1-9.4 1-3.2 1.7-6.4 2-9.7.2-3.6 0-7.2 0-10.8-.2-4.2-.4-8.5-2.1-12.3-.7-1.5-1.6-3-2-4.5l-.5-3.3c-.5-4.3-2.6-8.5-6-11.3A14 14 0 00268.6 6c-2.4.7-4.5 2-6.5 3.6-3.3 2.4-7 6.4-4.7 10.6 2 3.7 6.4 6 10.6 5.4z" fill="#72351C" fill-rule="nonzero"/><path d="M269 85.3s4.8 0 6.6-2.8M269 86.3s4.8 0 6.6-2.9M273.7 56s-.8 6.4-3.8 9.4" fill="#000" fill-rule="nonzero" opacity=".1"/><path d="M.4.7H.3z" opacity=".1" transform="translate(159.1 213.3)" fill="url(#g)" fill-rule="nonzero"/><path d="M2.4 1h.2C1.9.7-1.8-.3 2.4 1z" opacity=".1" transform="translate(157.2 213.3)" fill="url(#h)" fill-rule="nonzero"/><path d="M199.1 74.9c-2-1-6.3-2.7-10-1.3 0 0-35.4 7-39.9-4.3l-.6-1.5a16.5 16.5 0 000-5A9.6 9.6 0 00147 59c-.8-1.5-1.6-3-2.1-4.7A17.6 17.6 0 00134.8 44c0-1.7 1.2-4.2 2.3-6.1l.4-.6c4.7-1.8 7.8-6.2 7.8-11.2 0-2.4-.7-4.7-2-6.7 3.8-.6 2.5-3.7.2-6.5l-1.5-1.5a16.8 16.8 0 00-9.3-4.6c-4.5-1.6-9.5-1-13.5 1.6a7 7 0 00-6.6-4.6c-3.9 0-7 3-7 6.8 0 3.7 3.1 6.7 7 6.7h.4a14.7 14.7 0 0011 17.4v.5c-.2 2-.9 4-1.8 5.7h-.3c-5.1 3.5-7 9-7 14.6a34 34 0 003.2 14c.7 1.6 1 3.4 1 5.2a51 51 0 01-4.8 17.8l-11.8 28.3h.3l-.3.6c2.4-.7 5-.4 7.2.2 3 .8 6.3.3 9-1.3.3 1.3.8 2.5 1.5 3.6 1.5 2-.1 12.8-1 18.5a28 28 0 00-.4 4.9c0 5-5.3 14.2-5.3 14.2-6.4 3.5-15.9 35.7-15.9 35.7 0 1.7-1 4.3-1.9 6.2l-1.1 2.4v.5l-3.7 9.2c10 5.4 23.7 6.2 23.7 6.2 11 .8 5-5 5-5-6.7 0-11.4-6.7-13.3-10h.5c-1.4-9.3 18.7-40 18.7-40l6.4-8.2 4-9.7a25 25 0 003.1-6l9.4 21.9c-.6 13.5 9.5 40 9.5 40 1.5 1.7 1.9 5.6 2 6.1h.2l-.5 9.3c3.3 2.1 28.4-4.3 28.4-4.3 6.1-3.8 2.2-5 2.2-5-6.2 2.1-15.3-2.2-19.5-4.5l.6-.3c-4-2.1-10-44.8-10-44.8 1.6-5.7-2.8-16-2.8-16 .5-3.9-2.7-17.1-5.3-27 3.3 0 6.6-.3 9.9-1l-.6-.3.6-.1c-8.7-5.6-13.6-24.2-15.7-34.7l1.7 1.2 2.8 1.3-.3-.3c1.5.6 4.2 1.5 5.7.4 2.3-1.6 31-6.4 31-6.4s8 2.2 11.2-1.6a1.2 1.2 0 00-.4-1.8z" fill="url(#i)" fill-rule="nonzero"/><circle fill="#FFC533" fill-rule="nonzero" cx="127.9" cy="22.8" r="14.2"/><path d="M139.2 37.2s-5.1 7.8-3.8 10.2l-13.2-3.2s3.5-3.8 2.7-13l14.3 6z" fill="#FDB797" fill-rule="nonzero"/><path d="M125 31.3l14.2 5.9-1.4 2.3c-1.4.6-3.3.2-4.9.2-3.2 0-5.6-.9-7.8-3 .2-1.5.1-3.2 0-5.4z" fill="#000" fill-rule="nonzero" opacity=".1"/><circle fill="#FDB797" fill-rule="nonzero" cx="133.1" cy="28" r="11.8"/><circle fill="#FFC533" fill-rule="nonzero" cx="113.6" cy="13.3" r="6.6"/><path d="M141.2 21.9c-3 0-6.3-.7-8.5 1.3-1.6 1.4-2 3.7-2.5 5.8-.8 3-2.6 6.5-5.8 7-1.9.3-3.8-.7-5.2-2.1a17.8 17.8 0 01-3-5c-.9-1.7-1.7-3.6-1.6-5.5 0-2.3 1.4-4.4 2.8-6.3a26 26 0 012.7-3.3 15.2 15.2 0 0122.7 1.6c2.5 3 3.7 6.6-1.6 6.5z" fill="#000" fill-rule="nonzero" opacity=".1"/><path d="M141.2 21.9c-3 0-6.3-.7-8.5 1.3-1.6 1.4-2 3.7-2.5 5.8-.8 3-2.6 6.5-5.8 7-1.9.3-3.8-.7-5.2-2.1a17.8 17.8 0 01-3-5c-.9-1.7-1.7-3.6-1.6-5.5 0-2.3 1.4-4.4 2.8-6.3a26 26 0 012.7-3.3 15.2 15.2 0 0122.7 1.6c2.5 3 3.7 6.6-1.6 6.5z" fill="#FFC533" fill-rule="nonzero"/><path d="M166.6 202.9s12.8 8.4 20.7 5.8c0 0 3.7 1-2.1 4.7 0 0-23.9 6.3-27 4.2l.8-13.7 7.6-1zM107.4 202.5s5 11.4 13.3 11.4c0 0 5.5 5.8-4.7 5 0 0-12.8-.8-22.2-6l4.5-12 9 1.6z" fill="#333" fill-rule="nonzero"/><path d="M149.6 107.1s8.6 31 7.9 37.3c0 0 4.2 10 2.6 15.5 0 0 5.8 41.8 9.4 43.9 0 0-10.7 4.9-11 4.7-3.7-1.3.3 0 .3 0s-.3-4.2-1.9-6c0 0-9.4-26-8.9-39.1l-12.6-30.7 14.2-25.6z" fill="#3AD29F" fill-rule="nonzero"/><path d="M149.6 107.1s8.6 31 7.9 37.3c0 0 4.2 10 2.6 15.5 0 0 5.8 41.8 9.4 43.9 0 0-10.7 4.9-11 4.7-3.7-1.3.3 0 .3 0s-.3-4.2-1.9-6c0 0-9.4-26-8.9-39.1l-12.6-30.7 14.2-25.6z" fill="#000" fill-rule="nonzero" opacity=".1"/><path d="M150.6 105.5l-5.8 13.8s-4.5 22.5-9.2 28.6l-3.7 9.5-6 8s-19 30.1-17.7 39.1c0 0-11.9 3.2-11.6-.8 0 0 2.9-5.6 2.9-8.5 0 0 9-31.5 15-35 0 0 5-8.8 5-13.8 0-1.6 0-3.2.3-4.8 1-5.6 2.4-16.2 1-18-1.8-2.7-5-15 4-23.1l25.8 5z" fill="#3AD29F" fill-rule="nonzero"/><path d="M97.6 203.7s2.8-5.6 2.8-8.5c0 0 8.9-31.5 14.8-34.9 0 0 5-9 5-14 0-1.5 0-3.1.3-4.7.9-5.6 2.3-16.2 1-18-1.8-2.7-5-15 3.9-23.1l1.5.3a20 20 0 00-3.6 22.7c1.8 2.6-1.6 21.5-1.6 21.5 1.3 4.5-4.7 15.3-4.7 15.3-6 3.4-14.8 35-14.8 35 0 2.9-2.8 8.4-2.8 8.4-.1 1.3 1 1.9 2.8 2-2.5.1-4.8-.2-4.6-2z" fill="#000" fill-rule="nonzero" opacity=".1"/><path d="M123.3 43.6l9.8 2.4c5.5 1.4 10 5.5 11.8 10.9a24 24 0 002 4.5 9.6 9.6 0 011.4 3.7c.4 2.6.4 6.7-2.3 11.5 0 0 4.4 33.5 16 41.1 0 0-11.3 2.6-21.1-.6a21.7 21.7 0 00-19.5 2.8l-.3.2c-2.6 2-6 2.7-9.2 1.8-2-.6-4.5-.9-6.8-.2l11-27.7c2.5-5.6 6.5-16.7 3.7-23-3.9-8.7-5.3-21.6 3.5-27.4z" fill="#000" fill-rule="nonzero" opacity=".1"/><path d="M123.3 42.7l9.8 2.4c5.5 1.3 10 5.4 11.8 10.8a24 24 0 002 4.6 9.6 9.6 0 011.4 3.6c.4 2.6.4 6.8-2.3 11.5 0 0 4.4 33.5 16 41.2 0 0-11.3 2.6-21.1-.6a21.7 21.7 0 00-19.5 2.8l-.3.2c-2.6 2-6 2.6-9.2 1.8-2-.6-4.5-1-6.8-.3l11-27.7c2.5-5.6 6.5-16.6 3.7-23-3.9-8.6-5.3-21 3.5-27.3z" fill="#535461" fill-rule="nonzero"/><path d="M133.5 66.4s10.5 15 15.3 17.6l2.7 1.3s-16.9-19-18-19z" fill="#000" fill-rule="nonzero" opacity=".1"/><path d="M143.4 59.2s-6.8-2.7-9.8 6.2c-.2.7 0 1.5.5 2L150 84.8s4.5 2.7 6.6 1c2.1-1.5 29.5-6.3 29.5-6.3s7.5 2.2 10.6-1.5a1.2 1.2 0 00-.3-1.8c-1.7-.8-4.7-.8-8-1-1-.2-2.2-.1-3.3 0-6.9 1.3-32.5 5.1-36.2-4.5-4.2-11.2-5.5-11.4-5.5-11.4z" fill="#FDB797" fill-rule="nonzero"/><path d="M143 59.3s-8.5-1.4-10.4 7v-.5s2.5-9.2 10.4-6.5z" fill="#000" fill-rule="nonzero" opacity=".1"/><path d="M196.5 201s-6-21.4 1.1-37.2c3-6.5 4-14 2.6-21.1-.7-3.4-1.6-6.8-2.8-10" stroke="#535461" stroke-width="2"/><path d="M201.7 123.3c0 2.7-4.7 10.4-4.7 10.4s-4.7-7.7-4.7-10.4c0-1.7.9-3.3 2.3-4.2 1.5-.8 3.3-.8 4.8 0 1.4.9 2.3 2.5 2.3 4.2zM209.5 138.1c-1.5 2.2-9.7 6-9.7 6s.2-9 1.6-11.1a4.8 4.8 0 016.7-1.4 4.7 4.7 0 011.4 6.5zM209.5 162.4c-2.4 1.2-11.6.4-11.6.4s4.8-7.6 7.2-8.7a5 5 0 014.8.2c1.5 1 2.3 2.5 2.2 4.2a4.7 4.7 0 01-2.6 4zM204.5 180.8c-2.2 1.5-11.3 2.2-11.3 2.2s3.4-8 5.5-9.6c1.4-1 3.3-1.1 4.8-.5 1.6.7 2.7 2 3 3.7.1 1.6-.6 3.2-2 4.2z" fill="#FA0" fill-rule="nonzero"/><path d="M190 144c2 2 10.8 3.9 10.8 3.9s-2.2-9-4-10.8a4.7 4.7 0 00-4.8-1.4 5 5 0 00-2 8.3zM184.5 166.2c2.4 1.2 11.5.4 11.5.4s-4.7-7.6-7.1-8.7a5 5 0 00-4.9.2 4.6 4.6 0 00-2.2 4.2 4.7 4.7 0 002.7 3.9zM182.9 188.4c2.1 1.5 11.3 2.1 11.3 2.1s-3.4-8-5.6-9.5a5 5 0 00-6.8 1 4.4 4.4 0 001 6.4z" fill="#FA0" fill-rule="nonzero"/><path d="M201.7 123.3c0 2.7-4.7 10.4-4.7 10.4s-4.7-7.7-4.7-10.4c0-1.7.9-3.3 2.3-4.2 1.5-.8 3.3-.8 4.8 0 1.4.9 2.3 2.5 2.3 4.2zM209.5 138.1c-1.5 2.2-9.7 6-9.7 6s.2-9 1.6-11.1a4.8 4.8 0 016.7-1.4 4.7 4.7 0 011.4 6.5zM209.5 162.4c-2.4 1.2-11.6.4-11.6.4s4.8-7.6 7.2-8.7a5 5 0 014.8.2c1.5 1 2.3 2.5 2.2 4.2a4.7 4.7 0 01-2.6 4zM204.5 180.8c-2.2 1.5-11.3 2.2-11.3 2.2s3.4-8 5.5-9.6c1.4-1 3.3-1.1 4.8-.5 1.6.7 2.7 2 3 3.7.1 1.6-.6 3.2-2 4.2z" fill="#FFF" fill-rule="nonzero" opacity=".5"/><path d="M190 144c2 2 10.8 3.9 10.8 3.9s-2.2-9-4-10.8a4.7 4.7 0 00-4.8-1.4 5 5 0 00-2 8.3zM184.5 166.2c2.4 1.2 11.5.4 11.5.4s-4.7-7.6-7.1-8.7a5 5 0 00-4.9.2 4.6 4.6 0 00-2.2 4.2 4.7 4.7 0 002.7 3.9zM182.9 188.4c2.1 1.5 11.3 2.1 11.3 2.1s-3.4-8-5.6-9.5a5 5 0 00-6.8 1 4.4 4.4 0 001 6.4z" fill="#FFF" fill-rule="nonzero" opacity=".5"/></g><g transform="translate(603 281)"><use fill="#000" filter="url(#j)" xlink:href="#k"/><circle stroke="#FFB164" stroke-width="14" stroke-linejoin="square" fill="#FFE8A3" cx="28.5" cy="28.5" r="21.5"/></g><g fill-rule="nonzero" transform="translate(603 281)"><use fill="#F5F5F5" xlink:href="#l"/><use fill="#000" filter="url(#m)" xlink:href="#l"/></g><g transform="translate(19 278)" fill-rule="nonzero"><path d="M5.2 171.4l165.6 94.8c7 4 15.6 4 22.6 0L309.7 200a10.1 10.1 0 000-17.7L136.6 83.5 5.3 155.7a9 9 0 00-.1 15.7z" fill="#FF6F6F"/><path d="M49.8 155.7l-18 10L55 180.3h.6c9.4-5.2 17.6-3.7 24.3-7.8-8.6-4.6-22-11.2-30-16.8z" fill="url(#n)" opacity=".6" style="mix-blend-mode:multiply"/><path d="M146.4 195.9l-40.8 21 41.6 26.1h1a862.4 862.4 0 0040.2-23.6c-15.4-8.2-27.7-13.4-42-23.5z" fill="url(#o)" opacity=".6" style="mix-blend-mode:multiply"/><path d="M140.3 206.7l-1.1-.8 1-13 5.7.3s-.3 5.5 1 6.9c1.2 1.3 4.7.7 5 .8.3.1 2.6-.4 3.5.7 1 1.1-3.7 3.8-6.1 4.2-1.7.2-3.3.1-5-.2 0 0-.2-3.3-1-3-1 .2-1.2 3.7-1.2 3.7l-1.8.4z" fill="#9C4100"/><path d="M138 166c-.6 13.5-1 31.2-1 31.2s3 4.2 11.5 2.4c1-.2 3-21.8 4-33a32.9 32.9 0 00-14.6-.6z" fill="#653200"/><path d="M155.3 217.8l-1.1-.8 1-13 5.7.3s-.3 5.5 1 6.9c1.2 1.3 4.7.7 5 .8.3.1 2.6-.4 3.5.7 1 1.1-3.7 3.8-6.1 4.2-1.7.2-3.3.1-5-.2 0 0-.2-3.3-1-3-1 .2-1.2 3.7-1.2 3.7l-1.8.4z" fill="#9C4100"/><path d="M157.8 168.4a34.6 34.6 0 00-12-3c.7 5.1 1.3 8.6 1.4 8.9.3.6 5.6 32.8 5.6 32.8 6.2 2.5 13.5.4 13.5.4s-2.5-25-2.7-29.3V177a9.9 9.9 0 00-5.8-8.5z" fill="#653200"/><path d="M119.5 176s10.6-9.5 18.4-10c7.9-.5 19 7.5 18.2 12.2-.9 4.7-16 14.8-16 14.8" fill="#653200"/><path d="M141 159l-8.3-5.8c-.7-.5-1-1.4-.6-2.1L138 138a1.8 1.8 0 012.6-.8l9.4 5.8c.8.5 1 1.5.6 2.3l-6.9 13.2a1.8 1.8 0 01-2.6.6z" fill="#1784AA"/><path d="M140.3 158.6l-8.4-5.8c-.7-.5-1-1.4-.6-2.2l6-13a1.8 1.8 0 012.5-.8l9.4 5.7c.8.5 1 1.5.7 2.3l-7 13.2a1.8 1.8 0 01-2.6.6z" fill="#29ABE2"/><path fill="#E4F5FD" d="M141.7 157.8l-9.4-6.6 6.2-13.6 10.5 6.5z"/><path d="M137.3 143.4c-3 1.7-8 3.6-11.2 5.8-.6.4-1.3 1.6-.8 1.5-.3.2 1.9 1 1.7 1.3 0 .1 1.4-.7 1.5-.6 1.2.6 2.6.8 4 .4l.5-.4h.1l.1-.1h.1l.1-.3c.8-.5 2.3-.8 2.5-1.8a2 2 0 00-.2-.7v-.4c.2-.5 0-1.1-.3-1.6l.2-.2a21 21 0 002.6-2.3.6.6 0 00-.8-.6z" fill="#E85454"/><path d="M135.8 146.7c-.3-.6-.6-.6-1.2-.4-1 .5-2.1 1.1-3 1.8-.2.1 0 .4 0 .3.7-.5 3.3-2.4 3.9-1.5.5.8-1.3 1.4-1.8 1.7l-1.9 1c-.2 0 0 .3.2.2l1.2-.6.4.4c-.2.4-.3.8-.2 1.1h.1a3.4 3.4 0 01-4.2.7c-.1-.2-.3 0-.2.2 1.3 1 3.8.7 4.7-.7l.6-.2c.5-.2 1-.5 1.4-1 .3-.4.3-.8 0-1.2a.8.8 0 000-1.2v-.6zm-.2 2.8a2 2 0 01-.8.7l-.9.4c-.4-.1-.1-.7 0-.9.3 0 .5-.2.7-.3l.7-.5.3-.2c.1.2.1.5 0 .8zm-1-.6c-.4.3-.8.6-1.2.2l1.8-1 .5-.4c.3.5-.7 1-1 1.2z" fill="#653200"/><path d="M128 147s2.1.4 2.3 4.8l-1.6 3.8-8.6-4.4s2-2.5 7.9-4.3z" fill="#88D3D8"/><path d="M148.3 149l-1.8 4a33 33 0 00-1.3-2.6.7.7 0 00-1.3.4c.1.9.5 1.7 1 2.4l-.2.2c-1.3 1.3-1 3.4-.8 5a.6.6 0 001 .6h.3c1.1-.8 2-2 2.2-3.3.8-2.1 1.7-4.5 1-6.7z" fill="#E85454"/><path d="M116.3 148.9l3.1-1c.8.2 7.5 2.9 10.3 7.6a79.7 79.7 0 011.1 16.8c0 1-.1 1.4-.3 2.3l-1.2.7c-9.3 3.2-16.1-2-16.4-2.7-.3-.8-.8-11.4-1-17.7a6 6 0 014.4-6z" fill="#88D3D8"/><path d="M124.5 138s2.1 10.3-1.8 11.4c-3.8 1.2-8.4-3.2-8.7-5.3-.3-2.2 5.1-9.7 10.5-6.2z" fill="#E85454"/><path d="M123 142c.1-.1 2.3-.7 2.8-2.5.5-1.9-1.2-4.3-5-4.7-4-.3-10.5 1.8-9.5 11.9 1 10 11.3 5.7 12 2.5.3-2.4.2-4.8-.3-7.1z" fill="#653200"/><path d="M123 142s.7 3.5 2 5c1.5 1.5 2.6 4.2.9 6.2-1.7 2.1 0 3.2 2.4 5.2 2.5 2 1 10-7.9 8-8.8-2-13-7.3-13-7.3s2.3-15.7 4.7-19.4" fill="#653200"/><path d="M129.7 155.7s2 6.6 4 6.8c2 .2 5-2.8 7.2-6.6a5.6 5.6 0 016.1 5.4s-7 14-17.3 10.6" fill="#88D3D8"/><path d="M92.8 206.2a43 43 0 01-9-27.7c0-8.1 3.2-15.8 8.9-21.6 5.2-5.3 13-8 20-4.3 5.8 3 8.6 8.6 10.6 14.5 2.4 7 3.2 16 11.8 18 3.4 1 6.9.3 10.3 0 6-.3 12.3 1.6 14.2 8 3.3 11.3-12 21-20.7 24.6a40.3 40.3 0 01-46-11.5z" fill="#7EC971"/><path d="M159.3 193.2c-6 11-26 15.9-36.9 15.3-9.8-.5-16-6.4-15.4-16.3.4-5.4 2.1-10.8 1.6-16.3-.8-9.3-9.7-17-18.8-15.1-4 5.3-6 11.7-6.1 18.3a42.9 42.9 0 0010.8 29.7c11.4 12 29 15.7 44.3 9.5 8.7-3.7 24-13.3 20.7-24.6l-.2-.5z" fill="#61AF51"/><path d="M158 72.3l-1 52a3.3 3.3 0 01-4.8 3l-44.8-22a4.3 4.3 0 01-2.4-4l1-52.1a3.6 3.6 0 015.2-3.1l44.3 22.3c1.5.7 2.5 2.2 2.4 4z" fill="#6BD1B6"/><path d="M222.8 113.3l-1 52a3.3 3.3 0 01-4.8 3l-44.7-22a4.3 4.3 0 01-2.4-4l1-52.2a3.6 3.6 0 015.2-3l44.3 22.2c1.5.8 2.5 2.3 2.4 4z" fill="#9887DD"/><path d="M292 148.4l-1 52a3.3 3.3 0 01-4.9 3l-44.7-22a4.3 4.3 0 01-2.4-4l1-52.1a3.6 3.6 0 015.2-3.1l44.3 22.3c1.5.7 2.4 2.2 2.4 4z" fill="#F5B008"/><path d="M200.9 27.1l-1 52.1a3.3 3.3 0 01-4.8 2.9L150.4 60a4.3 4.3 0 01-2.4-4l1-52.1a3.6 3.6 0 015.2-3.1l44.3 22.3c1.5.8 2.4 2.3 2.4 4z" fill="#FFAF5F"/><path d="M269.4 64.5l-1 52a3.3 3.3 0 01-4.8 3l-44.7-22a4.3 4.3 0 01-2.5-4l1-52.2a3.6 3.6 0 015.3-3L267 60.4c1.5.8 2.4 2.3 2.4 4z" fill="#FFD3C0"/><path d="M23.5 137.9s-2.1 25 11.2 29.4c13.3 4.4 20-8.4 19.5-30.4" fill="#06577A"/><ellipse fill="#F2696A" transform="rotate(-1.8 38.8 137.4)" cx="38.8" cy="137.4" rx="15.4" ry="8.9"/><path d="M42.1 117.5s-6.3-8.5-3.9-14.6c0 0 2-3.9 5.1-4.6 0 0 0 8.3 3 7.1 3-1.2-.2-8.6-.2-8.6s3-4.5 6.6-4.5c3.5 0 .3 7.7 2.7 6.4 2.4-1.3-.1-7.7 2.6-8.6a58 58 0 017.6-1.4s2.9 7.4.3 8.6c-2.6 1.1-6.4 1.6-4.5 3.2 1.9 1.6 7-.5 7-.5s.5 4.3-1.2 6.2c-1.7 1.8-12.3-1.9-10.3 1.7 2 3.6 8.8 1.5 8.8 1.5s-3.4 5.2-7.5 7.6c-4 2.5-16 .5-16 .5zM44.2 139.3s-4.5-4.2-3.7-7.9c0 0 .7-2.5 2.4-3.2 0 0 .8 4.7 2.4 3.7 1.6-1-1-4.8-1-4.8s1.2-2.9 3.3-3.3c2-.3 1 4.4 2.1 3.4 1.2-1-.8-4.4.6-5.2 1.4-.6 2.8-1.2 4.2-1.6 0 0 2.4 4 1 4.8-1.3 1-3.4 1.7-2.1 2.4 1.2.7 4-1 4-1s.7 2.3 0 3.6c-.9 1.2-7.3.2-5.8 2 1.5 1.9 5.2 0 5.2 0-.8 1.9-2 3.6-3.4 5.1-2.1 1.8-9.2 2-9.2 2zM28 130.5s-10.6.8-14.5-4.6c0 0-2.2-3.8-1.2-6.8 0 0 7 4.5 7.6 1.3.7-3.2-7.4-4.4-7.4-4.4s-2-5-.2-8c2-3 6.7 4 6.8 1.2.2-2.8-6.5-4-5.8-6.8a58 58 0 012.9-7.3s7.8 1.6 7.4 4.4c-.4 2.8-2 6.3.3 5.6 2.4-.8 3.4-6.2 3.4-6.2s3.8 1.8 4.5 4.3c.7 2.5-8.2 9.4-4 9.7 4 .2 6-6.7 6-6.7s2.5 5.7 2.3 10.4c-.1 4.8-8.2 13.9-8.2 13.9z" fill="#8CCC00"/><path d="M63.5 92l-3.3 3 .3-3.5c0-.7-.9-.9-1-.3l-.4 4.9a129 129 0 00-8.4 8.4c-.3-2-.4-4-.4-6 0-.7-1-.7-1 0 0 2.3.1 4.6.5 7l-4.7 6c-1.8-2.3-3-5-3.7-7.8-.1-.7-1-.4-1 .3a20.5 20.5 0 004.1 8.4c-4.2 6.4-7 13.4-7 21.5 0 .7 1 .7 1 0 0-7.8 2.7-14.6 6.7-20.8 4.1 1 8.3 1.3 12.5.9.6-.1.6-1.1 0-1-4 .3-8 0-11.8-.8 2-2.9 4.2-5.7 6.7-8.3l7 .3c1.5.2 3 0 4.4-.6.5-.3 0-1.2-.5-.9-1.6.9-4 .5-5.6.5l-4.5-.2c3.5-3.7 7.2-7 10.8-10.3.5-.4-.3-1-.7-.6zM33.1 112.5a.5.5 0 00-1-.2c-1 3.7-3.1 7-6.1 9.4-1.2-3.1-2.4-6.3-3.4-9.4 2.3-2.5 4.2-5.4 5.6-8.5.3-.6-.6-1-.9-.5-1.3 2.9-3 5.5-5 7.9-1.2-3.7-2.3-7.4-3.2-11-.1-.7-1-.4-1 .2 1.3 5.1 2.7 10.1 4.4 15-1.8-.2-3.7-.8-5.5-1.5-.6-.3-1 .6-.4.8 2 1 4.2 1.5 6.4 1.8 1.2 3.3 2.4 6.5 3.8 9.7-3 0-6-.6-8.7-1.7-.6-.2-1.1.7-.5 1 3 1.1 6.3 1.7 9.6 1.7 1.8 4 3.7 7.8 5.7 11.6.3.6 1.1 0 .9-.5a156 156 0 01-7.4-15.6c3.3-2.6 5.7-6.1 6.7-10.2zM51.6 124.9l-2.6 4.7-.9-1.4c-.3-.6-1.1 0-.9.5l1.3 1.8-2.9 5a2 2 0 01-.6-1.1c-.1-.7-1.1-.6-1 0 .1.8.5 1.5 1.1 2l-3.5 6.3a.5.5 0 00.9.5l4.6-8.4c.9 0 1.7-.1 2.5-.4.6-.2.3-1.2-.3-1-.5.2-1 .3-1.6.3l4.7-8.5a.5.5 0 00-.8-.3z" fill="#06577A"/><path d="M219.7 155.7l-.3-13.3c-.2-2.4-.5-12.9-6.9-16.4-8-4.6-17.3-10.4-26.2-8.2-7.2 1.7-10.7 26.3-10.7 27.9 0 3 21.4 19.5 44.1 10z" fill="#F5B008"/><path d="M190.7 103.9c-1.3-1.4-2.1-3-2.5-4.9-.9-3.3 1-8 4.6-8.4 3.6-.3 4.6 1.6 4.6 1.6s13.5-1.8 15.1 8.8c.3 3 1.4 13.7-7.4 15.7s-5.1-10.3-5.1-10.3" fill="#4B1B13"/><path d="M190.5 101.5l-.4 9.5c-.2 2.6.6 10 5 10 4.5 0 9.3-5 9.4-6.2 0 0 4.6-2.6 2.1-4.9-2.4-2.2-2.8 1.4-2.8 1.4s-1.3-2-1.1-7.4c-4.2.3-8.4-.5-12.2-2.4z" fill="#FFAC73"/><path d="M204 122c-2.4 2-6 2.2-9.4 1.6-.6 0-1-.5-1-1l-.1-3.1 12-5.3-1.3 7.5-.2.3z" fill="#FFAC73"/><path d="M195.8 123.7c-.4 0-.9 0-1.3-.2a1 1 0 01-1-1V121c2.5.1 7-.3 9.5-4.8a10 10 0 01-7.2 7.6z" fill="#E5894A"/><path d="M205.2 119.6a75.3 75.3 0 01-7.5 3.6c-1.3.4-3.5 1-4.2-.7v-.9-1c-.6-.3-1-.7-1.4-1.2v-.1s-3.5 8.7-3 9c.4.5 4.2-1.5 4.2-1.5s1.4 3.4 2 3.7c.6.3 9-6.4 10.2-8.4l-.3-2.5z" fill="#D4DEE8"/><path d="M190 128a5.4 5.4 0 00-.1 3.7s1.5.8 1.8.7c1-.9 2-1.9 2.8-3l-1.4-2.8-3 1.4z" fill="#F47A63"/><path d="M189.9 131.8s-6.3 20.8-6 21c.3.2 5 2.8 6.6 3l1.1-23.4" fill="#F47A63"/><path d="M191.5 112.3c-1.5 0-2.6-1.6-2.5-3.5 0-1.9 1.3-3.4 2.7-3.3 1.5 0 2.5 1.6 2.5 3.5-.1 1.9-1.3 3.3-2.7 3.3zm.1-6.3c-1 0-2 1.2-2.1 2.8 0 1.6.8 3 2 3s2.1-1.2 2.2-2.8c0-1.6-.8-3-2-3zM198 114.1h-.1c-.8 0-1.5-.4-2-1.1-.5-.7-.8-1.6-.7-2.4 0-1.8 1.3-3.2 3-3.3.8 0 1.5.4 2 1a4 4 0 01-.2 4.9c-.5.5-1.2.9-2 .9zm0-6.3a2.7 2.7 0 00-2.3 2.8c0 .7.2 1.5.6 2.1a2 2 0 003.3.1c.5-.5.7-1.2.8-2 0-.7-.2-1.5-.6-2-.4-.6-1-1-1.6-1h-.1z" fill="#42210B"/><path fill="#42210B" d="M193.8 110l.2-1 1.7.3-.2 1zM200.6 110.6l3.7-.8.2 1-3.7.8z"/><path d="M195.3 67.4l-.3-12.6c-.1-2.2-.5-12.1-6.5-15.5-7.6-4.3-16.4-9.8-24.8-7.8-6.9 1.7-10.2 25-10.2 26.5 0 2.8 20.3 18.5 41.8 9.4z" fill="#2B415D"/><path d="M183.2 36.3s1 8.8-7.2 9.2c-5.8.2-4.3-4.4-4.3-4.4s-3 2.2-5.8.3c-3-2 2.2-8.7 4.5-9a18 18 0 0112.8 4z" fill="#F5B008"/><circle fill="#4B1B13" transform="rotate(-87.5 186 14.4)" cx="185.9" cy="14.4" r="6.5"/><path d="M167.2 19c-1-1.3-1.5-3-1.5-4.6-.1-.8 0-1.6.2-2.4.2-.8.8-1.4 1.6-1.8a8 8 0 001.6-1.3s17.1-2.5 18.7 7.5c.2 2.8-.4 11.1-8.1 14.3-7.8 3.2-3.8-9.2-3.8-9.2" fill="#4B1B13"/><path d="M170.7 33.3l10.3-4.5-1.2 7-.2.4c-1.9 1.6-4.8 2-7.6 1.6-.6 0-1-.5-1-1.1l-.3-3.4zM167 17.1a3.3 3.3 0 013.2-3.7c1-.1 2 0 2.6.9.6 1.2.7 2.5 1.7 3.6 1 1 2.6 1.3 4 .8 0 1-.2 1.9-1.6 2.2-1.4.3-9-1.5-10-3.8z" fill="#FFAC73"/><path d="M180.5 14.6c-4-1.6-7.8-2.7-12.1-2.3-.4 0-.7.4-.8.7-.2-1.7-.4-6 3.1-7.2 4.5-1.5 11.8 1 13.6 5 1 2 1.3 4.2 1.2 6.4-1.5-1.2-3.2-2-5-2.6z" fill="#4B1B13"/><path d="M170.9 35.2v1.5s6.8 0 8-5.4l-8 3.9z" fill="#E28E54"/><path d="M166.9 16.8l-.4 9c-.1 2.5 2.1 9.4 4.9 9.5 4.2.2 8.7-4.7 8.8-5.9 0 0 4.3-2.4 2-4.6-2.4-2.1-2.7 1.3-2.7 1.3s-1.2-2-1-7c-4 .3-8-.5-11.6-2.3z" fill="#FFAC73"/><path d="M158.8 63.3l-1-.8a76 76 0 012.6-15c.3-1 1.6-.5 1.3.4-1.4 5-2.3 10.3-2.6 15.5l-.3-.1zM184.5 70.1h-.6l.3-17.4a.7.7 0 011.4 0l-.3 17.3-.8.1z" fill="#17283A"/><path d="M181.2 31a10.3 10.3 0 01-2.8-5.6c-.3-3.3 4-1.6 4.6-.2.6 1.5.2 5.1-1.8 5.8z" fill="#4B1B13"/><path d="M263.3 107.4s-.2-10.4-.4-13c0-2.3-.4-12.5-6.6-16-8-4.4-17-10-25.6-8-7 1.7-10.4 25.6-10.4 27.3 0 2.9 20.9 19 43 9.7z" fill="#2B415D"/><path d="M248 79.3c0 .6-.7 1.4-1 1.8L240.6 93c-2.1 4-2.9 14.8-3.1 15.5 0 .1-7.8-3.2-7.9-3.1l-.4-6.1c.2-6.3-.1-9.5 1.2-14.3 1-3.4 2.6-5.7 3.5-9 .4-1.8 1-3.5 1.7-5 1-1.7 12.6 4.7 12.4 8.3z" fill="#F5B008"/><path d="M250.2 110.3h-.6l.6-13a.7.7 0 111.4 0 554 554 0 01-.6 13h-.8zM227 103.9l-.2-.1-.3-.2-.5-.3-.3-.2c.2-5.2.6-10.3 1-15.4.2-1 1.6-.9 1.5 0A287.2 287.2 0 00227 104z" fill="#17283A"/><path d="M235.7 70.9s-2 10.4-1.2 11.6l3.7-2.7 2 4.6 9.3-7.4-13.8-6.1z" fill="#2B415D"/><path d="M234.8 54.7l-.4 9.2c-.2 2.5.6 9.8 5 9.7 4.3 0 9-4.8 9-6 0 0 4.5-2.5 2-4.7-2.3-2.2-2.7 1.3-2.7 1.3s-1.2-2-1-7.2c-4.2.3-8.3-.5-12-2.3z" fill="#FFAC73"/><path d="M248 74.6c-2.4 2-6 2.1-9.3 1.5a1 1 0 01-1-1v-3l11.6-5.1-1.2 7.2-.2.4z" fill="#FFAC73"/><path d="M240 76.3l-1.3-.2a1 1 0 01-1-1v-1.6c2.5.1 6.8-.3 9.3-4.6a9.8 9.8 0 01-7 7.4z" fill="#E5894A"/><path d="M262.8 74.7C259 70 257.4 61 257.4 61c-.7-9.9-7.6-13.1-13.6-13.7-6.1-.6-10.8 1.5-11.3 5.6-.4 2.2.4 4.5 2.2 5.9 0 0 10.1 3.4 10.9 2.2.7-1.3 1-7.1 1.4.6l-.2 7.7c-.2 3 0 6.2.3 9.3.3 2.3.6 4.9 2.7 6.2 3.6 2.1 8 2.2 11.6.4 1 5.7 1.6 11.5 1.8 17.4 0 0 7.2-.2 8.4-10.7 1.3-10.5-5-12.7-8.8-17.3zM153.6 113.5s-.2-10.7-.4-13.3c0-2.4-.4-12.9-6.8-16.4-8-4.6-17.4-10.4-26.3-8.2-7.2 1.7-10.7 26.3-10.7 27.9 0 3 21.5 19.5 44.2 10zM124.6 61.7c-1.3-1.4-2.2-3-2.6-4.9-.9-3.3 1-8 4.6-8.4 3.7-.3 4.7 1.6 4.7 1.6s13.5-1.8 15 8.8c.3 3 1.5 13.7-7.3 15.6-8.8 2-5.2-10.2-5.2-10.2" fill="#4B1B13"/><path d="M124.3 59.3l-.4 9.5c-.1 2.6.7 10 5.1 10 4.5 0 9.3-5 9.3-6.2 0 0 4.6-2.6 2.2-4.9-2.4-2.2-2.8 1.4-2.8 1.4s-1.3-2-1.1-7.4c-4.3.3-8.5-.5-12.3-2.4z" fill="#FFAC73"/><path d="M137.8 79.8c-2.4 2-6 2.2-9.4 1.5-.6 0-1-.4-1-1l-.1-3 12-5.3-1.3 7.4-.2.4z" fill="#FFAC73"/><path d="M129.7 81.5c-.5 0-1 0-1.4-.2a1 1 0 01-1-1v-1.6c2.5.1 7-.3 9.5-4.8a10 10 0 01-7.1 7.6z" fill="#E5894A"/><path d="M139 77.4a75.3 75.3 0 01-7.4 3.6c-1.3.4-3.5 1-4.2-.7v-.9-1c-.6-.3-1.1-.7-1.5-1.2V77s-3.5 8.7-3 9.2c.4.4 4.2-1.6 4.2-1.6s1.5 3.3 2 3.7c.7.3 9-6.5 10.3-8.5l-.4-2.4z" fill="#D4DEE8"/><path d="M124 85.8a5.4 5.4 0 00-.2 3.8s1.5.7 1.8.6c1-.9 2-1.9 2.7-3l-1.4-2.8-3 1.4z" fill="#F47A63"/><path d="M123.8 89.5s-6.4 21-6 21.1c.3.2 5 2.8 6.6 3l1.1-23.4" fill="#F47A63"/><path d="M125.4 70.1h-.1c-1.4 0-2.5-1.6-2.4-3.5 0-1.9 1.3-3.4 2.7-3.3 1.4 0 2.5 1.6 2.4 3.5 0 1.9-1.2 3.3-2.6 3.3zm.1-6.3c-1.1 0-2 1.3-2.1 2.8-.1 1.6.8 3 2 3 1.1 0 2-1.2 2.2-2.8 0-1.6-.8-3-2-3h-.1zM131.9 71.9h-.1c-.8 0-1.6-.4-2-1.1-.5-.7-.8-1.6-.7-2.4-.1-1.8 1.2-3.2 3-3.3.8 0 1.5.4 2 1a4 4 0 01-.2 4.9c-.5.5-1.3.9-2 .9zm0-6.3a2.7 2.7 0 00-2.3 2.8c0 .7.2 1.5.6 2.1a2 2 0 003.3.1c.4-.5.7-1.2.8-2 0-.7-.2-1.5-.7-2-.3-.6-.9-1-1.5-1h-.1z" fill="#42210B"/><path fill="#42210B" d="M127.7 67.8l.2-1 1.6.3-.1 1zM134.5 68.4l3.7-.8.2 1-3.7.8z"/><path d="M285 189.1l-.3-12.5c-.1-2.3-.5-12.2-6.5-15.6-7.6-4.3-16.4-9.8-24.8-7.8-6.9 1.7-10.2 25-10.2 26.5 0 2.8 20.3 18.5 41.8 9.4z" fill="#2B415D"/><path d="M272.9 158s1 8.8-7.2 9.2c-5.8.2-4.3-4.4-4.3-4.4s-3 2.1-5.9.2c-2.9-1.9 2.3-8.6 4.6-9 2.2-.3 7.6 0 12.8 4z" fill="#F5B008"/><circle fill="#4B1B13" transform="rotate(-87.5 275.6 136.1)" cx="275.6" cy="136.1" r="6.5"/><path d="M256.8 140.8c-1-1.4-1.5-3-1.5-4.7 0-.8 0-1.6.2-2.4.3-.8.9-1.4 1.7-1.8a8 8 0 001.5-1.3s17.2-2.5 18.7 7.5c.3 2.8-.3 11.2-8 14.3-7.8 3.2-3.8-9.2-3.8-9.2" fill="#4B1B13"/><path d="M260.4 155l10.3-4.5-1.1 7-.3.3c-1.9 1.6-4.7 2-7.5 1.7-.6 0-1.1-.6-1.2-1.2l-.3-3.3zM256.6 138.9a3.3 3.3 0 013.3-3.8c1-.1 2 0 2.5.9.7 1.2.8 2.5 1.8 3.6 1 1 2.6 1.3 4 .8 0 1-.3 1.9-1.6 2.2-1.4.3-9-1.5-10-3.7z" fill="#FFAC73"/><path d="M270.2 136.3c-4-1.6-7.8-2.6-12.2-2.2-.3 0-.7.3-.7.7-.2-1.8-.5-6.1 3.1-7.3 4.5-1.5 11.7 1 13.6 5 1 2 1.3 4.2 1.1 6.4-1.5-1.1-3.1-2-5-2.6z" fill="#4B1B13"/><path d="M260.5 156.9l.1 1.5s6.8 0 8-5.4l-8 3.9z" fill="#E28E54"/><path d="M256.6 138.6l-.4 9c-.1 2.4 2.1 9.3 4.8 9.4 4.3.2 8.8-4.7 8.8-5.8 0 0 4.4-2.5 2-4.6-2.3-2.2-2.6 1.3-2.6 1.3s-1.2-2-1.1-7c-4 .2-8-.6-11.5-2.3z" fill="#FFAC73"/><path d="M248.5 185l-1-.8a76 76 0 012.6-15c.3-.9 1.6-.5 1.3.4-1.4 5-2.3 10.3-2.7 15.5l-.2-.1zM274.2 191.8h-.6l.3-17.4a.7.7 0 011.3 0l-.2 17.4h-.8z" fill="#17283A"/><path d="M270.9 152.7a10.3 10.3 0 01-2.8-5.6c-.4-3.2 4-1.6 4.6-.1.6 1.4.2 5-1.8 5.7z" fill="#4B1B13"/><ellipse fill="#FFD3C0" transform="rotate(-20 298.5 54.7)" cx="298.5" cy="54.7" rx="18.1" ry="25.2"/><path fill="#FFD3C0" d="M281.6 61l-2.9 17.8 14.8-9.7"/><path d="M288.4 43.9l18.8 10.7a1.5 1.5 0 101.5-2.6l-18.8-10.7a1.5 1.5 0 00-1.5 2.6zM287.5 51.1L306.4 62a1.5 1.5 0 001.5-2.6L289 48.5a1.5 1.5 0 00-1.5 2.6zM285.3 57.9l18.9 10.7a1.5 1.5 0 001.5-2.6l-18.8-10.7a1.5 1.5 0 00-1.6 2.6z" fill="#FFF"/></g><g transform="translate(216 9)"><path d="M20.3 191L196 290.6c6 3.4 13.4 3.4 19.3 0L436 165.7c2.5-1.4 4-4 4-6.9 0-2.8-1.7-5.4-4.3-6.7L244.5 53 20.4 179.9a6.4 6.4 0 00-3.4 5.6c0 2.3 1.3 4.4 3.3 5.6z" fill="#AFD32F" fill-rule="nonzero"/><g fill-rule="nonzero"><path d="M246.7 7.5c-7.5 4.7-26.5 15.5-33 19.4-1.5.9-1.7 2.2-1.7 4v79.3c.8 1 2.2 1.1 3.3.5l31.9-17.8c1.6-1 2.8-1.9 2.8-3.7L249.7 9c0-1.7-1.5-2.3-3-1.4zM172.3 9.4l33 19.3c1 .6 1.7 1.6 1.7 2.8v79c.1 1.7-1.7 3.2-3.2 2.3L171 94.4A3.7 3.7 0 01169 91V11.3c0-.8.4-1.6 1.1-2 .7-.3 1.6-.3 2.2 0z" fill="#F5B008"/><path d="M246.3 73.7l-28.2 16.9c-3.8 2.2-7.3-3.9-3.4-6.2l28.2-16.8c3.8-2.3 7.3 3.8 3.4 6z" fill="#F2F2F2"/><path d="M246.3 77.7l-28.2 16.9c-3.8 2.2-7.3-3.9-3.4-6.2l28.2-16.8c3.8-2.3 7.3 3.8 3.4 6z" fill="#F2F2F2"/><path d="M246.3 81.4l-15 8.2c-4 2.2-7.5-3.7-3.6-5.8l15-8.2c4-2.3 7.5 3.6 3.6 5.8z" fill="#F2F2F2"/><path d="M248.5 33.8c-.2-.3-.1-.7 0-1 .3-.5.8-.7 1.4-.6v-.5a1.4 1.4 0 01.8-.9c-.5-.5-1-1-1.3-1.7-.4-.6-.8-1.6 0-2 .8-.3 1.4.9 1.8 1.4l2.2 2.5c.7-.3 1.6-.1 2.1.4a35 35 0 013.4 3.4v1.1a13.7 13.7 0 01-.5 2c0 .3-.4.5-.7.4v.5c-.1.2-.3.3-.5.3l-5.3-.7c-1.4-.3-3-.6-3.4-2V36l-.5-.8c0-.5 0-1 .5-1.4z" fill="#F7931E"/><path d="M250.3 32.6a9 9 0 012 .8c.4-.8.8-1.6 1.5-2.3.2-.2.6.2.3.4-.6.7-1.6 2-1.5 3 0 1.2 1.2 1.3 2 .4l1-1.4c.1-.3.5 0 .4.2l-1 1.5a2 2 0 01-.9.8 2 2 0 01-1.8-.4c-.3-.5-.4-1.2-.2-1.7-.6-.4-1.3-.6-2-.8-.2-.2 0-.6.2-.5z" fill="#42210B"/><path d="M251.6 35.3l-.8-.4-.7-.4v-.3-.1c.5.1 1 .4 1.4.6.3.2.5.6.5 1.1 0 .3-.1.6-.3.7.2.3.2.6.2.9 0 .3-.1.6-.3.7l-.1-.2v-.3c.3-.1 0-.6 0-.8v-.1c-.5 0-1-.1-1.3-.4l-.1-.2.1-.2.9.2h.3c.3 0 .4-.5.2-.8z" fill="#42210B"/><path d="M289 43s5.9.7 7.9 7.8c2.3 8.2.8 10.1-1.8 12.3" fill="#C3EA75"/><path d="M12.2 148L37 130.2 25.6 122 0 139.6a90.3 90.3 0 0012.2 8.4z" fill="url(#p)" transform="matrix(-1 0 0 1 311 7)"/><path d="M40.6 165L68 145.9 43 140l-20 13.6c6 3.6 11.6 7.8 17.6 11.4z" fill="url(#q)" transform="matrix(-1 0 0 1 311 7)"/><path d="M290 129c.4 2 .4 3.9.2 5.8l-.2 1.3 5-.9v-6.1h-5z" fill="#F7931E"/><path d="M295 134l-2.4 1.4c-1 0-3 .2-2.4-1.1-.7 1-1.6 2-2.6 3-1.2.9-7.7 4-5 5.6 2 1.2 12-3.7 12.2-5 .2-1.2.2-2.5.2-3.8z" fill="#56403D"/><path d="M282 124c.4 2 .4 3.9.2 5.8l-.2 1.3 5-.8V124h-5z" fill="#F7931E"/><path d="M286 130l-2.4 1.4c-1 0-3 .2-2.4-1-.7 1-1.6 2-2.6 2.9-1.2 1-7.7 4-5 5.6 2 1.2 12-3.7 12.2-5 .2-1.2.2-2.5.2-3.8z" fill="#56403D"/><path d="M277.4 66s-1.6 42.3 1.5 60c0 0 .7 2 8.1.8l.5 3.7s5.2 1.6 10.2-.7c0 0 2-41-4.2-64.7" fill="#311E69"/><path d="M258 40.5l2-7.4s10.8 11.4 23.9 9.7c1.8.1 3.8.2 5.6.5 1 .2 1.8.5 2.6 1 2.6 3.5 3.5 8 3.8 12.2l.1 7.2c0 1.5 0 3-.3 4.5 0 .4-.2.7-.5.9-1 .5-2 .8-3 1-4.6 0-10.1 0-13.7-3l-.6-1 .6-13.1s-14.8-4.5-20.5-12.5z" fill="#C3EA75"/><path d="M281.6 36s-2 7 1.3 8.6c3.3 1.5 5.7-.8 6.6-3 1-2 .7-7-3.6-7.5-3.7-.4-4.3 1.8-4.3 1.8z" fill="#F7931E"/><path d="M281.6 34.4c-.4-.9-.5-2.5.5-3 .8-.3 1.7-.1 2.4.5.4-.3.8-.5 1.3-.6 1.7-.5 3.5-.1 4.8 1l.2.2h.3c2.6 0 3.2 3 2.8 5-.5 2-1.6 4-3.2 5.3-.7.6-1.5 1-2.3 1.3h-.2l-.1-.3a.2.2 0 010-.3l.2-1.4v-.2-.3h.2c.6 0 1.1-.2 1.5-.6.3-.3.5-.8 0-.9-.1 0-.3 0-.5.2l-.2.3h-.2c-.1.1-.4 0-.3-.2l.3-.4c.3-.5.2-1.2-.3-1.7-.6-.5-1.2-.2-1.9-.2a.9.9 0 01-1-.6c0-.3 0-.6.2-.9a1 1 0 00-.7-1c-.7-.3-1.2.3-1.8.7a2 2 0 01-1.6.3c-.4-.1-.8-.4-1-.9 0-.4 0-.9.3-1.2h.3zm4.5 1l-.4-.2V35h-.2c.2 0 .4.2.6.4zm-4.2-1.5l-.1-.2v.2z" fill="#935542"/><path d="M284.6 79.3a735.3 735.3 0 003.4 50.5c0 .3-.6.3-.6 0a741 741 0 01-3.4-50.5c0-.1.1-.2.3-.2.2 0 .3 0 .3.2z" fill="#FFF"/><path d="M252.2 51.1c1 .4 1.6 1.1 2.1 2 1.3 1.1 1.5 3.1 2.9 4.1l1.3 1-.1-1.8a82.5 82.5 0 011 4H259.7c0 .2.1.3.3.4 0 .4 0 .8-.4 1a1 1 0 01-1 .2l-4.2-2.2c-.5 0-1-.3-1.6-.5l-.1-1.3c-.7-1-.8-2.4-.3-3.6a3.3 3.3 0 01-1.4-2.2c0-.6.6-1.4 1.2-1z" fill="#F7931E"/><path d="M264.1 143.6v3.3s-8-2.6-9.6-1.4c-2.4 1.7 4.3 5.1 11.1 6.3 1.3.2 2.8.4 4 0 2-.5 1.2-3.1 1.2-4.5l.1-4.2" fill="#56403D"/><path d="M253.1 148.6v3.3s-8-2.6-9.6-1.4c-2.4 1.7 4.3 5.1 11.1 6.3 1.3.2 2.8.4 4 0 2-.5 1.2-3.1 1.2-4.5l.1-4.2" fill="#56403D"/><path d="M252.8 81s-7.6 51.4-6.7 63.2c0 0 2 8 19 5.3 0 0 1.4-6 .7-16-.6-10.1-2.4-52.4-2.4-52.4h-10.6z" fill="#FF6161"/><path d="M258 141.3l2.5-61.2 11.3-1s3.3 15.8 2.3 23.4c-1 7.6 1.1 17.7 1.6 23 .4 4.7.6 13-1 16.6-5.4 1.6-11.3 1-16.7-.8z" fill="#FF6161"/><path d="M257.4 54s-4.9 2.9-5.4 5.3c0 0 3.4 7 3.2 7.2-3.9 4.8 7.8-3 7.8-3s-2.4-6.6-5.6-9.4z" fill="#6DE2FC"/><path d="M246.7 57.4c-.4 3.2 3.8 7.8 5.6 8.7 2.4 1.2 3.3-8.9 14-8.8.7 0 4.1-1.5 6 3 1.8 4.6 0 17.5-1.3 19.8-1 2-8.1 6.8-18.3 1.7l-.1-4.7s-6-.1-9.1-4.5c-3-4.1-4.8-10.3-4.5-13.3 2.4-1 5.4-2.7 7.7-2z" fill="#6DE2FC"/><path d="M257.4 54s-4.9 2.9-5.4 5.3c0 0 3.4 7 3.2 7.2-3.9 4.8 7.8-3 7.8-3s-2.4-6.6-5.6-9.4z" fill="#8787D1"/><path d="M166.5 149.8c0 .2 3.2 7.6 3.9 8 .7.5 2.9-1 3.6-.2.8.9 1.7 2.6 0 3.3-1.6.8-6.5 1.4-7.4 1-.9-.4-1.7-1-2.5-1.6 0 0-.4-4-1-3.5-.5.6-.3 4.8-.6 5-.5 0-1 0-1.5-.2l.5-12.5M152 143.6c0 .2 3.5 7.6 4.3 8 .7.5 2.9-1 3.7-.3.7.8 1.8 2.6.1 3.4-1.6.8-6.6 1.6-7.5 1.3-.9-.5-1.7-1-2.5-1.7 0 0-.6-4-1.1-3.4-.5.6-.2 5-.5 5l-1.5-.1V143" fill="#311E69"/><path d="M164.9 85s9.9 51.4 9 63.2c0 0-2 8-19 5.3 0 0-1.4-6-.7-16 .6-10.1 2.4-52.4 2.4-52.4h8.3z" fill="#614CD4"/><path d="M163 145.3L160.5 84l-10.1-1s-4.5 15.8-3.5 23.5c1 7.6-1.1 17.7-1.6 23-.4 4.7-.6 13 1 16.6 5.4 1.6 11.3 1 16.7-.8z" fill="#614CD4"/><path d="M153 149.5a139.5 139.5 0 01-1.3-17.4c.1-2 .3-4 .6-5.9.4-3.5.6-7 .4-10.6l-.9-10.8c-.3-4-.4-8.2.3-12.2 0-.5-.5-.8-.6-.2-1.2 7.2 0 14.5.5 21.7.3 3.8.2 7.6-.2 11.3l-.6 5.4c-.2 2-.2 4-.1 6 .2 4.3.7 8.7 1.3 13 0 .5.7.3.6-.3z" fill="#FFF"/><path d="M182.3 43.2l.7-.1c1.6-.3 3-1.5 3.7-3.3.7-2 1-4.1.5-6.2-.8-4.8-4-8-7.2-7.5-1.6.3-3 1.5-3.7 3.4-.8 2-1 4-.5 6.1.3 2.1 1.2 4 2.6 5.6 1 1.2 2.4 1.9 3.9 2zm-1.6-15.7c2.2 0 4.4 2.8 5 6.4.4 1.7.3 3.6-.4 5.3-.5 1.4-1.5 2.3-2.5 2.4-1.1.2-2.3-.3-3.3-1.4-1.2-1.3-2-3-2.3-4.8-.3-1.8-.2-3.7.5-5.4.5-1.3 1.5-2.2 2.5-2.4h.5z" opacity=".8" fill="#F2F2F2"/><path d="M154 57.9c1-.5 16.8-19.2 17.5-18.8.8.3 5 6.3 2.9 9.6-2.2 3.3-16.7 18.4-16.7 18.4" fill="#F25555"/><path fill="#124577" d="M176.5 71.8l-3.5-1.5 3-18.2 10 4.6-1.2 8.6-1.4 8.8-7-2.3 1.2-1.4M251.4 41L239 44l2.1 18 11.9-4"/><path d="M238.1 52c0-.3.3-.5.5-.7h.9c0-.3.2-.5.4-.7a1 1 0 011.2 0l.2.2h.1a1 1 0 011.2-.4l.3.3.4-1.8c.2-.6.5-1.7 1.2-1.8.4-.1.7.2.7.6.2.3.2.6 0 1v1.1l-.2 1.7.2.1c.7.5 1 1.4.7 2.3a18 18 0 01-1.3 3.4l-.2.2h-.3v.2c0 .1-.2.3-.4.3a.4.4 0 01-.4-.4h-.1v.5c0 .4-.7.4-.8 0v.4c0 .4-.8.4-.8 0V58l-.3-.1-.3.1c-.1.1-.3.1-.4 0v.2c0 .2-.3.4-.5.3v.1c0 .6-.8.6-.8.1a59.5 59.5 0 010-3.2c-.9-.9-1.6-2.3-1.2-3.5zm4.2-.8h-.2v.1h.3z" fill="#F7931E"/><path d="M158.9 58c1 .4 5.2.4 6.5 4.5 1 3.1 1.8 6.2 2.4 9.4l10-6s.7 9.3-.6 11.6c-1.2 2.4-7 7.6-11.8 4.6 0 0 .5 3.6 0 4.7-.4 1.2-11.5 2.5-14-1-2.6-3.5-.8-20-.8-20" fill="#FF6161"/><path d="M261.2 45s-.7 6 .8 7.3c1.5 1.3 5.5.8 6.5-.7 1-1.4 2.1-3.3 1-5.5-1-2.2-8.1-2.7-8.3-1.2z" fill="#F7931E"/><path d="M263.2 48.3l.1-.5a4 4 0 012-.7c.7-.1 1.4.1 1.6.6.5 1-2 1.3-3.2 1.4-.4 0-.7-.2-.7-.5 0-.1 0-.2.2-.3z" fill="#FFE8E6"/><path d="M239.4 52.1c.5.6.7 1.2.5 1.8l-.2.2c-.2 0-.3-.1-.3-.2.2-.6 0-1.1-.4-1.6l.1-.2h.3zM242.4 51.1c.4.6.6 1.2.6 1.8 0 .2-.5.2-.5 0 0-.5-.1-1-.5-1.5-.1-.3.3-.5.4-.3z" fill="#42210B"/><path d="M242.5 51.1c.4.6.6 1.2.5 1.8 0 .3-.6.2-.5 0 0-.6 0-1.1-.5-1.6-.1-.2.3-.4.5-.2z" fill="#42210B"/><path d="M267 145.5a139.4 139.4 0 001.3-17.4c-.1-2-.3-4-.6-5.9-.4-3.5-.6-7-.4-10.6l.9-10.8c.3-4 .4-8.2-.3-12.2 0-.5.5-.8.6-.2 1.2 7.2 0 14.5-.5 21.7-.3 3.8-.2 7.6.2 11.3l.6 5.4c.2 2 .2 4 .1 6a130 130 0 01-1.3 13c0 .5-.7.3-.6-.3z" fill="#FFF"/><path d="M177.3 69.7l-.3-3.8 1-.9.9-1.1.6-1.3.3-.5c.3-.7.5-1.7 1.3-2h.8c.3.2.5.5.5.8.1 1.1-1.8 3.5.5 3.5h1.2c.9.1 1.6.6 1.3 1.5 0 .2 0 .3-.2.4.3.1.6.4.7.7v.9c-.1.3-.4.6-.7.7.2.3.2.8 0 1-.2.4-.5.5-.8.6v.5c-.3.8-1.3 1-2 1.2-1.6.2-3.2.2-4.7 0l-.4-2.2zM181.2 37.8c1 1 .9 2.3.6 3.6l-.3.1a20.7 20.7 0 01-4.3 2.4c-.7.2-1.3.6-1.9 1.2-.3-1.3-.8-2.4-1.3-3.6 2.3-2.2 4.3-3.7 6.2-6.3.2-.3.6-1.2 1-1.1.3 0 .6.2.7.5.1 1.2-.8 2-1.4 3l.7.2z" fill="#F7931E"/><path d="M180.1 38.4c-.3-.2.1-.4.5-.3l.7.5c.3.2.5.4.6.7v.2c.1 0 .1 0 0 .1.1.1 0 .3 0 .4-.4.2-.8 0-1-.2l-.7-.7c0-.2-.2-.5 0-.7h-.1z" fill="#F7931E"/><path d="M175 44.7c.6-.6 1.3-1 2-1.2 1-.2 2-.2 2.4-1.4.3-.7 0-1.3.4-2l.4-.4.2-.2.2-.5c0-.1 0-.3-.2-.4a.5.5 0 00-.4 0c-.2 0-.4.2-.5.3l-.9.7c-.2.2-.5-.1-.3-.3.5-.5 1.7-1.7 2.5-1 .2 0 .3.3.3.6l.7 1.1.2 1c0 .4-.4.7-.8.7v.3c-.2.5-.8.8-1.3.7l-.2-.1c-.1.3-.3.5-.6.7-.5.3-1 .5-1.6.6a4 4 0 00-2 1c-.2.2-.3.2-.4.1a.2.2 0 010-.3zm6.1-3.4c.3 0 .4-.5.4-.6 0-.2-.1-.5-.3-.7l-.3-.6-.4.6.6 1.3zm-1.1 1c.6 0 .8-.5.6-1l-.4-.9v.1c-.4.6-.2 1.3-.4 1.8h.2z" fill="#42210B"/><path d="M164.6 45.5c.7.4.7 10.9-2.5 12.2-4.3 1.7-7.7-2.9-8-5.4-.5-2.5 2.2-11.7 10.5-6.8z" fill="#F7931E"/><path d="M143.8 62.1c.6-.3 1-.8 1.4-1.3.2-.6.3-1.3.2-2 .1-1.7.6-3.4 2.2-4.4 1-.5 2.4 0 3.3-1 1-1 .6-2.4.8-3.7.7-6.4 10.6-7.6 13.7-2.3 1.1 1.7.6 4-1.1 5a4 4 0 01-1.6.6c-.8.2-1.6.1-2 1-.5 1.3.5 2.6 1 3.7.7 1.8 1 4.3-.9 5.6-.9.5-1.8.8-2.9 1-.4.1-.8.3-1 .6-.6.6-.3 1.4-.2 2v1c.2.7 0 1.4-.5 2-1 1.2-3 1.2-4.6 1.1-1.8 0-3.6-.5-5.3-1.2-1.4-.6-3.2-1.6-4-3-.8-1.8.2-3.5 1.5-4.7z" fill="#42210B"/><path d="M246.7 57.4c-.4 3.2 3.8 7.8 5.6 8.7 2.4 1.2 3.3-8.9 14-8.8.7 0 4.1-1.5 6 3 1.8 4.6 0 17.5-1.3 19.8-1 2-8.1 6.8-18.3 1.7l-.1-4.7s-6-.1-9.1-4.5c-3-4.1-4.8-10.3-4.5-13.3 2.4-1 5.4-2.7 7.7-2z" fill="#8787D1"/><path d="M247.4 75.8c6 1.9 12.5 0 16-4.6.2-.3.8 0 .5.3a15.5 15.5 0 01-16.7 4.8.3.3 0 01.2-.5zM255 63.7a9 9 0 012.2-3c1-1 2.3-1.6 3.4-2.6.2-.2.5.1.3.3-1 .9-2.2 1.5-3.2 2.4-1 .8-1.8 2-2.3 3.1-.1.3-.5 0-.4-.2z" fill="#FFF"/><path d="M261 44.7l2.3 1.1-2.2 8c-.5 1.7 1.5 4 8.2 4.3 6.7.1 6.3-9.7 4.8-13.4-1.6-3.7-6.2-5.4-10-4.4-2 .4-3.4 2.4-3 4.4z" fill="#B24D16"/><path d="M275 52c-.5-.3-.7-.8-.6-1.3.1-.8 1.5-.4 1.5-.4S276 49 277 49s4.5 1.9 4.5 1.9v-1.4c0-.2.2-.3.5-.2 1 .2 1 1.4 1.1 2v.8c-.2.2-.4.5-.2.7l2.1.8-.2.4a21.4 21.4 0 00-2.5 3l-1.7-.6s-6-.8-6.2-1.5a2 2 0 010-1.2l-.3-.8c-.4-.8 1-1 1-1z" fill="#F7931E"/><path d="M281 50.8c-1.7-.4-3.3-1-4.8-1.7-.2-.1-.3.1-.1.2 1.5.7 3 1.3 4.7 1.8.2 0 .3-.2.1-.3zM280.9 52.7c-2-.3-3.9-.9-5.7-1.6h-.2v.2c2 .8 3.8 1.4 5.8 1.8.2 0 .3-.3 0-.4zM279.9 53.8a33.7 33.7 0 01-4.9-.7v.2l4.9.8c.1 0 .2-.2 0-.3z" fill="#42210B"/><path d="M280.5 58l-.5-.3a29 29 0 014.5-5.6c.2-.2.7.2.4.4a28.3 28.3 0 00-4.4 5.6zM287.4 52.1l4.9 4.1c-.1-1.2-.3-2.4-.6-3.5 0-.2 0-.3.2-.4.2 0 .3 0 .4.2.3 1.4.4 2.8.5 4.2l1 .8c.4.2 0 .7-.2.5a149 149 0 01-6.5-5.3c-.3-.3 0-.8.3-.6zM281 58s6.4 8.7 14 5.2l-.1 2.9s-9.6.2-13.9-8z" fill="#311E69"/><path d="M160.6 70.3c0 2 .3 4 1 6a7.2 7.2 0 003.3 4.2c.3.2 0 .7-.3.5A7.6 7.6 0 01161 77c-.7-2.1-1-4.3-1.1-6.6 0-.1.1-.2.3-.2.2 0 .3 0 .3.2z" fill="#124577" opacity=".7"/><path d="M245 21.7V28c0 .6-.3 1.2-.9 1.5l-22.3 12.4c-.5.3-1.2.3-1.7 0-.6-.2-1-.8-1-1.4l-.1-6c0-.7.3-1.3.9-1.6l22.5-12.5c.5-.3 1.2-.3 1.7 0 .6.3.9.8.9 1.4z" fill="#FFF" opacity=".6"/><path d="M235.8 68.5a11 11 0 002.8-5.7c.4-2 .2-4.2-.6-6.2s-2.2-3.1-3.8-3.4c-3.4-.6-6.8 2.8-7.7 7.5-.4 2.1-.2 4.3.6 6.3.8 1.9 2.2 3 3.9 3.4h.7c1.6 0 3.1-.8 4.1-2zm-2-13.9c1.2.2 2.2 1.1 2.8 2.5.7 1.7.9 3.6.5 5.4a9.6 9.6 0 01-2.4 5c-1.1 1-2.3 1.6-3.5 1.4-1.1-.2-2-1.1-2.7-2.5a9.4 9.4 0 01-.5-5.4c.7-3.6 3.1-6.4 5.4-6.4h.5z" opacity=".8" fill="#F2F2F2"/><path fill="#FFF" opacity=".6" d="M201 37.2V103l-7-4.6V33.1z"/><path d="M169.2 10.3l10.4 6v2.1c0 .4.2.8.5 1l8 4.5c.2.2.5.2.7 0 .2 0 .3-.3.3-.6v-1.6l15 8.7c.2.1.4.4.4.8v79c0 .2-.1.5-.3.6h-.7l-34.5-20c-.1 1.3.5 2.6 1.5 3.2 1.8 1.2 33.3 18.9 33.3 18.9s2.5 1 3.2-1.9V31.5c0-1-.5-2-1.3-2.6-1.5-1-33.4-19.6-33.4-19.6a2.3 2.3 0 00-3 1zM248.7 8.4l-10.3 5.8v2.2c0 .4-.2.8-.5 1l-8 4.5h-.7a.7.7 0 01-.4-.6v-1.6L214 28.4a1 1 0 00-.4.8v79c0 .2.1.5.3.6h.7l34.5-20c.1 1.3-.5 2.6-1.5 3.2-1.8 1.2-33.3 18.9-33.3 18.9s-2.5 1-3.2-1.9V29.5c0-1 .5-2 1.3-2.6 1.5-1 33.6-19.6 33.6-19.6s2.2-1 2.8 1z" fill="#124577"/></g><path d="M307 101s.5 21.5 8.5 22c8 .6 8.5-22 8.5-22" fill="#6DE2FC" fill-rule="nonzero"/><path d="M307 101s.5 21.5 8.5 22c8 .6 8.5-22 8.5-22" fill="#F5B008" fill-rule="nonzero"/><ellipse fill="#311E69" fill-rule="nonzero" cx="315.5" cy="101.1" rx="8.5" ry="4"/><path d="M314 103.3c-1.5-9-4.2-17.6-8-26-.2-.6-1.2 0-1 .6 3.8 8.3 6.4 16.9 7.8 25.7.2.8 1.3.5 1.2-.3zM319 105c-.7-11.1-1.9-22.3-3.6-33.4-.1-.7-1.5-.7-1.4 0a384 384 0 013.6 33.4h1.4z" fill="#311E69" fill-rule="nonzero"/><path d="M302.6 74.3a5.4 5.4 0 00-4 .4c-1 .4-3 1.8-2.6 3.2.4 1.5 2.8 1.2 3.7 1a5.6 5.6 0 003.2-3.6v-.6c0-.2-.1-.4-.3-.4zM306 74.1c-.3-1.3-.4-3-1.5-4-1-.9-2.4-1.4-3.6-.8-1.3.6-1 2.1-.3 3 1 1.3 2.7 1.8 4.1 2.7h.5c.2 0 .3-.1.4-.3.3 0 .4-.3.4-.6zm-2-2.6c-.2-.4-.6-.7-1-1v-.2c.4.3.8.7 1 1.2zM308.5 71.2c-1.2-1-1.5 2.8-1.5 4 0 .3.1.6.3.7.1.2.4.2.5 0 .5-.7 1-1.3 1.1-2.3.2-.8.2-2-.4-2.4zM315.7 64.9c-.4-1.2-1.9-2.2-3.5-1.7-1.5.6-1.3 2.3-1 3.5.3 1.1 1.1 3.2 2.8 3.4l1.3-.3c.8-1.6 1-3.3.4-5zm-1.4 3.1v-.5c.1.2.1.5 0 .8V68zM319.3 70.2c-1.3.4-2.7 1-3.3 2.4l.1.7c0 1.3 2.7.6 3.4.5 1.1-.3 2.5-.9 2.5-2.3 0-1.6-1.6-1.6-2.7-1.3zm1.5 1.7v-.3l.1-.2v.5zM312.9 70.6c-.6-.9-2.8-3.7-3.7-2-.4.7-.2 1.7.3 2.3.7.6 1.5 1 2.4 1.1.3.1.6 0 .7-.5.2 0 .3-.2.4-.4l-.1-.5zm-2.5-.8l.6.5h-.1l-.5-.5z" fill="#C3EA75" fill-rule="nonzero"/><path fill="url(#r)" fill-rule="nonzero" opacity=".3" d="M44.4 116L12 124.7 39.6 142 73 131.5l3.1-13-23.6-5.5" transform="translate(46 47)"/><path fill="#6A9546" fill-rule="nonzero" d="M88 75l3-28v25.4"/><path d="M84 53c10.2 6.1 6.6 27 5.4 32.7l-.3 1.4" fill="#6A9546" fill-rule="nonzero"/><path d="M72 58.3L88 72l-.4-10.5s1.2-8.6-7.6-9.5c-8.8-.8-8 6.2-8 6.2z" fill="#6A9546" fill-rule="nonzero"/><path d="M92.2 172.8c-2.8-.3-5.4-1.9-7.2-4.2 4.8-31.6 1.5-92 1.5-92l4-.5c8 23.7 10.1 83.7 10.5 95.7-2.5 1.4-6 1.5-8.8 1z" fill="#D8876A" fill-rule="nonzero"/><path d="M110.6 53c13-.5 21.4 14 21.4 14L89.8 83 88 72.6M91 70s6.7-16.4 20-17" fill="#85B23B" fill-rule="nonzero"/><path d="M135.6 79.8H131l-3-5.6L129 80l-12.6.6-3.8.2a16 16 0 00-1.8-4.8c-.2-.3 0 2.5.1 5-7.4.4-14.8 1.5-22 3.2l.7-2.2s2.8-13 25.4-18c22.7-5.1 36.9 16.4 36.9 16.4h-.4c-5.3-.8-10.7-.6-16-.5zM83 54c-12.1-7-16 7-16 7" fill="#6A9546" fill-rule="nonzero"/><path d="M89.7 83.3s3.1-11-12-22C62.8 50.3 46 60 46 60l10.4 8.4 7.6-3.1-4.2 5.5 8.8 6s5.7-3.9 7.6-5c.4-.2-4 7-4 7l17 8.2.5-3.8z" fill="#85B23B" fill-rule="nonzero"/><path d="M78.8 86.2l-.5-5-1.4 5.5A212 212 0 0064 90.5l-1.2-4.3-.3 4.9-6.9 2.3-.8-5.3-.9 6c-2.7 1-5.4 2.4-7.9 4-.8-11.5 10.7-25.2 23.2-26.9C82 69.5 89 83.2 89 83.2l-3.3 1.5-6.9 1.5z" fill="#6A9546" fill-rule="nonzero"/><path d="M113.9 89.7l.7-2.5-1.2 2.3c-3-1-6.3-2-9.5-2.7l.2-3.2-1.2 3c-4.6-1.1-9.2-1.9-13.9-2.4.9-1.4 4.7-6.3 14.4-8 10.5-1.8 19.4 9.8 19.6 16.9l-1.3-.2a83 83 0 00-7.8-3.2z" fill="#85B23B" fill-rule="nonzero"/><path d="M99.8 158.1c2.7 3-.1 5.4 0 10.2l.3 1.2a19 19 0 008.6 3.6c0-3.7 6.6-6.5 6.3-10.8-.3-4.5-6.5-2-4.2-7 2.2-5 1.4-11.4-2.2-13.8a34 34 0 01-7-7.4v1.6c.2 2.9-1 6.1-2.5 8.5-1.5 2.1-3.5 4-4.6 6.3-.2.2-.3.5-.3.7-1 4 3.3 4.3 5.6 6.9z" fill="#CEC300" fill-rule="nonzero"/><path d="M103.2 149.2c.6 2.5 2.6 4.5 3.6 6.9 1.2 2.9-.1 5.7-.6 8.6-.6 3 .7 5.7 2.2 8.2l.6.2c-.8-1.3-1.5-2.6-2-4a8.8 8.8 0 01-.3-4.8c.6-2.6 1.6-5.2.7-7.9-.9-2.4-2.8-4.3-3.6-6.9-1-3 .9-6 .3-9-.4-1.5-1-3-2-4.3v-.1l-.1.8c.7 1 1.2 2.2 1.5 3.4.8 3-1 5.9-.3 8.9z" fill="#2E6300" fill-rule="nonzero"/><path d="M127.7 153c2.8-1.2 5.7-5.4 3.6-7.8-2-2.5-1.5-6.1-1.5-6.1-.5 1.1-1.4 2-2.5 2.5-5.8 2-6.3 5.5-6.4 8-.2 2.7 3 8.3-6.3 11.3-8.7 2.8-2.6 12.8-1.7 14.2 1.9 0 3.7-.1 5.6-.3 2-1.1 4-2 6.2-2.8 5.6-2.1 3.5-7 1-10-2.4-2.8-.8-7.9 2-9z" fill="#CFE217" fill-rule="nonzero"/><path d="M129.6 140.2c-1.4 2.1-1.6 4.7-2.3 7.1-.8 2.7-2.4 4.7-3.7 7-.7 1.1-1.1 2.3-1.4 3.5l-.4 4c0 1.6-.5 3-1.2 4.4-.7 1.2-1.5 2.3-2.5 3.4a15.4 15.4 0 00-3.1 5.5h.5c.6-2 1.7-3.8 3.1-5.4 1.5-2 3-4 3.5-6.5.4-2.8.2-5.6 1.5-8.1 1.1-2.2 2.8-4 3.6-6.4 1-2.8 1.1-5.8 2.7-8.3.2-.3-.1-.5-.3-.2z" fill="#2E6300" fill-rule="nonzero"/><path d="M112.4 175c-1-3.8-.2-8 2.3-11 2.7-3.6 4.4-6.9 2.5-10.6a15.6 15.6 0 01-1.7-7.3c-2.7 5.7-5.5 7.7-4.9 10.9.6 3-.1 4.5-2 9.3-1.4 3.5 0 6.8.9 8.5l3 .3z" fill="#9ABC0C" fill-rule="nonzero"/><path d="M111 175h.5c-1.1-3.2-1.6-6.7.1-10 .8-1.7 2-3.2 2.8-5 .8-1.7 1-3.7.7-5.7a19 19 0 01.9-8c0-.2-.3-.4-.4 0-.8 2.1-1.1 4.4-1 6.8 0 1.2.3 2.4.2 3.7 0 1-.3 2.2-.8 3.2-.9 1.8-2.1 3.4-3 5.2-.9 2-1.2 4-.9 6.2.2 1.2.5 2.5 1 3.7z" fill="#2E6300" fill-rule="nonzero"/><path fill="url(#s)" fill-rule="nonzero" opacity=".3" d="M21 149.2L40.6 163 84 148.5l1-5.2-12.3-4.3z" transform="translate(46 47)"/><path d="M101 102.9s.6-2.7 7-4.6c6.4-1.9 8 7.8 8 7.8M98.1 106s-4.3 14-.6 19.2c1.8 2.5 13.5 2.9 13.5 2.9" fill="#18272A" fill-rule="nonzero"/><path d="M123 79s-1-3.6-.9-5.4c.1-1.8-.5-5.8.4-6 1 0 1.7 3 1.9 3.5.1.5 1.9-1.6 2.6-2.8.7-1.2 3.5-1.8 4-.6.4 1.2-2.4 6.8-3 8.2l-1.6 4a4 4 0 01-3.4-.9zM93.8 85.6s.4-3.5 0-5.2c-.4-1.7-.4-5.4-1.4-5.3-1 0-1.2 3-1.2 3.4-.1.5-2.2-1-3.1-2-1-1-3.8-1-4 .1-.3 1.2 3.4 5.8 4.2 7l2.3 3.5c1.2 0 2.4-.6 3.2-1.5z" fill="#5C2E2E" fill-rule="nonzero"/><path d="M121.5 74c2.5 2.2 3.2 2.7 6.5 3.3-1.2 5.8-3.2 29.2-7 37.8l-5-15.2 5.5-25.8z" fill="#F7931E" fill-rule="nonzero"/><path d="M120.7 125s3.6 18.5 3.3 28.7c-.3 10.1-.5 22.5-1.3 28 0 0-7 1-9.4-1 0 0-.6-35.6-.7-35.4-1 4.7-6 28.6-6.6 30.2-.5 1.6-3.1 14.2-3.1 14.2-3.4.8-7 .2-9.9-1.6 0 0 .8-18.2 2.5-23.3 1.7-5.1 7.2-37.2 10-39.7" fill="#181816" fill-rule="nonzero" opacity=".7"/><path d="M94.5 185c.8 0 1.9 1 2.6 1.3l2 1s1.4 5.3 2.1 7.2c.8 1.9 3.6 6 2.6 7.6-1.4 2-4 2.5-6 1.3-2.5-1.5-2.4-6.3-3.3-8.2-.8-1.6-.4-4.9-.4-5.6 0-1.5 0-3 .4-4.5zM116.3 176c.9 0 2 1 2.9 1.3l2.1 1s.8 5.5 2.3 6.9c1.5 1.4 7.3 4.4 6.3 5.9a4.8 4.8 0 01-6.3 1.3c-2.7-1.4-4.5-4.2-6.5-5-1.6-.6-1-4.7-1-6-.2-1.8-.1-3.6.2-5.3z" fill="#181816" fill-rule="nonzero"/><path d="M120.7 125s3.6 18.5 3.3 28.7c-.3 10.1-.5 22.5-1.3 28 0 0-7 1-9.4-1 0 0-.6-35.6-.7-35.4-1 4.7-6 28.6-6.6 30.2-.5 1.6-3.1 14.2-3.1 14.2-3.4.8-7 .2-9.9-1.6 0 0 .8-18.2 2.5-23.3 1.7-5.1 7.2-37.2 10-39.7" fill="#F5B008" fill-rule="nonzero"/><path d="M105.4 125.9s-6.3-17.2-3.8-21.2c2.6-4 12.8-7 17.7-6.6 5 .4 1.7 27.6 1 27.8-.7.2-8 4.8-15 0z" fill="#A55900" fill-rule="nonzero"/><path d="M116 100.3s5.1 9.3 5.3 14.8l.7-5s-2.5-10-5.9-12l-.1 2.2zM107.9 100s3.8 13-4.9 17.7l.6 2.4c4-1.8 6.7-5.8 7.1-10.3.8-7.7-.2-11.1-1.1-10.7l-1.7 1z" fill="#18272A" fill-rule="nonzero"/><path d="M109.4 95.7c1 1.4 3.2.8 4.6.4 1.7-.4 3.7-1.5 3.5-3.8 0-.3.5-.3.5 0 .1 2.3-1.8 3.7-3.6 4.2-1.6.5-4 1.1-5.4-.4-.1-.2.2-.6.4-.4z" fill="#009245" fill-rule="nonzero"/><path d="M118 92.1s0 10.2-3.7 10.9c-4 .7-6.3-4-6.3-4s-.5-9 3.5-9.8c4-.8 6.4 1.6 6.5 3z" fill="#FBB5AD" fill-rule="nonzero"/><path d="M115.3 98.6h.2c0-.8-.2-1.5-.3-2.3-.1-.3.4-.3.4 0l.4 2.4-.1.2-.7.2c-.3 0-.3-.5 0-.5z" fill="#56403D" fill-rule="nonzero"/><path d="M114.3 98.1c.2.6 1 .8 1.5.6.2 0 .3.2.1.3-.7.2-1.5 0-1.9-.7 0-.2.2-.3.3-.2zM114.5 97.2a.3.3 0 110 .7.3.3 0 010-.7zM117.5 96.2a.3.3 0 110 .7.3.3 0 010-.7z" fill="#56403D" fill-rule="nonzero"/><path d="M111 97.4s-.9-4.5-1.8-3c-1 1.4 1.5 4.7 1.5 4.7" fill="#FBB5AD" fill-rule="nonzero"/><path d="M110 88s-3.7.5-4.8 3.4c-1 3 1.7 8.8 3.7 9.7l-2.4-5.2.1-3.4L110 88z" fill="#5C2E2E" fill-rule="nonzero"/><path d="M106 91.6c.3-2.1 1.7-3.1 3.6-4.2l.4-.3a3 3 0 01-.8-1v-.3l.2-.1c.5 0 1 .2 1.3.6.2-.5.5-.8.8-1.2h.3l.2.2v1.2c1.8-.4 3.8 0 5.5.9.6.3 1.1.8 1.5 1.4.6 0 1 0 1.5.3 1 .4 1.6 1.5 1.5 2.6-.3 1.3-1.7 1.7-2.8 1.5-.6-.1-1.1-.4-1.6-.7.3.5.5 1.3-.6 1.5-2 .5-2.9-.7-3 .3 0 .8-1.2 1.2-2 1.2l-.3.9c-.4-.1-.9-.2-1.3 0a.3.3 0 00-.4 0c-.7 1.1-.6 2.3-.3 3.7-1-1-2-2-2.5-3.2a9.3 9.3 0 01-1.2-5.3zm5.6-5.6h-.1v.2l-.1.2.2-.4z" fill="#5C2E2E" fill-rule="nonzero"/><path d="M110 111v-3l9.3-2 .7 3c-3.2 1.2-6.6 1.5-10 2zM121 120s-4.7 3.6-17 2.8l1 2s8.2 1.5 15.8-2.4l.2-2.3z" fill="#18272A" fill-rule="nonzero"/><path d="M95.3 82l9.7 20.7-1.7 14.4L89 84.7c2.1-.7 4.2-1.6 6.3-2.6z" fill="#F7931E" fill-rule="nonzero"/><path d="M104 201.5c0 1.3-.1 2.6-.3 3.8-.3.4-.6 1.8-4.6 1.8-4.1 0-5-5.6-5-5.6s.3-3.9 0-4.4c-.2-.5 0-5 0-5M130 191v3.2s-.8 2.3-4.5 1.8a8.4 8.4 0 01-5.8-4c-1.1-1-2.2-1.8-3.4-2.6-.5-.3-.2-5.3-.2-5.3" fill="#181816" fill-rule="nonzero"/><path d="M117 87.6c-.3 0-3.5-5.3-8.9-2.9-7 3.2-3 9.4-3 9.4" fill="#1B3EA8" fill-rule="nonzero"/><path d="M118 89.6s-5.2 0-7.6 1.6c-2.3 1.7-4.4 5.3-5.2 4.8a3 3 0 01-1.2-2.6c.2-.5 2.3-4.3 8.4-6 6-1.5 5.6 2.2 5.6 2.2z" fill="#4239EA" fill-rule="nonzero"/><g fill-rule="nonzero"><path d="M185.7 132.5s-.5-2.6-7-4.5c-6.4-1.8-8 7.6-8 7.6M188.3 136.1s4.2 14 .6 19.4c-1.8 2.5-13.1 2.9-13.1 2.9" fill="#18272A"/><path d="M164 108.3s1-3.4 1-5.1c-.2-1.7.5-5.5-.5-5.6-1 0-1.8 2.8-2 3.3-.1.4-2-1.5-2.8-2.6-.7-1.2-3.7-1.8-4.3-.6-.5 1 2.5 6.3 3.2 7.7a185 185 0 011.7 3.8c1.3.2 2.6-.1 3.7-1zM192.8 115.2s-.4-3.5 0-5.2c.5-1.7.5-5.4 1.5-5.4 1 .1 1.3 3 1.4 3.5 0 .5 2.3-1 3.2-2 1-1 4-1.1 4.3 0 .3 1.3-3.6 6-4.5 7.2l-2.5 3.4c-1.2 0-2.5-.5-3.4-1.5z" fill="#5C2E2E"/><path d="M165.7 104a10.6 10.6 0 01-6.6 3.2c1.2 5.7 3.2 28.6 7 37l5-14.9-5.4-25.2z" fill="#F7931E"/><path d="M166 154.6s-3.6 18.6-3.3 28.8c.4 10.2.5 22.7 1.4 28.2 0 0 7 1 9.5-1l.7-35.6c1.1 4.7 6.2 28.8 6.8 30.4.5 1.5 3.1 14.2 3.1 14.2 3.5.8 7 .2 10.1-1.6 0 0-.9-18.3-2.6-23.4-1.7-5.2-7.3-37.4-10.1-40" fill="#181816" opacity=".7"/><path d="M192 215.2c-.8 0-2 .9-2.8 1.2l-2.2 1s-1.4 5-2.2 7c-.8 1.8-3.7 5.8-2.7 7.3 1.5 2 4.2 2.5 6.3 1.2 2.7-1.4 2.6-6 3.6-7.9.8-1.5.4-4.7.4-5.4 0-1.5 0-3-.4-4.4zM170 206c-1 0-2.1 1-3 1.3l-2 1s-.8 5.5-2.3 6.9c-1.5 1.4-7.2 4.3-6.2 5.8 1.4 2 4.1 2.6 6.2 1.4 2.7-1.4 4.5-4.3 6.4-5 1.6-.6 1-4.7 1-6 .2-1.8.1-3.6-.2-5.3z" fill="#181816"/><path d="M166 154.6s-3.6 18.6-3.3 28.8c.4 10.2.5 22.7 1.4 28.2 0 0 7 1 9.5-1l.7-35.6c1.1 4.7 6.2 28.8 6.8 30.4.5 1.5 3.1 14.2 3.1 14.2 3.5.8 7 .2 10.1-1.6 0 0-.9-18.3-2.6-23.4-1.7-5.2-7.3-37.4-10.1-40" fill="#F5B008"/><path d="M181.5 156.1s6.2-17.3 3.7-21.3-12.7-7.1-17.6-6.7c-4.9.4-1.7 27.8-1 28 .8.2 8 5 14.9 0z" fill="#F7931E"/><path d="M170.7 130.4s-5.3 9.6-5.5 15.2l-.7-5.1s2.6-10.4 6.1-12.5l.1 2.4zM178.8 130.4s-4.1 12.9 5.2 17.5l-.6 2.3a12.6 12.6 0 01-7.7-10.2c-.7-7.6.3-11 1.3-10.6l1.8 1z" fill="#18272A"/><path d="M177.5 125.4c-1.1 1.2-3.3.7-4.8.4-1.7-.4-3.7-1.4-3.6-3.4 0-.3-.5-.3-.5 0-.1 2 1.9 3.3 3.7 3.7 1.7.4 4.2 1 5.6-.4.1-.2-.2-.5-.4-.3z" fill="#009245"/><path d="M168.2 121.1s0 10.2 3.9 10.8c4.2.8 6.7-3.9 6.7-3.9s.5-9-3.7-9.7c-4.3-.8-6.8 1.5-7 2.8z" fill="#FBB5AD"/><path d="M171.4 128h-.3l.5-3c0-.2-.5-.3-.6 0l-.4 3 .1.3.8.2c.4 0 .3-.5 0-.5zM173.2 128.2c-.3.7-1.2 1-2 .8-.2-.1-.3.2 0 .3.9.4 2 0 2.4-1 0-.1-.3-.3-.4-.1zM172.8 126.7a.3.3 0 10.2.4.3.3 0 00-.2-.4zM169.3 126a.3.3 0 10.3.3c0-.2-.1-.3-.3-.3z" fill="#56403D"/><path d="M175.7 127s1-3.9 2.2-2.6c1.2 1.3-1.8 4-1.8 4" fill="#FBB5AD"/><path d="M176.8 117s3.8.4 5 3.3c1 2.9-1.8 8.6-3.9 9.5l2.5-5-.1-3.4-3.5-4.4z" fill="#5C2E2E"/><path d="M181.7 121.6c-.4-2-1.8-3-3.6-4l-.5-.3c.4-.3.7-.6.9-1a.3.3 0 00-.2-.4c-.5 0-1 .2-1.3.6a4 4 0 00-.9-1.2.3.3 0 00-.4.2c-.2.4-.2.8 0 1.2-1.9-.4-3.9 0-5.6.8-.6.4-1.1.9-1.5 1.4-.5 0-1 0-1.5.3-1 .4-1.6 1.5-1.5 2.6.3 1.2 1.7 1.6 2.8 1.4.6-.1 1.2-.4 1.6-.7-.3.5-.5 1.2.6 1.5 2 .4 3-.7 3 .2.1.8 1.2 1.2 2 1.2l.4.9c.4-.2.8-.2 1.2-.1a.3.3 0 01.5 0c.7 1.1.5 2.4.3 3.6 1-.8 1.9-1.9 2.5-3a8.8 8.8 0 001.2-5.2zM176 116v.2l.2.3a1 1 0 01-.2-.5z" fill="#5C2E2E"/><path d="M177 140.4v-2.6l-10.3-1.7-.8 2.6c3.6 1 7.3 1.2 11 1.7zM165.5 149.3s4.8 3.1 17.4 2.4l-1 1.7s-8.4 1.4-16.2-2l-.2-2z" fill="#18272A"/><path d="M191.8 111.6l-10 20.6 1.8 14.4 14.6-32.3c-2.2-.7-4.3-1.6-6.4-2.7z" fill="#F7931E"/><path d="M181.9 230.8c0 1.2.1 2.5.3 3.7.3.4.6 1.7 5 1.7 4.3 0 5.3-5.4 5.3-5.4s-.3-3.8 0-4.3 0-5 0-5M156.4 220.6v3s.8 2.2 4.5 1.7a8.3 8.3 0 005.7-3.7c1-1 2.2-1.8 3.4-2.5.4-.3.2-5.1.2-5.1" fill="#181816"/><path d="M170 117.8c.3 0 3.4-5.2 8.6-2.8 6.8 3.1 2.9 9.3 2.9 9.3" fill="#A81B29"/><path d="M168.1 119s5.3 0 7.7 1.8c2.3 1.8 4.4 5.6 5.2 5.1.8-.7 1.3-1.7 1.2-2.8-.1-.5-2.3-4.6-8.4-6.3-6.2-1.7-5.7 2.2-5.7 2.2z" fill="#EA3943"/><path fill="url(#t)" opacity=".3" d="M32.1 123.3L0 131.8 27.4 149l33-10.4 3-12.8-23.3-5.5" transform="translate(129 97)"/></g><g transform="translate(199 117)" fill-rule="nonzero"><path fill="url(#u)" d="M60 114.2L41.3 104 15 105.7l-4.4 2.9L0 116l26 14z"/><path d="M95.6 121L166 89.4 103 82l-41 22.2c4 2 29.7 14.7 33.6 16.8z" fill="url(#v)" opacity=".7"/><ellipse fill="#F5B008" cx="124.5" cy="54" rx="48.5" ry="20"/><path d="M75.5 52S61 99.6 122.2 102.9c61 3.2 51.2-48.6 51.2-48.6" fill="#F5B008"/><ellipse fill="#000" opacity=".6" cx="124.5" cy="54" rx="48.5" ry="20"/><path d="M122 59s-3.3-16.9-11-22c-7.7-5.2-6.5.4-13-4.5-6.4-5-13.1-4.3-16.5-.3-3.4 4-.5 6.5 3 8.5 3.4 2 6.6-.6 6 5-.6 5.8-3.2 7.5 2.9 9.6 6 2 11.2-3.3 12.5 1.2 1.3 4.5 2.4 6.9 4.8 6.5 2.5-.5 11.3-4 11.3-4z" fill="#78DD7A"/><path d="M119 62.5c-1-4.8-4.2-8.6-7.8-11.9.2-3.9-.2-7.8-1-11.6-.2-.6-1-.3-.9.2.8 3.5 1.2 7.1 1.1 10.7l-3.7-3.2-1.2-1.2a149.4 149.4 0 00-3.6-3l.1-.4c-.4-2.7-1.6-5.1-3.3-7.2-.4-.4-1 .2-.6.6 1.5 1.8 2.6 4 3 6.4-3.8-3.2-8-5.8-12.5-7.9-.5-.2-.9.5-.4.7A62.4 62.4 0 01103.6 45c-2.8-.5-5.6-1-8.4-1.7-.5-.2-.7.6-.2.8 3.2.7 6.5 1.4 9.8 1.9l.9.8 4.8 4.2v.1l.1.3c.1.1.3.1.4 0l2.8 3c-2-.8-4-1.4-6-1.8-.5-.2-.7.6-.2.8 2.2.5 4.5 1.2 6.6 2.1h.4a18 18 0 013.6 7.3c.1.4.9.2.8-.3z" fill="#2F7F2F"/><path d="M170.6 30l-6.4 7.4s-3 11.3-3.9 13c-.6 1.3-.1 15.4 0 18.6l4.8-2.4h.2s.8-4 1.6-11.1c.8-7 5.5-7 7.6-15 2.2-8-3.6-10.3-3.9-10.5z" fill="#870E02"/><path d="M143.3 52.6c.5-1.6 1.4-3 2.6-4.2 1-.8 1.8-1.7 2.6-2.6.7-.9.7-2 0-3-.7-.8-2-1-3-.5h-.1a53.1 53.1 0 00-4.4 14.9c.4 1 1 2 1.8 2.8-.4-2.5-.2-5 .5-7.4z" fill="#B31700"/><path d="M160 27.5c-2.3.4-4.4 1.3-6.3 2.7l2.1-.8c2.4-1 5-1.3 7.5-1 3.9.4 7.5 2.8 6 7.2-1.7 5-7 6.9-10.3 10.6a17 17 0 00-2.9 17.3c.2.5-.5.7-.8.2-3-8-.1-16 6.4-21 2.1-1.6 4.2-3 5.7-5.2a7.5 7.5 0 001.5-4c0-1.9-1.5-3.2-3.2-3.8-2.5-.9-5.2-1-7.7-.2-2.4.6-5.7 1.6-7.2 3.8-.1.2-.4.2-.6 0l-.8 1a20 20 0 0110-1.2c4.4.9 3.6 5.4 1.6 8.2a14 14 0 01-4.5 4c-2.1 1.2-4.6 2.3-6 4.5-2.6 4.5-1.5 10.6.8 15 2.6 1.3 5.3 2.3 8 3.2-1.8-6-1.7-17.3 4.5-20.7 2-3 5.7-5 8.3-8.1 3.5-4.2 3.6-14.6-12.1-11.7z" fill="#B31700"/><path d="M153 46.8l4.7-2.8c2.2-1.6 4.7-4.5 4.2-7.5-.6-4.3-8.7-2-12.6-.6l-1 1.8c1.8-.7 3.7-1 5.4 0 1 .5 1.6 1.4 1.8 2.5a4 4 0 01-.4 3c-1.8 3.1-5.1 4.7-6.6 8-.9 1.8-1.3 3.8-1.4 5.9-.2 1.6-.1 3.2.2 4.7 1 .8 2.3 1.6 3.5 2.2-2.4-5.6-3-13.4 2.2-17.2z" fill="#B31700"/><path d="M144.9 57c.2-2.4 1-4.8 2.5-6.8 1.7-2.3 4.4-3.7 6-6 1.7-2.6-.3-5.1-3.3-5.2-1.3 0-2.7.3-3.9.9l-1 1.8c1.2-.4 2.5 0 3.2.8 1.2 1.4.6 3.1-.3 4.4-.9 1-2 1.8-2.8 2.9-1 1.2-1.7 2.7-2 4.2-.4 2.3-.4 4.6 0 6.8l1.4 1.2c-.1-1.7 0-3.3.2-5zM161 67.7l.3-3.7 1.3-13c0-.7.2-1.4.4-2-1.9 1.8-3 4.6-3.5 7.1-.9 4-.6 8 .7 11.9l.8-.3z" fill="#B31700"/><path d="M150.6 34c1.6-2.2 4.9-3.2 7.3-3.8 2.7-.7 5.5-.6 8 .2 1.8.6 3.4 2 3.3 3.8a7.1 7.1 0 01-1.6 3.8c-1.5 2.1-3.7 3.6-5.8 5.1-6.7 5-9.7 12.8-6.6 20.6.2.5 1 .3.9-.2a16 16 0 013-17c3.3-3.6 8.7-5.5 10.5-10.3 1.6-4.3-2.1-6.7-6.1-7.1a18 18 0 00-7.8 1l-2.2.8c-1.3.9-2.5 2-3.5 3.2a.4.4 0 00.6-.2z" fill="#D36559"/><path d="M150.3 50c1.3-2.3 3.7-3.3 5.8-4.6 1.7-1 3.2-2.3 4.4-4 1.9-2.7 2.6-7.3-1.5-8.2a19 19 0 00-9.8 1.3l-.9 1.2c4-1.5 12.3-3.8 13 .6.4 3-2.2 6-4.4 7.6-1.5 1.1-3.2 1.9-4.8 3-5.3 3.8-4.8 11.8-2.3 17.5l1.1.6c-2.2-4.4-3.2-10.6-.6-15z" fill="#D36559"/><path d="M145.9 58.2c0-2 .6-4 1.4-6 1.6-3.3 5.2-4.9 7-8a3.9 3.9 0 00-1.4-5.5c-1.8-1-3.9-.8-5.8 0l-.6 1a9 9 0 013.9-.9c2.9.1 4.8 2.6 3.1 5.3-1.5 2.4-4.2 3.8-5.9 6.1a20.5 20.5 0 00-2.5 12l1 .8a17 17 0 01-.2-4.8z" fill="#D36559"/><path d="M144.1 54c.3-1.7 1-3.2 2-4.5.9-1 2-1.9 2.9-3 1-1.3 1.5-3.1.3-4.5-.8-.9-2-1.2-3.2-.9a37.2 37.2 0 00-.3 1c1-.6 2.2-.3 2.8.6.7.8.7 2 0 3-.7.9-1.6 1.8-2.5 2.6a11 11 0 00-2.4 4.2c-.7 2.4-.9 5-.5 7.5l1 1c-.5-2.3-.5-4.7 0-7zM158.8 68l.3-.1c-1.4-3.9-1.7-8-.8-12a14 14 0 013.7-7.1 8 8 0 011-1.8c-6.8 3.5-6.9 14.7-4.9 20.8l.7.2z" fill="#D36559"/><path d="M119.8 54.4c-.6-.1-3.8-22.7 9-24.3 12.7-1.7 12.2 24.3 12.2 24.3s-15.1 1.4-21.2 0z" fill="#B31700"/><path d="M120.8 55.4c-.6-.1-3.7-22.7 8.5-24.3 12.2-1.7 11.7 24.3 11.7 24.3s-14.4 1.4-20.2 0z" fill="#D36559"/><path d="M121.7 56.5c-.5-.1-3.3-19 7.7-20.4 11-1.4 10.6 20.4 10.6 20.4s-13 1.1-18.3 0z" fill="#B31700"/><path d="M123.6 57.5c-.4-.1-3-19 7.4-20.4 10.4-1.4 10 20.4 10 20.4s-12.4 1.1-17.4 0z" fill="#D36559"/><path d="M124.6 60.5c-.5 0-3-17.2 7-18.4 9.8-1.3 9.4 18.4 9.4 18.4s-11.7 1-16.4 0z" fill="#B31700"/><path d="M126.5 61.5c-.4 0-2.5-17.2 6.1-18.4 8.7-1.3 8.4 18.4 8.4 18.4s-10.3 1-14.5 0z" fill="#D36559"/><path d="M155.8 62.8c-2.8-1.7-5.5.3-5.5.3s-3.4-5.8-6.6-6c-3.3-.3-5.2 4-5.2 4S137.2 56 132 56c-5.2.1-6.8 7.9-6.8 7.9s-1.7 8.6 5.4 10.8a35 35 0 0015.5-2 165.7 165.7 0 0013.4-4.3l.5-.2s-1.3-3.7-4.2-5.4z" fill="#F6D42D"/><path d="M155 66.6a3 3 0 012.3 2.3l.7-.2a4.5 4.5 0 00-2.1-2.7c-1.8-.9-2.9 0-4.3 1.2-1.4 1-3.5 1.5-4.2-.8l-.4-1.7c0-1.4-1-2.6-2.2-3a3.4 3.4 0 00-3.7.8c-.7.7-1.3 1.6-1.7 2.5-1.3 3-4.3 3.2-5.3-.3-.5-1.8-1.4-5-3.3-5.6-1.8-.6-3.6 1-4.6 2.4-1.3 2-2 4.4-2.2 6.9 0 .5.8.5.8 0 .2-2.6 1-5.4 2.8-7.2.6-.7 1.5-1 2.4-1 1.4 0 1.6.5 2.2 1.7.5 1.2 1 2.5 1.3 3.8a3.4 3.4 0 002.8 2.5c1.4.2 2.7-.5 3.3-1.7.6-1 .8-2.1 1.6-3 1.7-1.9 4.4-1.4 5 1.1.4 1.5.3 3.2 1.7 4 1.2.8 2.7.3 3.8-.4 1-.8 1.8-1.9 3.4-1.6z" fill="#FF6A40"/><path d="M146 71.3l.3.5.7-.2c-1-1.8-.7-4.6-3.7-4.2-1.2.2-2.3 1-3 2.1l-1.6 2.2c-1.3 1.5-3.5 1.9-4.6-.1-1.1-2.2-.7-6.3-4-6.6-3.2-.2-4.5 4.5-5 7-.2.5.5.7.7.2.4-1.8 1.1-4.4 2.6-5.7 3.3-3 4 2.1 4.5 4 .5 1.7 1.6 3.7 3.7 3.5 2.8-.4 3.5-3.8 5.6-5.3 1-.8 2.5-.6 3.3.5.3.4.4 1.5.6 2z" fill="#FF6A40"/><path d="M129.4 73s6.8 9.3 1.7 11.7c-5.1 2.4-15.3 1.8-20.4-4.7-5-6.4 18.7-7 18.7-7z" fill="#000" opacity=".1"/><path d="M107.1 54.6s-8.2-4-11.6-8c-3.3-4-12.3-8.8-14.2-5.6-2 3.2-2.9 5-6.2 5.6-3.3.7-6.7 1.6-4.3 5.4 2.4 3.8 6 4.7 9.6 4.3 3.6-.4 5-.6 6.8 2.3 1.8 2.8 2.8 4.4 6.4 2.8 3.6-1.6 2.4-1.6 6.6-1.6 4.2 0 10.8-2 10.8-2l-3.9-3.2z" fill="#51BC51"/><path d="M109.8 57.2a109 109 0 00-11.5-4 41 41 0 00-2.7-4.2c-.3-.4-1 0-.7.4a41 41 0 012.3 3.5 116.3 116.3 0 00-8-2.2c-2.2-2.5-4.5-4.9-6.4-7.5-.3-.4-1 0-.7.4 1.8 2.5 4 4.8 6 7.1-4.9-.9-9.8-1.5-14.7-1.7-.5 0-.5.8 0 .8 4.4.2 8.8.7 13.2 1.5l-7 1.2c-.5 0-.3.8.2.7a105.1 105.1 0 008.7-1.5c2.7.5 5.3 1.1 8 1.8l-8.3 2.1c-.2.1-.4.3-.3.5 0 .3.3.4.5.3L98 54a107 107 0 0111.4 4c.5.1.9-.6.4-.8z" fill="#2F7F2F"/><path d="M109.7 58.4S102.2 54.2 98 57c-4.3 2.7-4.7 6.6-8.2 4.8-3.5-1.8-9.6-2.2-11 0-1.5 2.2-2.5 8-1.2 10.8 1.2 2.8 12.8 4.3 15 3 2.1-1.3 3.2-6.6 5.9-6.3 2.7.2 9.2-.4 12.3-1.7 3-1.2 6.2-10.6 6.2-10.6l-7.3 1.5z" fill="#78DD7A"/><path d="M109.5 60c-2.8.7-5.2 2-7.8 3.2l-.3.2v-.2-.3l-.4-.2c-2.7.3-5.5.2-8.3-.1-.5 0-.5.7 0 .8 2.6.3 5.2.4 7.7.2v.2c-2.6.8-5.3 1.2-8 1.2H92.1l-9.9-1.2c-.5 0-.7.7-.2.8l7.4 1c-1.1.3-2 .9-2.8 1.7l-.8.9-5.8.4c-.5 0-.5.9 0 .9l5-.4c-1.7 1.9-3.4 3.5-6.5 2.5-.5-.2-.7.6-.2.8a6 6 0 006.8-2l-.4 3c0 .6.7.8.8.3l.6-4.6 1-1.2c1.3-1.2 2.9-2 4.5-2l-1 6.2c0 .5.7.7.8.2l1-6.4c2.6 0 5.1-.3 7.6-1-.5 1.2-1 2.3-1.7 3.4-.1.2 0 .4.1.5.2.2.5.1.6 0l2-4.3c3-1.3 5.6-3 8.7-3.7.5-.1.3-.9-.2-.8z" fill="#2F7F2F"/><path d="M110.3 58.4s-6 7.8-1.9 10.8c4.1 3 6.7 1.1 4.4 4.8-2.2 3.6-5.2 4.7-1 7.1 4.1 2.4 21 3 21.2-1.3.3-4.3-7-2.5-4.4-6.2 2.6-3.8 2.4-9-.5-9.3-2.8-.3-5.5.4-4.7-2.8.9-3.2-5.8-7.5-5.8-7.5l-7.3 4.4z" fill="#51BC51"/><path d="M126.9 80.3c-2.3-1.7-5.5-3.5-6.8-6-.5-1-.7-2.2-.4-3.3L125 74c.5.2 1-.5.5-.7l-5.6-3c.3-1.4.6-2.7.1-4-.9-2.2-2.3-4-4.2-5.3l5.3.7c.6 0 .6-.8 0-.8l-6.6-.9a26 26 0 00-6-2.9c-.5-.1-.7.6-.2.8a21 21 0 017.7 4.5l-.1.2c-.2 2.4-.5 4.7-.9 7 0 .6.7.8.8.3l.9-6.9a12 12 0 012.1 2.7c.9 1.4.6 2.8.3 4.3l-.2.3V70.8c-.2 1.4 0 2.8.7 4v.2c-.5 1.6-1 3.2-1.8 4.8-.2.5.5.9.8.4.6-1.4 1.2-3 1.6-4.4 1.5 2 4.1 3.6 6.1 5.1.4.3 1-.3.6-.6z" fill="#2F7F2F"/><path d="M109.8 63.7s-13.1 5.2-14.5 9.6c-1.4 4.5 3 .2 4.2 5 1.2 4.6 6.7 7.7 10 4.2C112.6 79 115 61 115 61l-5.2 2.7z" fill="#3CAF3C"/><path d="M115.2 59.1a51.2 51.2 0 00-6 8.5.4.4 0 00-.4 0c-1.7 1-3.5 1.3-5.3 1.8-1.5.4-3 1-4.3 1.9-.2 0-.3.3-.1.5 0 .2.3.2.5.1a19 19 0 015.3-2c1.3-.3 2.6-.7 3.8-1.3-.9 1.7-1.7 3.4-2.4 5.2l-5 1.8c-.4.2-.2 1 .3.8l4.4-1.6-1.5 4.7c0 .2 0 .4.3.5.2 0 .5 0 .5-.3l1.3-4 1.4 2.6c.2.4 1 0 .7-.4l-1.7-3.3 2.2-4.9 1.6 4.2c.1.5 1 .3.8-.2l-1.8-5c1.7-3.1 3.8-6.2 6.2-9 .1-.4-.4-1-.8-.6z" fill="#2F7F2F"/><path d="M111.9 40.7c-.6-2-3.3-2-4.8-1.1a1 1 0 00-.5.5c-1.2 1-2 2.5-1.4 4.1.8 2 3 2.2 4.6 1.3 1.7-1 2.5-2.9 2-4.8zm-2 1.2a2 2 0 01-1.2 1.7c-.5.2-1.4.4-1.5-.3-.2-.8.5-1.3 1-1.6l.4-.4c.2 0 .5-.1.8 0 .4 0 .4.1.4.6zM122.9 65.7c-.6-2-3.3-2-4.8-1.1a1 1 0 00-.5.5c-1.2 1-2 2.5-1.4 4.1.8 2 3 2.2 4.6 1.3 1.7-1 2.5-2.9 2-4.8zm-2 1.2a2 2 0 01-1.2 1.7c-.5.2-1.4.4-1.5-.3-.2-.8.5-1.3 1-1.6l.4-.4c.2 0 .5-.1.8 0 .5 0 .5.1.4.6zM102.9 58.7c-.6-2-3.3-2-4.8-1.1a1 1 0 00-.5.5c-1.2 1-2 2.5-1.4 4.1.8 2 3 2.2 4.6 1.3 1.7-1 2.5-2.9 2-4.8zm-2 1.2a2 2 0 01-1.2 1.7c-.5.2-1.4.4-1.5-.3-.2-.8.5-1.3 1-1.6l.4-.4c.2 0 .5-.1.8 0 .5 0 .5.1.4.6zM126.9 56.7c-.6-2-3.3-2-4.8-1.1a1 1 0 00-.5.5c-1.2 1-2 2.5-1.4 4.1.8 2 3 2.2 4.6 1.3 1.7-1 2.5-2.9 2-4.8zm-2 1.2a2 2 0 01-1.2 1.7c-.5.2-1.4.4-1.5-.3-.2-.8.5-1.3 1-1.6l.4-.4c.2 0 .5-.1.8 0 .5 0 .5.1.4.6z" fill="#313115"/><circle fill="#F94B4B" cx="122.5" cy="50.5" r="5.5"/><path d="M122.5 45h-.5a8 8 0 012.7 7c-.3 1.6-1.1 3-2.4 4h.2a5.5 5.5 0 000-11z" fill="#D32929"/><circle fill="#F94B4B" cx="136.5" cy="55.5" r="5.5"/><path d="M136.5 50h-.5a8 8 0 012.7 7c-.3 1.6-1.1 3-2.4 4h.2a5.5 5.5 0 000-11z" fill="#D32929"/><circle fill="#F94B4B" cx="112.5" cy="58.5" r="5.5"/><path d="M112.5 53h-.5a8 8 0 012.7 7c-.3 1.6-1.1 3-2.4 4h.2a5.5 5.5 0 000-11z" fill="#D32929"/><path d="M173.4 54.3c0 11.1-21.7 20.2-48.5 20.2s-48.6-9-48.6-20.2c0-.8.1-1.6.4-2.3h-1.2S61 99.6 122.2 102.9c61 3.2 51.2-48.6 51.2-48.6z" fill="#F5B008"/><path d="M106.3 94.8a42 42 0 01-15.2-26.3c-3.8-.6-7.6-3-10.5-5.3A17.5 17.5 0 0174.4 52c-1 3.6-11.9 47.7 47.2 50.9 4.2.2 8.3.1 12.4-.2a45.4 45.4 0 01-27.7-8z" fill="#000" opacity=".1"/><path d="M45.1 19l7 17.6S58.5 47.8 55 49c-3.5 1.1-14-8.6-14-8.6L45.1 19z" fill="#F94B4B"/><path d="M61.7 110.5c-1.2-1-2.6-1.8-4-2.4-1.4-.7-5.6-5.6-6-6-.2-.6-1-2.9-1.7-3-.7-.2-2.4.7-2.4.7s-2.3-2.4-4.4-1.7c0 0-1.9 1-1.8 6.5l-.2.1a22 22 0 00-.2 2.6 7.2 7.2 0 003.1 2.8c1.7.9 5.3 4 7.6 4.5 2.3.7 6.9.4 8.4-.2 1-.3 1.7-1.2 1.8-2.2.2-.6 0-1.2-.2-1.7z" fill="#722F0E"/><path d="M48.9 99.6s-2.9-2.2-5-1.4c-2.2.8-1.9 5.6-1.9 5.6s0 2.7 3.4 4.3c3.5 1.6 2.9 3 7.4 4.3 4.4 1.3 9.2.3 10-1 .9-1.3-1.9-2.5-2-2.6-.3-.2-4.3-2.6-5.2-3.8-1-1.1-2.5-3.2-3.1-4.2-.6-1-.8-1.9-1.9-1.8-.6 0-1.2.2-1.7.6z" fill="#964C23"/><path d="M56.4 105.7l-1.8-.3.4-1-.5-.6-1.3-.1.4-.7v-.3l-.2-.2h-.2l-1.5-.2.5-.8c.2-.4-.3-.7-.5-.4l-.7 1c-1 0-1.9 0-2.8.2-.4.1-.2.8.2.7.7-.2 1.5-.3 2.3-.2-.3.5-.5 1-.6 1.6-.3.2 0 .7.3.5l1.7-.5-.4.9a4.1 4.1 0 00-.3.5c-.1 0-.2.2-.1.4 0 .2.2.2.3.2a10 10 0 012.2-.3 98 98 0 01-.5 1.8c.1.1.3.1.4 0a22 22 0 012.8-1.6h.4l.1-.2-.6-.4zm-5.6-1.6l.5-1.2 1.5.2-.4.7-1.6.3zm1.4 1.5l.3-.6.3-.6h1.5l-.4 1-1.6.2zm1.9 1.3l.3-.8h1l-1.3.8z" fill="#FFC019"/><path d="M42.4 48.5c1.5 1 5.3 18.2 7.5 27.2S52 99.2 52 99.2s-5.7 2.7-10.2 1.5L37 75.9 30 51.7s5.4-7.9 12.4-3.2z" fill="#42210B"/><path d="M30.9 115.4c-1-1.2-2.2-2.2-3.5-3.1a32 32 0 01-4.7-7c-.3-.5-.5-2.9-1.3-3.1-.7-.3-2.5.2-2.5.2s-1.9-2.8-4-2.4c0 0-2 .7-3 6h-.2l-.7 2.5a7.2 7.2 0 002.6 3.4c1.4 1.1 4.4 4.7 6.6 5.7 2.2 1 6.7 1.6 8.4 1.3 1-.1 1.9-.8 2.2-1.8.2-.6.3-1.2 0-1.7z" fill="#722F0E"/><path d="M19.4 101.4S17.1 98.6 15 99c-2.3.5-2.9 5.5-2.9 5.5s-.5 2.8 2.5 5c3 2.3 2.2 3.7 6.3 5.8 4 2.2 8.8 2 10 .9 1-1.2-1.5-3-1.6-3.1-.2-.2-3.6-3.4-4.3-4.8-.6-1.4-1.8-3.8-2.2-5-.4-1.1-.4-2-1.5-2.2-.6 0-1.2 0-1.8.3z" fill="#964C23"/><path d="M25.6 111.3l-1.7-.6.5-1-.3-.6a7 7 0 00-1.3-.3l.4-.6.1-.2-.1-.2-.2-.1-1.4-.5.6-.7c.3-.3-.2-.7-.4-.4l-.9.9c-.8-.3-1.7-.4-2.6-.4-.4 0-.4.7 0 .7.8 0 1.5 0 2.2.2l-.8 1.4c-.4.2-.2.7.2.6l1.7-.2-.5.7a4 4 0 00-.3.5c-.2 0-.3.2-.3.3 0 .2.2.3.3.3H23a45.8 45.8 0 01-.7 1.8h.3l3-1H25.8c.1 0 .2 0 .2-.2a2 2 0 01-.4-.4zm-5.2-2.5l.8-1.1 1.3.4-.5.6h-1.6zm1.2 1.7l.3-.6.4-.5c.5 0 1 .2 1.4.3l-.5.9-1.6-.1zM23 112l.4-.8c.4 0 .7.2 1 .3l-1.4.5z" fill="#FFC019"/><path d="M23.6 50s-4.3 27-6 32.3C16 87.5 12 102 12 102s4.3 3.2 9.3 2.9c0 0 12.1-22.2 12.8-29.3.8-7 3.9-23.4 3.9-23.4" fill="#42210B"/><path d="M38.5 10.1a.4.4 0 000 .8.4.4 0 000-.8z" fill="#1C5028"/><path d="M44.8 18.2c-.7-2-4-3.5-8-3.2-3.9.4-10.9 5.7-13.5 8.6a40 40 0 00.6 28c4.4.3 14.7 1 17.5-1 3.3-2.3 2.7-15.4 3-17.9a81 81 0 00.4-14.5z" fill="#F94B4B"/><path d="M31.7 8h-.4c-.2 0-.3.2-.3.5s.1.5.3.5h.4c.2 0 .3-.2.3-.5s-.1-.5-.3-.5zM38.3 12a8.5 8.5 0 01-6.8 1c-.5 0-.7.5-.2.7 2.6.7 5.5.2 7.6-1.2.4-.2-.2-.7-.6-.4z" fill="#1C5028"/><path d="M39 5.3s-.7 10.1-3 10.6c-2.5.5-5.2-.8-6-2.1-.8-1.3-2.6-7.7-1.8-8.8.9-1.2 9.5-1.5 10.8.3z" fill="#FFC197"/><path d="M29.4 13l-.4 5.5s1.6 1.3 6.3-.3l.7-3.1" fill="#FFC197"/><path d="M41.5 3.2a4 4 0 00-1.8-.3c-.2-.8-.6-1.5-1.3-2-1.2-1-2.9-1-4.2-.4a3 3 0 00-.7.4c-.7-.6-1.8-1-2.8-.9a3 3 0 00-2.6 2l-.1.9c-1.2 0-2.3.9-2.6 2-.3.8-.2 1.7.3 2.4-.7.7-.9 1.8-.5 2.7.3.9 1.2 1.6 2.2 1.7-.1.5-.2 1 0 1.4.5 1.1 1.9 1.6 3.2 1.9l.1-1.8V13c-.4-.3-.8-.8-1-1.3-.5-.6-.8-1.6 0-2.2a1.5 1.5 0 012.1.5l.5-.9c.6-1.5 2.3-1.7 3.8-1.7 2.3 1.2 5.7 2 6.7-.8.5-1.3 0-2.8-1.3-3.4z" fill="#42210B"/><path d="M33.2 9s-.4 3.1.2 3.7c.7.6 2.5.8 3.7.8H40s-.9 3.2-2 4.1c-1 1-3.7 0-4.3-.5-.7-.4-1.7-3.4-1.7-3.4l.1-4.6 1-.1z" fill="#42210B"/><path d="M65.3 47s-51-11.1-51.6-11.4c-.5-.2-8.3-3.3-7.7-7.6l60 15.5" fill="#C1C1C1"/><path d="M99 52c0-5.2-7.9-5-8 .2 0-.7-4-.3-4.8-.5-2-.3-4-1-6-2-3.6-1.8-6.9-4.3-9.6-7.5-3.5-3.8-9 2.1-5.5 6 5.4 5.9 12.7 10.7 20.7 11.7 5.4.6 13-1 13.2-7.9z" fill="#C1C1C1"/><path d="M39.6 34.4S11.8 23.6 6.3 28C1 32.7 64.8 45.7 64.8 45.7s6 7.5 20 9.8c16.2 2.5 18-4.7 8.2-12.3-9.9-7.6-20-6.2-28.3-2.8-1.6.7-25-6-25-6z" fill="#E0DEE1"/><path d="M72 44c3.8-3 8.9-3.8 13.4-2 7.6 3 9.6 8 9.6 8s-9.4-9.6-23-6z" fill="#FFF"/><path d="M35.7 44.2a102.4 102.4 0 0111.1-.4c.6-.4 1.6-1.2 1-1.5-1.6-1-4.5-1.6-6.1-2.4l-.3-.1a1 1 0 00-.5-.2l-.7-.3c.2-1.1.3-2.3.3-3.5 0-.3-.2-.6-.5-.7a.7.7 0 00-.6 0c-.2 0-.4.1-.4.3l-2.2 4.3h-.1c-1.6 1-5-.4-6.7.5.9 1.6 0 3.3 1 4.8.6-.3 2.1-.2 3.6 0a1 1 0 011-.8z" fill="#FFC197"/><path d="M36.4 37.2L27 34.5a39 39 0 006-7.9c.6-1.5-.8-5.8-1.7-8.3-1.1-.3-.8-1-2-1.3-1.5.8-4.2 2-5.5 3.2a28.2 28.2 0 00-8.8 16c-.8 7 4.3 9.1 10.8 9.8 6.6.8 12.1 1 12.1 1l-1.6-9.8z" fill="#F94B4B"/><path d="M59 47.7s-1.5-4.5-2.5-5.1c-1-.6-1.3 0-1.3 0s-1-2-2-1.5c-.8.5 0 2 0 2s-1.5-1.5-2-.5c-.6 1 1 3.3 1 3.3s3.2 3.1 6.8 1.8z" fill="#FFC197"/><path d="M58.9 47s2.9-1.7 2-2.7c-1-1.1-2.9 1.5-2.9 1.5" fill="#FFC197"/><path d="M36.8 39.3c-.4-1.7-1.1-2-2.8-2.2-1.3-.3-6.2-1-6-2.4.3-1 2-2.5 2.5-3.3l2.7-2.7V28a.4.4 0 00-.6 0 37.8 37.8 0 00-4.8 5.6c-.7 1-1.3 1.7-.1 2.4 2 1.2 4.7 1 6.8 1.8 2 .8 1.7 2.8 2 4.5l.7 4.3c0 .5.9.3.8-.2-.4-2.4-.7-4.9-1.2-7.2z" fill="#42210B"/><path d="M22 46c.4 1.9 1 3.7 1.7 5.4l.5.6L37 46.9 22 46z" fill="#991A1A"/><path d="M43.8 25.4c0-.5-.9-.5-.8 0l1.2 10.2c0 .5.9.5.8 0l-1.2-10.2z" fill="#42210B"/></g><g><path fill="#FF8400" d="M398.5 69l-15.8-4-20.4 36.7 4.4 2.4z"/><path fill="#FF6100" d="M376 49.3l-16.3 1.9-5.8 41.6 4.9.6z"/><path fill="#FFAD00" d="M411.8 96.3L398.6 87l-32.2 27 3.2 3.8z"/></g><g><path fill="#FF8400" d="M13.5 22l15.8-4 20.4 36.7-4.4 2.4z"/><path fill="#FF6100" d="M36 2.3l16.3 1.9L58 45.8l-4.9.6z"/><path fill="#FFAD00" d="M.2 49.3L13.4 40l32.2 27-3.2 3.8z"/></g></g></g></svg>