<svg width="869" height="595" xmlns="http://www.w3.org/2000/svg" xmlns:xlink="http://www.w3.org/1999/xlink"><defs><path id="b" d="M0 0h841v563H0z"/><filter x="-1.5%" y="-2.2%" width="104.2%" height="106.2%" filterUnits="objectBoundingBox" id="a"><feOffset dx="5" dy="5" in="SourceAlpha" result="shadowOffsetOuter1"/><feGaussianBlur stdDeviation="5" in="shadowOffsetOuter1" result="shadowBlurOuter1"/><feColorMatrix values="0 0 0 0 0   0 0 0 0 0   0 0 0 0 0  0 0 0 0.190559441 0" in="shadowBlurOuter1"/></filter><filter x="-5%" y="-5%" width="109.9%" height="109.9%" filterUnits="objectBoundingBox" id="c"><feGaussianBlur stdDeviation="5" in="SourceGraphic"/></filter><filter x="-5%" y="-5%" width="109.9%" height="109.9%" filterUnits="objectBoundingBox" id="d"><feGaussianBlur stdDeviation="5" in="SourceGraphic"/></filter><filter x="-3.9%" y="-3.9%" width="107.9%" height="107.9%" filterUnits="objectBoundingBox" id="e"><feGaussianBlur stdDeviation="5" in="SourceGraphic"/></filter><linearGradient x1="50%" y1="100%" x2="50%" y2="0%" id="f"><stop stop-color="gray" stop-opacity=".3" offset="0%"/><stop stop-color="gray" stop-opacity=".1" offset="54%"/><stop stop-color="gray" stop-opacity=".1" offset="100%"/></linearGradient><linearGradient x1="50%" y1="58%" x2="50%" y2="42%" id="g"><stop stop-color="gray" stop-opacity=".3" offset="0%"/><stop stop-color="gray" stop-opacity=".1" offset="54%"/><stop stop-color="gray" stop-opacity=".1" offset="100%"/></linearGradient><linearGradient x1="50.1%" y1="100%" x2="50.1%" y2=".3%" id="h"><stop stop-color="gray" stop-opacity=".3" offset="0%"/><stop stop-color="gray" stop-opacity=".1" offset="54%"/><stop stop-color="gray" stop-opacity=".1" offset="100%"/></linearGradient><linearGradient x1="50%" y1="100%" x2="50%" y2="0%" id="i"><stop stop-color="gray" stop-opacity=".3" offset="0%"/><stop stop-color="gray" stop-opacity=".1" offset="54%"/><stop stop-color="gray" stop-opacity=".1" offset="100%"/></linearGradient><circle id="k" cx="36" cy="36" r="36"/><filter x="-6.9%" y="-6.9%" width="119.4%" height="119.4%" filterUnits="objectBoundingBox" id="j"><feMorphology radius="2" operator="dilate" in="SourceAlpha" result="shadowSpreadOuter1"/><feOffset dx="2" dy="2" in="shadowSpreadOuter1" result="shadowOffsetOuter1"/><feComposite in="shadowOffsetOuter1" in2="SourceAlpha" operator="out" result="shadowOffsetOuter1"/><feColorMatrix values="0 0 0 0 0   0 0 0 0 0   0 0 0 0 0  0 0 0 0.5 0" in="shadowOffsetOuter1"/></filter><path d="M43 64V52h15v-8l-7 1h-8v-1l2-4h6l7 1v-9l-6 1h-3l7-12 5-8H46l-2 7-7 13-7-13-3-7H12l5 8 7 12h-2l-7-1v9l7-1h7l2 4v1h-9l-7-1v8h16v3l-1 9h13z" id="l"/><filter x="-3%" y="-3%" width="106.1%" height="106%" filterUnits="objectBoundingBox" id="m"><feOffset dx="-3" dy="-3" in="SourceAlpha" result="shadowOffsetInner1"/><feComposite in="shadowOffsetInner1" in2="SourceAlpha" operator="arithmetic" k2="-1" k3="1" result="shadowInnerInner1"/><feColorMatrix values="0 0 0 0 0   0 0 0 0 0   0 0 0 0 0  0 0 0 1 0" in="shadowInnerInner1"/></filter><linearGradient x1="58.4%" y1="60.7%" x2="39.6%" y2="39.3%" id="n"><stop stop-color="#FFF" stop-opacity="0" offset="0%"/><stop stop-color="#006837" offset="100%"/></linearGradient><linearGradient x1="58.9%" y1="60.4%" x2="41.7%" y2="38.7%" id="o"><stop stop-color="#FFF" stop-opacity="0" offset="0%"/><stop stop-color="#006837" offset="100%"/></linearGradient><linearGradient x1="128.7%" y1="20%" x2="7.5%" y2="66.8%" id="p"><stop stop-color="#A368DD" offset="1%"/><stop stop-color="#B1A9FF" offset="100%"/></linearGradient><linearGradient x1="125.8%" y1="23.9%" x2="9.6%" y2="60%" id="q"><stop stop-color="#A368DD" offset="1%"/><stop stop-color="#B1A9FF" offset="100%"/></linearGradient><linearGradient x1="32.3%" y1="56.4%" x2="83.4%" y2="36.4%" id="r"><stop stop-opacity="0" offset="0%"/><stop stop-color="#1A1A1A" offset="99%"/></linearGradient><linearGradient x1="33.8%" y1="55.3%" x2="79.7%" y2="37.4%" id="s"><stop stop-opacity="0" offset="0%"/><stop stop-color="#1A1A1A" offset="99%"/></linearGradient><linearGradient x1="32.3%" y1="56.4%" x2="83.4%" y2="36.4%" id="t"><stop stop-opacity="0" offset="0%"/><stop stop-color="#1A1A1A" offset="99%"/></linearGradient><linearGradient x1="23.5%" y1="59.5%" x2="86%" y2="22.3%" id="u"><stop stop-opacity="0" offset="0%"/><stop stop-color="#1A1A1A" offset="99%"/></linearGradient><linearGradient x1="32.3%" y1="54.4%" x2="83.4%" y2="40.7%" id="v"><stop stop-opacity="0" offset="0%"/><stop stop-color="#1A1A1A" offset="99%"/></linearGradient><linearGradient x1="40.4%" y1="51.9%" x2="93.1%" y2="34.1%" id="w"><stop stop-color="#AFD32F" offset="0%"/><stop stop-color="#788F23" offset="100%"/></linearGradient><linearGradient x1="40.4%" y1="53%" x2="59.1%" y2="42.5%" id="x"><stop stop-color="#AFD32F" offset="0%"/><stop stop-color="#738B1E" offset="100%"/></linearGradient><linearGradient x1="35.9%" y1="61.4%" x2="72.2%" y2="32.5%" id="y"><stop stop-color="#AFD32F" offset="0%"/><stop stop-color="#758D1C" offset="100%"/></linearGradient></defs><g transform="translate(5 5)" fill="none" fill-rule="evenodd"><use fill="#000" filter="url(#a)" xlink:href="#b"/><use fill="#FFD967" xlink:href="#b"/><circle fill="#FF7800" opacity=".3" filter="url(#c)" cx="192.5" cy="406.5" r="151.5"/><circle fill="#FF7800" opacity=".3" filter="url(#d)" cx="374.5" cy="165.5" r="151.5"/><circle fill="#FF7800" opacity=".3" filter="url(#e)" cx="658" cy="372" r="191"/><g transform="translate(399 266)"><path d="M112 263s-15-50 3-87c7-15 10-33 6-49-1-8-4-16-7-23" stroke="#535461" stroke-width="2"/><path d="M125 81c0 6-11 24-11 24s-11-18-11-24 5-11 11-11 11 5 11 11zM144 115c-4 5-22 14-22 14s0-21 3-26a11 11 0 0119 1c2 3 2 7 0 11zM143 173c-5 3-26 1-26 1s11-18 16-21c6-3 12-1 15 5s1 12-5 15zM133 216c-5 4-26 6-26 6s8-20 13-23a11 11 0 0117 7c1 4-1 8-4 10zM98 130c5 4 25 9 25 9s-5-21-9-25c-5-4-12-4-16 0-4 5-4 12 0 16zM87 182c5 2 26 0 26 0s-11-18-16-21c-4-1-8-1-11 1a11 11 0 001 20zM81 232c5 4 26 5 26 5s-8-19-12-23c-5-3-12-2-16 2-3 5-2 12 2 16z" fill="#FA0" fill-rule="nonzero"/><path d="M125 81c0 6-11 24-11 24s-11-18-11-24 5-11 11-11 11 5 11 11zM144 115c-4 5-22 14-22 14s0-21 3-26a11 11 0 0119 1c2 3 2 7 0 11zM143 173c-5 3-26 1-26 1s11-18 16-21c6-3 12-1 15 5s1 12-5 15zM133 216c-5 4-26 6-26 6s8-20 13-23a11 11 0 0117 7c1 4-1 8-4 10zM98 130c5 4 25 9 25 9s-5-21-9-25c-5-4-12-4-16 0-4 5-4 12 0 16zM87 182c5 2 26 0 26 0s-11-18-16-21c-4-1-8-1-11 1a11 11 0 001 20zM81 232c5 4 26 5 26 5s-8-19-12-23c-5-3-12-2-16 2-3 5-2 12 2 16z" fill="#000" fill-rule="nonzero" opacity=".3"/><path d="M395 236s-15-50 2-86c8-16 10-33 7-50l-7-23" stroke="#535461" stroke-width="2"/><path d="M407 53c0 6-11 24-11 24s-11-18-11-24 5-11 11-11 11 5 11 11zM425 88c-3 5-22 14-22 14s0-21 4-26a11 11 0 0119 1c2 4 2 8-1 11zM426 145c-6 3-26 1-26 1s10-18 16-21c3-2 8-1 11 1a11 11 0 01-1 19zM414 190c-5 3-25 5-25 5s7-19 12-23a11 11 0 0118 8c0 4-2 8-5 10zM380 103c4 5 24 9 24 9s-5-20-9-25c-3-2-7-3-10-2-4 1-7 4-8 8s0 8 3 10zM368 154c6 3 27 1 27 1s-11-18-17-21c-3-2-7-2-11 0a11 11 0 001 20zM364 205c5 4 26 6 26 6s-8-20-13-23c-5-4-11-3-15 2s-3 12 2 15z" fill="#FA0" fill-rule="nonzero"/><path d="M407 53c0 6-11 24-11 24s-11-18-11-24 5-11 11-11 11 5 11 11zM425 88c-3 5-22 14-22 14s0-21 4-26a11 11 0 0119 1c2 4 2 8-1 11zM426 145c-6 3-26 1-26 1s10-18 16-21c3-2 8-1 11 1a11 11 0 01-1 19zM414 190c-5 3-25 5-25 5s7-19 12-23a11 11 0 0118 8c0 4-2 8-5 10zM380 103c4 5 24 9 24 9s-5-20-9-25c-3-2-7-3-10-2-4 1-7 4-8 8s0 8 3 10zM368 154c6 3 27 1 27 1s-11-18-17-21c-3-2-7-2-11 0a11 11 0 001 20zM364 205c5 4 26 6 26 6s-8-20-13-23c-5-4-11-3-15 2s-3 12 2 15z" fill="#000" fill-rule="nonzero" opacity=".3"/><path d="M0 323c6-2 1-1 0 0zM1 323z" opacity=".1" fill="#0FF" fill-rule="nonzero"/><path d="M387 261v-1l-2-3-2-8s-12-41-20-46c0 0-7-12-7-18v-7c-1-7-3-21-1-23 2-4 6-18-3-28l1-1s-3-4-3-13c0-6 1-13 5-21l1-4 4-3h1l7-13 2-12V46c0-6-1-12-3-17l-2-6-1-4c-1-6-3-11-8-15-4-3-10-5-16-3-3 0-6 2-8 4l-4 3c-3 3-5 7-3 12h1a16 16 0 007 23v1c2 2 3 5 3 7l-4 4-7 10-4 6c-2 2-4 6-4 14v2c-10 11-49 3-49 3-4-2-10 0-12 2a2 2 0 00-1 2c5 5 14 2 14 2s36 6 39 8c2 2 5 0 7 0l-2 25h1l1 2 1 2 1 2c-2 8-11 40-10 47 0 0-6 13-4 21 0 0-7 55-12 57v1c-5 3-16 8-24 6 0 0-5 1 3 6 0 0 31 8 35 5v-12 1l2-8s13-34 12-52l12-28 4 8 5 12 8 11s25 39 23 51h1c-3 4-8 13-17 13 0 0-7 8 6 7 0 0 18-2 30-8l-4-12z" fill="url(#f)" fill-rule="nonzero"/><path d="M297 257s-16 10-26 7c0 0-5 1 3 6 0 0 30 8 34 5l-1-17-10-1zM373 257s-7 15-17 15c0 0-7 7 6 6 0 0 16-1 28-8l-6-15-11 2z" fill="#333" fill-rule="nonzero"/><path fill="#FDB797" fill-rule="nonzero" d="M315 128l3 7 17-1-2-11z"/><path d="M319 135s-11 39-10 47c0 0-5 13-3 20 0 0-8 53-12 56l14 6c4-2-1 0-1 0s1-6 3-8c0 0 12-33 11-50l16-39-18-32z" fill="#252A62" fill-rule="nonzero"/><path d="M319 135s-11 39-10 47c0 0-5 13-3 20 0 0-8 53-12 56l14 6c4-2-1 0-1 0s1-6 3-8c0 0 12-33 11-50l16-39-18-32z" fill="#000" fill-rule="nonzero" opacity=".1"/><path d="M318 133l7 17s6 29 12 37l4 12 8 10s24 38 23 50c0 0 15 4 14-1 0 0-3-7-3-11 0 0-12-40-19-45 0 0-7-11-7-17v-6c-1-7-3-21-2-23 3-4 7-19-5-30l-32 7z" fill="#252A62" fill-rule="nonzero"/><path d="M386 258s-3-7-3-11c0 0-12-40-19-45 0 0-6-11-6-17l-1-6c-1-7-3-21-1-23 2-4 6-19-5-30l-2 1c11 10 7 25 5 29-3 3 2 27 2 27-2 6 5 19 5 19 8 5 19 45 19 45 0 4 4 11 4 11 0 1-1 2-4 2 4 0 6 0 6-2z" fill="#000" fill-rule="nonzero" opacity=".1"/><path d="M332 46s7 10 5 13l17-4s-5-5-4-16l-18 7z" fill="#FDB797" fill-rule="nonzero"/><path d="M356 53s-13-3-22 8l-7 10-4 5c-2 3-5 9-4 20l-4 36h15c3 1 24-2 24-2s-8-10 1-34c10-23 1-43 1-43z" fill="#000" fill-rule="nonzero" opacity=".1"/><path d="M356 52s-13-3-22 8l-7 10-4 5c-2 3-5 8-4 20l-4 36h15c3 1 24-2 24-2s-8-10 1-34c10-24 1-43 1-43z" fill="#F55F44" fill-rule="nonzero"/><path d="M339 83s-13 19-19 23l-4 1 23-24z" fill="#000" fill-rule="nonzero" opacity=".1"/><path d="M327 74s9-3 12 8v3l-21 21s-5 4-8 2-37-8-37-8-10 2-14-2a1 1 0 011-3h17c11 2 39 5 43-7 5-14 7-14 7-14z" fill="#FDB797" fill-rule="nonzero"/><path d="M327 74s11-2 14 9v-1s-4-11-14-8zM351 40l-18 7 2 3h6c4 0 7-1 10-3v-7z" fill="#000" fill-rule="nonzero" opacity=".1"/><ellipse fill="#FDB797" fill-rule="nonzero" cx="339.9" cy="35.5" rx="15" ry="15.1"/><path d="M340 33c1 1 0 2-1 3-2 3-2 8-1 12l3 5 5 2c3 0 6 3 7 5l2 9c0 9-2 17-6 25 5 1 9-1 12-5 4-3 6-7 7-12l2-12V51c0-5 0-10-2-15l-3-6v-4c-1-6-4-11-8-15-4-3-10-5-16-3l-8 4c-4 3-9 8-6 14 3 4 8 8 13 7z" fill="#000" fill-rule="nonzero" opacity=".1"/><path d="M341 33l-2 3c-2 3-2 8-1 12l3 5 5 2c3 0 6 3 7 5l2 9c1 9-2 17-6 25 5 1 9-1 12-5 4-3 6-7 7-12l2-12V51c0-5 0-10-2-15l-3-6v-4c-1-6-4-11-8-15-4-3-10-5-16-3l-8 4c-4 3-9 8-6 14 3 4 8 7 14 7z" fill="#72351C" fill-rule="nonzero"/><path d="M342 108s6 0 8-3M342 110s6 0 8-4M348 71s-1 8-5 12" fill="#000" fill-rule="nonzero" opacity=".1"/><path d="M0 1z" opacity=".1" transform="translate(202 271)" fill="url(#g)" fill-rule="nonzero"/><path d="M3 1C2 1-2 0 3 1z" opacity=".1" transform="translate(200 271)" fill="url(#h)" fill-rule="nonzero"/><path d="M253 95c-3-1-8-3-13-1 0 0-45 8-50-6a486 486 0 00-1-8l-2-5-3-6c-2-6-7-11-13-13l3-8 1-1c6-2 10-8 10-14 0-3-1-6-3-8 5-1 3-5 0-9l-2-1a21 21 0 00-11-6c-6-2-12-2-18 2-1-4-4-6-8-6-5 0-9 4-9 8 0 5 4 9 9 9h1l-1 4c0 9 6 16 14 18h1v1l-3 7c-7 4-9 11-9 19 0 6 2 12 4 17l1 7c0 8-3 17-6 22l-15 37 1-1-1 1h9c4 2 8 1 12-1l2 4c2 3 0 17-2 24v6c0 7-7 18-7 18-8 5-20 46-20 46l-2 7a42 42 0 01-2 4l-4 12c12 7 30 8 30 8 13 1 6-7 6-7-9 0-14-8-17-12h1c-2-12 23-51 23-51l9-11 5-12 4-8 12 28a185 185 0 0014 59v12c4 2 36-6 36-6 8-5 3-6 3-6-8 3-20-3-25-6h1c-5-3-13-57-13-57 2-7-4-20-4-20 1-5-3-22-6-35l12-1h-1l1-1c-11-7-17-30-20-44l2 2 4 1c2 1 5 2 7 1 3-2 39-9 39-9s10 3 15-1a1 1 0 00-1-3z" fill="url(#i)" fill-rule="nonzero"/><circle fill="#FFC533" fill-rule="nonzero" cx="162.5" cy="28.9" r="18.1"/><path d="M177 47s-7 10-5 13l-17-4s5-5 4-16l18 7z" fill="#FDB797" fill-rule="nonzero"/><path d="M159 40l18 7-2 3h-6c-4 0-7-1-10-3v-7z" fill="#000" fill-rule="nonzero" opacity=".1"/><ellipse fill="#FDB797" fill-rule="nonzero" cx="169.1" cy="35.5" rx="15" ry="15.1"/><circle fill="#FFC533" fill-rule="nonzero" cx="144.4" cy="16.9" r="8.4"/><path d="M179 28c-3 0-8-1-10 1l-4 8c-1 4-3 8-7 9-2 0-5-1-6-3l-4-6-2-7c0-3 1-6 3-8l4-4a19 19 0 0128 2c4 3 5 8-2 8z" fill="#000" fill-rule="nonzero" opacity=".1"/><path d="M179 28c-3 0-8-1-10 1l-4 8c-1 4-3 8-7 9-2 0-5-1-6-3l-4-6-2-7c0-3 1-6 3-8l4-4a19 19 0 0128 2c4 3 5 8-2 8z" fill="#FFC533" fill-rule="nonzero"/><path d="M212 258s16 10 26 7c0 0 5 1-3 6 0 0-30 8-34 5l1-17 10-1zM136 257s7 15 17 15c0 0 7 7-6 6 0 0-16-1-28-8l6-15 11 2z" fill="#333" fill-rule="nonzero"/><path d="M190 136s11 39 10 47c0 0 5 13 3 20 0 0 8 53 12 56l-14 6c-4-2 1 0 1 0l-3-8s-12-33-11-49l-16-39 18-33z" fill="#3AD29F" fill-rule="nonzero"/><path d="M190 136s11 39 10 47c0 0 5 13 3 20 0 0 8 53 12 56l-14 6c-4-2 1 0 1 0l-3-8s-12-33-11-49l-16-39 18-33z" fill="#000" fill-rule="nonzero" opacity=".1"/><path d="M191 134l-7 18s-6 28-12 36l-4 12-8 10s-24 38-23 50c0 0-15 4-14-1 0 0 3-7 3-11 0 0 12-40 19-44 0 0 7-12 7-18v-6c1-7 3-21 2-23-3-3-7-19 5-29l32 6z" fill="#3AD29F" fill-rule="nonzero"/><path d="M124 259s4-7 4-11c0 0 11-40 18-44 0 0 7-12 7-18v-6c1-7 3-21 1-23-2-3-6-19 5-29h2c-11 10-7 26-4 29 2 3-2 27-2 27 1 6-6 20-6 20-8 4-19 44-19 44 0 4-4 11-4 11l4 2c-3 1-6 0-6-2z" fill="#000" fill-rule="nonzero" opacity=".1"/><path d="M157 55l12 3c7 2 13 7 15 14l3 6 1 5c1 3 1 8-2 14 0 0 5 43 20 53 0 0-14 3-27-1-8-3-18-2-25 3v1c-3 2-8 3-12 2h-8l14-36c3-7 8-21 4-29-5-11-6-27 5-35z" fill="#000" fill-rule="nonzero" opacity=".1"/><path d="M157 54l12 3c7 2 13 7 15 14l3 6 1 4c1 4 1 9-2 15 0 0 5 43 20 52 0 0-14 4-27 0-8-3-18-2-25 3-3 3-8 4-12 3l-8-1 14-35c3-7 8-21 4-29-5-11-6-27 5-35z" fill="#535461" fill-rule="nonzero"/><path d="M170 84s13 19 19 23l4 1-23-24z" fill="#000" fill-rule="nonzero" opacity=".1"/><path d="M182 75s-8-3-12 8v3l21 22s5 3 8 1 37-8 37-8 10 3 14-2a2 2 0 00-1-2l-10-2-4 1c-9 1-41 6-46-6-5-15-7-15-7-15z" fill="#FDB797" fill-rule="nonzero"/><path d="M182 75s-11-1-14 9c0 0 4-12 14-9z" fill="#000" fill-rule="nonzero" opacity=".1"/><path d="M250 255s-8-27 1-47c4-8 5-18 3-27l-3-12" stroke="#535461" stroke-width="2"/><path d="M256 157c0 3-6 13-6 13s-6-10-6-13 1-5 3-6h6c2 1 3 3 3 6zM266 175c-2 3-12 8-12 8s0-11 2-14 6-4 8-2c3 2 4 6 2 8zM266 206c-3 2-15 1-15 1s7-10 10-11h6c2 1 3 3 3 5-1 3-2 4-4 5zM260 230c-3 2-15 2-15 2l7-12h7c2 1 3 2 3 4 1 2 0 4-2 6zM241 183l14 5-5-14-6-2c-2 1-4 3-4 5-1 2 0 5 1 6zM234 211c3 2 15 1 15 1s-6-10-9-11h-6c-2 1-3 3-3 5s1 4 3 5zM232 239c3 2 15 3 15 3l-7-12c-3-2-7-1-9 1-2 3-1 6 1 8z" fill="#FA0" fill-rule="nonzero"/><path d="M256 157c0 3-6 13-6 13s-6-10-6-13 1-5 3-6h6c2 1 3 3 3 6zM266 175c-2 3-12 8-12 8s0-11 2-14 6-4 8-2c3 2 4 6 2 8zM266 206c-3 2-15 1-15 1s7-10 10-11h6c2 1 3 3 3 5-1 3-2 4-4 5zM260 230c-3 2-15 2-15 2l7-12h7c2 1 3 2 3 4 1 2 0 4-2 6zM241 183l14 5-5-14-6-2c-2 1-4 3-4 5-1 2 0 5 1 6zM234 211c3 2 15 1 15 1s-6-10-9-11h-6c-2 1-3 3-3 5s1 4 3 5zM232 239c3 2 15 3 15 3l-7-12c-3-2-7-1-9 1-2 3-1 6 1 8z" fill="#FFF" fill-rule="nonzero" opacity=".5"/></g><g transform="translate(602 272)"><use fill="#000" filter="url(#j)" xlink:href="#k"/><circle stroke="#FFB164" stroke-width="14" stroke-linejoin="square" fill="#FFE8A3" cx="36" cy="36" r="29"/></g><g fill-rule="nonzero" transform="translate(602 272)"><use fill="#F5F5F5" xlink:href="#l"/><use fill="#000" filter="url(#m)" xlink:href="#l"/></g><path fill="#FF4242" d="M661 240h8v30h3l-7 8-7-8h3zM675 238h8v44h3l-7 12-7-12h3z"/><g transform="translate(19 278)" fill-rule="nonzero"><path d="M5 171l166 95c7 4 15 4 22 0l117-66a10 10 0 000-18L137 84 5 156a9 9 0 000 15z" fill="#FF6F6F"/><path d="M50 156l-18 10 23 14h1c9-5 17-3 24-8l-30-16z" fill="url(#n)" opacity=".6" style="mix-blend-mode:multiply"/><path d="M146 196l-40 21 41 26h1c17-9 28-16 40-24-15-8-27-13-42-23z" fill="url(#o)" opacity=".6" style="mix-blend-mode:multiply"/><path d="M140 207l-1-1 1-13h6l1 7 5 1 3 1c1 1-3 3-6 4h-5s0-4-1-3l-1 3-2 1z" fill="#9C4100"/><path d="M138 166l-1 31s3 4 12 3l3-33c-4-2-9-2-14-1z" fill="#653200"/><path d="M155 218l-1-1 1-13h6l1 7c1 2 5 1 5 1l3 1c1 1-3 4-6 4h-5s0-4-1-3l-1 3-2 1z" fill="#9C4100"/><path d="M158 168l-12-3 1 9 6 33c6 3 13 0 13 0l-2-29v-1c-1-4-3-7-6-9z" fill="#653200"/><path d="M120 176s10-10 18-10c8-1 19 8 18 12-1 5-16 15-16 15" fill="#653200"/><path d="M141 159l-8-6-1-2 6-13a2 2 0 013-1l9 6 1 2-7 13a2 2 0 01-3 1z" fill="#1784AA"/><path d="M140 159l-8-6-1-2 6-13a2 2 0 013-1l9 6 1 2-7 13a2 2 0 01-3 1z" fill="#29ABE2"/><path fill="#E4F5FD" d="M142 158l-10-7 6-13 11 6z"/><path d="M137 143l-11 6-1 2 2 1 1-1 4 1 1-1 3-2v-1l-1-2h1a21 21 0 002-2 1 1 0 00-1-1z" fill="#E85454"/><path d="M136 147l-1-1-3 2c-1 0 0 0 0 0l3-1c1 1-1 1-1 2l-2 1 1-1 1 1-1 1h1-5v1c1 1 4 0 5-1l2-1v-2a1 1 0 000-1zm0 3h-1l-1 1v-1l1-1h1v1zm-1-1h-2l2-1h1l-1 1z" fill="#653200"/><path d="M128 147s2 0 2 5l-1 4-9-5 8-4z" fill="#88D3D8"/><path d="M148 149l-1 4a33 33 0 00-2-3 1 1 0 00-1 1l1 2c-2 2-1 4-1 5a1 1 0 001 1l2-3c1-2 2-5 1-7z" fill="#E85454"/><path d="M116 149l3-1c1 0 8 3 11 8v4a80 80 0 011 12v3h-2c-9 4-16-2-16-2l-1-18c0-3 2-5 4-6z" fill="#88D3D8"/><path d="M125 138s2 10-2 11c-4 2-9-3-9-5s5-10 11-6z" fill="#E85454"/><path d="M123 142l3-3c0-1-1-4-5-4-4-1-11 2-10 12s12 5 12 2v-7z" fill="#653200"/><path d="M123 142l2 5c1 1 3 4 1 6s0 3 2 5c3 2 1 10-8 8-8-2-13-7-13-7s3-16 5-19" fill="#653200"/><path d="M130 156s2 6 4 6c2 1 5-2 7-6a6 6 0 016 5s-7 14-17 11" fill="#88D3D8"/><path d="M93 206c-6-8-9-18-9-28 0-8 3-15 9-21 5-5 13-8 20-4 5 3 8 8 10 14 3 7 4 16 12 18h10c6 0 13 2 15 8 3 11-12 21-21 25a40 40 0 01-46-12z" fill="#7EC971"/><path d="M159 193c-6 11-26 16-37 16-9-1-16-7-15-17l2-16c-1-9-10-17-19-15-4 5-6 12-6 18a43 43 0 0011 30c11 12 28 16 44 9 8-3 24-13 21-24l-1-1z" fill="#61AF51"/><path d="M158 72l-1 52a3 3 0 01-5 3l-45-22-2-4 1-52a4 4 0 015-3l45 22 2 4z" fill="#6BD1B6"/><path d="M223 113l-1 52a3 3 0 01-5 3l-45-22-2-4 1-52a4 4 0 015-3l44 22 3 4z" fill="#9887DD"/><path d="M292 148l-1 52a3 3 0 01-5 3l-45-22-2-4 1-52a4 4 0 015-3l45 22 2 4z" fill="#F5B008"/><path d="M201 27l-1 52a3 3 0 01-5 3l-45-22-2-4 1-52a4 4 0 015-3l45 22 2 4z" fill="#FFAF5F"/><path d="M269 64l-1 53a3 3 0 01-4 2l-45-22c-2 0-3-2-3-4l1-52a4 4 0 016-3l44 23 2 3z" fill="#FFD3C0"/><path d="M23 138s-2 25 12 29c13 5 20-8 19-30" fill="#06577A"/><ellipse fill="#F2696A" transform="rotate(-2 39 137)" cx="38.8" cy="137.4" rx="15.4" ry="8.9"/><path d="M42 118s-6-9-4-15c0 0 2-4 5-5 0 0 0 9 3 7 3-1 0-8 0-8s3-5 7-5c3 0 0 8 2 7 3-2 0-8 3-9l8-1s2 7 0 8c-3 1-6 2-5 4 2 1 7-1 7-1s1 4-1 6-12-2-10 2c2 3 9 1 9 1s-4 6-8 8-16 1-16 1zM44 139s-4-4-4-8l3-3s1 5 2 4c2-1-1-5-1-5s2-3 4-3c2-1 1 4 2 3v-5l5-2s2 4 1 5c-2 1-4 2-3 3l4-1v3c0 1-7 0-5 2 1 2 5 0 5 0l-4 5c-2 2-9 2-9 2zM28 131s-11 0-14-5c0 0-3-4-2-7 0 0 7 5 8 1 1-3-7-4-7-4s-3-5-1-8 7 4 7 1-6-4-6-7l3-7s8 2 8 5c-1 2-2 6 0 5s3-6 3-6l5 4c0 3-8 10-4 10s6-7 6-7l2 11c0 4-8 14-8 14z" fill="#8CCC00"/><path d="M63 92l-3 3 1-4h-1l-1 5-8 9-1-7h-1l1 7-5 7-4-8h-1a20 20 0 005 8c-5 7-7 14-7 22h1c0-8 2-15 6-21l13 1v-1l-12-1 7-8h11c1-1 0-2-1-1H53l11-10c1-1 0-1-1-1zM33 113a1 1 0 00-1-1c-1 4-3 7-6 10l-3-10 5-8-1-1-5 8-3-11h-1l5 15-6-1v1l6 2 4 9-9-1c-1-1-1 0 0 0 3 2 6 2 9 2l6 12 1-1-8-15c4-3 6-6 7-10zM52 125l-3 5-1-2-1 1 1 1-2 6-1-2h-1l1 2-3 7a1 1 0 001 0l4-8 3-1-1-1-1 1 4-9z" fill="#06577A"/><path d="M220 156l-1-14c0-2 0-12-6-16-9-5-18-10-27-8-7 2-10 26-10 28 0 3 21 19 44 10z" fill="#F5B008"/><path d="M191 104c-2-1-2-3-3-5-1-3 1-8 5-8 3-1 4 1 4 1s14-2 16 9c0 3 1 14-8 16s-5-11-5-11" fill="#4B1B13"/><path d="M190 102v9c0 3 1 10 5 10 5 0 9-5 9-6 0 0 5-3 3-5-3-2-3 1-3 1l-1-7-13-2z" fill="#FFAC73"/><path d="M204 122c-2 2-6 2-9 2l-1-1-1-4 12-5-1 8z" fill="#FFAC73"/><path d="M196 124h-2v-1-2c2 0 6 0 9-5-1 4-4 7-7 8z" fill="#E5894A"/><path d="M205 120a75 75 0 01-7 3h-4v-1-1l-2-2-3 9 4-1 2 3c1 1 9-6 11-8l-1-2z" fill="#D4DEE8"/><path d="M190 128v4h2c1 0 2-1 2-3l-1-2-3 1zM190 132l-6 21 7 3 1-24" fill="#F47A63"/><path d="M192 112h-1c-1 0-2-1-2-3s1-4 3-4l2 4c0 2-1 3-2 3zm0-6c-1 0-2 1-2 3-1 1 0 3 2 3 1 0 2-1 2-3s-1-3-2-3zM198 114l-2-1-1-2c0-2 1-4 3-4l2 1v5l-2 1zm0-6c-1 0-2 1-2 3v2a2 2 0 004 0v-2-2l-2-1z" fill="#42210B"/><path fill="#42210B" d="M194 110v-1h2l-1 1zM201 111l3-1 1 1-4 1z"/><path d="M195 67V55c0-2 0-12-6-16-8-4-17-9-25-7-7 1-10 24-10 26 0 3 20 18 41 9z" fill="#2B415D"/><path d="M183 36s1 9-7 9c-6 1-4-4-4-4s-3 2-6 0 2-8 4-9c3 0 8 0 13 4z" fill="#F5B008"/><circle fill="#4B1B13" transform="rotate(-88 186 14)" cx="185.9" cy="14.4" r="6.5"/><path d="M167 19l-1-5v-2l2-2 1-1s17-3 19 7c0 3-1 12-8 15-8 3-4-10-4-10" fill="#4B1B13"/><path d="M171 33l10-4-1 7c-2 2-5 2-8 2l-1-1v-4zM167 17a3 3 0 013-4l3 1c0 1 0 3 2 4l3 1-1 2c-1 0-9-2-10-4z" fill="#FFAC73"/><path d="M181 15c-4-2-8-3-13-3v1c-1-2-1-6 3-7 4-2 11 1 13 5 1 2 2 4 1 6l-4-2z" fill="#4B1B13"/><path d="M171 35v2s7 0 8-6l-8 4z" fill="#E28E54"/><path d="M167 17v9c-1 2 2 9 4 9 5 0 9-4 9-6 0 0 5-2 2-4-2-2-2 1-2 1s-2-2-2-7c-4 0-8 0-11-2z" fill="#FFAC73"/><path d="M159 63l-1-1 2-15 2 1-3 15zM185 70h-1V53a1 1 0 012 0l-1 17z" fill="#17283A"/><path d="M181 31l-3-6c0-3 4-1 5 0 1 2 0 5-2 6z" fill="#4B1B13"/><path d="M263 107V94c0-2-1-12-7-16-8-4-17-10-25-8-7 2-11 26-11 28 0 3 21 19 43 9z" fill="#2B415D"/><path d="M248 79l-1 2-6 12-4 16-7-4-1-6 1-14 4-9 2-5c1-2 12 5 12 8z" fill="#F5B008"/><path d="M250 110a562 562 0 001 0h-1zM227 104h-1v-1a297 297 0 011 1z" fill="#17283A"/><path d="M236 71s-2 10-1 11l3-2 2 4 10-7-14-6z" fill="#2B415D"/><path d="M235 55l-1 9c0 2 1 10 5 10 5 0 9-5 9-6 0 0 5-3 2-5-2-2-2 1-2 1s-2-2-1-7l-12-2z" fill="#FFAC73"/><path d="M248 75c-2 2-6 2-9 1l-1-1v-3l11-5-1 7v1z" fill="#FFAC73"/><path d="M240 76h-1l-1-1v-1c2 0 7-1 9-5-1 3-3 6-7 7z" fill="#E5894A"/><path d="M263 75c-4-5-6-14-6-14 0-10-7-13-13-14-6 0-11 2-12 6l3 6s10 3 11 2c0-1 1-7 1 1v17c0 2 1 5 3 6 3 2 8 2 11 0l2 18s7 0 9-11c1-11-5-13-9-17zM154 113l-1-13c0-2 0-13-7-16-8-5-17-11-26-8-7 1-11 26-11 28s22 19 45 9zM125 62c-2-2-3-3-3-5-1-4 1-8 5-9 3 0 4 2 4 2s14-2 15 9c1 3 2 13-7 15s-5-10-5-10" fill="#4B1B13"/><path d="M124 59v10c0 2 1 10 5 10 5 0 9-5 9-6 0 0 5-3 3-5-3-3-3 1-3 1s-2-2-1-7c-5 0-9-1-13-3z" fill="#FFAC73"/><path d="M138 80c-3 2-6 2-10 1l-1-1v-3l12-5-1 7v1z" fill="#FFAC73"/><path d="M130 82l-2-1-1-1v-1c3 0 7-1 10-5-1 4-4 7-7 8z" fill="#E5894A"/><path d="M139 77a75 75 0 01-7 4c-2 0-4 1-5-1v-1-1l-1-1-3 9 4-1 2 3c1 1 9-6 10-8v-3z" fill="#D4DEE8"/><path d="M124 86v4h2l2-3-1-3-3 2zM124 90s-7 20-6 21l6 3 2-24" fill="#F47A63"/><path d="M125 70l-2-3c0-2 1-4 3-4l2 4c0 2-1 3-3 3zm1-6c-2 0-3 1-3 3l2 3c2 0 2-2 3-3 0-2-1-3-2-3zM132 72l-2-1-1-3c0-1 1-3 3-3l2 1v5l-2 1zm0-6l-2 2v3a2 2 0 003 0l1-2v-2l-2-1z" fill="#42210B"/><path fill="#42210B" d="M128 68v-1h2l-1 1zM134 68h4v1h-3z"/><path d="M285 189v-12c0-3-1-13-7-16-7-4-16-10-25-8-6 2-10 25-10 27s21 18 42 9z" fill="#2B415D"/><path d="M273 158s1 9-7 9c-6 0-5-4-5-4s-3 2-5 0c-3-2 2-9 4-9s8 0 13 4z" fill="#F5B008"/><circle fill="#4B1B13" transform="rotate(-88 276 136)" cx="275.6" cy="136.1" r="6.5"/><path d="M257 141l-2-5 1-2 1-2 2-1s17-3 18 7c1 3 0 11-8 14-7 4-3-9-3-9" fill="#4B1B13"/><path d="M260 155l11-5-1 7-1 1-7 2-1-2-1-3zM257 139a3 3 0 013-4l2 1 2 4h4l-1 3c-2 0-9-2-10-4z" fill="#FFAC73"/><path d="M270 136l-12-2-1 1c0-2 0-6 3-8 5-1 12 1 14 5l1 7-5-3z" fill="#4B1B13"/><path d="M261 157v1s6 0 8-5l-8 4z" fill="#E28E54"/><path d="M257 139l-1 9c0 2 2 9 5 9 4 0 9-5 9-6 0 0 4-2 2-4-3-3-3 1-3 1l-1-7-11-2z" fill="#FFAC73"/><path d="M249 185l-2-1 3-15c0-1 2 0 1 1l-2 15zM274 192v-18a1 1 0 011 0v18h-1z" fill="#17283A"/><path d="M271 153l-3-6c0-3 4-1 5 0 0 1 0 5-2 6z" fill="#4B1B13"/><ellipse fill="#FFD3C0" transform="rotate(-20 299 55)" cx="298.5" cy="54.7" rx="18.1" ry="25.2"/><path fill="#FFD3C0" d="M282 61l-3 18 14-10"/><path d="M288 44l19 11a2 2 0 102-3l-19-11a2 2 0 00-2 3zM288 51l18 11a2 2 0 002-3l-19-10a2 2 0 00-2 2h1zM285 58l19 11a2 2 0 002-3l-19-11a2 2 0 00-2 3z" fill="#FFF"/></g><g transform="translate(267 6)" fill-rule="nonzero"><path d="M2 132l100 59c3 3 8 3 11 0l126-74a5 5 0 000-8L130 50 2 126a4 4 0 000 6z" fill="#8AA724"/><path d="M82 0l33 20c2 1 2 2 2 4v79l-3 1-32-18c-2-1-3-2-3-4V2c0-2 2-2 3-2zM157 2a5728 5728 0 01-35 22v79c0 2 2 4 3 3l33-19 2-3V4l-1-2h-2z" fill="#F5B008"/><path d="M83 67l28 16c4 3 7-3 3-6L86 61c-4-3-7 3-3 6z" fill="#F2F2F2"/><path d="M83 71l28 16c4 3 7-3 3-6L86 65c-4-3-7 3-3 6z" fill="#F2F2F2"/><path d="M83 74l15 9c4 2 7-4 3-6l-15-9c-4-2-7 4-3 6z" fill="#F2F2F2"/><path d="M81 27l-1-1-1-1a1 1 0 00-1-1l2-2v-2l-2 1-2 3h-3l-3 4v1a14 14 0 001 2v1h1l5-1c1 0 3 0 3-2l1-1v-1z" fill="#F7931E"/><path d="M79 25l-2 1-2-2 1 3c0 2-1 2-2 1l-1-2v1l1 1 1 1h2v-2l2-1v-1z" fill="#42210B"/><path d="M77 28h1l1-1-2 1v3h0l1-1 1-1h-1l-1-1z" fill="#42210B"/><path d="M40 36s-6 1-8 8c-2 8-1 10 2 12" fill="#C3EA75"/><path d="M27 146l3 2 25-18-11-8-26 18 9 6z" fill="url(#p)"/><path d="M59 165l27-19-25-6-20 14 18 11z" fill="url(#q)"/><path d="M39 122v7l-5-1v-6h5z" fill="#F7931E"/><path d="M34 127l2 1c1 0 3 1 3-1l2 3c2 1 8 4 5 6-2 1-12-4-12-5v-4z" fill="#56403D"/><path d="M47 117v7l-5-1v-6h5z" fill="#F7931E"/><path d="M43 123l2 1c1 0 3 1 3-1l2 3c2 1 8 4 5 6-2 1-12-4-12-5v-4z" fill="#56403D"/><path d="M52 59s1 42-2 60c0 0-1 2-8 1v3s-6 2-11 0c0 0-2-41 4-65" fill="#311E69"/><path d="M71 33l-2-7S58 37 45 36h-6l-2 1c-3 4-4 8-4 12v12l1 1 3 1c4 0 10 0 13-3l1-1V46s14-5 20-13z" fill="#C3EA75"/><path d="M47 29s2 7-1 8c-3 2-6 0-7-2s0-7 4-8c4 0 4 2 4 2z" fill="#F7931E"/><path d="M47 27v-3l-2 1-2-1-5 1c-3 0-3 3-3 5l3 6 3 1v-1-1l-1-1h-1v-1l1 1v-1-2h2l1-1 1-1h1l2 1 1-1v-2h-1zm-4 1h1-1zm4-1z" fill="#935542"/><path d="M44 72z" fill="#FFF"/><path d="M77 44l-2 2-3 4-1 1v-2a82 82 0 00-1 4h-1v2h1l5-2 1-1v-1l1-4 1-2-1-1z" fill="#F7931E"/><path d="M65 137v3s8-3 10-2c2 2-5 6-12 7h-4c-2-1-1-3-1-5v-4" fill="#56403D"/><path d="M76 142v3s8-3 10-2c2 2-5 6-12 7h-4c-2-1-1-3-1-5v-4" fill="#56403D"/><path d="M76 74s8 51 7 63c0 0-2 8-19 5l-1-16 3-52h10z" fill="#FF6161"/><path d="M71 134l-3-61-11-1s-3 16-2 23c1 8-1 18-2 23l1 17c6 2 12 1 17-1z" fill="#FF6161"/><path d="M72 47l5 5-3 7c4 5-8-3-8-3s2-6 6-9z" fill="#6DE2FC"/><path d="M82 50c1 4-4 8-5 9-3 1-4-9-14-9-1 0-4-1-6 3-2 5 0 18 1 20s8 7 18 2v-5s6 0 10-4l4-14-8-2z" fill="#6DE2FC"/><path d="M72 47l5 5-3 7c4 5-8-3-8-3s2-6 6-9z" fill="#8787D1"/><path d="M163 143l-4 8h-4c-1 0-2 2 0 3l7 1 3-2s0-4 1-3l1 5 1-1v-12" fill="#311E69"/><path d="M177 137l-4 8c-1 0-3-2-4-1s-2 3 0 4l7 1 3-2 1-3 1 5h1v-13" fill="#311E69"/><path d="M164 78s-10 51-9 63c0 0 2 8 19 5l1-16-3-52h-8z" fill="#614CD4"/><path d="M166 138l3-61 10-1s4 16 3 23c-1 8 1 18 2 23l-1 17c-6 2-12 1-17-1z" fill="#614CD4"/><path d="M176 142a139 139 0 001-17v-6l-1-10 1-11V86v-1c2 8 1 15 0 22v11l1 6v6a130 130 0 01-2 12z" fill="#FFF"/><path d="M147 36h-1c-2 0-3-1-4-3v-6c1-5 4-8 7-8 2 0 3 2 4 3v7l-2 5-4 2zm1-16c-2 0-4 3-5 7l1 5 2 3 4-2 2-5-1-5-2-2-1-1z" opacity=".8" fill="#F2F2F2"/><path d="M175 51l-18-19s-5 6-2 10l16 18" fill="#F25555"/><path fill="#124577" d="M153 65l3-2-3-18-10 5 1 8 2 9 7-2-2-2M78 34l12 3-2 18-12-4"/><path d="M91 45l-1-1h-1-1l-2-1v-1l-1-2-1 1v4l-1 2 1 3h1v1h1v-1 1h1c0 1 0 1 0 0h2v1h1a59 59 0 000-4l1-3zm-4-1z" fill="#F7931E"/><path d="M170 51c-1 0-5 0-6 4l-3 10-10-6 1 11c1 3 7 8 12 5v5c0 1 11 2 14-1 2-4 0-20 0-20" fill="#FF6161"/><path d="M68 38s1 6-1 7c-2 2-5 1-6 0-1-2-3-4-2-6s9-3 9-1z" fill="#F7931E"/><path d="M66 41l-2-1-2 1 3 1h1v-1z" fill="#FFE8E6"/><path d="M90 45l-1 2h1v-2zM87 44l-1 2s1 0 0 0l1-2z" fill="#42210B"/><path d="M87 44l-1 2h1v-2z" fill="#42210B"/><path d="M62 138a139 139 0 01-1-17v-6l1-10-1-11V82v-1c-2 8-1 15 0 22v11l-1 6v6a130 130 0 002 12z" fill="#FFF"/><path d="M152 63v-4l-1-1-1-1-1-1v-1l-1-2h-1v1c-1 1 1 3-1 3h-1c-1 0-2 1-1 2l-1 1v1l1 1v1h1v1l2 1h4l1-2zM148 31l-1 3h1a21 21 0 004 3l2 1 1-4-6-6-1-1-1 1 2 2-1 1z" fill="#F7931E"/><path d="M149 31h-1l-1 1v1h1l1-1v-1z" fill="#F7931E"/><path d="M154 38l-2-2-2-1-1-2v-1h-1 1c0-1 0-1 0 0h1v1l1-1-3-1v1l-1 1v1l1 1 1 1v-1l1 1 1 1 3 1zm-6-4v-1-1l1 1-1 1zm1 1l-1-1 1-1v2z" fill="#42210B"/><path d="M207 94s1 21 9 22c7 1 8-22 8-22" fill="#6DE2FC"/><path d="M207 94s1 21 9 22c7 1 8-22 8-22" fill="#F5B008"/><ellipse fill="#311E69" cx="215.5" cy="94" rx="8.5" ry="4"/><path d="M214 96c-2-9-4-17-8-26l-1 1c4 8 6 17 8 26l1-1zM219 98z" fill="#311E69"/><path d="M203 67l-4 1c-1 0-3 1-3 3l4 1a6 6 0 003-4v-1zM206 67c0-1 0-3-2-4l-3-1v3l4 3h1v-1zm-2-3l-1-1 1 1zM209 64c-2-1-2 3-2 4v1h1l1-2v-3zM216 58l-4-2-1 4c1 1 1 3 3 3h1l1-5zm-2 3v-1 1zM219 63l-3 3c0 2 3 1 3 1 2-1 3-1 3-3l-3-1zm2 2v-1 1zM213 64c-1-1-3-4-4-2l1 2 2 1 1-1zm-3-1h0z" fill="#C3EA75"/><path d="M164 38c0 1 0 11 3 13 4 1 8-3 8-6 0-2-2-11-11-7z" fill="#F7931E"/><path d="M185 55l-1-1v-2c-1-2-1-4-3-5l-3-1-1-3c0-7-10-8-13-3-2 2-1 4 1 5l1 1 2 1c1 1 0 3-1 4 0 1-1 4 1 5l3 1 1 1v3l1 2 4 1 6-1 4-3c1-2 0-4-2-5z" fill="#42210B"/><path d="M82 50c1 4-4 8-5 9-3 1-4-9-14-9-1 0-4-1-6 3-2 5 0 18 1 20s8 7 18 2v-5s6 0 10-4l4-14-8-2z" fill="#8787D1"/><path d="M82 69c-6 2-13 0-16-5h-1c4 5 11 7 17 5zM74 57l-2-3-4-3 3 3 3 3z" fill="#FFF"/><path d="M68 38l-2 1 2 8c0 1-2 4-8 4-7 0-7-10-5-13 1-4 6-6 10-5 2 1 3 3 3 5z" fill="#B24D16"/><path d="M54 45l1-1-2-1-1-1-5 2 1-1-1-1-1 2v2l-2 1a21 21 0 013 3l1-1 7-1v-2l-1-1z" fill="#F7931E"/><path d="M48 44l5-2-5 2zM48 46l6-2-6 2zM49 47a34 34 0 005-1l-5 1z" fill="#42210B"/><path d="M49 51l-4-6h-1l5 6zM42 45l-5 4v-3-1l-1 5h-1v1a149 149 0 007-6zM48 51s-6 9-14 5v3s10 0 14-8z" fill="#311E69"/><path d="M168 63l-1 6c0 2-1 4-3 4v1l4-4 1-7h-1z" fill="#124577" opacity=".7"/><path d="M84 15v6l1 1 22 13h2l1-2v-6l-1-1-22-13h-2l-1 2z" fill="#FFF" opacity=".6"/><path d="M93 61l-3-5 1-6c1-2 2-4 4-4 3 0 7 3 7 8v6c-1 2-2 3-4 3h-1c-1 0-3 0-4-2zm2-13l-3 2v5l2 5 4 2 3-3v-5c-1-4-3-6-5-6h-1z" opacity=".8" fill="#F2F2F2"/><path fill="#FFF" opacity=".6" d="M128 30v66l7-5V26z"/><path d="M160 3l-11 6v3l-8 5h-1v-2l-15 8-1 1v79l1 1 35-20c0 1 0 2-2 3l-33 19s-2 1-3-2V24l1-2 34-20a2 2 0 013 1zM80 1l11 6v3l8 5h1v-2l15 8 1 1v79l-1 1-35-20a4590 4590 0 0035 22s2 1 3-2V22l-1-2L83 0s-2-1-3 1z" fill="#124577"/></g><g transform="translate(123 52)"><ellipse fill="#AFD32F" fill-rule="nonzero" cx="112.5" cy="151" rx="112.5" ry="37"/><path fill="url(#r)" fill-rule="nonzero" opacity=".3" d="M65 116l-32 9 28 17 33-11 3-12-24-6"/><path fill="url(#s)" fill-rule="nonzero" opacity=".3" d="M165 123l-22 10 41 25 33-10 3-13-23-6"/><path d="M12 136s39 5 43 13c0 0 1 3-4 5s-12 4-11 5c0 2 23 9 23 11 0 3-1 10-14 12l-13-4" fill="#B8DEE8" fill-rule="nonzero"/><path d="M11 136c1-1 46 6 41 13-4 6-22 6-9 12 13 5 22 4 20 11-2 6-21 8-21 8s-27-7-37-18c-10-12 1-23 6-26z" fill="#34B5E2" fill-rule="nonzero"/><path d="M44 166l-4-2-4-2h-2c-2 0-4 0-5-2-1-1 1-3 2-4l4-5v-3c-1-2-4-3-7-4 3 1 7 3 6 7l-5 7c-1 3 2 4 4 5 3 1 9 1 11 4v-1z" fill="#FFF" fill-rule="nonzero"/><path d="M29 165l-9-3c-2-2-2-5 0-7 1-2 5-5 3-8l-6-3 4 3 2 1c1 3-2 5-3 7-1 1-3 3-2 6l3 2 5 2a78 78 0 015 1h1l-3-1zM14 152c-1-3-5-4-7-4H6c3 1 8 2 7 6l-1 3 2-5z" fill="#FFF" fill-rule="nonzero"/><path fill="#6A9546" fill-rule="nonzero" d="M63 28l3-28v25"/><path d="M59 6c10 6 7 27 5 33v1" fill="#6A9546" fill-rule="nonzero"/><path d="M47 11l16 14V15s1-9-8-10-8 6-8 6z" fill="#6A9546" fill-rule="nonzero"/><path d="M67 126l-7-4c5-32 1-92 1-92l5-1c7 24 10 84 10 96l-9 1z" fill="#D8876A" fill-rule="nonzero"/><path d="M86 6c13-1 21 14 21 14L65 36l-2-11M66 23S73 7 86 6" fill="#85B23B" fill-rule="nonzero"/><path d="M111 33h-5l-3-6 1 6H91l-3 1-2-5v5c-7 0-15 1-22 3l1-2s2-13 25-18 37 16 37 16h-16zM58 7c-12-7-16 7-16 7" fill="#6A9546" fill-rule="nonzero"/><path d="M65 36s3-11-12-22-32-1-32-1l10 8 8-3-4 6 9 6 7-5-4 7 17 8 1-4z" fill="#85B23B" fill-rule="nonzero"/><path d="M54 39l-1-5-1 6-13 3-1-4-1 5-6 2-1-5-1 6-8 4c-1-11 11-25 23-27 13-2 20 12 20 12l-3 2-7 1z" fill="#6A9546" fill-rule="nonzero"/><path d="M89 43l1-3-2 2-9-2v-3l-1 2-14-2c1-1 5-6 14-8 11-2 20 10 20 17h-1l-8-3z" fill="#85B23B" fill-rule="nonzero"/><path d="M75 111c3 3 0 5 0 10v1c3 2 6 4 9 4 0-4 6-6 6-11 0-4-6-2-4-7s1-11-2-14c-3-1-6-5-7-7v2c0 3-1 6-3 8l-5 6v1c-1 4 3 4 6 7z" fill="#CEC300" fill-rule="nonzero"/><path d="M78 102l4 7c1 3 0 6-1 9l2 8h1l-2-4v-5-8l-3-7v-9l-2-4v1l2 3-1 9z" fill="#2E6300" fill-rule="nonzero"/><path d="M103 106c3-1 5-5 3-8-2-2-1-6-1-6l-3 3c-5 2-6 5-6 8 0 2 3 8-6 11s-3 13-2 14h5l7-3c5-2 3-7 1-10-3-3-1-8 2-9z" fill="#CFE217" fill-rule="nonzero"/><path d="M105 93c-2 2-2 5-3 7 0 3-2 5-3 7l-2 4v4l-1 4-3 4-3 5 4-5c1-2 3-4 3-7 1-3 0-5 2-8l3-6 3-9z" fill="#2E6300" fill-rule="nonzero"/><path d="M87 128c-1-4 0-8 3-11 2-4 4-7 2-11-1-2-2-4-1-7-3 6-6 8-5 11l-2 9c-2 4 0 7 1 9h2z" fill="#9ABC0C" fill-rule="nonzero"/><path d="M86 128h1c-2-3-2-7 0-10l2-5 1-6 1-8c-1 2-2 5-1 7v4l-1 3-3 5-1 6 1 4z" fill="#2E6300" fill-rule="nonzero"/><path d="M158 107c4 5 0 9 0 16l1 2c4 3 8 5 13 6 0-6 10-10 10-17s-10-3-7-11c4-8 3-18-3-22l-11-12v3c0 4-2 9-4 13s-6 6-7 10l-1 1c-1 7 5 7 9 11z" fill="#CEC300" fill-rule="nonzero"/><path d="M163 94l5 10c2 5 0 9-1 14s1 9 3 13h1l-3-6v-8c1-4 2-8 1-12l-5-11c-2-5 1-9 0-14l-3-7v1l2 6v14z" fill="#2E6300" fill-rule="nonzero"/><path d="M202 98c5-2 9-9 6-12-3-4-3-10-3-10 0 2-2 3-3 4-10 3-11 8-11 12 0 5 5 13-10 18-13 4-4 20-2 22h9l9-5c9-3 6-11 2-15-4-5-1-12 3-14z" fill="#CFE217" fill-rule="nonzero"/><path d="M205 78l-3 11-6 11-2 6-1 6-2 7-4 5-5 9h1l5-8c2-3 5-7 5-11l3-12 6-10c1-5 1-10 4-13l-1-1z" fill="#2E6300" fill-rule="nonzero"/><path d="M178 132c-2-6 0-13 4-18s7-10 4-16l-3-12c-4 9-9 12-8 17s0 7-3 15c-2 6 0 11 1 14h5z" fill="#9ABC0C" fill-rule="nonzero"/><path d="M177 132c-1-5-2-10 0-16l5-7 1-9c-1-4 0-9 1-13h-1l-1 11v6l-1 5-4 8c-2 3-2 6-2 9l2 6z" fill="#2E6300" fill-rule="nonzero"/><path d="M184 124c4 5 0 9 0 16l1 2c4 3 8 5 13 6 0-6 10-10 10-17s-10-3-7-11c4-8 3-18-3-22l-11-12v3c0 4-2 9-4 13s-6 6-7 10l-1 1c-1 7 5 7 9 11z" fill="#CEC300" fill-rule="nonzero"/><path d="M189 110l5 10c2 5 0 9-1 14s1 9 3 13h1l-3-6v-8c1-4 2-8 1-12l-5-11c-2-5 1-9 0-14l-3-7v1l2 6v14z" fill="#2E6300" fill-rule="nonzero"/><path d="M229 115c5-2 9-9 6-12-3-4-3-10-3-10 0 2-2 3-3 4-10 3-11 8-11 12 0 5 5 13-10 18-13 4-4 20-2 22h9l9-5c9-3 6-11 2-15-4-5-1-12 3-14z" fill="#CFE217" fill-rule="nonzero"/><path d="M231 94l-3 11-6 11-2 6-1 6-2 7-4 5-5 9h1l5-8c2-3 5-7 5-11l3-12 6-10c1-5 1-10 4-13l-1-1z" fill="#2E6300" fill-rule="nonzero"/><path d="M205 148c-2-6 0-13 4-18s7-10 4-16l-3-12c-4 9-9 12-8 17s0 7-3 15c-2 6 0 11 1 14h5z" fill="#9ABC0C" fill-rule="nonzero"/><path d="M203 147c-1-5-2-10 0-16l5-7 1-9c-1-4 0-9 1-13h-1l-1 11v6l-1 5-4 8c-2 3-2 6-2 9l2 6z" fill="#2E6300" fill-rule="nonzero"/><g fill-rule="nonzero"><path d="M155 47s-1-2-7-4c-7-2-8 8-8 8M157 51s5 14 1 19c-2 3-13 3-13 3" fill="#18272A"/><path d="M133 23l1-5c0-2 1-5-1-5-1-1-1 2-1 3l-3-3c-1-1-4-2-5 0l4 7 1 4 4-1zM162 30v-5c0-2 0-6 1-5l2 3 3-2h4l-4 7-3 4-3-2z" fill="#5C2E2E"/><path d="M135 19c-3 2-4 3-7 3 1 6 3 29 7 37l5-15-5-25z" fill="#F7931E"/><path d="M135 70s-4 18-3 28l1 29s7 0 10-2V90l7 30 3 15c4 0 7 0 10-2l-2-23c-2-6-8-38-10-40" fill="#181816" opacity=".7"/><path d="M161 130l-3 1-2 1-2 7c-1 2-4 6-3 8 2 2 4 2 6 1 3-2 3-6 4-8v-5-5zM139 121l-3 1-2 1-2 7c-2 2-7 4-6 6s4 3 6 1l6-5c2 0 1-4 1-6v-5z" fill="#181816"/><path d="M135 70s-4 18-3 28l1 29s7 0 10-2V90l7 30 3 15c4 0 7 0 10-2l-2-23c-2-6-8-38-10-40" fill="#F5B008"/><path d="M150 71s7-17 4-21c-2-4-13-7-17-7-5 0-2 28-1 28 0 0 8 5 14 0z" fill="#F7931E"/><path d="M140 45s-6 10-6 16v-6s2-10 6-12v2zM148 45s-4 13 5 18l-1 2c-4-2-7-6-7-10-1-8 0-11 1-11l2 1z" fill="#18272A"/><path d="M147 40c-2 2-4 1-5 1-2-1-4-2-4-4-1 2 1 4 3 4h6v-1z" fill="#009245"/><path d="M137 36s0 10 4 11 7-4 7-4 0-9-4-10-7 2-7 3z" fill="#FBB5AD"/><path d="M140 43l1-3h-1v3c1 0 1 0 0 0zM142 43l-2 1c1 1 2 0 3-1h-1zM142 42zM138 41h0z" fill="#56403D"/><path d="M145 42s1-4 2-3c1 2-2 4-2 4" fill="#FBB5AD"/><path d="M146 32s4 0 5 3-2 9-4 10l2-5v-4l-3-4z" fill="#5C2E2E"/><path d="M151 37c-1-3-2-3-4-5v-1h-1l-1-1v2h-6l-1 2h-2c-1 1-2 2-1 3l2 1 2-1c0 1-1 2 1 2h3l2 1v1h2v4l3-3 1-5zm-6-6v0z" fill="#5C2E2E"/><path d="M146 55v-2l-10-2-1 3 11 1zM134 64s5 3 18 3l-1 1s-8 2-16-2l-1-2z" fill="#18272A"/><path d="M161 27l-10 20 2 15 14-33-6-2z" fill="#F7931E"/><path d="M151 146v3c0 1 1 2 5 2 5 0 5-5 5-5v-5-5M125 136v3s1 2 5 1l6-3 3-3v-5" fill="#181816"/><path d="M139 33s3-6 9-3 2 9 2 9" fill="#A81B29"/><path d="M137 34s5 0 8 2l5 5 1-3s-2-5-8-6c-6-2-6 2-6 2z" fill="#EA3943"/><path d="M179 84s7-1 12 1c6 2 14-1 14-1v14h-13c-5-2-12 1-12 1" fill="#F5B008"/><path fill="#312C32" d="M179 82h2v75h-2z"/><path fill="url(#t)" opacity=".3" d="M32 123l-32 9 27 17 33-10 3-13-23-6" transform="translate(98 12)"/><path fill="url(#u)" opacity=".3" d="M65 160l18-15-3-2-22 11z" transform="translate(98 12)"/></g><path fill="url(#v)" fill-rule="nonzero" opacity=".3" d="M42 149l20 14 43-14 1-6-12-4z"/><path d="M76 56s1-3 7-5 8 8 8 8M73 59s-4 14 0 19c1 3 13 3 13 3" fill="#18272A" fill-rule="nonzero"/><path d="M98 32l-1-5 1-6 1 3c1 1 2-2 3-3s3-2 4 0l-3 8-2 4-3-1zM69 39v-6l-2-5-1 3-3-2c-1-1-4-1-4 1l4 7 3 3 3-1z" fill="#5C2E2E" fill-rule="nonzero"/><path d="M96 27c3 2 4 3 7 3-1 6-3 29-7 38l-5-15 5-26z" fill="#F7931E" fill-rule="nonzero"/><path d="M96 78s3 18 3 29l-1 28s-7 1-10-1V98l-7 30-3 15c-3 0-7 0-10-2 0 0 1-18 3-23 1-5 7-37 9-40" fill="#181816" fill-rule="nonzero" opacity=".7"/><path d="M69 138l3 1 2 1 2 7c1 2 4 7 3 8-2 2-4 3-6 1-3-1-3-6-4-8v-5-5zM91 129l3 1 2 1s1 6 3 7c1 2 7 5 6 6-2 2-4 3-6 1l-7-5c-2 0-1-4-1-6v-5z" fill="#181816" fill-rule="nonzero"/><path d="M96 78s3 18 3 29l-1 28s-7 1-10-1V98l-7 30-3 15c-3 0-7 0-10-2 0 0 1-18 3-23 1-5 7-37 9-40" fill="#F5B008" fill-rule="nonzero"/><path d="M80 79s-6-17-3-21c2-4 12-7 17-7s2 28 1 28c0 0-8 5-15 0z" fill="#A55900" fill-rule="nonzero"/><path d="M91 53s5 10 5 15l1-5s-3-10-6-12v2zM83 53s4 13-5 18l1 2c4-2 6-6 7-10l-1-11-2 1z" fill="#18272A" fill-rule="nonzero"/><path d="M84 49h5c2 0 4-1 4-4 0 3-2 4-4 4-1 1-4 2-5 0 0 0 0-1 0 0z" fill="#009245" fill-rule="nonzero"/><path d="M93 45s0 10-4 11-6-4-6-4 0-9 4-10 6 2 6 3z" fill="#FBB5AD" fill-rule="nonzero"/><path d="M90 52h1l-1-3h1v3h-1zM89 51l2 1-2-1zM90 50v0zM93 49v0z" fill="#56403D" fill-rule="nonzero"/><path d="M86 50s-1-4-2-3c-1 2 2 5 2 5" fill="#FBB5AD" fill-rule="nonzero"/><path d="M85 41s-4 0-5 3 2 9 4 10l-2-5v-4l3-4z" fill="#5C2E2E" fill-rule="nonzero"/><path d="M81 44c0-2 2-3 4-4l-1-1h2l1-1v1l5 1 2 2h2l1 3-3 1-1-1-1 2h-3l-2 1v1h-2v4l-3-3-1-6zm6-5h-1 1z" fill="#5C2E2E" fill-rule="nonzero"/><path d="M85 64v-3l9-2 1 3-10 2zM96 73s-5 4-17 3l1 2s8 1 16-3v-2z" fill="#18272A" fill-rule="nonzero"/><path d="M70 35l10 21-2 14-14-32 6-3z" fill="#F7931E" fill-rule="nonzero"/><path d="M79 154v4c-1 1-1 2-5 2s-5-6-5-6v-4-5M105 144v3s-1 2-5 2c-2 0-4-2-5-4l-4-3v-5" fill="#181816" fill-rule="nonzero"/><path d="M92 41s-4-6-9-3c-7 3-3 9-3 9" fill="#1B3EA8" fill-rule="nonzero"/><path d="M93 42s-5 0-8 2l-5 5-1-3s2-4 8-6c6-1 6 2 6 2z" fill="#4239EA" fill-rule="nonzero"/></g><g transform="translate(343 120)" fill-rule="nonzero"><path d="M128 172l116-66a8 8 0 000-15L136 28c-4-3-8-3-12 0L5 97a9 9 0 000 15l106 60c6 3 12 3 17 0z" fill="#CEEB68"/><path fill="url(#w)" d="M69 114l-19-10-26 2-4 3-11 7 26 14z"/><path d="M85 138l82-44-73-10-48 31 39 23z" fill="url(#x)" opacity=".7"/><ellipse fill="#F5B008" cx="133.5" cy="54" rx="48.5" ry="20"/><path d="M84 52s-14 48 47 51 51-49 51-49" fill="#F5B008"/><ellipse fill="#000" opacity=".6" cx="133.5" cy="54" rx="48.5" ry="20"/><path d="M131 59s-3-17-11-22-6 0-13-5c-6-4-13-4-17 0-3 4 0 7 3 9 4 2 7-1 7 5-1 5-4 7 2 9s12-3 13 2c1 4 2 6 5 6l11-4z" fill="#78DD7A"/><path d="M128 62c-1-4-4-8-8-11l-1-12h-1c1 4 2 7 1 11l-3-3-1-1-1-1a149 149 0 00-3-3c0-3-2-5-3-7l-1 1c2 1 3 4 3 6l-12-8-1 1c6 2 11 6 16 10l-9-2v1l10 2 1 1 4 4h1c0 1 0 1 0 0l3 3-6-1c-1-1-1 0 0 0l6 3 1-1c1 3 3 5 3 8l1-1z" fill="#2F7F2F"/><path d="M184 133l40-21-31-13-35 22c5 2 22 9 26 12z" fill="url(#y)" opacity=".7"/><path d="M150 126s-3-4-1-7l20-11 2 2c-1 1-19 10-17 11 1 1 18-9 18-9l2 2c0 1-18 9-17 10l18-8 2 2-3 2a327 327 0 01-12 7l-7 2-5-3z" fill="#C1C1C1"/><path d="M153 126l-43 27s-8 3-10-1l51-29" fill="#C1C1C1"/><path d="M150 123c0 2 1 3 3 3l-3-3z" fill="#C1C1C1"/><path d="M148 122c-1 2-21 13-21 13s-26 11-27 18 52-28 52-28l-4-3z" fill="#E0DEE1"/><path d="M150 125s-3-4-1-7l20-11 2 2c-1 1-19 10-17 11 1 1 18-9 18-9l2 2c0 1-18 9-17 10l18-8 2 2-3 2a327 327 0 01-12 7l-7 2-5-3z" fill="#E0DEE1"/><path d="M153 123s1 3 4 2l17-8s-13 10-17 10-4-4-4-4z" fill="#FFF"/><path d="M180 30l-7 7-4 13v19l5-2 2-12c1-7 5-6 8-14 2-9-4-11-4-11z" fill="#870E02"/><path d="M152 53l3-5 2-2v-3l-2-1h-1l-4 15 2 3v-7zM169 27l-6 3 2-1 7-1c4 1 8 3 6 8-1 5-7 6-10 10-4 5-5 12-3 18h-1c-3-8 0-16 7-21 2-2 4-3 5-6l2-3c0-2-2-4-3-4l-8-1c-2 1-6 2-7 4h-1l-1 1c4-1 7-2 10-1 5 1 4 6 2 8l-4 4-6 5c-3 4-2 10 0 15l8 3c-2-6-1-17 5-21l8-8c4-4 4-14-12-12z" fill="#B31700"/><path d="M162 47l5-3 4-7c-1-5-9-3-13-1l-1 2h6l2 2-1 3-7 8-1 6v5l4 2c-3-6-3-13 2-17z" fill="#B31700"/><path d="M154 57l2-7c2-2 5-3 6-6 2-2 0-5-3-5l-4 1-1 2c1-1 3 0 3 1 2 1 1 3 0 4l-3 3-2 4v7l2 1v-5zM170 68v-4l2-13v-2l-4 7 1 12h1z" fill="#B31700"/><path d="M160 34c1-2 4-3 7-4h8c2 1 3 2 3 4l-1 4-6 5c-7 5-10 13-7 21h1c-2-6-1-13 3-17 3-4 9-6 11-11 1-4-3-6-7-7l-7 1-2 1-4 3h1z" fill="#D36559"/><path d="M159 50l6-5 4-4c2-2 3-7-1-8l-10 1-1 2c4-2 13-4 13 0 1 3-2 6-4 8l-5 3c-5 4-5 12-2 17l1 1c-2-4-3-11-1-15z" fill="#D36559"/><path d="M155 58l1-6c2-3 6-5 7-8a4 4 0 00-1-5h-6v1l3-1c3 0 5 2 4 5l-6 6c-2 2-3 5-3 7v5l1 1v-5z" fill="#D36559"/><path d="M153 54l2-4 3-3c1-2 2-4 0-5l-3-1a37 37 0 000 1l3 1v3l-3 2-2 4-1 8 1 1v-7zM168 68c-1-4-2-8-1-12l4-7 1-2c-7 3-7 15-5 21h1z" fill="#D36559"/><path d="M129 54c-1 0-4-22 9-24 12-2 12 24 12 24s-15 2-21 0z" fill="#B31700"/><path d="M130 55c-1 0-4-22 8-24s12 24 12 24-14 2-20 0z" fill="#D36559"/><path d="M131 56c-1 0-4-19 7-20s11 20 11 20-13 2-18 0z" fill="#B31700"/><path d="M133 57c-1 0-3-19 7-20s10 20 10 20-12 2-17 0z" fill="#D36559"/><path d="M134 61c-1-1-3-18 7-19 9-1 9 19 9 19h-16z" fill="#B31700"/><path d="M136 62c-1-1-3-18 6-19 8-1 8 19 8 19h-14z" fill="#D36559"/><path d="M165 63c-3-2-6 0-6 0s-3-6-6-6c-4 0-6 4-6 4s-1-5-6-5-7 8-7 8-1 9 6 11a35 35 0 0015-2l5-2a166 166 0 009-3s-1-4-4-5z" fill="#F6D42D"/><path d="M164 67l2 2h1l-2-3c-2-1-3 0-4 1-2 1-4 2-5-1v-1c0-2-1-3-2-3h-4l-2 3c-1 3-4 3-5 0 0-2-1-5-3-6-2 0-4 1-5 3l-2 6h1c0-2 1-5 3-7l2-1 2 2 2 4 2 2c2 0 3 0 4-2l1-2c2-2 5-2 5 1l2 4 4-1c1-1 1-2 3-1z" fill="#FF6A40"/><path d="M155 71v1h1c-1-2-1-5-4-5l-3 3-1 2c-2 1-4 2-5 0-1-3-1-7-4-7s-4 5-5 7h1l2-5c4-3 4 2 5 3 0 2 2 4 4 4s3-4 5-5h3l1 2z" fill="#FF6A40"/><ellipse fill="#F5B008" cx="209" cy="76.5" rx="21" ry="10.5"/><ellipse fill="#F5B008" cx="209" cy="104.5" rx="21" ry="10.5"/><path d="M230 77v28s-16 14-42 0V77" fill="#F5B008"/><path d="M192 86s-4-5-7-2c-4 3-1 14 9 15v4s-12-2-14-12c-1-11 6-13 10-10" fill="#F5B008"/><ellipse fill="#000" opacity=".6" cx="209" cy="76.5" rx="21" ry="10.5"/><path d="M138 73s7 9 2 12c-5 2-15 1-20-5s18-7 18-7z" fill="#000" opacity=".1"/><path d="M116 55s-8-4-11-8c-4-4-13-9-15-6s-3 5-6 6c-3 0-7 1-4 5 2 4 6 5 9 4 4 0 5 0 7 3 2 2 3 4 7 2l6-1 11-2-4-3z" fill="#51BC51"/><path d="M119 57l-12-4-2-4h-1l2 4a116 116 0 00-8-2l-6-8-1 1 6 7-15-2v1l14 1-7 1v1a105 105 0 009-1l7 2-8 2 10-2 11 4 1-1z" fill="#2F7F2F"/><path d="M119 58s-8-4-12-1-5 7-8 5c-4-2-10-2-11 0-2 2-3 8-1 11 1 2 12 4 15 3 2-2 3-7 5-7l13-1c3-2 6-11 6-11l-7 1z" fill="#78DD7A"/><path d="M119 60l-8 3h-9c-1 0-1 0 0 0l7 1-8 1a252 252 0 01-3 1l-2 1-1 1-6 1h5c-2 2-3 4-7 3 0-1 0 0 0 0a6 6 0 007-2v4l1-5 1-1 5-2-1 6c0 1 0 1 0 0l1-6 8-1-2 3v1h1l2-5 9-3v-1z" fill="#2F7F2F"/><path d="M119 58s-6 8-2 11c5 3 7 1 5 5s-5 5-1 7c4 3 21 3 21-1s-7-3-4-6c2-4 2-9-1-10-3 0-5 1-5-2 1-4-5-8-5-8l-8 4z" fill="#51BC51"/><path d="M136 80c-2-1-6-3-7-6v-3l5 3v-1l-5-3v-4l-4-5 5 1v-1l-7-1-5-3-1 1 8 4v1l-1 7h1l1-7 2 3v5l1 4-2 5h1l1-4 6 5 1-1z" fill="#2F7F2F"/><path d="M119 64s-13 5-15 9c-1 5 3 1 5 5 1 5 6 8 9 5 4-4 6-22 6-22l-5 3z" fill="#3CAF3C"/><path d="M124 59l-6 9-6 1-4 2v1h1l5-2 4-1-3 5-5 2h1l4-1-1 4v1l2-4 1 2h1l-2-3 2-5 2 4h1l-2-5 6-9-1-1z" fill="#2F7F2F"/><path d="M121 41c-1-2-3-2-5-1s-2 3-2 4c1 2 3 2 5 1l2-4zm-2 1l-1 2-2-1 1-1 1-1 1 1zM132 66c-1-2-3-2-5-1s-2 3-2 4c1 2 3 2 5 1l2-4zm-2 1l-1 2-2-1 1-1 1-1 1 1zM112 59c-1-2-3-2-5-1s-2 3-2 4c1 2 3 2 5 1l2-4zm-2 1l-1 2-2-1 1-1 1-1 1 1zM136 57c-1-2-3-2-5-1s-2 3-2 4c1 2 3 2 5 1l2-4zm-2 1l-1 2-2-1 1-1 1-1 1 1z" fill="#313115"/><circle fill="#F94B4B" cx="131.5" cy="50.5" r="5.5"/><path d="M132 45h-1c2 2 3 4 3 7l-3 4h1a5 5 0 000-11z" fill="#D32929"/><circle fill="#F94B4B" cx="145.5" cy="55.5" r="5.5"/><path d="M146 50h-1c2 2 3 4 3 7l-3 4h1a5 5 0 000-11z" fill="#D32929"/><circle fill="#F94B4B" cx="121.5" cy="58.5" r="5.5"/><path d="M122 53h-1c2 2 3 4 3 7l-3 4h1a5 5 0 000-11z" fill="#D32929"/><path d="M182 54c0 11-21 20-48 20s-49-9-49-20l1-2h-2s-14 48 47 51 51-49 51-49z" fill="#F5B008"/><path d="M115 95c-8-7-13-16-15-26-4-1-8-4-10-6-4-3-6-7-7-11-1 4-11 48 48 51h12c-10 0-20-2-28-8z" fill="#000" opacity=".1"/><path d="M54 19l7 18s6 11 3 12-14-9-14-9l4-21z" fill="#F94B4B"/><path d="M71 110l-4-2-6-6-2-3-2 1s-3-3-5-2c0 0-2 1-2 7v2l3 3 8 5 8-1 2-2v-2z" fill="#722F0E"/><path d="M58 100s-3-3-5-2-2 6-2 6 0 2 3 4c4 2 3 3 8 4 4 2 9 1 10-1 1-1-2-2-2-2l-5-4-4-4-1-2-2 1z" fill="#964C23"/><path d="M65 106l-1-1v-1h-2l1-1h-1c0-1 0-1 0 0l-1-1v-1l-1 1h-3v1h3l-1 1v1l2-1v1a4 4 0 00-1 1h3a98 98 0 01-1 2h1l3-2h-1zm-5-2v-1h2l-1 1h-1zm1 2v-1l1-1h1v1l-2 1zm2 1v-1h1l-1 1z" fill="#FFC019"/><path d="M51 48c2 1 6 19 8 28s2 23 2 23-6 3-10 2l-5-25-7-24s5-8 12-4z" fill="#42210B"/><path d="M40 115l-4-3-4-7-2-3h-2l-4-2s-2 1-3 6l-1 2c0 2 1 3 3 4l6 6 9 1 2-2v-2z" fill="#722F0E"/><path d="M28 101l-4-2c-2 1-3 5-3 5s0 3 3 6c3 2 2 3 6 5 4 3 9 2 10 1s-2-3-2-3l-4-5-2-5-2-2h-2z" fill="#964C23"/><path d="M35 111h-2v-1-1h-1v-1l-1-1v-1c1 0 0 0 0 0l-1 1h-3l3 1-1 1v1l2-1-1 1v1h2a46 46 0 01-1 2h1l3-1v-1zm-6-2l1-1h1v1h-2zm2 1v-1l2 1-1 1-1-1zm1 2l1-1 1 1h-2z" fill="#FFC019"/><path d="M33 50l-6 32-6 20s4 3 9 3c0 0 12-22 13-29l4-24" fill="#42210B"/><path d="M48 10l-1 1 1-1z" fill="#1C5028"/><path d="M54 18c-1-2-4-3-8-3s-11 6-14 9l-2 9c0 7 0 13 3 19 4 0 15 1 17-1 4-3 3-16 3-18l1-15z" fill="#F94B4B"/><path d="M41 8h-1v1h1V8zM47 12c-2 1-4 2-6 1l-1 1 8-1-1-1z" fill="#1C5028"/><path d="M48 5s-1 10-3 11l-6-2c-1-1-3-8-2-9s10-2 11 0z" fill="#FFC197"/><path d="M38 13v5s2 2 6 0l1-3" fill="#FFC197"/><path d="M50 3h-1l-2-2-4-1v1l-3-1-3 2v1l-3 2 1 2-1 3 2 2v1l4 2v-2l-1-1v-2a1 1 0 012 0V9l4-2c2 2 6 2 7 0 0-2 0-3-2-4z" fill="#42210B"/><path d="M42 9v4h7l-2 5c-1 1-4 0-4-1l-2-3V9h1z" fill="#42210B"/><path d="M74 47L23 36c-1-1-9-4-8-8l60 15" fill="#C1C1C1"/><path d="M108 52c0-5-8-5-8 0h-5l-6-2-9-8c-4-4-9 2-6 6 6 6 13 11 21 12 5 1 13-1 13-8z" fill="#C1C1C1"/><path d="M49 34s-28-10-34-6c-5 5 59 18 59 18s6 7 20 9c16 3 18-4 8-12-10-7-20-6-28-3-2 1-25-6-25-6z" fill="#E0DEE1"/><path d="M81 44c4-3 9-4 13-2 8 3 10 8 10 8s-9-10-23-6z" fill="#FFF"/><path d="M45 44a102 102 0 0111 0l1-2-6-2h-1l-1-1 1-3-1-1h-1l-2 5h-7l1 5h4l1-1z" fill="#FFC197"/><path d="M45 37l-9-3 6-7c1-2-1-6-2-9l-2-1-5 3c-4 4-8 11-9 16-1 7 4 9 11 10l12 1-2-10z" fill="#F94B4B"/><path d="M68 48s-1-5-3-5h-1l-2-2v2h-2l1 3s3 3 7 2z" fill="#FFC197"/><path d="M68 47s3-2 2-3-3 2-3 2" fill="#FFC197"/><path d="M46 39c-1-1-1-2-3-2l-6-2 3-4 2-2v-1l-5 6v2l6 2c2 1 2 3 2 4l1 5h1l-1-8z" fill="#42210B"/><path d="M31 46l2 5v1l13-5-15-1z" fill="#991A1A"/><path d="M53 25h-1l1 11h1l-1-11z" fill="#42210B"/></g></g></svg>