<svg width="341" height="134" xmlns="http://www.w3.org/2000/svg"><g fill-rule="nonzero" fill="none"><path d="M57.8 88.4c-.3-2.4-.4-4-.4-5.9 0-6.8 2.2-10.7 8.5-14.7 5.5-3.4 9-5.6 11.3-7.2l.4-.2 4.2-3.1.2-.2 1.9-1.7A28 28 0 0093 33.5C93.1 13 76 0 48.6 0c-17.2 0-30.4 5-39 14.9-5.7 6.3-8.1 12-9.6 22.6l30.7 3a20 20 0 012.7-9c2.8-4.7 7.7-7 14.4-7 9 0 14.2 4.1 14.2 11.1 0 5-2.4 8-9.7 12.4a72.8 72.8 0 00-12.7 8.6l-.3.2c-.7.8-1.5 1.6-2.3 2.7-4.8 5.8-6.6 11.7-6.6 22v1c0 3.4 0 3.7-.3 5.9h27.7zm1.2 38.3V98.5H29v28.2h30z" fill="#D64800" opacity=".4"/><path d="M97.7 13.7c.1 0 .3 0 .5-.3 3.4-2.4 6.7-5.7 9.6-10l-.2-.4L103 .2h-.4a27.2 27.2 0 01-8.7 8.5l3.3 4.5c.2.3.4.5.6.5zm6.9 29.8v-3.2l3.8 2.8.7.3c.2 0 .5-.2.7-.5 1.7-1.7 3-3.6 3.9-6a11 11 0 003.7 3.2c3.8 2 9.3 2.5 16.4 2.5.8 0 1.2-.3 1.4-.9l2.2-5.4a147 147 0 01-11.8 0v-8.8h3l5.3.1.2-.3v-5l-.4-.3-5.2.1h-3v-6.5h4.8l5.8.1.3-.3v-5.1l-.2-.2-5.8.1H129l3.5-7.2v-.5L126.7.3l-.5.2c-.9 3.1-2.1 6.5-3.5 9.7h-5.8l4.1-2.6.2-.3c-1.4-2.4-3-4.6-5-6.7h-.3l-4.5 2.6v.3c1.7 2.1 3.2 4.5 4.3 6.7h-1l-5.9-.1-.3.2v5.2l.4.2 5.7-.1h4.6v19c-1.6-1-3-2.4-3.8-4.1.4-2.6.6-5.6.7-9.3l-.4-.4-5.3-.8-.4.3c0 4.7-.2 8.3-.9 11.3-.8 3.3-2.3 5.7-4.5 7.9V19.9c1.3-1.8 2.5-3.8 3.6-6.2l-.2-.4-4.7-2.6h-.4A36 36 0 0193.6 23l2 5.5c.1.3.3.5.6.5.1 0 .4 0 .6-.3l1.8-1.9v5l-.2 11.8h6.2zm65 0l-.4-13.6c3.7 4.2 8 7.5 13.9 10.9l.6.2c.3 0 .4-.1.5-.3l4.2-5.5a57.6 57.6 0 01-16-9.5H187l.3-.2v-5.2l-.3-.3-7.2.1h-1.9a63 63 0 003.6-5.6l-.2-.4-4.7-2h8l.3-.2V6.6l-.3-.3-7.2.2h-8V.6l-.3-.3h-6l-.2.3v5.9h-7.7l-7.3-.2-.3.3V12l.3.2h7.3l-4 2.1-.2.4c1.2 1.5 2.6 3.6 3.6 5.5H153l-7.2-.1-.3.3v5.2l.3.3 7.2-.1h6.9c-4.4 4.6-9 7.7-15.3 10.5l3.8 4.8c.2.2.3.3.5.3s.4 0 .6-.2c5.6-3 10-6.3 13.5-10.9l-.4 13.3h7zM163 20.1H156l3.8-2.2.2-.4c-1-2-2.5-3.9-3.9-5.5h6.7v8.1zm8.8 0h-2.3v-8h6.2c-1 2.7-2.3 5.5-4 8zm50 20.8c9.5-2.2 15.3-8.4 15.3-16.6 0-10-6.6-18.2-18.8-18.2-12.4 0-20.6 8.8-20.6 19.7 0 3.6 1 6 2.2 8.1 1.7 2.7 3.7 4 6.4 4 3.5 0 6-1.3 8.4-4.8 3.1-4.6 6-12.5 7-21 4.6 1 8.3 5.3 8.3 12.1 0 5.4-4.3 10-14 11.7l4.4 4.6c.5.5.8.5 1.4.4zm-15.2-10.2c-.8 0-1.4-.6-1.9-1.5s-.8-2-.8-3.4c0-7 4-12.8 10.7-13.9a45 45 0 01-4.5 15.3c-1.2 2.4-2.5 3.5-3.5 3.5zm-96.6 55l.8-.2a22 22 0 0011.8-8.9c2-3 2.8-7.2 3.1-13h1.8l6.5.2.3-.4v-5.7l-.4-.3-6.4.1h-1.7v-7.9l-.3-.3H119l-.4.3v8h-6.4v-8l-.4-.3h-6.1l-.4.3v8h-2.6l-5.5-.2-.4.3v5.7l.3.4 5.7-.1h2.5v.4l-.2 8h7.3l-.2-8v-.4h6.4c-.2 4.7-.8 7.2-2.3 9.6-2.2 3.7-6 6-12.6 7.7l5.2 4.2c.3.3.6.5 1 .5zm73.3-14.8l.3-.3v-6.4l-.3-.3-7 .1h-20l-6.5-.1-.4.3v6.4l.3.4 6.7-.2h20.2l6.7.2zm52.4-16.6l2.3-1.7V52a27.2 27.2 0 00-4.4-4.6h-.5l-2.2 1.7v.4a27 27 0 014.3 4.7h.5zm-4.2 3l2.5-1.7V55c-1.3-1.8-3-3.4-4.6-4.8h-.4l-2.4 1.8v.4c1.8 1.5 3 3 4.4 4.8h.5zM215 83.1c4 0 10.7-.4 15.5-.8l.2-.3-.2-6.5-.4-.3c-6.1.7-10.3 1-15.4 1-1.9 0-2.8-.1-3.4-.8-.3-.4-.4-1-.4-2V70c7-2.6 13.6-5.7 19.3-9.4v-.4l-4.4-5.3h-.4c-4.7 3.4-10 6.2-14.4 8.3V52.6l-.3-.3h-6.3l-.3.3-.2 20.9c0 3 .1 5.2 1.4 6.8 2 2.4 5.4 2.8 9.7 2.8zm39.2.8a53.2 53.2 0 0016.4-11.6c3.4 3 7 6.7 10 10.6h.5l5.3-4.9v-.5a95 95 0 00-11.3-10.7 91.9 91.9 0 006.6-11.5c0-.3-.2-.5-.5-.8l-2.7-2.7-4.6.2h-12.8l-6.7-.1-.4.2v6.2l.3.3 6.7-.1h10.7a45.4 45.4 0 01-23.5 21l5.3 4c.3.2.4.4.7.4zm68.2 1.9c4.8 0 7.9-1.8 8.7-6 1.4 1 3 2.5 4.5 4.4l.5-.1 3.5-4.7V79a25.5 25.5 0 00-8.2-5.6 204 204 0 01-.4-11.2c2.3-.2 4.6-.6 6.4-.9l.3-.3-.8-5.5-.5-.2-5.5.8v-6.7l-.3-.4h-6l-.3.4v7.3l-9.4.2-.3.3.2 5.5.3.3c3 0 6.3 0 9.4-.3l.3 9.2c-1-.2-1.5-.3-2.8-.2-4 0-8.6 2.2-8.6 7.1 0 5 4.3 7 9 7zm-15.4 1c1.6-.1 2.9-1 3-3 .2-3.1.5-5 2.3-10l-1.4-.7c-.6 1-1.3 2-2.2 2.8-.9.9-1.1.8-1.4 0-.2-1-.2-2-.2-2.9 0-3.5.6-8.6 1.6-12.7 1.2-4.6 1.7-7.5 1.8-10.1l-.3-.4-6.1-.9-.3.2c0 2.8-.6 5.9-1.3 9.2-1.1 5-1.6 11.4-1.6 15.8 0 5.1 1 8.7 2.5 10.7.8 1 2.1 2 3.6 2zm15-6.9c-2.2 0-2.9-.8-2.9-1.5 0-1 1-1.7 2.8-1.7 1.4 0 2 .1 2.9.4 0 2-.4 2.8-2.8 2.8zm-209.9 24c5 0 9.8-.3 14.1-1l.4-.4-.2-6.3-.3-.3a101.4 101.4 0 01-22 .7l-.3.2-.2 6.4.4.3c2.7.3 5.6.4 8.1.4zm3 25.3c5 0 10.4-.1 15.7-.7l.3-.4-.7-6.8-.4-.3c-4.8.8-9.7 1.2-14.5 1.2-7.5 0-10-.8-10.7-5.4l-.3-.2-5.6 1.8-.2.3c.5 5 3 10.5 16.4 10.5zm48-25.3c5 0 9.7-.3 14-1l.4-.4-.2-6.3-.3-.3a101.4 101.4 0 01-22 .7l-.2.2-.3 6.4.4.3c2.7.3 5.6.4 8.1.4zm3 25.3c4.9 0 10.3-.1 15.6-.7l.3-.4-.6-6.8-.5-.3c-4.8.8-9.7 1.2-14.4 1.2-7.6 0-10-.8-10.8-5.4l-.3-.2-5.6 1.8-.2.3c.5 5 3 10.5 16.4 10.5zm70.6-32.6l2.3-1.7v-.5a27.2 27.2 0 00-4.4-4.6h-.4l-2.3 1.7v.4a27 27 0 014.3 4.7h.5zm-32.4 35l.5-.2c2.5-8.7 4.7-15.7 7.7-24.3l3-.1c2 0 2.3.5 2.3 3.2 0 4-1 9.4-1.6 11.7-.7 2.1-1.3 2.4-2.8 2.4-1 0-3-.4-4.5-1l.6 6.4c0 .7.1.7.5.8 2 .6 3.8.8 5.5.8 2.4 0 5.3-1 7-6.1 1.2-3.5 2-9.5 2-15.4 0-6.6-3.4-8.9-7.2-8.9l-2.6.1a401 401 0 012.6-7.1l-.1-.5-6.1-1.5-.5.2-3.3 9.8c-3 .4-6.4.8-10 1l-.2.4 1 5.5.3.2 6.8-.9c-2.3 7-4.6 13.7-7 21.6l.1.3 6 1.5zm28.2-32l2.5-1.7v-.5c-1.3-1.8-3-3.4-4.6-4.8h-.4l-2.4 1.8v.4c1.8 1.5 3 3 4.4 4.8h.5zm.6 17.9l5.6-3.3.2-.4c-2-5-4.8-10-8.7-14.2h-.4l-4.8 3v.5c3.4 3.8 6 9.1 7.7 14.3h.4zm38.5 15.7l-.2-13.7v-8.3c5.2 3.5 9 7 13.8 12.2h.4l4.4-5v-.5a68.1 68.1 0 00-14.8-11.4h-.5l-3.3 3.9v-5.2c1.1-1.6 2.3-3.2 3.4-5l-.2-.4-2-1.2h8.1l7.4.2.4-.4V93l-.4-.3-7.4.2h-24.6l-7.5-.2-.3.3v5.4l.3.4 7.5-.2h11.7a48.2 48.2 0 01-21.4 19.3l3 4.7c.3.4.6.6.9.6l.6-.1c5.4-3 9.8-6 13.8-10v6.4l-.3 13.7h7.2zm43.6 0v-18.8h6.5v7.6h-1.2v-5.7l-.2-.3h-3.5l-.3.3v5.5l-.1 7h4.1v-2.2h6l4.9.1.3-.3v-10.1l-.3-.3h-3.6l-.3.3v5.7h-1.3v-7.6h6.8v12.3c0 .5-.1 1-.8 1h-3.5l1.9 5c.1.4.2.5 1.1.5 5.3 0 7.1-1 7.1-5.6l-.1-7v-6.1l.1-4.7-.3-.3-4.8.1h-6.6v-2.4h7.5l5.9.1.3-.3v-4.4l-.3-.3-5.9.2h-2.4v-3h6.1l.3-.2V95l-.3-.3-6 .1V91l-.4-.3h-5.2l-.3.3v3.8H322V91l-.3-.3h-5.2l-.3.3v3.8l-5.9-.1-.3.3v4.3l.3.3 6-.2v3H308.1l-.3.2v4.4l.3.3 5.9-.1h6.8v2.4h-6.2l-4.8-.1-.3.3V120.9l-.1 12.4h5.8zm-10.2-32.6l.6-.1 3.9-4.5-.1-.5c-2-1.6-4.2-3-6.3-4l-.5.2-3.9 4 .1.4c2 1 4.3 2.6 6.2 4.5zm21.4 1.9H322v-3h4.5v3zm-23.2 9.1l.5-.1 3.6-4.7-.1-.4c-2-1.5-4.5-3-6.2-3.7l-.5.1-3.5 4.3.1.3c1.8 1 4 2.5 6.1 4.2zm-.1 21.2l.4-.2c2.3-5.7 3.4-9.1 4.7-14 0-.5 0-.8-.4-1.2l-4.8-2.8a79.6 79.6 0 01-5.4 15.2l.2.5 5.3 2.5z" fill="#444"/></g></svg>