<svg width="350" height="128" xmlns="http://www.w3.org/2000/svg"><g fill="#D64800" fill-rule="nonzero"><path d="M43 89c-.5-3.4-.5-4.9-.5-6.4v-.4c0-2.5.2-6 .6-12.2l4.3-49.1C48.3 12.5 49 6 50 0H0c.7 3.8 1.5 10 2.1 16.2l.2 1.4.3 3.3 4.3 49c.7 7.8.8 9 .8 10.3v1.7c0 2.8 0 3.9-.4 7.1h35.6zm4 39V98H4v30h43z" opacity=".4"/><path d="M74.2 66.2c6.7 0 10-3.4 10.5-7.6 2.7 1.4 5.8 3.5 9.3 6.7h.5l4-5.1v-.5a57.8 57.8 0 00-14-7.9l-.5-8.5c4-.4 7.7-1 11-2l.3-.5-1.2-5.7-.4-.2a46 46 0 01-10 2v-8.4l-.3-.2H77l-.3.3c0 9.1.4 15.2 1 22l-3-.1c-6.2 0-11.2 3-11.2 7.7 0 5.5 4.4 8 10.6 8zm-.4-6c-2.4 0-3.9-.6-3.9-2 0-1.2 1.5-2 3.9-2 1.8 0 2.6.1 3.7.5 0 2.2-1.2 3.6-3.7 3.6zm54.7 7.3l.9-.2c10.6-3.6 14-10 14-19.3 0-5-.7-8.7-2.6-11.4-2-2.7-4-3.6-6.6-3.6a7.4 7.4 0 00-6.3 3.5c.5-1.7.9-2.6 1.2-4 .3-1.3.5-2.3.7-4.4l-.3-.3-6-.4-.4.3c-.4 4-.9 6.6-1.5 9.4-.9 4-1.7 7.6-1.7 11.1 0 2.7.7 5.7 1.8 7.8l.4.2 5.7-1.3.2-.5a16 16 0 01-1.1-5.6c0-2.3.2-3.7 1-5.5.8-2.2 3-4.5 4.6-4.5 1.5 0 2.2.5 2.7 1.8.7 1.4.9 4 .9 6.8 0 8.2-2.5 12.5-13 15.1l4.6 4.6c.3.2.5.4.8.4zM201 31.6l2.4-1.7v-.5a27.2 27.2 0 00-4.4-4.6h-.5l-2.3 1.7v.4a27 27 0 014.4 4.7h.4zm-4.1 3l2.4-1.7v-.5c-1.3-1.8-2.8-3.4-4.5-4.8h-.5l-2.3 1.8v.4c1.8 1.5 3 3 4.4 4.8h.5zm-15 30.2c5.6 0 10-.2 14.1-.5l.3-.4-.2-6.5-.4-.2c-5.5.5-9.9.9-13.8.9-5.3 0-9.2-.7-9.2-3.7 0-2.1 1.6-4 5.1-6 1 .7 2 1.2 3.1 1.2 1.4 0 3.1-1.2 3.3-3 0-1 .5-1.6 1.2-2.2a144 144 0 0110.5-4l.2-.3-2.7-6-.4-.1c-4.5 1.6-9.1 3.6-13.2 5.7-2.2-3.2-4.4-7-6.4-10.5l-.4-.2-5.5 2.9v.4c2 3.6 4.3 7.6 6.5 10.7-4.8 3.4-8.2 7.3-8.2 11.4 0 7 5.2 10.4 16 10.4zM226 38.9c5 0 9.8-.3 14-1l.4-.4-.2-6.4-.3-.2a101.4 101.4 0 01-21.9.7l-.3.2-.2 6.4.3.3c2.7.3 5.6.4 8.2.4zm3 25.3c5 0 10.4-.1 15.6-.7l.3-.4-.6-6.8-.4-.3c-4.8.8-9.8 1.2-14.5 1.2-7.5 0-10-.8-10.7-5.4l-.4-.2-5.6 1.8-.2.3c.6 5 3 10.5 16.4 10.5zm46.2 2.6c14-.5 21.6-4.7 21.6-14.5 0-6.2-5.5-10.3-12.7-10.3-1.7 0-3.4.3-5 1l.6-.7 1.9-1.8.9-.9 5-5 .9-.9c.4-.4.8-1.2.8-2.3 0-2-1.8-3.6-4.2-3.6l-.9.1a709 709 0 01-17.5 2.7l-.3.4 1 5.7.3.3c4.2-.7 8.1-1.4 11-2.1L261 54.3v.5l4.6 3.8h.5c2.6-3.2 5-5.6 7.4-7.7a15 15 0 019.2-3.6c4.8 0 6.8 2.4 6.8 5 0 4.4-4.6 8.1-16.8 8.1h-2.4l3.7 5.8c.3.5.5.6 1.3.6zm57.4-1c4.8 0 7.9-1.8 8.7-6 1.4 1 3 2.5 4.5 4.4l.5-.1 3.5-4.7V59c-2.1-2.1-4.7-4-8.2-5.6a204 204 0 01-.5-11.2c2.4-.2 4.6-.6 6.5-.9l.2-.3-.8-5.5-.4-.2-5.5.8v-6.7l-.3-.4h-6l-.3.4v7.2c-3 .2-6.1.3-9.4.3l-.3.3.1 5.5.3.3c3.1 0 6.4 0 9.5-.3 0 3.3.2 6.3.3 9.2-1-.2-1.5-.3-2.8-.2-4.1 0-8.6 2.2-8.6 7.1 0 5 4.3 7 9 7zm-15.5 1c1.7-.1 3-1 3-3 .2-3.1.6-5 2.4-10l-1.4-.7c-.7 1-1.3 2-2.2 2.8-.9.9-1.2.8-1.4 0l-.3-2.9c0-3.5.7-8.6 1.7-12.7 1.2-4.6 1.7-7.5 1.8-10.1l-.3-.4-6.1-.9-.4.2c0 2.8-.5 5.9-1.3 9.2-1 5-1.6 11.4-1.6 15.8 0 5.1 1.1 8.7 2.6 10.7.8 1 2.1 2 3.5 2zm15-6.9c-2.1 0-2.8-.8-2.8-1.5 0-1 1-1.7 2.7-1.7 1.4 0 2.1.1 3 .4 0 2-.4 2.8-2.9 2.8zM78.2 84c5 0 9.8-.3 14.1-1l.4-.4-.2-6.3-.3-.3a101.4 101.4 0 01-22 .7l-.3.2-.2 6.4.4.3c2.7.3 5.6.4 8.1.4zm3 25.3c5 0 10.4-.1 15.7-.7l.3-.4-.7-6.8-.4-.3c-4.8.8-9.7 1.2-14.5 1.2-7.5 0-10-.8-10.7-5.4l-.3-.2-5.6 1.8-.2.3c.5 5 3 10.5 16.4 10.5zm47-25.3c5 0 9.8-.3 14.1-1l.4-.4-.2-6.3-.3-.3a101.4 101.4 0 01-22 .7l-.3.2-.2 6.4.4.3c2.7.3 5.6.4 8.1.4zm3 25.3c5 0 10.4-.1 15.7-.7l.3-.4-.7-6.8-.4-.3c-4.8.8-9.7 1.2-14.5 1.2-7.5 0-10-.8-10.7-5.4l-.3-.2-5.6 1.8-.2.3c.5 5 3 10.5 16.4 10.5zm69.7-32.6l2.4-1.7v-.5a27.2 27.2 0 00-4.4-4.6h-.5l-2.3 1.7v.4a27 27 0 014.4 4.7h.4zm-32.4 35l.5-.2c2.5-8.7 4.8-15.7 7.8-24.3l3-.1c2 0 2.2.5 2.2 3.2 0 4-.9 9.4-1.6 11.7-.7 2.1-1.3 2.4-2.7 2.4-1.1 0-3-.4-4.5-1l.5 6.4c0 .6.2.7.5.8 2 .6 3.9.8 5.5.8 2.4 0 5.4-1 7-6.1 1.2-3.5 2-9.5 2-15.4.1-6.6-3.4-8.9-7.1-8.9l-2.6.1a401 401 0 012.5-7.1v-.5l-6.2-1.5-.4.2-3.3 9.8c-3.1.4-6.4.8-10 1l-.3.4 1 5.5.4.2 6.7-.9-7 21.6.2.3 6 1.5zm28.3-32l2.4-1.7v-.5c-1.3-1.8-2.8-3.4-4.5-4.8h-.5l-2.3 1.8v.4c1.8 1.5 3 3 4.4 4.8h.5zm.5 17.9l5.7-3.3.1-.4c-1.9-5-4.8-10-8.6-14.2h-.4l-4.8 3-.1.5c3.4 3.8 6 9.1 7.7 14.3h.4zm41 12.6l-.2-14.1V85.5c2.7-2.3 5.5-4.9 8.3-7.8v-.6l-5.6-3.9h-.6a77.5 77.5 0 01-27.1 20.3l4.8 4.2c.8.7 1 .7 2 .2 4-2.3 7.5-4.6 10.9-7v5l-.2 14h7.7zm50 0l-.2-14.1V85.5c2.7-2.3 5.5-4.9 8.3-7.8v-.6l-5.6-3.9h-.6a77.5 77.5 0 01-27.1 20.3l4.8 4.2c.8.7 1 .7 2 .2 4-2.3 7.5-4.6 10.9-7v5l-.2 14h7.7z"/></g></svg>