<svg width="861" height="537" xmlns="http://www.w3.org/2000/svg" xmlns:xlink="http://www.w3.org/1999/xlink"><defs><path id="b" d="M0 0h841v508H0z"/><filter x="-1.5%" y="-2.5%" width="104.2%" height="106.9%" filterUnits="objectBoundingBox" id="a"><feOffset dx="5" dy="5" in="SourceAlpha" result="shadowOffsetOuter1"/><feGaussianBlur stdDeviation="5" in="shadowOffsetOuter1" result="shadowBlurOuter1"/><feColorMatrix values="0 0 0 0 0   0 0 0 0 0   0 0 0 0 0  0 0 0 0.190559441 0" in="shadowBlurOuter1"/></filter><filter x="-4.2%" y="-4.2%" width="108.4%" height="108.4%" filterUnits="objectBoundingBox" id="c"><feGaussianBlur stdDeviation="5" in="SourceGraphic"/></filter><filter x="-5.9%" y="-5.9%" width="111.8%" height="111.8%" filterUnits="objectBoundingBox" id="d"><feGaussianBlur stdDeviation="5" in="SourceGraphic"/></filter><filter x="-5.6%" y="-5.6%" width="111.1%" height="111.1%" filterUnits="objectBoundingBox" id="e"><feGaussianBlur stdDeviation="5" in="SourceGraphic"/></filter><linearGradient x1="50%" y1="100%" x2="50%" y2="0%" id="f"><stop stop-color="gray" stop-opacity=".3" offset="0%"/><stop stop-color="gray" stop-opacity=".1" offset="54%"/><stop stop-color="gray" stop-opacity=".1" offset="100%"/></linearGradient><linearGradient x1="50%" y1="100%" x2="50%" y2="0%" id="g"><stop stop-color="gray" stop-opacity=".3" offset="0%"/><stop stop-color="gray" stop-opacity=".1" offset="54%"/><stop stop-color="gray" stop-opacity=".1" offset="100%"/></linearGradient><circle id="i" cx="34.5" cy="34.5" r="34.5"/><filter x="-7.2%" y="-7.2%" width="120.3%" height="120.3%" filterUnits="objectBoundingBox" id="h"><feMorphology radius="2" operator="dilate" in="SourceAlpha" result="shadowSpreadOuter1"/><feOffset dx="2" dy="2" in="shadowSpreadOuter1" result="shadowOffsetOuter1"/><feComposite in="shadowOffsetOuter1" in2="SourceAlpha" operator="out" result="shadowOffsetOuter1"/><feColorMatrix values="0 0 0 0 0   0 0 0 0 0   0 0 0 0 0  0 0 0 0.5 0" in="shadowOffsetOuter1"/></filter><path d="M40.7 61c-.4-2.7-.5-4.7-.5-8.5V50h8.4c2.5 0 4 .1 6.1.4v-7.8c-2 .3-3.5.5-6.1.5h-8.4v-1.2l2-3.2h6.5c2.6 0 4.3 0 6.1.4v-7.8c-2 .3-3.3.4-5.8.4h-2.6l7-11.7 4.6-7H43.9c-.5 1.7-1 3-2.6 6.1L34.5 32 27.8 19c-1.6-3-2.1-4.3-2.6-6.1H11l4.6 7 7.2 11.8h-2.5c-2.7 0-4.3-.2-6.1-.5V39c2.2-.4 3.4-.4 6.1-.4H27l2 3.2v1.2h-8.7c-2.7 0-4.4-.2-6.2-.5v7.8c1.9-.3 3.6-.4 6.2-.4h8.6v2.5c0 3.2 0 5.5-.4 8.5h12.3z" id="j"/><filter x="-3.2%" y="-3.1%" width="106.4%" height="106.2%" filterUnits="objectBoundingBox" id="k"><feOffset dx="-3" dy="-3" in="SourceAlpha" result="shadowOffsetInner1"/><feComposite in="shadowOffsetInner1" in2="SourceAlpha" operator="arithmetic" k2="-1" k3="1" result="shadowInnerInner1"/><feColorMatrix values="0 0 0 0 0   0 0 0 0 0   0 0 0 0 0  0 0 0 1 0" in="shadowInnerInner1"/></filter><circle id="m" cx="26" cy="26" r="26"/><filter x="-9.6%" y="-9.6%" width="126.9%" height="126.9%" filterUnits="objectBoundingBox" id="l"><feMorphology radius="2" operator="dilate" in="SourceAlpha" result="shadowSpreadOuter1"/><feOffset dx="2" dy="2" in="shadowSpreadOuter1" result="shadowOffsetOuter1"/><feComposite in="shadowOffsetOuter1" in2="SourceAlpha" operator="out" result="shadowOffsetOuter1"/><feColorMatrix values="0 0 0 0 0   0 0 0 0 0   0 0 0 0 0  0 0 0 0.5 0" in="shadowOffsetOuter1"/></filter><path d="M31.1 46c-.2-2-.3-3.5-.3-6.4v-1.9H37c1.9 0 3 .1 4.6.3v-5.8c-1.5.3-2.7.3-4.6.3h-6.2v-.8l1.5-2.4H37c2 0 3.1 0 4.6.3v-5.9c-1.6.3-2.5.4-4.4.4h-2l5.3-8.8L44 10H33.5c-.3 1.3-.7 2.2-2 4.6l-5 9.5-5-9.6a22 22 0 01-2-4.5H9c.9 1.2 2.5 3.7 3.4 5.3l5.3 8.8H16c-2 0-3.3-.1-4.7-.4v5.9c1.8-.3 2.6-.3 4.7-.3h4.8l1.5 2.4v.8h-6.4c-2 0-3.4 0-4.6-.3V38c1.3-.2 2.6-.3 4.6-.3h6.4v1.9c0 2.4-.1 4.1-.4 6.4h9.2z" id="n"/><filter x="-4.3%" y="-4.2%" width="108.6%" height="108.3%" filterUnits="objectBoundingBox" id="o"><feOffset dx="-3" dy="-3" in="SourceAlpha" result="shadowOffsetInner1"/><feComposite in="shadowOffsetInner1" in2="SourceAlpha" operator="arithmetic" k2="-1" k3="1" result="shadowInnerInner1"/><feColorMatrix values="0 0 0 0 0   0 0 0 0 0   0 0 0 0 0  0 0 0 1 0" in="shadowInnerInner1"/></filter><circle id="q" cx="41" cy="41" r="41"/><filter x="-6.1%" y="-6.1%" width="117.1%" height="117.1%" filterUnits="objectBoundingBox" id="p"><feMorphology radius="2" operator="dilate" in="SourceAlpha" result="shadowSpreadOuter1"/><feOffset dx="2" dy="2" in="shadowSpreadOuter1" result="shadowOffsetOuter1"/><feComposite in="shadowOffsetOuter1" in2="SourceAlpha" operator="out" result="shadowOffsetOuter1"/><feColorMatrix values="0 0 0 0 0   0 0 0 0 0   0 0 0 0 0  0 0 0 0.5 0" in="shadowOffsetOuter1"/></filter><path d="M48.4 73a70 70 0 01-.6-10.1v-3h10c3 0 4.7.2 7.3.5V51c-2.3.5-4.2.6-7.3.6h-10v-1.4l2.4-3.8H58c3.1 0 5 .1 7.3.5v-9.3c-2.4.4-4 .6-7 .6h-3l8.4-14L69 16H52.2c-.5 2-1.2 3.5-3.1 7.3L41 38.4l-8-15.2c-1.8-3.5-2.5-5-3.1-7.2H13c1.4 1.8 4 5.9 5.5 8.4L27 38.3h-2.9c-3.2 0-5.2-.2-7.3-.6V47c2.7-.4 4-.5 7.3-.5H32l2.3 3.8v1.4H24c-3.2 0-5.3-.1-7.4-.6v9.3c2.2-.3 4.3-.5 7.4-.5h10.2v3c0 3.8-.1 6.5-.5 10.1h14.7z" id="r"/><filter x="-2.7%" y="-2.6%" width="105.4%" height="105.3%" filterUnits="objectBoundingBox" id="s"><feOffset dx="-3" dy="-3" in="SourceAlpha" result="shadowOffsetInner1"/><feComposite in="shadowOffsetInner1" in2="SourceAlpha" operator="arithmetic" k2="-1" k3="1" result="shadowInnerInner1"/><feColorMatrix values="0 0 0 0 0   0 0 0 0 0   0 0 0 0 0  0 0 0 1 0" in="shadowInnerInner1"/></filter><circle id="u" cx="24.5" cy="24.5" r="24.5"/><filter x="-10.2%" y="-10.2%" width="128.6%" height="128.6%" filterUnits="objectBoundingBox" id="t"><feMorphology radius="2" operator="dilate" in="SourceAlpha" result="shadowSpreadOuter1"/><feOffset dx="2" dy="2" in="shadowSpreadOuter1" result="shadowOffsetOuter1"/><feComposite in="shadowOffsetOuter1" in2="SourceAlpha" operator="out" result="shadowOffsetOuter1"/><feColorMatrix values="0 0 0 0 0   0 0 0 0 0   0 0 0 0 0  0 0 0 0.5 0" in="shadowOffsetOuter1"/></filter><path d="M28.8 44c-.2-1.9-.3-3.3-.3-6v-1.8h5.9c1.8 0 2.8 0 4.3.3V31c-1.4.2-2.5.3-4.3.3h-5.9v-.8l1.4-2.3h4.6c1.8 0 3 0 4.3.3V23c-1.5.2-2.4.3-4.1.3h-1.9l5-8.3 3.2-5h-9.9c-.3 1.2-.7 2-1.9 4.3l-4.7 9-4.7-9c-1.1-2-1.5-3-1.9-4.3H8c.8 1.1 2.4 3.5 3.2 5l5 8.3h-1.6c-2 0-3.1-.1-4.4-.3v5.5c1.6-.3 2.4-.3 4.4-.3H19l1.4 2.3v.8h-6c-2 0-3.2 0-4.4-.3v5.5a26 26 0 014.4-.3h6V38c0 2.2 0 3.9-.3 6h8.6z" id="v"/><filter x="-4.5%" y="-4.4%" width="109.1%" height="108.8%" filterUnits="objectBoundingBox" id="w"><feOffset dx="-3" dy="-3" in="SourceAlpha" result="shadowOffsetInner1"/><feComposite in="shadowOffsetInner1" in2="SourceAlpha" operator="arithmetic" k2="-1" k3="1" result="shadowInnerInner1"/><feColorMatrix values="0 0 0 0 0   0 0 0 0 0   0 0 0 0 0  0 0 0 1 0" in="shadowInnerInner1"/></filter></defs><g transform="translate(5 14)" fill="none" fill-rule="evenodd"><use fill="#000" filter="url(#a)" xlink:href="#b"/><use fill="#F2F2F2" xlink:href="#b"/><circle fill="#7A7A7A" opacity=".3" filter="url(#c)" cx="625.5" cy="320.5" r="179.5"/><circle fill="#7A7A7A" opacity=".3" filter="url(#d)" cx="223" cy="381" r="127"/><circle fill="#7A7A7A" opacity=".3" filter="url(#e)" cx="350" cy="136" r="135"/><g transform="translate(573 306)"><path d="M36 123s71.7-60.8 113 0" fill="#F2F2F2" fill-rule="nonzero"/><ellipse fill="#F2F2F2" fill-rule="nonzero" cx="154.5" cy="154" rx="33.5" ry="5"/><ellipse stroke="#3F3D56" cx="159.5" cy="152" rx="33.5" ry="5"/><path d="M174 97.8a3 3 0 10.4-5.7v1.5l-.7-1.3a3 3 0 00-1.7 2.5 3 3 0 002 3z" fill="#57B894" fill-rule="nonzero"/><path d="M177.6 118c-.3-1.4 1-2.7 2.2-3.6 1.2-.8 2.7-1.6 3-3 .7-2-1.1-4-2.5-5.5-1-1.2-2-2.5-2.6-4-.4-.5-.6-1-.7-1.7a6 6 0 01.5-2.7l3.1-8.5M174 96.8a3 3 0 10.4-5.7v1.5l-.7-1.3a3 3 0 00-1.7 2.5 3 3 0 002 3h0z" stroke="#3F3D56"/><path d="M177.2 88a3 3 0 012.1-2l.3 1.5.4-1.5a3 3 0 11-2.8 2z" fill="#57B894" fill-rule="nonzero"/><path d="M177.2 88a3 3 0 012.1-2l.3 1.5.4-1.5a3 3 0 11-2.8 2h0z" stroke="#3F3D56"/><path d="M180 104.8a3 3 0 002.6-5.3l-.3 1.2-.3-1.5a3 3 0 00-2 5.6z" fill="#57B894" fill-rule="nonzero"/><path d="M180 104.8a3 3 0 002.6-5.3l-.3 1.2-.3-1.5s0 0 0 0a3 3 0 00-2 5.6h0z" stroke="#3F3D56"/><path d="M177 111.5a3 3 0 10.6-2.3l1.4 2-1.9-1a3 3 0 000 1.3z" fill="#57B894" fill-rule="nonzero"/><path d="M177 111.5a3 3 0 10.6-2.3l1.4 2-1.9-1a3 3 0 000 1.3h0z" stroke="#3F3D56"/><path d="M173 119.7s3-1.2 3.8-1.8c1-.7 4.6-1.4 4.8-.4.2 1 4.5 5.2 1.1 5.2-3.3 0-7.7.6-8.6 0-1-.5-1.1-3-1.1-3z" fill="#656380" fill-rule="nonzero"/><path d="M182.8 122.4c-3.4 0-7.8.5-8.7 0-.6-.4-1-1.8-1-2.4h-.1s.2 2.3 1 2.8c1 .5 5.4 0 8.7 0 1 0 1.3-.4 1.3-.8-.1.2-.5.4-1.2.4z" fill="#000" fill-rule="nonzero" opacity=".2"/><rect fill="#00209E" fill-rule="nonzero" x="34" y="89" width="13" height="34" rx="6.5"/><rect fill="#00209E" fill-rule="nonzero" x="59" y="68" width="13" height="55" rx="6.5"/><rect fill="#00209E" fill-rule="nonzero" x="83" y="54" width="13" height="69" rx="6.5"/><rect fill="#00209E" fill-rule="nonzero" x="108" y="41" width="13" height="82" rx="6.5"/><rect fill="#00209E" fill-rule="nonzero" x="133" y="17" width="13" height="106" rx="6.5"/><rect stroke="#3F3D56" x="36" y="88" width="13" height="34" rx="6.5"/><rect stroke="#3F3D56" x="60" y="66" width="13" height="55" rx="6.5"/><rect stroke="#3F3D56" x="85" y="53" width="13" height="69" rx="6.5"/><rect stroke="#3F3D56" x="110" y="39" width="13" height="82" rx="6.5"/><rect stroke="#3F3D56" x="135" y="15" width="13" height="106" rx="6.5"/><path stroke="#3F3D56" d="M186 123H0"/><path d="M174.3 102s1.9 7.8-.5 9c-2.5 1-1.7-8.7-1.7-8.7l2.2-.3z" fill="#A0616A" fill-rule="nonzero"/><path d="M156 149s-2 0-2.6.3c-.4.3-.9.3-1.3.2 0 0-3-.3-1.9 1.2 1 1.5 2.1 2 2.1 2.8 0 .7 4.4.7 4.5 0 .2-.7.3-4.3 0-4.4-.2-.2-.9 0-.9 0zM161 149s2 0 2.6.3c.4.3.9.3 1.3.2 0 0 3-.3 1.9 1.2-1 1.5-2.1 2-2.1 2.8 0 .7-4.4.7-4.5 0-.2-.7-.3-4.3 0-4.4.2-.2.9 0 .9 0z" fill="#575A89" fill-rule="nonzero"/><path d="M150.6 101.5s-1 21.2-.4 22.3c.5 1 2.4 19.1 2.1 20.2-.3 1-1.6 5.5 0 6.2 1.6.6 5 0 5 0s1-5.4.6-8.2c-.4-2.8-.5-14.6-.5-14.6l2.6-12.3 1 11.6s.2 16-1.6 19.2c-1.9 3.2.6 4.5.6 4.5s5.1.7 5.7.6c.5-.2-.4-5.4 0-7.7.4-2.2 1.3-15 2-18 .9-3.1 5.4-20.3 2-23.8-3.2-3.4-19.1 0-19.1 0z" fill="#3F3D56" fill-rule="nonzero"/><circle fill="#A0616A" fill-rule="nonzero" cx="160" cy="53" r="5"/><path d="M156 55.4s.9 6.4.4 6.5c-.4.2 7.6 0 7.6 0s-1.6-3.8 0-6.9l-8 .4z" fill="#A0616A" fill-rule="nonzero"/><path d="M156 60.2s3.5-2.7 7.7 0l.3.8h-8v-.8z" fill="#F2F2F2" fill-rule="nonzero"/><path d="M172.7 101.8l-2 .3c-3.4.5-9.2 1.2-9.4.7-.3-.6-1.2-3-1.9-2-.6 1-.2 2-3 2.2-2 0-4.7-.2-6.3-.7-.7-.2-1.1-.4-1-.7a536.7 536.7 0 002-26.2l-3.8-7.6-.3-.6s.4-1.5 1.6-1.8c1.2-.2 7-3.6 7-3.6s1.2-1.9 3.4-1.7c2.3.1 2.8-.8 6 1.7 0 0 3.7 1.6 5 2.4 1.3.8 2.8.8 3 2.2l-.4 1.4a80 80 0 01-3.6 7.4v5.3c0 2.7.2 5.8.7 7.5 1.1 3.5 4.3 13.5 3 13.8z" fill="#575A89" fill-rule="nonzero"/><path d="M166 51.2l-.5-1.2c-.1-1-.5-2-1-2.9a3 3 0 00-.8-1c-.4-.2-.9-.3-1.3-.3h-.4-.2l-.2-.5-.4.3a7 7 0 00-.5 0l-.2-.6-.2.5h-.5l-.3-.3c0 .2-.2.3-.4.3l-.4.1c-.9 0-1.7 0-2.4.4-.3.2-.5.5-.7.9l-.3.2c-.2.2-.5.4-.6.7-.2.2-.3.5-.3.8-.3.8-.4 1.6-.4 2.5 0 .9.3 1.7.9 2.4l1.1 1c.7.8.8 2 1.4 2.8a4.5 4.5 0 006.4.7l.6-.6c.3-.7.2-1.5.3-2.3.2-1.3 1.5-2.5 1.3-3.9z" fill="#3F3D56" fill-rule="nonzero"/><path d="M148.3 103s1.9 7.8-.5 9c-2.5 1-1.7-8.7-1.7-8.7l2.2-.3z" fill="#A0616A" fill-rule="nonzero"/><path d="M150.7 86.4s-.9 13.4-.7 16.6c-.8-.2-1.3-.5-1.2-.7a539 539 0 001.7-18l.5-8.9-4-7.8.1-.6 2 4.2 2.9.8-1.3 14.4z" fill="#000" fill-rule="nonzero" opacity=".1"/><path d="M147.3 67l-.9.8s-1.2 7.2-1 8.9c.1 1.8-2.8 28.3-.6 28.3 2.3 0 4.8-.4 4.4-1.3-.4-1 .6-17 .6-17l1.2-14-3.7-5.7z" fill="#575A89" fill-rule="nonzero"/><path d="M172 67.8c-.8 2.4-2.7 6.5-3 7.2v-2.9l2.4-5.6.5-.5.1 1.8zM172.7 102.7l-2 .3a290 290 0 01-1.7-15.4l.1-5.6c0 2.6.3 5.7.8 7.3 1 3.4 4 13.1 2.8 13.4z" fill="#000" fill-rule="nonzero" opacity=".1"/><path d="M171.1 65l2 .5s1.3 14.9 1.4 17.4c.2 2.6 1.7 18.3 1.5 19-.3.6-4.4 1.5-4.5.9-.1-.7-2-15.8-2-17 .2-1.2-.5-13.8-.5-13.8l2.1-7z" fill="#575A89" fill-rule="nonzero"/><path stroke="#3F3D56" d="M43 74l24.7-20.5 25-14 24.6-13.7L142 2"/><circle fill="#F2F2F2" fill-rule="nonzero" cx="41.5" cy="75.5" r="2.5"/><circle fill="#F2F2F2" fill-rule="nonzero" cx="66.5" cy="55.5" r="2.5"/><circle fill="#F2F2F2" fill-rule="nonzero" cx="91.5" cy="40.5" r="2.5"/><circle fill="#F2F2F2" fill-rule="nonzero" cx="115.5" cy="27.5" r="2.5"/><circle fill="#F2F2F2" fill-rule="nonzero" cx="140.5" cy="3.5" r="2.5"/><circle stroke="#3F3D56" cx="42.5" cy="74.5" r="2.5"/><circle stroke="#3F3D56" cx="66.5" cy="53.5" r="2.5"/><circle stroke="#3F3D56" cx="91.5" cy="40.5" r="2.5"/><circle stroke="#3F3D56" cx="116.5" cy="26.5" r="2.5"/><circle stroke="#3F3D56" cx="141.5" cy="2.5" r="2.5"/></g><g transform="translate(459 182)" fill-rule="nonzero"><path d="M200.8 95.3L175.4 90c-16-3.3-20.2 9-20.2 9 0 6.2-20.9 32.1-20.9 32.1l-6.2-13.9c1 .2 2 .1 2.9-.2 3.5-1 5.3-5 5.8-8.7.9-5.5.1-11.2-2.2-16.3-1-2.3-2.4-4.5-3.3-6.9-3.6-10 2.7-21.7-1.1-31.8-1.6-4.1-4.7-7.5-6.8-11.4-4.8-8.7-4.6-19.6-9.9-28-5-8-14.6-12.7-24-11.6-5.4.6-9.3 2.6-14.4.2-4.3-2-9.5-4.2-14-1-3.7 2.6-4.4 7.8-6.5 12-3.6 7.2-12.2 12-13.2 20-.3 2 0 4-.6 6-1.7 5.3-8.9 7-11.8 11.8-3 4.7 0 11.8 5.4 13.2 2.3.6 4.7.2 7 .8 2.2.6 4.3 2.6 3.9 4.7l-4.8.9-13.7 1.5-2 .1v.1h-.2l.1.1v.8c-3.9 1.5-10.1 5.5-12.5 16A16 16 0 019 96.4C5.5 100.6-.3 109 0 117c.5 11.6.5 16.2 15.8 13 3.9-.8 8-2.5 12.2-4.5.2 4.8.9 9.5 2.2 13 4.1 11.4-4.7 51.4-4.7 51.4h85.1s-7.1-23.6-14.1-35.6c-5-8.5-3.1-13.7-1.6-16a21.4 21.4 0 003.5-9.6c1.6 1.2 3.3 2.4 5.2 3 1.7.7 3.7.9 5.5.4 3.6 4.4 7.6 9.3 12 14.3 16.7 19.4 21.3 7.4 21.3 7.4s17-32.1 19.3-41.8c2.3-9.8 7.4-9.3 7.4-9.3 14 3.5 26.3-1.6 32-4.7a1.5 1.5 0 00-.3-2.8zM28.5 101a22 22 0 003-4.3 33 33 0 01-1.6 4.7l-2 .4.6-.8z" fill="url(#f)"/><path d="M60.2 4.5c-3.8 2.7-4.4 7.8-6.5 11.9-3.6 7.2-12.2 11.9-13.2 19.8-.2 2 0 4-.6 5.9-1.6 5.3-8.8 7-11.8 11.7-2.8 4.7 0 11.7 5.4 13 2.3.6 4.8.3 7 1 2.3.5 4.6 2.7 3.8 5-.6 1.6-2.5 2.5-3 4.2-.2 1.5.8 2.9 1.8 4 1.2 1.5 2.5 2.9 4.2 3.8 4.5 2.6 10.2 1 15.5.9 6.3-.2 12.6 1.8 17.7 5.6 1.4 1 2.8 2.3 3.7 3.9 3 5.1.1 11.5.8 17.4.7 6.6 5.7 12 10.8 16.4 2 1.8 4.1 3.5 6.7 4.4 2.5 1 5.6.9 7.7-.8 2.2-1.7 3-4.7 3-7.5s-.5-5.6-.4-8.4c0-1.4.6-3 2-3.3.6-.1 1.3.2 2 .5 4.2 2.1 8.4 6.3 13 5 3.5-1.1 5.3-5 5.9-8.7.8-5.5 0-11-2.3-16-1-2.4-2.4-4.5-3.2-6.9-3.6-10 2.6-21.5-1.2-31.5-1.5-4-4.6-7.4-6.8-11.2-4.8-8.6-4.5-19.4-9.8-27.8A25.4 25.4 0 0088.6 5.4C83 6 79.2 7.9 74 5.6c-4.3-2-9.5-4.1-13.9-1z" fill="#40243E"/><path d="M97 76.3s14.9-4.6 20.9 22L133 132s20.7-25.6 20.7-31.7c0 0 4.1-12.1 20-9l25 5.2c.7.1 1.2.6 1.3 1.3 0 .6-.2 1.2-.8 1.5-5.7 3-18 8.1-31.8 4.6 0 0-5-.4-7.3 9.2-2.3 9.5-19 41.3-19 41.3s-4.6 11.8-21.2-7.3C103.4 127.9 91 111.5 91 111.5l6-35.2z" fill="#FFEBDD"/><path d="M97 79l-2 6.5-2 6.4-3.8 12.7-18.5 3.4-6-3.8-7.4-4.6-6.3-4.4-9.4-6.4L34 73.1l8.6-1.5 9.2-1.7c6.3-1.1 8.7-5.8 9.4-10.5.8-5.6-.7-11.4-.7-11.4h23.3s2.7 3.9 2.2 10.6c0 2-.4 4-1 5.8-2 7 2.6 9.4 5.7 10.1.9.3 1.7.4 2.6.4L97 79z" fill="#FFEBDD"/><path d="M86 59.7a21 21 0 01-24.4.8C62.5 54.8 61 49 61 49h22.8s2.6 4 2.2 10.7z" fill="#000" opacity=".1"/><circle fill="#FFEBDD" cx="72.5" cy="41.5" r="21.5"/><path d="M97 79.6l-2 6.6-2 6.5-3.8 12.8-18.5 3.5-6-3.9-7.4-4.7L51 96l-9.4-6.5-7.6-16 8.6-1.5c4.7 12.9 10.5 17.7 15.8 19.2 3.1 1 6 .7 8.4.4 3-.5 6.1-.3 9 .5 7.1 2 10.9-1.9 12.8-6.7 1.5-3.5 2-7.6 2.1-10.4.9.2 1.7.4 2.6.4l3.7 4.2z" fill="#000" opacity=".1"/><path d="M25 191s8.6-39.6 4.5-50.8a43.6 43.6 0 01-2-11.8c-.8-10.8.6-22.6.6-22.6a33 33 0 001.8-4A23.7 23.7 0 0024 75L41.5 73C46.1 86.2 52 91 57.4 92.6c3 1 6 .7 8.3.4 3-.5 6.1-.3 9 .4 7 2 10.8-1.7 12.7-6.5 2.4-5.9 2.1-13.3 2.1-13.3l10.1 3S98.7 82 98 89.2l-.5 5.3c-.7 7.7-1.1 16.2-.3 22 .8 5.7.5 11.5-.9 17.1-.6 2.2-1.5 4.3-2.8 6.3-1.4 2.2-3.2 7.3 1.6 15.7 6.9 12 14 35.3 14 35.3H25z" fill="#6A6A6A"/><path d="M100 76s8.3 13.4-2.6 24.9c-10.9 11.5-6.5-4.7-6.5-4.7l2.7-18.8L100 76z" fill="#6A6A6A"/><path d="M26 75.4l2-.4c3 1.4 4.6 5.4 5.5 9.6 1.2 5.6.1 11.6-3.2 16.4 5-13.3-1.2-22.2-4.3-25.6zM98.5 94c-5 .4-11.4-.2-11.4-.2 1 4-.9 7-2.7 9a6.3 6.3 0 01-5.7 2c-10.6-1.8-26.8 7.9-26.8 7.9S40.4 122 28.2 128c-.7-10.9.7-22.7.7-22.7l.6-1.1c4.9-1 22.8-4.6 26.3-9.9.6-.8 1.4-1.5 2.5-2.2 3-2 7.9-3.5 12.5-4.7A50.2 50.2 0 0199 88.7c2.6 1 4.6 2 5 3 .4 1.5-2.2 2.2-5.5 2.4z" fill="#000" opacity=".1"/><path d="M92.8 93c-3.5-.1-6.6-.4-6.6-.4.9 3.9-1 6.9-2.7 8.8a6.3 6.3 0 01-5.7 2c-4-.7-8.8.2-13.2 1.6l-7.3-4.6-6.3-4.2c1.8-1 3.3-2 4-3.1 2-3 8.7-5.2 15-6.7 8.1-2 16.7-1.9 24.8.3h.2c4 1.1 7.5 2.5 8 4 .6 2-5.2 2.3-10.2 2.3z" fill="#000" opacity=".1"/><path d="M28.6 74s-12 1.2-15.5 16.8c-.5 2.4-1.6 4.7-3.2 6.6-3.5 4.3-9.2 12.7-8.9 20.7.5 11.5.5 16.1 15.6 12.9 15.1-3.2 35.5-19.8 35.5-19.8s16.1-9.6 26.7-7.8c2.1.4 4.2-.4 5.7-2a10 10 0 002.7-9s17.9 1.6 16.7-2c-.4-1.6-4-3-7.9-4a49.5 49.5 0 00-25-.4c-6.3 1.5-13 3.8-15 6.9-4.1 6.2-27.5 10-27.5 10l.7-.7c4.5-5.1 6.3-12 5-18.7-1-4.1-2.6-8-5.6-9.5z" fill="#FFEBDD"/><path d="M25 75.4s-.7 27.2 9.7 23.2c10.4-4 2.3-23.2 2.3-23.2l-4.6-.4-7.4.4z" fill="#6A6A6A"/><path d="M55.3 41.9c6.9-.8 13.7-2.2 20.3-4.3 1.7-.5 3.5-1.3 4.3-2.8.2-.4.4-1 .8-1.1.3-.2.7-.2 1.1 0 2.3.4 4.2 1.8 6.4 2.7 2.2.9 4.9 1 6.6-.6 2-1.9 1.3-5.1 0-7.5-4.8-8.9-16-13-26.2-12.2-1.5 0-3 .3-4.2.9-2.7 1.3-4.2 4.2-5.7 6.8-2.9 5-18.1 19.7-3.4 18z" fill="#000" opacity=".1"/><path d="M55.3 40.9c6.9-.8 13.7-2.2 20.3-4.3 1.7-.5 3.5-1.3 4.3-2.8.2-.4.4-1 .8-1.1.3-.2.7-.2 1.1 0 2.3.4 4.2 1.8 6.4 2.7 2.2.9 4.9 1 6.6-.6 2-1.9 1.3-5.1 0-7.5-4.8-8.9-16-13-26.2-12.2-1.5 0-3 .3-4.2.9-2.7 1.3-4.2 4.2-5.7 6.8-2.9 5-18.1 19.7-3.4 18z" fill="#40243E"/><path d="M203.9 64H157c-1.1 0-2.1 1-2.1 2.2v27.6c0 1.2 1 2.2 2.1 2.2H204c1.1 0 2.1-1 2.1-2.2V66.2c0-.6-.2-1.2-.6-1.6-.4-.4-1-.6-1.5-.6z" fill="url(#g)"/><rect fill="gray" x="155" y="65" width="50" height="31" rx="11.9"/><path fill="#AFAFAF" d="M155 71h50v6h-50z"/><path fill="#FFF" opacity=".3" d="M155 71h50v6h-50z"/><path fill="#D6D6E3" d="M160 81h40v2h-40z"/><circle fill="#0036FF" cx="163" cy="90" r="4"/><circle fill="#00C2FF" opacity=".3" cx="163" cy="90" r="4"/><path d="M26 104s-4.6 2.2-5.3 4.8c-.8 2.7-1.7 3.2-1.7 3.2M133 132s-2.3 7 0 8M30 140.3s17.8 4.1 31-4.3h5.7s17 9.2 25.3 6.5" fill="#000" opacity=".1"/><path fill="#8ED16F" d="M153.8 134.6l3.5-8 15.5 6.9-3.5 8z"/><ellipse fill="#8ED16F" transform="rotate(-66.4 163.2 134.2)" cx="163.2" cy="134.2" rx="1.8" ry="3.6"/><ellipse fill="#000" opacity=".1" transform="rotate(-66.4 163.2 134.2)" cx="163.2" cy="134.2" rx="1.8" ry="3.6"/><path fill="#8ED16F" d="M176.5 106.3l3.5-8 15.5 6.8-3.5 8z"/><ellipse fill="#8ED16F" transform="rotate(-66.4 186 105.8)" cx="186" cy="105.8" rx="1.8" ry="3.6"/><ellipse fill="#000" opacity=".1" transform="rotate(-66.4 186 105.8)" cx="186" cy="105.8" rx="1.8" ry="3.6"/><path fill="#8ED16F" d="M199 128.8l8.5-1.7 3.3 16.6-8.5 1.7z"/><ellipse fill="#8ED16F" transform="rotate(-11.1 204.8 136.3)" cx="204.8" cy="136.3" rx="1.8" ry="3.6"/><ellipse fill="#000" opacity=".1" transform="rotate(-11.1 204.8 136.3)" cx="204.8" cy="136.3" rx="1.8" ry="3.6"/><path fill="#8ED16F" d="M173.4 173.6l3.5-8 15.5 6.8-3.5 8z"/><ellipse fill="#8ED16F" transform="rotate(-66.4 182.9 173.1)" cx="182.9" cy="173.1" rx="1.8" ry="3.6"/><ellipse fill="#000" opacity=".1" transform="rotate(-66.4 182.9 173.1)" cx="182.9" cy="173.1" rx="1.8" ry="3.6"/><path fill="#8ED16F" d="M135.1 166l3.5-7.9L154 165l-3.5 8z"/><ellipse fill="#8ED16F" transform="rotate(-66.4 144.6 165.6)" cx="144.6" cy="165.6" rx="1.8" ry="3.6"/><ellipse fill="#000" opacity=".1" transform="rotate(-66.4 144.6 165.6)" cx="144.6" cy="165.6" rx="1.8" ry="3.6"/></g><g transform="translate(670 158)"><use fill="#000" filter="url(#h)" xlink:href="#i"/><circle stroke="#262626" stroke-width="14" stroke-linejoin="square" fill="#858585" cx="34.5" cy="34.5" r="27.5"/></g><g fill-rule="nonzero" transform="translate(670 158)"><use fill="#F5F5F5" xlink:href="#j"/><use fill="#000" filter="url(#k)" xlink:href="#j"/></g><g transform="translate(547 115)"><use fill="#000" filter="url(#l)" xlink:href="#m"/><circle stroke="#262626" stroke-width="14" stroke-linejoin="square" fill="#858585" cx="26" cy="26" r="19"/></g><g fill-rule="nonzero" transform="translate(547 115)"><use fill="#F5F5F5" xlink:href="#n"/><use fill="#000" filter="url(#o)" xlink:href="#n"/></g><g><g transform="translate(623 85)"><use fill="#000" filter="url(#p)" xlink:href="#q"/><circle stroke="#262626" stroke-width="14" stroke-linejoin="square" fill="#858585" cx="41" cy="41" r="34"/></g><g fill-rule="nonzero" transform="translate(623 85)"><use fill="#F5F5F5" xlink:href="#r"/><use fill="#000" filter="url(#s)" xlink:href="#r"/></g></g><g><g transform="translate(599 158)"><use fill="#000" filter="url(#t)" xlink:href="#u"/><circle stroke="#262626" stroke-width="14" stroke-linejoin="square" fill="#858585" cx="24.5" cy="24.5" r="17.5"/></g><g fill-rule="nonzero" transform="translate(599 158)"><use fill="#F5F5F5" xlink:href="#v"/><use fill="#000" filter="url(#w)" xlink:href="#v"/></g></g><g fill-rule="nonzero"><path d="M265.7 246.7c1.4-2.2 12.4-3.7 16 5.2 1.3 3.3 1.1 11.8 2.3 17.2 1.1 5.3 3.8 8.4 4.8 12.7 1 4.4-.7 11.6-11.7 13-11 1.2-19.5-2.4-22.1-5.8-2.6-3.3-2.7-10.4 0-14.2 2.7-3.8 4.8-7 4.7-12l6-16.1z" fill="#2B2A30"/><path d="M273 244.6s-8.1-2.2-13.1 2c-4.5 3.8-4.2 9-3.5 11.4.7 2.5 2 5.8 4 6 2 .2 12.6-19.4 12.6-19.4z" fill="#2B2A30"/><path d="M275.8 266s-.6 8.9-.4 9.5c.1.7 3.6 1.3 4.5 2 1 .9-5 9.9-8 11.2-3 1.3-12.2-2-12.8-6.6-.6-4.2 2.6-7.4 3.9-8.5h2.5l.3-4.4 10-3.2zM254.2 283c0-.2-1.4.5-1.4.5S252 306 251 308c-3 4.8-10.7 12.8-10.9 13.7-.6 2.7 1 .3 3.8 0 1.5-.1 10.3-8.7 12.2-10.6h.1v-.2l.3-.2.1-1.8c3.7-24.4-.8-26-2.4-25.8z" fill="#D8B5FF"/><path d="M251.6 286.9l-.5 10.7-.7 8.5s.1 1.2-1.2 3.1c-1.3 2-8.2 10.3-8.2 10.3l3.1 2.5 10.2-7.2L256 286l-2.5-3-2 3.9z" fill="#FFF"/><path d="M277.4 276.8c2.6.4 5.5 1.7 6 3 .4 1.7 1.4 9-.8 14.7-2.2 5.7-3.7 9.2-5 11.7 0 0-11.2 4.5-20.2-.8 0 0-.6-6-.7-9.3-8.3-6.9-1.2-15.4 5.9-22h2.5s-6.3 7-1.9 11c9.4-2.6 11.2-6.7 14.2-8.3z" fill="#F4F4F4"/><path d="M258.5 255.6c1-5.6 5.2-10 11.4-9.6 5 .3 9.3 3.6 10.7 8.3a11 11 0 01-4.8 12.3c-.2.8-.5 1.7-1 2.4-2.1 2.5-8 4-9.8 4-1.7 0-3-1.4-4.6-3.9-3.2-5-2.4-10.7-2-13.5z" fill="#D8B5FF"/><path d="M271.8 245.2c4.3.9 7.8 2 9 6.1.7 2.8 1.8 8.2.8 10.5l-.6 1.6-5.2 2.6s-2.4-2-1.7-7.7a4 4 0 00-.7-2.2c-.3-.5-.6-1.1-.7-1.7-.5-1.6-1.9-2.7-3.4-3.6-3.8-2-9.5-.3-10.3.5 2.6-5.2 7.8-7 12.8-6z" fill="#2B2A30"/><path d="M286.9 335.4c-.7 7.1-4.9 37.5-4.9 37.5a54.7 54.7 0 012.6 15.7c0 4.4-1.2 12-2.6 18.9l-2.4 16.5-5.6-3.2.2-12.3-1-14a398 398 0 00-2-19c-.3-2.5-1.1-6.9-1.5-11.8l-2.4-29.9-.2 4.7s-.3 7.6-1.4 17l-1.5 13.5s2 3.5 2.2 6c.2 2 2.6 18 1.2 26.2l-2.1 14.9-6.8-3.8-1-10.6c-1-8-3.5-24.8-4-27-.4-2.8-.8-4.3-1.4-13.3-.6-9-.3-28.8.6-35.9 1-7.1 3.7-17.5 3.7-17.5 2.5 1.2 5.3 1.8 8.2 2 4.7.2 12.4-1.2 12.4-1.2a72 72 0 004.4 6.5c2.1 2.9 6.2 9.1 5.3 20z" fill="#D8B5FF"/><path d="M277.5 306l6.3 12.2s9.7 13.7-.3 48.8l1.8 10.8s-18.9 11.7-31.6 0c0 0-4.4-32.4-2-47.4 1.3-8.6 3.3-17 5.9-25.4 0 0 3 3.3 19 1.1" fill="#A2A2A2"/><path d="M265 273s-11.6 1.5-13 13l2.7-2.2s6.4-8 10.3-10.8z" fill="#FFF"/><path d="M265.3 273.5c-2.4 4.5-8.6 12-6.8 20 2.3 10.6-2.2 74.5-2.2 74.5s-5.3-3.3-5.3-6l2-74.9c0-3.2 5.8-9 9.7-13.6 1-.3 2.2-.5 3.3-.5v.5h-.7z" fill="#FFF"/><path fill="#F4F4F4" d="M223 332.3l21.5-12.3 15.5 8.7-21.5 12.3z"/><path d="M242.3 321c-1.3.3-2.7.4-3.9 1.2l-1.3.9c-.3 0-.5.2-.7.3-.4.1-.7.3-.9.5-.3.3-.4.7-.4 1.1v1.5c.1.7 1 .6 1.4.1.2-.2.3-.5.3-.8 0-.7.4-1.2 1-1.6l5.2-3a.7.7 0 00-.7-.2z" fill="#D8B5FF"/><path d="M284.3 292.6s-.1 19 .6 25c.7 6.1 9.9 24 1.8 48.3-1.2 1.3-2.3 4-12.4 5.1-6 0-8.2-.9-8.2-.9s2.3-40.7-1.1-76.5c0-9.8 8.9-8.7 10.5-19.6 7.9 3.5 7.9 4.6 7.9 4.6l1 14z" fill="#FFF"/><path d="M280 279c-4.3.5-4.9 5.7-4.9 5.7l-.2 8s.5 10.3 1.7 13.4L258 318.4l4 4.6s19.7-8.7 21.3-10.1c1.5-1.4 0-17.5.2-22.1 1-8.7.8-12.2-3.5-11.8z" fill="#000" opacity=".1"/><path d="M283.6 283.6c-.7-2.8-3-2-5-3.6-4.6 6.4-1.6 23.6-1 25.4l-17.6 11-1.2.7c-1.6 1-4.6 2.6-6.5 2.8-1.8.2-2.7 2.7-4.6 2.9-.3 0-.5.2-.7.4 0 .3 0 .6.2.8.8.7 2.8.1 4.2-1.4 0 .7.4 1.3 1 1.4l.2.3c.2.4.6.7 1 .8.2.6.8 1 1.5.9.4 0 .8-.2 1-.5a9.3 9.3 0 003.9-2.7l2.9-2.6c4.7-2 19.1-8 19.7-8.9 1-1.2 2-23.6 1-27.7z" fill="#D8B5FF"/><path d="M279.4 277c-4.1.5-4.7 5.7-4.7 5.7l-.2 8s.5 10.3 1.7 13.4L258 316.4l4 4.6s19.2-8.8 20.6-10.1c1.5-1.4 1.9-15.7 2.1-20.3 1-8.7-1-14-5.3-13.6z" fill="#FFF"/></g><g transform="translate(134 284)" fill-rule="nonzero"><ellipse fill="#D6D8E5" opacity=".4" cx="32.5" cy="176" rx="32.5" ry="18"/><path d="M9.5 42c-.3 3-4.2 16.3-3.4 20.9.8 4.5 14 12.1 14 12.1l1.9-7.8-7.3-6.7 2-13L9.5 42z" fill="#FFCEA9"/><path d="M19 28.5c-1.8-.8-5.2-1-7 2-2 3.2-3.8 13.6-4 15.5 0 0 2.6 3.5 6.5 3L19 28.4z" fill="#EDEDED"/><path d="M34.2 175.1c2.8.8 5.8.4 8.3-1 2 .1 12.8-4.3 14.3-.6 1.3 3.3-3.4 6.3-6 6.9-5.4 1.3-9.4 3.9-11.6 4.3-1.7.4-3.8.6-5-.6-1.7-1.5-1.5-7 0-9z" fill="#38226D"/><path d="M38.9 183.8c2.2-.4 6.3-3 11.9-4.4 2.1-.5 5.8-2.7 6.2-5.4.5 3-3.8 5.8-6.2 6.3-5.6 1.3-9.7 4-12 4.4-1.6.4-3.7.6-5-.7-.4-.3-.7-.8-.8-1.2 2 1.5 4.2 1.4 5.9 1z" fill="#9C73FF"/><path d="M16.2 167.1c2.8.7 5.8.4 8.3-1 2 .1 12.8-4.3 14.3-.6 1.3 3.3-3.4 6.3-6 6.9-5.4 1.3-9.4 3.9-11.6 4.3-1.7.4-3.8.6-5-.6-1.7-1.6-1.5-7 0-9z" fill="#38226D"/><path d="M21.9 175.8c2.2-.4 6.3-3 11.9-4.4 2.1-.5 5.8-2.7 6.2-5.4.5 3-3.8 5.8-6.2 6.3-5.6 1.3-9.7 4-12 4.4-1.6.4-3.7.6-5-.7a3 3 0 01-.8-1.2c2 1.5 4.2 1.4 5.9 1z" fill="#9C73FF"/><path d="M17 139.3c.5-3.8 1.3-7.7 2.5-11.4 0 0-.8-10-1.1-19.3-.5-10.7-4.3-20-1.3-28.6L51 87.3s-2 42.5-2.5 47.7c-.2 4-.8 8-1.5 11.9-1.6 8.3-4 27.9-4 27.9-3.7 2-8.4.9-8.4.9s.3-24.8.5-30.8c.3-7.2.5-6.7.5-6.7l-1-18-.8-9s-1 6.5-1.5 12.4c-.6 5.2-1.9 9.8-3.3 19.4-1.2 8.3-3.3 25-3.3 25-3.5 2-8.4.3-8.4.3s-1.3-21.8-.3-29z" fill="#0C0C0C"/><path d="M21.5 28.8c2.6.1 4.6.8 5 0L27 25l-.6-1.4c-3.3-2-4.3-5.3-4.7-9.2-.8-6.7 3-12.5 10.2-13.2 6.7-.7 11.6 3.7 13 9.8.6 3 2 8.6.1 13.5-1 2.8-2.4 5-3.8 5.4l-4-.3-.5 3c-.3 1.2-.2 1.8 2.4 3.3 2.5 1.5-3.9 4.5-8 4.2-4.2-.3-8.9-2.7-10.1-5.2-1.5-2.8-1.3-6 .5-6z" fill="#FFCEA9"/><path d="M25.4 29.6c-.7 1.7 1.1 3.8 6 5.3 4.8 1.5 5.2-.4 5.2-.4s7.1 3.2 9.4 4.7c3 2 4.2 7.7 4.6 17.4.5 11.2.5 27.8.1 30.6 0 0-5.4 5.3-12.3 4.8-7-.6-18.6-6.6-21.5-11.2.1-9.8 1.3-11.4-.3-17-3.8-13-5.7-18.3-4-26.9 1.6-7 3.7-8 6.5-7.9 2.1 0 4.2.3 6.3.6z" fill="#F4F4F4"/><path d="M61.2 65.5c-5.8 1.4-7.2-2-8-4.9-1.7-7-2.7-13.2-4.1-17-1.6-4.7-3.3-5.4-5.7-6.3-2.7-1.1-5.1 1.1-4.2 7 1.1 7 2.5 11.9 5.3 20.1.7 2.2 2.3 6 4.7 7.8 3 2.3 7.4 2.2 14.2.6 2.9-.7 6-2.3 11.5-4.7l5.4-2.3c2.8-1.3 5.7-3.4 7.2-5.4 1.5-2 1.7-3 1.4-3.4-.4-.6-1-.5-1.9.4a15.3 15.3 0 01-4 3.6l2.7-3c.9-1 1.6-2.1 2.2-3.3.5-1.2-.6-2.8-1.4-2-.8.9-1.2 1.7-2.7 3.4-.8 1-1.6 1.8-2.6 2.5.9-1.2 1.7-2.5 2.4-3.8 1-1.8 1-2.8 1-3.4-.1-.6-1-1.3-1.9-.2-.8 1-1.3 2.7-3 4.5-1.4 1.3-2.5 2-2.6 1.7 0-.4.8-1 1.3-2.6.5-1.5 0-3-.9-3.3-.9-.1-.7 0-1.4 1.3-.7 1.4-1.8 2.5-2.6 4.6-.7 1.8-1 2.5-2.4 3.8-1.4 1.4-4.5 3-10 4.3z" fill="#FFCEA9"/><path d="M42 36.1c3.8-.5 6.5 1.1 8.2 6.6l2.8 10c-1.5 2-3.8 3.5-6.3 4-4.6 1-6.2-1-6.2-1s-1.3-5.8-2-9.7c-.8-3.9-1.2-9.2 3.5-9.9z" fill="#EDEDED"/><path d="M44.6 10.7S50.7 2 37.5.2C27.9-1.1 21.8 4.7 21 11c-.7 6 3.2 12.2 6 14.6 1.4.5 4.4.8 8.3-.9l.2-5s-4.7-9.1 9-9z" fill="#3A2C6D"/></g><g transform="translate(52 348)" fill-rule="nonzero"><ellipse fill="#D6D8E5" opacity=".4" cx="23" cy="83.5" rx="18" ry="10.5"/><ellipse fill="#D6D8E5" cx="25" cy="83.5" rx="18" ry="10.5"/><path fill="#D6D8E5" d="M0 50l6.5 32h37.1L50 50.2z"/><ellipse fill="#E4E6EF" cx="25" cy="49.5" rx="25" ry="13.5"/><path d="M25 60c-5.6 0-10.8-1.3-14.7-3.7C6.9 54.3 5 51.6 5 49c0-2.6 2-5.2 5.3-7.3C14 39.3 19.3 38 25 38c5.6 0 10.9 1.3 14.8 3.7 3.3 2 5.2 4.7 5.2 7.3 0 2.6-2 5.2-5.2 7.3A28.5 28.5 0 0125 60z" fill="#28221C"/><path d="M36 37.3S35.5 9.8 25 0C12 10 14 37.4 14 37.4l11 17.6C26.5 55 36 37.3 36 37.3z" fill="#99B524"/><path d="M26 55S21 21.6 2.1 9c0 0-3.3 45.8 23.9 46zM26 56s4.3-32.3 21.8-44c0 0 4 43.8-21.8 44z" fill="#A6CE28"/></g><g transform="translate(203 39)" fill-rule="nonzero"><path fill="#F2F2F2" d="M56 31h173v112H56z"/><path fill="#696969" d="M129.6 130l-6.6 42h44l-10.1-42z"/><ellipse fill="#E6E6E6" opacity=".2" cx="141" cy="181" rx="141" ry="11"/><path fill="#E6E6E6" d="M113 165h62v13h-62zM56 121h173v22H56z"/><circle fill="#A5A5A5" cx="144" cy="132" r="6"/><path d="M138 22.8c0 2.6.1 5.1.7 7.6.2.5.6 1 1.2 1.3.5.3 1.2.4 1.8.2 2-.5 3.6-2 4-4l1.2-4a4 4 0 00-2-4.3c-2.8-1.7-6.9.5-6.9 3.2z" fill="#D8B5FF"/><path fill="#D8B5FF" d="M146.2 25l2.8 15-8 1 1.1-11.3z"/><path d="M143 26.7s0-1.8 1.1-1.7c1.2 0 1.3 2.7-.3 3l-.8-1.3zM138.1 26l-1 1.7v.6c0 .3.2.4.4.4l1.5.3-.9-3z" fill="#D8B5FF"/><path d="M155 30h11.8s17 13.3 22.4 32.5c4.4 15.6 3.6 29.6-2.6 38.8a21.6 21.6 0 00-3.2 16.2l.7 3.5H153l2-91z" fill="#000" opacity=".1"/><path d="M141.1 41s-11.8 0-13.7 9.4c-2 9.4-1.1 32.8-8.7 33.8-7.5.9-20.6-29-20.6-29s-5.6-5-9.2-2.7c-3.7 2.2 5.3 7 5.3 7s7 57.3 41.8 32c35-25.2 5.1-50.5 5.1-50.5z" fill="#D8B5FF"/><path d="M141.3 40l8.4-1s21 .4 22.2 23.3c1.2 23-5.5 21.8-8 41.7h-33s1.3-12.4-2.7-20.8-24.7-14.7 13.1-43.1z" fill="#000"/><path fill="#24285B" d="M132 56h13v19h-13z"/><path d="M147.3 45s-3.9 9.2 3.3 20.9c7.1 11.6 11 18-1.5 17.7-12.5-.2-12.7-22-12.7-22H127l1.1 18 5.9.9 9.5 18.9 20.2 1.6 7.4-9.3 3.9-16.3-16-27.9-11.7-2.5z" fill="#000" opacity=".1"/><path d="M165.1 47.2S178.7 54 179 82.7c.3 28.6-23 20.2-38-1.5 0 0-9-8.7-5-12.3 4.1-3.6 8.8 8.7 8.8 8.7s14.7 11.1 20.7 8.8c6-2.3-32-42.2-.4-39.2z" fill="#D8B5FF"/><path d="M144.4 23.4a28 28 0 011.2 11c-.7 6-1.9 15.6 10 16.5 12 1 10.8-5.3 9.8-10s-11.8-5-11-15.1c.7-10.1-6.4-12-12.6-11.8-6.2.2-10.1 9.6 2.6 9.4z" fill="#000"/><path fill="#24285B" d="M130.7 98l-3.7 23h41l-4-20.4z"/><circle fill="#24285B" cx="85" cy="23" r="23"/><circle fill="#24285B" cx="223" cy="38" r="23"/><circle fill="#24285B" cx="232.5" cy="116.5" r="23.5"/><circle fill="#24285B" cx="57" cy="107" r="25"/><path fill="#FFF" d="M212 29h24v18h-24z"/><path fill="#555" d="M212 29l12 13 12-13z"/><path fill="#6E6E6E" d="M223 109h21v15h-21z"/><path fill="#FFF" d="M230 113v8l8-4.1z"/><circle fill="#B2B2B2" cx="94" cy="22" r="3"/><path fill="#B2B2B2" d="M74 18h9v8h-9z"/><path d="M83 18a13 13 0 0011-8v22s-3.7-6.3-11-6.3v-7.8z" fill="#FFF"/><path fill="#B2B2B2" d="M78 26l2.6 8H85l-2.3-8z"/><path fill="#858585" d="M44 97h27v21H44z"/><path fill="#FFF" opacity=".8" d="M44 118l8.6-15 4.9 9.7 5.2-7.6L71 118z"/><circle fill="#FFF" cx="58" cy="103" r="2"/></g><g><path d="M114 224.5a29.4 29.4 0 0125.6 44.2c-.4.8-.6 1.8-.2 3.1.3 1 .8 2 1.7 3.3 1 1.7 2.7 3.7 5 6-11.5-1-18-1-19.7-.3a29.4 29.4 0 01-33.3-6 29.4 29.4 0 0120.9-50.3z" stroke="#001F7C" stroke-width="3" fill="#9CB5FF"/><path d="M116.2 261c.5-2.4 1.5-4 4.6-6.5 3.6-3 5-5.3 5-9.1 0-5.8-4.5-9-11-9-6.8 0-10.8 3.7-12 10.2l7.1 1.2c.2-4 1.6-5.8 4.2-5.8 2 0 3.5 1.3 3.5 3.4 0 2.7-.8 4.2-3.2 6.6-3 2.8-3.9 5.2-3.9 9h5.7zm-2.7 11.5a4.4 4.4 0 000-8.7c-2.4 0-4.4 2-4.4 4.3 0 2.4 2 4.3 4.4 4.3z" fill="#000398" fill-rule="nonzero"/></g><g><path d="M786 303.5a29.4 29.4 0 00-25.6 44.2c.4.8.6 1.8.2 3.1-.3 1-.8 2-1.7 3.3a48.6 48.6 0 01-5 6c11.5-1 18-1 19.7-.3a29.4 29.4 0 0033.3-6 29.4 29.4 0 00-20.9-50.3z" stroke="#001F7C" stroke-width="3" fill="#9CB5FF"/><path d="M779.5 326c2 0 3.5-1.7 3.5-3.5 0-2-1.6-3.5-3.5-3.5-2 0-3.5 1.6-3.5 3.5 0 2 1.5 3.5 3.5 3.5zm-1.2 21l2.7-4.8c1.3-2.4 2-4 2-5.9 0-2.6-1.4-4.3-4.1-4.3a3.8 3.8 0 00-3.8 3.8c0 2.2 1.6 3.9 3.8 3.9L775 347h3.3zm15.2-21c2 0 3.5-1.7 3.5-3.5 0-2-1.6-3.5-3.5-3.5-2 0-3.5 1.6-3.5 3.5 0 2 1.5 3.5 3.5 3.5zm-.2 21l2.7-4.8c1.3-2.4 2-4 2-5.9 0-2.6-1.4-4.3-4.1-4.3a3.8 3.8 0 00-3.8 3.8c0 2.2 1.6 3.9 3.8 3.9L790 347h3.3z" fill="#000398" fill-rule="nonzero"/></g></g></svg>