<svg width="326" height="325" xmlns="http://www.w3.org/2000/svg"><defs><linearGradient x1="24.6%" y1="62.5%" x2="82.6%" y2="32.4%" id="a"><stop stop-color="#FFF" stop-opacity="0" offset="0%"/><stop stop-color="#F15A24" offset="100%"/></linearGradient><linearGradient x1="45.3%" y1="58.4%" x2="54.8%" y2="45.2%" id="b"><stop stop-color="#FFF" stop-opacity="0" offset="0%"/><stop stop-color="#F15A24" offset="100%"/></linearGradient><linearGradient x1="24.6%" y1="60.8%" x2="82.5%" y2="32.2%" id="c"><stop stop-color="#FFF" stop-opacity="0" offset="0%"/><stop stop-color="#F15A24" offset="100%"/></linearGradient></defs><g fill="none" fill-rule="evenodd"><path d="M321.5 264.7c2.1-.8 3.4-2.4 3.5-4.2 0-1.8-1.2-3.4-3.2-4.4l-160-67.3a9 9 0 00-7-.1l-151.4 64c-2.1.9-3.4 2.5-3.4 4.3 0 1.8 1.3 3.4 3.4 4.3l156.2 61.8c5.8 2.5 13 2.5 18.8.1l143.1-58.5z" fill="#FFD49C" fill-rule="nonzero"/><path fill="url(#a)" fill-rule="nonzero" opacity=".3" style="mix-blend-mode:multiply" d="M290.7 270l-54.4 28.5-11.2-14.4 53.7-27.1"/><g fill-rule="nonzero" transform="translate(225)"><path fill="#EF7F6C" d="M11.8 0L3.7 4.1l7.8 4 1.9-4.7"/><path d="M91.2 243.1l-72-40a18.1 18.1 0 01-9.6-15.8L7.3 5.7c0-4.7 7.8-7.2 12-4.7L94 42.9c3.7 2 6 6 6 10.1v185.3c0 2-1 3.8-2.9 4.8a6 6 0 01-5.8 0z" fill="#EF7F6C"/><path fill="#EF7F6C" d="M96.3 242.1l-9.8 5.2 1.1-6.8 6.8-1.2"/><path d="M82.5 247.7l-72.9-40c-6-3.3-9.6-9.3-9.6-15.8V8.3C0 6.6 1 5 2.6 4.1c1.6-.9 3.6-.9 5.2 0l77.5 43.2c3.8 2 6 6 6 10V243c.1 2-1 3.8-2.9 4.8-1.8 1-4 1-6 0z" fill="#F4F4F4"/><path fill="#FFF" d="M86.5 68.8L3.7 24.2v159.7l82.8 45z"/><ellipse fill="#BABABC" transform="rotate(-13.4 37.4 213.2)" cx="37.4" cy="213.2" rx="3.8" ry="4.9"/><path d="M34.1 31.7c0 .7.4 1.3 1 1.6l15.8 9c.5.3 1.2.3 1.8 0 .6-.3 1-.9 1-1.5v-.4c0-.7-.4-1.3-1-1.6L36.8 30c-.5-.3-1.2-.3-1.8 0-.5.4-.9 1-.9 1.6z" fill="#CCC"/><ellipse fill="#CCC" transform="rotate(-20.3 27 27)" cx="26.9" cy="26.9" rx="1.8" ry="2.3"/><g transform="translate(4.9 61)"><ellipse fill="#F2F2F2" transform="rotate(-17.6 6.1 6.8)" cx="6.1" cy="6.8" rx="4.2" ry="5.5"/><ellipse fill="#C4B7B3" transform="rotate(-12.3 5.9 5.4)" cx="5.9" cy="5.4" rx="1.5" ry="2.2"/><path d="M8.5 10.8S7.6 7.4 5.3 7C3 6.5 2.4 9.1 2.4 9.1a5 5 0 003 2.2c2.4.7 3.1-.5 3.1-.5z" fill="#C4B7B3"/></g><g transform="translate(4.9 100)"><ellipse fill="#F2F2F2" transform="rotate(-17.6 6.1 6.8)" cx="6.1" cy="6.8" rx="4.2" ry="5.5"/><ellipse fill="#C4B7B3" transform="rotate(-12.3 5.9 5.4)" cx="5.9" cy="5.4" rx="1.5" ry="2.2"/><path d="M8.5 10.8S7.6 7.4 5.3 7C3 6.5 2.4 9.1 2.4 9.1a5 5 0 003 2.2c2.4.7 3.1-.5 3.1-.5z" fill="#C4B7B3"/></g><g transform="translate(4.9 162.2)"><ellipse fill="#F2F2F2" transform="rotate(-17.6 6.1 6.8)" cx="6.1" cy="6.8" rx="4.2" ry="5.5"/><ellipse fill="#C4B7B3" transform="rotate(-12.3 5.9 5.4)" cx="5.9" cy="5.4" rx="1.5" ry="2.2"/><path d="M8.5 10.8S7.6 7.4 5.3 7C3 6.5 2.4 9.1 2.4 9.1a5 5 0 003 2.2c2.4.7 3.1-.5 3.1-.5z" fill="#C4B7B3"/></g><ellipse fill="#FFF" transform="rotate(-23.3 15.5 169.6)" cx="15.5" cy="169.6" rx="3.1" ry="4.1"/><path d="M34.1 137.5l7.8-3s2.2 6.8-.9 8c-3 1.2-6.9-5-6.9-5z" fill="#FFF"/></g><path d="M246.2 66.7l23.2 12a4 4 0 012.1 3.6v7a2 2 0 01-3 1.8l-23-12a4 4 0 01-2.2-3.6v-1.7l-3-5 3 1.7v-2a2 2 0 012.9-1.8zM244.2 111l23.1 12a4 4 0 012.2 3.6v27.9a2 2 0 01-3 1.8l-23-12a4 4 0 01-2.3-3.5v-22.7l-3-4.9 3 1.6v-2a2 2 0 013-1.7zM244.2 170.6l23.1 12a4 4 0 012.2 3.6v7a2 2 0 01-3 1.8l-23.1-12a4 4 0 01-2.2-3.6v-1.7l-3-5 3 1.7v-2a2 2 0 013-1.8z" fill="#D2D2D2"/><path d="M281.6 59.3l23.2 13.2c1.3.8 2 2 2 3.5v10.3a2 2 0 01-3 1.8l-23.2-13.3a4 4 0 01-2-3.4V61a2 2 0 013-1.8zM280.5 79l24.2 13.2c1.3.7 2.1 2 2.1 3.5v35.1a2 2 0 01-3 1.8l-24.1-13.2a4 4 0 01-2.1-3.5v-35a2 2 0 013-1.8zM280.5 164.1l24.2 13.1a4 4 0 012.1 3.5v18.1a2 2 0 01-3 1.8l-24.1-13.1a4 4 0 01-2.1-3.5v-18.1a2 2 0 013-1.8z" fill="#EF7F6C"/><g fill-rule="nonzero"><path fill="url(#b)" opacity=".3" style="mix-blend-mode:multiply" d="M145.4 85l-54.7 28.6-90.5-52L37 24.2" transform="translate(105 176.7)"/><path fill="#EDEFDF" d="M204.1 252.7l-.2 30.2 3.3 1.5 1.7-5.5V253.8"/><path fill="#FEFFFA" d="M210.7 257v25.5l-3.5 2v-30.7z"/><path fill="#EDEFDF" d="M243.8 231.7l-.2 30.2 3.2 1.6 1.8-5.5v-25.2"/><path fill="#FEFFFA" d="M250.3 236v25.6l-3.5 1.9v-30.7z"/><path fill="#FEFFFA" d="M157.6 184.4l92.7 50.8-39.6 21.7-93.1-50.5z"/><path fill="#FEFFFA" d="M117.6 206.4v-3.9l6.3 2.7-.5 1.8M250.3 235.2v-3.9l-5 1.3 2.5 2.3"/><path fill="#FEFFFA" d="M157.6 180.5l92.7 50.8-39.6 21.8-93.1-50.6z"/><path fill="#78A9F8" d="M157.6 180.5l92.7 50.8-39.6 21.8-93.1-50.6z"/><path fill="#78A9F8" d="M117.6 202.5v-3.9l6.3 2.8-.5 1.7M250.3 231.3v-3.8l-5 1.3 2.5 2.2"/><path fill="#AECFFF" d="M157.6 176.7l92.7 50.8-39.6 21.7-93.1-50.6z"/><path fill="#EDEFDF" d="M117.6 204.8l-.2 30.2 3.2 1.5 1.8-5.5V206"/><path fill="#FEFFFA" d="M124.1 209v25.6l-3.5 2v-30.7z"/></g><g fill-rule="nonzero"><path d="M215.1 179.6c0 .4-3.6 6.7-1.7 9.3 2 2.7 13.5 1 13.5 1" fill="#FBAE17"/><path d="M229.3 174.3c.3.6 3.5 8.8 7.2 12 3.6 3.2 6.7 1.4 7 6.4.4 5-3.8 7.5-1.5 10 2.4 2.5.8 9-6.4 10.3-7.1 1.3-15-16-15-17.2" fill="#FBAE17"/><path d="M196.4 201.6s-4.8-7-6.8-8.9c-2-1.7-6-4.7-5.6-5.4.7-1 1.8-1.5 3-1.6 1.6 0 4.8 4 4.5 3.4-.3-.7-1.7-4.5-.7-3.9 1 .6 1.6 4.2 2.6 5.1l10.1 10.3" fill="#FFD0B0"/><path d="M181 282.9l-3.4-2.2s0-3 1.4-3.5c1.4-.4 2 5.7 2 5.7z" fill="#6B2215"/><path d="M177.5 264.1s-4.3 13.1-5 13.8c-.6.7-8.2 6.1-9 7.4-.7 1.2 6.6 1.3 9.4 1 2.8-.4 5.6-1.3 5.8-2.3.2-1-.2-6 .8-5.8 1 .2 1.4 4.6 1.4 4.6l2.6-1 3-18.1M194 287.9l-3.3-2.1s.1-3 1.5-3.5c1.3-.5 1.9 5.6 1.9 5.6z" fill="#6B2215"/><path d="M190.6 269.2s-4.3 13-5 13.8c-.6.7-8.2 6-9 7.3-.7 1.2 6.6 1.3 9.4 1 2.8-.3 5.6-1.3 5.8-2.2.2-1-.2-6.1.8-5.9 1 .3 1.4 4.7 1.4 4.7l2.6-1 3-18.2" fill="#6B2215"/><path d="M221.7 208.4c1.3 1-5.7 14.6-7.2 22.5-1.4 8-21.2 12.4-21.2 12.4l-5.5 32.3c-4.9-.2-9.7-.9-14.5-2 0 0 5.6-37.7 7.7-41.8 2-4 31.6-20.2 31.6-20.2" fill="#B7B3AE"/><path d="M226.8 210.8c1.3 1.1 5.6 10 1.4 21.5-2.8 7.6-20.3 14-20.3 14l-8.4 31c-4 1.7-8.5 1.8-12.7.5 0 0 3-35.4 5.1-39.5 2-4.1 24.3-19.5 24.3-19.5" fill="#B7B3AE"/><path fill="#FFF7F0" d="M182.4 212.4l1.2-1.2"/><path d="M238.7 220.6s9.8 9.5 11 10.2c1 .6 7.5 4.8 6.3 4.7-1.2-.1-2.4-.4-3.6-.7 0 0 3.6 5 2.6 6s-4.2.7-5.5.1c-1.2-.7-3.2-5-3.6-5.5L232 224.7" fill="#FFD0B0"/><path d="M226.6 188a24 24 0 00-11.3-1.5c-1.9.2-3.6.9-5 2-1.9 1.7-1.7 5-2.7 7.2-1 2-2.1 2.5-3.3 1.6a49 49 0 00-6.1-2.5l-3.5 4.3c.7 3 2.1 5 4.2 5.8 2 .9 6.1 1.2 12.2 1l13.1 6.4 9.5 15.4c-1 1.7 9-5 9-5s-6.6-4-6.6-13.1c0-18.1-9.5-21.6-9.5-21.6z" fill="#63CEBC"/><path d="M210.7 201.3s-.4 11.3.3 12.6c.7 1.2 13.3 6.4 13.3 6.4l7.8-9.3-21.4-9.7z" fill="#63CEBC"/><path d="M215.2 176.8s-.7 10 3.5 11.3c4.3 1.3 6.9-3.7 6.9-3.7s1.2-6.6 0-8.1c-1.4-1.5-8-2.2-10.4.5z" fill="#FFD0B0"/><path d="M217.7 171c-1 .5-2 1.2-2.8 2a6 6 0 00-1.8 4.4c0 .4.2.8.6 1 .4.2.8.2 1.1.2h1.6l3.6.2 1.8.1s2.7 6 2 8.1c0 0 3.5-.6 5.3-5.5 1.2-3.3 1.2-8.3-2.4-10.4a10.5 10.5 0 00-9-.1z" fill="#FBAE17"/><path d="M211.7 197.8c0 5.2 0 10.4.2 15.6 0 .6-1 .6-1 0-.1-5.2-.2-10.4-.1-15.6 0-.3.2-.5.4-.5.3 0 .5.2.5.5zM227.2 208.3c-2.4 6.2 3.4 13.6 7.2 19.2.3.5-.5 1-.9.4-4-5.7-9.3-13.1-6.8-19.6.2-.6.7-.5.5 0z" fill="#246D5F"/><path d="M187 275.6s2.8-34.9 4.8-37.3c2-2.4 12.1-10.6 12.1-10.6s-12.7 6.6-14 10c-1.2 3.3-5.3 37.3-5.3 37.3l2.4.6z" fill="#6D665E"/></g><g transform="translate(57.5 106.8)"><path d="M37.6 23l6.8-5s10 .3 9.6 1c-.3.5 7.2 15.3 7.2 15.3l-1.5 32-12.2 7" fill="#FFF" fill-rule="nonzero"/><path d="M55.9 136.5s.6 8.4 2.1 9.6l8.6 6.3c1 .8 0 3.1-3.5 3.1s-10.3-4-10.3-4l-5-1.7s-.8-8 .3-13c1-5 7.8-.3 7.8-.3zM38.9 150s3.5 16.3 1.2 17.5c-2.3 1.3-7.6-1.4-8.4-4.2-.8-2.8-.5-19.3 0-19.4" fill="#4A2B0F" fill-rule="nonzero"/><path d="M60.6 79.4l-.9 60.3s-7.8 2.5-15.2 0l1.5-57-4.3 70a18 18 0 01-13.3 0l1.4-78.5 30-7.9.8 13z" fill="#F5B008" fill-rule="nonzero"/><path d="M49.7 17.7s8.2-2.2 12.2 6.7c5.5 12.1 5.8 81.4 5.8 81.4-2.5 2.3-5.6 3.9-9 4.6 0 0-.7-71.4-1.3-76-1-7.4-7.7-16.7-7.7-16.7z" fill="#DBDBDB" fill-rule="nonzero"/><path d="M56 18.3s4.6 5.2 4.3 5.2c-.4 0-1.7 1.6-1.7 1.6l2.6 2.4L58 61.4s2.4-24.6-8.2-43.6c0 0 4.5-.5 6.3.5z" fill="#EEF3F7" fill-rule="nonzero"/><path d="M41.8 19.7s-8.3 2.8-10.4 10c-2.2 7.4-2.6 82.1-2.6 83 0 .7 5.3 3.8 9.7 4.4 4.4.7 11-1.7 11-1.7l1.1-43.6s-.5-25-1.2-29.8c-.6-4.8-7.6-22.3-7.6-22.3z" fill="#DBDBDB" fill-rule="nonzero"/><path d="M41.8 19.5l-3.3 1.8 1.3 6.6 4 .5-1.3 3.7 5 10.5c.8 1.6 2.8 16.6 2.8 16.6s-.5-16.3-1-18.3c-.6-2.1-3.6-15.2-7.5-21.4z" fill="#EEF3F7" fill-rule="nonzero"/><ellipse fill="#9E9E9E" fill-rule="nonzero" transform="rotate(-73 57.4 31.9)" cx="57.4" cy="31.9" rx="2.6" ry="2.4"/><path fill="#63CEBC" fill-rule="nonzero" d="M60.9 46.6l3.4-13.3 17.6-5.6-7.4 29L57.3 61z"/><path d="M53.9 49.7s4-5.1 4.9-5.5c1-.4 3.2-1.3 4-1 .7.2-.3 2-.3 2s8-1 8.8-.3c.7.6-1.2 3-2.9 4.4-1.6 1.4-12.5 5-12.5 5l-2-4.6z" fill="#FFB7A2" fill-rule="nonzero"/><path d="M46 48.2c-2.5.6-5 1.2-7.7 1.5-.8 0-1.8-.1-2-1A75.6 75.6 0 0137.4 38c.5-2.8 3.3-3.1 1.8-5.8-2.3-4-3.7-9.6-5.4-7a62.1 62.1 0 00-8.7 20.2c-.7 16 3.5 16.8 9.2 16.6 5.7-.2 23.1-4.2 23.3-6.4 0-1.4-1.2-5.4-2.7-8-.6-1.1-5-.3-9 .7z" fill="#DBDBDB" fill-rule="nonzero"/><path d="M56.8 30.3c.2-.2-.2-14-8.6-13.2-8.5.9-7.8 6.8-7.5 9.8l-1.3.2s-1.6-10.6 9.2-10.6c10.7 0 9 14.7 9 14.7" fill="#9E9E9E" fill-rule="nonzero"/><path d="M55 10a4.5 4.5 0 002.4-4c0-3.3-5.2-5.6-7.3-6-2.8-.3-12 .8-12.5 7.3-.4 4.5 2.9 12.5 5.2 12.6" fill="#4A2B0F" fill-rule="nonzero"/><path d="M42.4 15.4a28.1 28.1 0 011.3-4c.6-1.6 1.6-1.1 3.1-1.1A15 15 0 0055.3 8c.2 3.4.4 13.7-5.6 14.5-3.6.6-5.6-.8-6.7-2.4l-.6-4.7z" fill="#F0B387" fill-rule="nonzero"/><path d="M43.8 15s-1.5-3.5-2.6-1.8c-1.2 2 1.4 3.3 1.4 3.3" fill="#F0B387" fill-rule="nonzero"/><ellipse stroke="#42210B" stroke-width=".3" transform="rotate(-73 54.2 13.8)" cx="54.2" cy="13.8" rx="2.7" ry="2.4"/><ellipse stroke="#42210B" stroke-width=".3" transform="rotate(-73 47.8 15.3)" cx="47.8" cy="15.3" rx="2.7" ry="2.4"/><path stroke="#42210B" stroke-width=".3" d="M45.5 14.6l-4.8-3.1M51.6 14.4s-1 0-1.4.4"/><path d="M40.8 40c-1.3 0-3.4 0-4.5-.7s-1-1.7-.8-2.9c.2-2.8.5-8.1 3.9-9.3 3-1 5.5 1.1 6.6 3.6.7 1.6 1.8 4.3 1.4 6-.4 1.5-2 2.3-3.3 2.8-.3.1-.5-.2-.2-.3 1.5-.6 3.1-1.5 3-3.3 0-1.6-.5-3-1.1-4.5-1-2.7-3.8-5.2-6.8-3.6-2.5 1.3-2.8 5.8-3 8.1-.3 1.5-.5 2.5 1.3 3.3 1.1.3 2.3.4 3.5.3.2 0 .2.5 0 .4z" fill="#4D4D4D" fill-rule="nonzero"/><path d="M44.8 39c0 .2.3.5 0 .7-.3.1-1.3.6-1.4.3-.1-.4-.3-.8 0-1 .2-.2 1.4-.8 1.4 0zM41.3 39.7c0 .2.2.6-.2.7-.3 0-1.4.3-1.4 0s0-.9.2-1c.3-.2 1.6-.4 1.4.3z" fill="#4A2B0F" fill-rule="nonzero"/><path d="M45.9 46.5l-3.1.8c-1 .2-2.6.8-3.6.5-.9-.2-.6-1.7-.5-2.5 0-1.2.3-2.4.5-3.6.2-.6-.9-1-1-.3-.3 1.5-.6 3-.7 4.4 0 .9-.3 2.2.6 2.8.8.6 1.8.2 2.7 0 1.8-.2 3.5-.6 5.3-1.2.7 0 .4-1-.2-.9z" fill="#9E9E9E" fill-rule="nonzero"/><path fill="url(#c)" fill-rule="nonzero" opacity=".3" style="mix-blend-mode:multiply" d="M66.4 154.5L12 183.2.7 168.6 51 144"/></g><g transform="translate(276.6 228.6)" fill-rule="nonzero"><path d="M17.2 27.4s-.6 16.6-8.6 17c-8 .4-8.6-17-8.6-17" fill="#6DE1FC"/><path d="M17.2 27.4s-.6 16.6-8.6 17c-8 .4-8.6-17-8.6-17" fill="#F5B008"/><ellipse fill="#311E69" cx="8.6" cy="26.9" rx="8.6" ry="3.3"/><path d="M11.1 29.7a62.7 62.7 0 018-19c.3-.6 1.3-.2 1 .3a62 62 0 00-7.9 19c0 .5-1.2.2-1-.3zM6 30.2c.6-8 1.6-16.1 3-24.1 0-.6 1.2-.6 1 0-1.3 8-2.3 16-2.8 24l-1.1.1z" fill="#311E69"/><path d="M21.6 8.6c1.4-.2 2.8-.1 4.1.3 1 .2 2.9 1 2.5 1.8-.4.8-2.7.7-3.7.5-1.3-.2-2.5-1-3.2-2-.2-.2-.1-.5.3-.6zM19.6 8.2c.2.3.6.4.9.2 1.4-.7 3.1-1 4.1-2 .7-.8 1-2-.2-2.4a4 4 0 00-3.7.5c-1.1 1-1.2 2.2-1.5 3.3 0 .2.1.4.4.4zm2.7-3.5V5c-.5.2-.8.5-1.2.8.3-.4.7-.7 1.2-1zM15.8 6.7c2-.6 2.3 1.6 2.4 2.3 0 .2-.2.3-.4.3-.3.2-.6.2-.9 0-.6-.3-1.4-.7-1.7-1.3a.9.9 0 010-.7c.1-.3.4-.5.6-.6zM8.8 5.4c.2.3.6.3 1 .2h.3c1.7-.2 2.5-1.8 2.8-2.7.3-.9.6-2.3-1-2.8-1.4-.4-3 .2-3.5 1.4-.5 1.3-.4 2.7.4 3.9zm.9-1.2v-.7.7zM0 5.7c0 1 1.6 1.5 3 1.6.8.2 3.8.6 3.9-.3.2-.1.2-.3.1-.5-.7-1-2.2-1.4-3.8-1.7-1.3-.2-3.1-.2-3.2 1zm1.3 0l.1.2V6l-.2-.2v-.2z" fill="#C3EA75"/><path d="M11.5 6.3c.2.2.5.4.7.3.9 0 1.7-.4 2.4-.8.5-.4.8-1.1.3-1.6-1-1.2-3.1.7-3.7 1.4-.2.3 0 .5.3.7zm1.7-1l.6-.3-.6.3z" fill="#C3EA75"/></g><g><g transform="translate(75.7 63)" fill="#FFCE33"><ellipse cx="14.1" cy="3.1" rx="14.1" ry="3.1"/><ellipse cx="40.2" cy="3.1" rx="9.1" ry="3.1"/><ellipse cx="65" cy="3.1" rx="14.1" ry="3.1"/><ellipse cx="93.6" cy="3.1" rx="9.7" ry="3.1"/><ellipse cx="120.6" cy="3.1" rx="12.4" ry="3.1"/></g><path d="M130.2 29.3a2.7 2.7 0 013.4 2.1l1.4 7.3c.4 1.7-.1 3.5-1.3 4.8a1.5 1.5 0 01-2.6-.6l-3-10a3 3 0 012-3.6z" fill="#3B3B3B"/><path d="M137.1 33.7c1.2-1.7 2.6-2.2 4-1.5 1.6.7 1.9 2.3 1 4.7-7.5 11.7-10 19-7.8 21.8 2.3 2.8 8.5 1.4 18.5-4.2 1.8-.6 3.3-.1 4.6 1.5 1.3 1.6-.8 3.3-6.2 5.2-12 5-19.5 5.5-22.7 1.6-3.2-4-.3-13.6 8.6-29.1z" fill="#FF6C6C"/><path d="M149 34.6c2.4-2.4 7-4.8 7-2.3 0 2.4-5.3 8.7-7 10a7.3 7.3 0 01-4.9 1.3c1.6-4.4 3.2-7.4 4.9-9zM154.3 39.8c2.2-1.5 6-1 5.7.7-.2 1.7-14 11-11.4 7.2 2.6-4 3.6-6.4 5.7-7.9z" fill="#FF6C6C"/><path d="M112.4 41.5c1-3 3.3-6.2 6.3-4.2 2 1.4.7 5.1-4 11.1 2.1 0 2.5.9 1 2.6-2.2 2.5-3.3 3.6-4 3.6-1.6 0-.3-10.1.7-13.1z" fill="#3B3B3B"/><path d="M119.9 49c1.3-4 7.4-13.3 6.7-9.3-.7 4-2 13.1-3 15.6-1 2.4-8.3 9.4-8.4 7-.1-2.3 3.4-9.2 4.7-13.2z" fill="#FF6C6C"/><g fill="#3B3B3B"><path d="M167.5 60.2c-9.6-2.8-8.3-14.9-6.7-11.8 1.7 3 5.3 5 8.8 5.8 7 1.4 9-.8 7.8-2.6-1.3-1.8 5 1 4.5 2.7-.5 1.9-4.8 8.8-14.4 6zM170.1 42.4c3.9 1.9 6.9 4 8 2 1-2.1-1.3-5.3-5.2-7.3-3.8-1.9-7.8-1.8-8.9.2-1 2 2.3 3.1 6.1 5z"/></g><g fill="#3B3B3B"><path d="M204.2 36.5c-.6 2.3-5.4 5-14.4 7.8 11.5.9 17.3 4.5 17.3 10.8 0 2.7-2.3 12.5-10 12.5-7.8 0-18.1-12.5-11-12.5 7.1 0 14.8 7.8 14.8-2 0-8-20.6-4.2-14.8-8.2 3.9-2.6 8.3-6 13.3-10.2 3.8-1.2 5.4-.6 4.8 1.8z"/><path d="M195.4 37.5c5-1.2 9-1.7 8.7-3.4-.4-1.7-5.4-3.7-10.5-2.5-5 1.1-8.3 5-8 6.7.4 1.6 4.7.3 9.8-.8z"/></g><g fill="#3B3B3B"><path d="M105 42.4a2 2 0 01-1.6 2.6l-6 1c-1.4.3-2.8-.1-3.8-1a1.1 1.1 0 01.4-2l8.3-2.2c1.2-.3 2.4.4 2.8 1.6z"/><path d="M96.1 34l.8 18.9c7.2 0 11.3 0 12.5.4 1.8.6-1.9 5-5.1 5.8-2.2.4-4.6-.6-7.2-3v5c0 2.6-2.7 4.4-7 4.4-4.2 0-12.1-5.5-12.3-7.6 0-1.5 4.6-3 14-4.6L90.8 34c0-1 .9-1.7 2.7-2.3 1.8-.6 2.7.1 2.7 2.3zm-6.6 22.9c-2.2 0-5 .8-5 2s1.4 2 3.6 2h.5c1 0 2.3-.1 3.1-1 1-1 0-3-2.2-3z"/></g><path d="M107.8 96.3c-.4-4.1-.2-10.8 0-15a33 33 0 012.8 4.8l.9-.8c.2-.3.4-.7.2-1-.7-1.4-1.6-2.8-2.7-4l-1.3.8.1-1.7 3.4-.1v-1.7l-3.3.1c0-1.3.1-2.7.3-4h-1.8l-.3 4.2c-.7.1-2.5.3-3.4.6-.4.1-.6.4-.7.8v1c.9-.2 2.7-.6 4-.7-1.4 2.5-2.8 5-4 7.6-.1.5 0 .9.3 1.2.3.4.6.6 1 .8.8-2.2 1.7-4.4 2.8-6.5-.5 4.4-.3 9.3-.1 13.7h1.8zm4.6 0c3.7-.6 7.7-.9 11.6-.7.2-4 .1-13.6-.5-18.3 0-.8-.3-1.6-.6-2.2a2.8 2.8 0 00-2-1.3 18 18 0 00-8.1 1.2c-.4.2-.7.5-.8.7-.2.4-.2 1-.2 1.5l1-.5c-.5 4.7-.5 15.7-.4 19.7zm1.9-14.3c0-1.6.1-3.8.3-5.2a15 15 0 015.4-.7c.5 0 1 .3 1.1.9.4 1 .5 2.9.6 4-2.6.2-5 .4-7.4 1zm0 6v-2.8V83c2.7-.6 5.5-1 8.4-1l.2 5.2c-3 0-5.9.2-8.6.8zm0 7.2V90a41 41 0 018.6-.8l-.1 5.3a56 56 0 00-8.5.7zm26.5-9.6a72 72 0 016.3-5c2.6 1.3 5 2.8 7.4 4.4l.4-1.4c0-.3-.1-.6-.5-1l-4-2.1-.8-.5-1.6-.8c0-1.8 0-3.7-.2-5.5H146l.3 5.5a90 90 0 00-5.9 4.4c-.3.3-.3.6-.2 1l.6 1zm-8-6a45 45 0 018.6-.8v-1.6h-2.8v-.6l-1.3-1.7-1.6.7c.5.6 1 1.2 1.3 1.8l-3.2.4c-.4.1-.7.3-.8.7-.2.3-.2.7-.3 1.2zm19.6 0c.6-1.2 1.7-2.9 2.5-4l-1.4-.7-2.2 3c-.2.4-.1.7.1 1 .2.3.6.6 1 .8zm-8.4 0c.4-.3.8-.5 1-1a1 1 0 000-.8l-2.2-3-1.4 1a27 27 0 012.6 3.9zm-11.3 3.6a43 43 0 017.4-.8V81c-2.1 0-4.6.2-6.4.5-.4 0-.6.4-.7.7l-.3 1.1zm9.4 13.2c2-2 4.1-3.7 6.3-5.4 2.4 1.5 4.8 3.2 7 5 .3-.2.6-.6.7-1 .1-.3 0-.7-.3-1a63 63 0 00-6.6-4.3l-.1-6.5-1.8.2v6.3l-5.7 4.6c-.3.3-.3.7-.1 1 .1.4.4.8.6 1zm-9.4-9.6c2.4-.4 4.9-.7 7.4-.8v-1.6a56 56 0 00-6.5.7 1 1 0 00-.7.6l-.2 1.1zm18.5 3.6c.7-1.4 1.6-2.7 2.5-4l-1.6-.8c-.8 1-1.4 2-2 3-.2.4-.1.8.2 1l.9.8zm-7.1 0c.2-.2.6-.5.7-.9.2-.3.3-.6.2-1l-2.3-2.9-1.3 1c1 1.2 1.9 2.5 2.7 3.8zm-11.2 6c2.3-.4 4.8-.6 7.2-.7v-5.1c-.1-.7-.4-1.4-.9-1.9s-1.3-.7-2-.7c-1.2.1-2.7.3-3.8.7-.3.2-.4.4-.5.8l-.2 1.2.7-.2-.5 5.9zm2.3-2.4c0-1.5.2-3 .4-4.5.7-.2 1.5-.3 2.4-.3.3 0 .7.3.7.7l.2 3.8a56 56 0 00-3.7.3zm28.7-12c.7 0 1.3-.2 2-.3 0-1.2.2-2.4.5-3.5 4.1-.7 12.8-2 16.6-1 .3 0 .6.4.6.7.2.9 0 1.9-.2 2.8.5 0 1 0 1.3-.2.4-.2.7-.4.9-.8.2-.6.1-1.4 0-2.1-.2-.6-.5-1.2-1-1.5-.3-.4-.8-.7-1.3-.7a37 37 0 00-7.7-.1l-.7-1.6-1.9.5.6 1.2c-3 .3-7.5 1-9.2 1.4-.3.1-.5.4-.7.8l-.2 1.2.8-.2c-.2 1.1-.4 2.3-.4 3.4zm-.4 14.4c7.4-1.1 14.5-1 22.2-.7V94l-10.5-.2.1-3.2h8.7V89h-8.7v-2.5c1.7-.2 4-.3 5.6-.3l1.7 1.7.7-.9c.1-.3.2-.7 0-1-1.5-1.4-3-2.7-4.7-3.8l-1.3 1 1.8 1.5c-3 .1-7.3.5-10 .8 1.1-1.2 2.1-2.6 3.3-3.7 3.5-.4 6.7-.4 10.3-.4v-1.6c-3.9 0-12.5.4-15.2 1-.4.2-.6.4-.7.6-.2.4-.2.8-.2 1.2a25 25 0 013.4-.6 83.1 83.1 0 00-3.5 4.5v1l6.9-.8V89c-2.2.2-5.6.5-7.8.9a1 1 0 00-.9.7v1c2.8-.4 5.8-.8 8.8-.9 0 1 0 2.5-.2 3.2-2.7 0-7 .3-8.8.7-.4.1-.7.4-.8.7-.2.3-.2.8-.2 1z" stroke="#000" fill="#000" fill-rule="nonzero"/></g></g></svg>