<svg width="326" height="325" xmlns="http://www.w3.org/2000/svg"><defs><linearGradient x1="30.4%" y1="69%" x2="43.8%" y2="54.9%" id="a"><stop stop-color="#FFF" stop-opacity="0" offset="1%"/><stop stop-color="#00A99D" offset="100%"/></linearGradient><linearGradient x1="36.8%" y1="65.2%" x2="59.2%" y2="36.8%" id="b"><stop stop-color="#FFF" stop-opacity="0" offset="1%"/><stop stop-color="#00A99D" offset="100%"/></linearGradient></defs><g fill-rule="nonzero" fill="none"><g transform="translate(139.6 91)"><ellipse fill="#E1FDFF" cx="94.9" cy="166.6" rx="90.4" ry="67.4"/><path d="M31.8 34.4l-9.2.5s-9-2.3-10.5-1.1c-1.3 1-7.1 3.5-6.7 4.7.4 1.2 5.5-.7 5.5-.7S9 39 9.8 39.9c.8.9 4-2 5-1.6 1 .5 19.2 1.8 19.2 1.8" fill="#FAA590"/><path d="M22 38.8c-2.5.6-5 .3-7.3-.9-.4-.2-.6.8-.1 1 2.4 1.2 5 1.5 7.5.9.5-.2.3-1.1-.2-1z" fill="#FAA590"/><path d="M66.4 15.6s7.4 3.5 7.5 10c.1 6.5 1.1 7.6 5.3 9 4.2 1.6 8.3 2.7 8.5 6.4.2 3.7-7 7.2-11 9-4 1.8-16.6-13.8-15.8-19.8" fill="#E8601C"/><path d="M39.5 222.8L0 195.6l37.9-27.4 41.8 23.5-29 21.3c-4.5 3.4-6.9 6.3-11.2 9.8z" fill="url(#a)" opacity=".5"/><path fill="url(#b)" opacity=".5" d="M160.2 173.5l-41.3-23-37.5 26.8 39.4 26.6z"/><path fill="#FFE8BC" d="M135.7 99.2l4.8 3.2-13.1 15.6-11.7 4.6-3.8-6.6"/><path fill="#F5B008" d="M117.6 119.2l-4.5-3.1 23-16.6-.6-.3L112 116v43.1l5.1 3.6 2-2.5"/><path fill="#1371A5" opacity=".4" d="M117.6 119.2l-4.5-3.1 23-16.6-.6-.3L112 116v43.1l5.1 3.6 2-2.5"/><path fill="#F5B008" d="M140.1 103.6l-23.7 17v43.2l24.1-17.7z"/><path fill="#E85858" d="M118.1 117l1.3 1v9l.9-1.4.5.9V117l-1.2-1.1z"/><path fill="#FFE8BC" d="M142 104.7l4.8 3.3-13.2 15.5-11.6 4.6-3.9-6.6"/><path fill="#F5B008" d="M123.9 124.8l-4.6-3.1 23-16.6-.5-.4-23.7 16.9v43l5.2 3.6 2-2.5"/><path fill="#1371A5" opacity=".4" d="M123.9 124.8l-4.6-3.1 23-16.6-.5-.4-23.7 16.9v43l5.2 3.6 2-2.5"/><path fill="#F5B008" d="M147.3 108l-23.8 17v43.2l24.2-17.7z"/><path fill="#E85858" d="M124.4 122.6l1.3 1v9l.8-1.4.6.9v-9.5l-1.2-1.2z"/><path fill="#FFE8BC" d="M150 109.2l4.8 3.2-13.1 15.6-11.6 4.6-3.9-6.6"/><path fill="#F5B008" d="M132 129.3l-4.6-3.2 23-16.5-.6-.4-23.6 16.9v43l5.1 3.6 2-2.5"/><path fill="#1371A5" opacity=".4" d="M132 129.3l-4.6-3.2 23-16.5-.6-.4-23.6 16.9v43l5.1 3.6 2-2.5"/><path fill="#F5B008" d="M154.5 112.5l-23.8 17v43.2l24.1-17.7z"/><path fill="#E85858" d="M132.5 127l1.3 1.1v9l.8-1.5.6 1V127l-1.3-1.2z"/><path d="M127.6 170.5s-1-.4-.2-1l1.5-1.3" fill="#E27825"/><path d="M127.1 166s.7 3 0 4.7l9 6.7 8.9 6.4v-4.7" fill="#FFE8BC"/><path d="M127.1 164.9v.6l18.1 12.7v4.7l-18-13.1v.6l18.7 13.4v-6.4L127 165z" fill="#E27825"/><path d="M127.3 165l18.1 13.3 25.6-19-17.8-13c-.6-.4-1.3-.4-1.8 0l-24.2 18.2-.1.3c0 .1 0 .2.2.3z" fill="#FDBA45"/><path d="M145 183.8l26-19v-5.5l-26 19v5.5z" fill="#E27825"/><path d="M126.7 164.9c-.2.1-.3.3-.3.5 0 .4.4.5.5.6" fill="#FDBA45"/><path d="M127.6 162.7s-1-.4-.2-1l1.5-1.3" fill="#E27825"/><path d="M127.1 157.1s.7 3 0 4.7l9 6.7 8.9 6.4v-4.8" fill="#FFE8BC"/><path d="M127.1 157.1v.6l18 12.7v4.7l-18-13v.5L146 176v-6.4L127 157.1z" fill="#E27825"/><path d="M127.2 157.3l18.2 13.2 25.6-19-17.8-13c-.6-.4-1.3-.4-1.8 0l-24.2 18.2-.1.3.1.3z" fill="#FDBA45"/><path d="M145 176l26-19v-5.5l-26 19v5.5z" fill="#E27825"/><path d="M127.6 156c-.2.1-.3.3-.3.5 0 .4.4.5.5.6" fill="#FDBA45"/><path d="M127.6 153.8s-1-.4-.2-1c.5-.5 1-1 1.5-1.3" fill="#E27825"/><path d="M127.1 148.2s.7 3 0 4.7l9 6.7 8.9 6.4v-4.8" fill="#FFE8BC"/><path d="M127.1 148.2v.6l18 12.7v4.7l-18-13v.5L146 167v-6.4L127 148.2z" fill="#E27825"/><path d="M127.2 148.4l18.2 13.2 25.6-19-17.9-13c-.5-.5-1.2-.5-1.7 0l-24.2 18.2-.1.3.1.3z" fill="#FDBA45"/><path d="M145 167.1l26-19v-5.5l-26 19v5.5z" fill="#E27825"/><path d="M127.6 147l-.3.6c0 .3.4.5.5.6" fill="#FDBA45"/><path d="M13.6 186c-.2 0-2-.7-.5-2l3-2.4" fill="#9A433A"/><path d="M13.4 175s1.3 6 0 9.4l18 13.2 17.8 13V201" fill="#FFE8BC"/><path d="M13.4 175l.2 1.2 36 25.3v9.4l-36-26v1L51 213V200l-37.6-25z" fill="#9A433A"/><path d="M12.8 175.2l37.5 26.5 52.6-38.1-36.7-26a3 3 0 00-3.6 0l-49.8 36.5c-.2.1-.3.3-.3.5 0 .3.1.5.3.6z" fill="#F26250"/><path d="M50.3 212.8s52.8-38.7 52.6-39v-11.1l-52.8 38.6.2 11.5z" fill="#9A433A"/><path d="M13.1 173.8c-.3.3-.5.6-.6 1 0 .8.7 1.1 1 1.2" fill="#F26250"/><ellipse fill="#9A433A" cx="56.4" cy="168.2" rx="17" ry="6.7"/><path d="M88.3 74.7s3.5-4.2 6.1-4.1c2.6 0 7.3.8 7.6-1 .4-2-4.4-5-6.2-5.7-1.8-.7-7.5 3.5-7.9 2.7-.4-.7 3.5-4.2 3.5-4.2s-2.6-1.3-2.7-1.1c0 .2-4.5 6.5-5.4 9.4-.8 3 5 4 5 4zM53.6 139.5s-.2 6-2 8.4c-2 2.3-5.8 5.7-5 7.4.9 1.7 6-.3 7.7-1.4 1.7-1 3.4-9 4.1-8.9.8.2 0 6.2 0 6.2s2.5-1.3 2.5-1.6c0-.2-.4-8.7-1.5-11.6-1.1-2.9-5.8 1.5-5.8 1.5z" fill="#1A1A1A"/><path d="M113.7 18.5L93.5 1a9 9 0 00-4 6l20.1 17.4 4-6z" fill="#FDDF33"/><ellipse fill="#FDDF33" transform="rotate(-54.2 91.5 4.5)" cx="91.5" cy="4.5" rx="3.7" ry="1.9"/><ellipse fill="#FCCD35" transform="rotate(-54.2 111.3 22.2)" cx="111.3" cy="22.2" rx="3.7" ry="1.9"/><path d="M101.1 12.1c.3-1.6-1.2-2-2-2-1.5-.2-2.8.8-3.2 2.6-.9 3-.5 6.1-1.9 9-.2.6.4 1.2.7.6l.6-1.5a77 77 0 00-.4 2.2l-.1.6v.5c.2.2.3.2.5.2l-.3.5c-.1.2 0 .5.1.7.2.2.4.1.5-.1.2.2.5.4.7 0 .7-1.6 1.5-3.2 2.4-4.6.6-.9 1-1.9 1.3-3 .3-1.7-.3-3.4-1.4-4.3 1 0 2.3-.2 2.5-1.4z" fill="#FAA590"/><path d="M43.5 31.3c-4.6 1-15.3 1.2-22.4 1.3-1 6.2-1.5 12.5-1.4 18.9 7.2 1.1 18.6 1.9 27.5-2.5l11.9-18.8a56 56 0 00-15.6 1z" fill="#1A1A1A"/><path d="M57.6 30c0 .5-17.7 53-18.2 90.3 0 0 15.6-18.3 24.1-27" fill="#1A1A1A"/><path d="M52.8 62.6c0-.8-.6-30.9 5.3-32.3 6-1.4 13.5 5.1 13.5 8.8 0 3.6-5.2 25.4-9.3 25.5-4.2.1-9.5-2-9.5-2z" fill="#F5B008"/><path d="M52.9 52.4a235.2 235.2 0 00-11.7 45c0 8.3 11.6 41 13 41.7 1.5.7 4.5-1.1 5-2.7.6-1.6-6.6-35-6.6-35s9.5-27.3 8.1-33.8C59.4 61 53 52.4 53 52.4z" fill="#F5B008"/><path d="M58.2 63.2c-.1.7.5 30.8 3 34.6 2.5 3.8 8.6 5 11.7 1.5 3.1-3.5 16.3-23.8 14.7-25.1a5.6 5.6 0 00-5-1.4c-2 .3-13.5 16.4-13.5 16.4s.3-31.3-2.2-34.6" fill="#F5B008"/><path d="M64.6 31.2S60 68.8 65 79.6a101 101 0 0011.8 19.6s13.5-6.4 14.5-8.5c1-2-15.3-20.1-16.2-25.7-.9-5.5.7-24.5-1.7-27.2-2.3-2.7-8.7-6.6-8.7-6.6z" fill="#1A1A1A"/><path d="M64.4 31.3s10.7 5.8 14.1 5c3.4-.8 14.8-15.1 15.6-16.2 0 0 9 10.3 9.7 14.2 0 0-13.2 17.2-18.7 19.4-5.6 2.2-15.3-.3-15.3-.3" fill="#1A1A1A"/><path d="M47.6 78.5c3.6-16.4 7.6-32.8 14.2-47.8-6.2-1.5-8.5.3-8.5.3-9 7.7-26.4 73.7-26.4 73.7.2 6 10 13.8 12.4 15.6 2.1-14 5.3-28 8.3-41.8z" fill="#303030"/><path d="M59.8 18.7s-2 9.8.5 12c2.4 2.1 7.6-2.4 8.5-6.9 1-4.5-6.5-10.2-9-5z" fill="#FAA590"/><path d="M65.4 21.2s-.3 3.3.5 4.6c.8 1.2-2.3 5.2 2.5 7.4 4.7 2.1 3.1-11 2-12" fill="#E8601C"/><ellipse fill="#1A1A1A" transform="rotate(-78.8 65.1 20)" cx="65.1" cy="20.1" rx="2.1" ry="5.3"/><path fill="#1A1A1A" d="M60 18.5l1.1-6.2 10.5 2.2-1 6.7"/><path fill="#1A1A1A" d="M55.5 10.4L66 20.1l11.8-6.8-11-10z"/><path d="M67.1 12.6l5 5.2-1 5.5s-.9.6-1.2 3c.8.5 1.7.6 2.5.3.3-1.3-.1-2.5-1-3.3l1-5.6-5-5.4s-.3-.1-.3.3z" fill="#FEDB26"/><path d="M146.6 58s6.7 23.3 6.4 23.6c-.3.3-3.7-3-4-2.9a37 37 0 00-2.2 3.7l-6.3-23" fill="#E8601C"/><path d="M137 55.7l-3.6 22.1s4.2-4.4 4.2-4l.5 5.3 5.1-22.4" fill="#E8601C"/><ellipse fill="#EAB41B" transform="rotate(-6.4 142.3 50.2)" cx="142.3" cy="50.2" rx="8.7" ry="13.8"/><ellipse fill="#FCCD35" transform="rotate(-6.4 141.2 50.3)" cx="141.2" cy="50.3" rx="8.7" ry="13.8"/></g><g><ellipse fill="#E1FDFF" cx="94.6" cy="207.5" rx="80.5" ry="49.5"/><path d="M53.7 174l39.5-27.8c4.1-3 9.1-3 13.3 0l32 22.8a5 5 0 011.8 3.7c.1 1.5-.4 3-1.3 4l-48.7 52.1-37.6-45.7c-1-1.3-1.5-3-1.3-4.9.2-1.7 1-3.3 2.3-4.2z" fill="#F5B008"/><path d="M53.7 174l39.5-27.8c4.1-3 9.1-3 13.3 0l32 22.8a5 5 0 011.8 3.7c.1 1.5-.4 3-1.3 4l-48.7 52.1-37.6-45.7c-1-1.3-1.5-3-1.3-4.9.2-1.7 1-3.3 2.3-4.2z" fill="#000" opacity=".1"/><path d="M138.1 169.2l-32-22.9c-1.9-1.4-4-2.2-6.3-2.2v74.5l39-41.7c.9-1 1.4-2.5 1.2-4a5 5 0 00-1.9-3.7z" fill="#000" opacity=".1"/><path d="M140 174.7l-40.5 29.8a11.8 11.8 0 01-14.2 0l-34-24.6V230a11 11 0 004.2 9L87 261c2.8 1.9 6.3 1.9 9 0l40.4-28.2a9.5 9.5 0 003.7-7.8v-50.3zM71.7 56.5c-.5-.7-7.2-5.7-7.2-5.7-1.4-1.9-4-1.2-7.2 2.4 0 0-.2-4-4-4.6-3.8-.7-4.9 1.5-4.9 1.5s-1.2-7.5-9-4.7c-6.8 2.6-5.9 11.2-5.9 11.2s-4.3-1.3-7.7 4.6c-2.1 3.8-3.2 8.3-3.2 12.9 0 0-7.2 3.2-8.1 11.4l-.2 2.2v.2c0 1.8.1 3.5.4 5.2.1 1 .6 2 1.3 2.4l7.7 5.5c.3-2.4 0-4.8-.8-7l38-27.5c1.9-2 3.3-4.5 4.2-7.4l3-1s4.1-.8 3.6-1.6z" fill="#F5B008"/><path d="M71.7 56.5c-.5-.7-7.2-5.7-7.2-5.7-1.4-1.9-4-1.2-7.2 2.4 0 0-.2-4-4-4.6-3.8-.7-4.9 1.5-4.9 1.5s-1.2-7.5-9-4.7c-6.8 2.6-5.9 11.2-5.9 11.2s-4.3-1.3-7.7 4.6c-2.1 3.8-3.2 8.3-3.2 12.9 0 0-7.2 3.2-8.1 11.4l-.2 2.2v.2c0 1.8.1 3.5.4 5.2.1 1 .6 2 1.3 2.4l7.7 5.5c.3-2.4 0-4.8-.8-7l38-27.5c1.9-2 3.3-4.5 4.2-7.4l3-1s4.1-.8 3.6-1.6z" fill="#000" opacity=".1"/><path d="M28 101.6l40.3-29.2s5-5.4 4.7-11.5c-.3-6-3.5-7-8.4-1.8 0 0 0-5-3.9-4.6-2.1.2-4 1.5-5.3 3.6 0 0 .8-9-6.8-6.2-4 1.4-7 5.6-7.6 10.7 0 0-4.4-1.4-7.8 4.6-2 3.7-3.2 8.2-3.2 12.7 0 0-7.2 3.3-8.1 11.5-1 8.2 2.2 12 6 10.2z" fill="#F5B008"/><path d="M55.4 182.8L80 200.7l-3.3-26.3-20.3-4.8c-.5 4.4-.9 8.8-1 13.2z" fill="#FFC931"/><path d="M108.2 154.9l2-7.7c1.2-3.6 2-7.4 2.4-11.3-.6-1.8-2.5-3.2-3.9-3.6-1.7-.5-3.5.4-5.2.4-2.3 0-4-1.1-6.2-2a9.4 9.4 0 00-6.6.5c-4.1 1.5-8.3 1-11.7-2.4-2-1.9-3.4-3.5-5.9-4.3-3.8-1.2-7.6-.3-10.1 3.6a11 11 0 00-.4 12c1.3 1.6 3 2.8 4.8 3.3 1.6.5 3.2 1.8 4.9 2.2h.2c1.6.1 3.2.4 4.8.8 2 .7 3.9 2 5.8 2.8 2.6 1.2 5.2.8 7.9.3 3.4-.5 5.2.8 7.8 3.2l.5.5c1.9 1.4 4 2 6.3 2l2.6-.3z" fill="#FFC285"/><path d="M44.2 123.8l-1.7-4a89.4 89.4 0 01-.2-10.9c0-.4-.2-.8-.5-1a1 1 0 00-1-.2c-.7.4-1.2 1.3-1.3 2.3l-.3 2.6a62 62 0 01-2.8-7.3c-.5-1.5-2.5-.7-2 .9l.6 1.7c-.5-1-1-1.8-1.7-2.7-.7-1-2.4-.4-1.9 1.1.7 2 1.5 4 2.5 6l-2.2-3.6c-.8-1.4-2.6 0-1.8 1.5l3 5c-.5-.4-1.1-.7-1.8-1-1.2-.7-2.2 1.6-1 2.3l3.6 2 .1.2c1.8 4.1 3.7 8.2 5.7 12.2.7 1.5 2.5 0 1.8-1.5l-.9-1.8c.3-.1.6-.4.8-.8.3.3.7.3 1 0 .4-.2.6-.6.6-1 .4.2 1 0 1.3-.4.3-.4.4-1 .1-1.6z" fill="#EE6300"/><path d="M38.1 113.4c-1.2 1.6-2.3 3.5-1.8 5.8 0 .5.7.3.5-.1-.4-2 .7-3.8 1.7-5.2.3-.3-.1-.9-.4-.5zM36.8 112c-.8-2-1.5-4-2-6-.1-.4-.6-.3-.5 0l2 6.2c.2.3.6 0 .5-.3zM34.7 113.3a33.3 33.3 0 01-3-7c0-.4-.5-.3-.4 0 .7 2.6 1.7 5 3 7.3.2.3.6 0 .4-.3zM33.7 116.2a34.1 34.1 0 01-3-5.3c-.2-.3-.6 0-.5.2 1 2 2 3.8 3.2 5.5.2.2.5-.1.3-.4z" fill="#6D320B"/><path d="M73.2 141L66 139c-6.1-.3-12-3.5-16.3-9a59 59 0 01-6.7-11 34.7 34.7 0 00-8.2 10.1c3.2 8.3 11.1 21.4 20.9 26 0 0 0 9 .3 19.5a20 20 0 0023 4.4s-3.2-33.7-5.7-38.2z" fill="#FF8597"/><path d="M69.5 140.6s14.1 13.2 36 30c0 0-1.3 9.2-4.4 12.6 0 0-24-10.4-30-23.9" fill="#FF8597"/><path d="M63.1 132.4s-2.6 9.3 2.2 13.5c4.8 4.2 11.3-4.6 9.5-12.9-1.8-8.2-8.6-8.6-11.7-.6z" fill="#EE6300"/><path d="M75.4 144.6c-.8.2-1.6 0-2.2-.8-.7-.9-.6-2.2-.6-3.4 0-1.5-.6-3-1.6-3.8-1.2-1-2.8-1.3-4-2.6a7 7 0 01-.3-.4l.5.4c1.8 1.4 4.6 1.8 5.4 2.3.9.5-.5 4.7 1 6.6 1.6 2 5.2-9.7 3.1-12.9-2-3.2-9-6.9-12-1.6 0 .5.1 1 .3 1.4a8 8 0 001.2 3.9c1.1 1.7 2.7 2 4.2 3.1 1 .6 1.6 1.8 1.7 3.2 0 1 0 2.2.3 3.2.5 1.5 1.9 2.3 3.1 1.9.3 0 .2-.6-.1-.5z" fill="#FFC285"/><path d="M114.1 131.4A247 247 0 01133.5 70c.5-1-1-2-1.5-1a247.9 247.9 0 00-23.3 114.1 153.6 153.6 0 011-99.2c.3-1-1.4-1.5-1.7-.4a155.2 155.2 0 00-2.3 96 120.1 120.1 0 01-20.3-49.2c-3.6-21.3-1.6-43 .4-64.4.1-1.2-1.6-1.2-1.7 0-2 22-4 44.6 0 66.6a122 122 0 0023.2 51.8l.8 2.3c-.4 0-.7.4-.7.9-.1 16.8 2.7 33.5 8.5 49.2.4 1 2 .6 1.6-.5-5.1-14-8-28.9-8.3-43.9 3 17.2 8 34 15.1 50 .5 1 2 0 1.5-1a212 212 0 01-13.7-43v-.7a136 136 0 01-1.5-33.8 246 246 0 013.5-32.4z" fill="#29ABE2"/><path d="M141.4 102c.6-.9-.9-1.8-1.4-.9-15 24.3-29.3 51-29.6 80.6V186c-.2 0-.4.2-.5.4a1 1 0 00-.2.7l1.6 6.6a253 253 0 0013.2 46.2c.4 1 2 .6 1.6-.5-3.7-9.5-6.9-19.3-9.4-29.3 3.4 8.9 7.7 17.4 12.7 25.4.6 1 2 0 1.5-1a151.6 151.6 0 01-17.2-38.5c-.8-4.2-1.3-8.4-1.6-12.7-.3-29.8 14.2-56.7 29.3-81.2z" fill="#29ABE2"/><path d="M113.3 190.6c.2-.4.1-.9-.2-1.1a.7.7 0 00-.4-.1l.5-.6c.1-.1.2-.3.1-.5 0-.2-.1-.4-.3-.5-.1-.3-.3-.5-.5-.5l.5-.5.1-.1.2-.2c.2-.2.3-.5.2-.8a.8.8 0 00-.7-.5l.6-.6c.2-.3.3-.7.2-1a.8.8 0 00-.8-.5c-1.2.1-2.4.6-3.3 1.4-.2.2-.3.5-.2.8 0 .3.2.5.4.6h.6c-.5.3-1 .5-1.4.9-.3.3-.3.7 0 1 .3.5.7.7 1.2.7a6 6 0 00-.8 1.1c-.2.3-.2.6 0 .9.2.2.5.4.8.3l.6-.2-.7 1.2c-.3.8.7 1.3 1.2.9.7-.6 1.3-1.2 1.9-2l.2-.1zM109.5 181.7c-.7-2-2.9.2-4.1 1.5l-.2.2-.8.6c-.7 2.4-1.6 4.7-2.7 7 .5.3 1 .5 1.7.6a5 5 0 002.5-.1c1.7-.6 1.7-2.5 1.4-4 .3-.6.4-1.3.4-1.9l-.1-.4c1.3-.9 2.5-2 2-3.5z" fill="#EE6300"/><path d="M170.4 24c-16-2.5-28.2 16.2-25.5 32.2.4 2.3 3.7 14.4 7 18.5l-.1.1c-1.7-.3-3.4.6-4 2.3-1 2.2.7 4.4 2.7 5 1.5.6 3.3 0 4.3-1.3s1-3.2.2-4.7c10.4.2 21.4-5.2 28.3-13.2 11.4-13.2 6.8-35.7-13-38.8z" fill="#B878EA"/><path d="M150.1 56.3c.9-6.8 3.2-13.2 7-18.7 5.4-8.1 13.5-12.5 22.3-10-2.8-1.9-6-3-9.2-3.5-15.8-2.6-28 16-25.3 31.8 1.1 5 2.7 9.9 4.7 14.5-.6-4.7 0-9.7.5-14.1z" fill="#8B48CC"/><path d="M119.2 1.2c-16 1.6-23.6 23-17.3 37.9 1 2 7 13 11 16.2v.1a3.6 3.6 0 00-3.5 3.2c-.3 2.4 1.8 4.1 3.9 4.2 1.6.2 3.2-.8 3.8-2.3.7-1.6.4-3.4-.8-4.6a39.4 39.4 0 0024.5-20c8-15.9-1.7-36.6-21.6-34.7z" fill="#FFC931"/><path d="M108 38c-.8-6.8 0-13.7 2.3-20.1 3.4-9.4 10.2-15.7 19.3-15.6-3.1-1-6.4-1.4-9.7-1C104 2.7 96.6 24 102.9 39a80 80 0 007.9 13 58.4 58.4 0 01-2.8-14z" fill="#FFA133"/><path d="M133.3 29.3c-16.3-1-26.9 18.7-22.7 34.3.6 2.3 5 13.9 8.6 17.7l-.1.1c-1.7-.2-3.4.9-3.9 2.6-.7 2.3 1.2 4.3 3.2 4.7 1.6.4 3.3-.2 4.2-1.7 1-1.4.9-3.2-.1-4.6a39 39 0 0027.3-15.8c10.2-14.2 3.6-36-16.5-37.3z" fill="#855AF1"/><path d="M115.8 63.7c.2-6.8 2-13.5 5.2-19.5 4.7-8.7 12.5-13.9 21.6-12.3-3-1.6-6.3-2.4-9.6-2.6-16-1-26.6 18.9-22.4 34.6 1.5 4.9 3.5 9.6 6 14.1-1-4.6-1-9.8-.8-14.3z" fill="#8B48CC"/><path d="M89.3 20.7c-16 1.6-23.6 23-17.3 37.9 1 2 7 13 11 16.2v.2a3.6 3.6 0 00-3.5 3.1c-.3 2.4 1.8 4.1 3.9 4.2 1.6.2 3.2-.8 3.8-2.3.7-1.6.4-3.4-.8-4.6a39.4 39.4 0 0024.5-20c8-15.9-1.7-36.6-21.6-34.7z" fill="#FF8597"/><path d="M77.1 57.5c-.8-6.8 0-13.7 2.3-20.1 3.4-9.4 10.2-15.7 19.3-15.6-3.1-1-6.4-1.4-9.7-1-15.8 1.5-23.3 22.8-17 37.7a80 80 0 007.9 13 58.6 58.6 0 01-2.8-14z" fill="#ED6B84"/><path d="M160 68.2c-15.2-5.4-30.3 11-30.3 27.2a64 64 0 003.9 19.5l-.2.1c-1.6-.7-3.4 0-4.3 1.4-1.2 2 0 4.5 1.9 5.5 1.4.8 3.2.6 4.4-.5 1.2-1.1 1.6-3 1-4.5 10.3 2 22-1.3 30-8 13.4-11 12.5-34-6.4-40.7z" fill="#EA5343"/><path d="M134.7 96.6a42.3 42.3 0 019.9-17.4c6.7-7 15.5-9.9 23.9-5.9a24 24 0 00-8.6-5c-15.2-5.4-30.4 10.8-30.3 27a82 82 0 002.3 15.2c.2-4.7 1.6-9.6 2.8-14z" fill="#DB4237"/><path d="M109.2 58.6c-16 1.6-23.6 23-17.2 37.9.9 2.1 6.9 13 11 16.2l-.1.2a3.6 3.6 0 00-3.4 3.1c-.3 2.4 1.8 4.1 3.8 4.2 1.6.2 3.2-.7 3.9-2.3.7-1.6.3-3.4-.9-4.6a39.4 39.4 0 0024.5-20c8-15.8-1.7-36.6-21.6-34.7z" fill="#9EDC33"/><path d="M97 95.4c-.7-6.8 0-13.7 2.3-20.1 3.4-9.4 10.2-15.7 19.3-15.6-3.1-1-6.4-1.4-9.7-1-15.8 1.5-23.2 22.8-17 37.7a80 80 0 008 13 58.8 58.8 0 01-2.9-14z" fill="#95CE29"/><g><path d="M36 151.3c-.4-.5-4.6-3.6-4.6-3.6-.9-1.2-2.4-.8-4.5 1.5-.1-1.6-1.2-2.8-2.5-2.9-2.4-.4-3 1-3 1s-.8-4.7-5.6-3c-2.5.9-4.1 4-3.8 7.1 0 0-2.6-.8-4.8 2.9-1.3 2.3-2 5.1-2 8 0 0-4.5 2-5.1 7.2l-.1 1.3v.1c0 1.2 0 2.3.2 3.4.1.6.4 1.2.9 1.5l4.7 3.3c.2-1.5 0-3-.4-4.4L29 157.5c1.2-1.3 2-2.9 2.6-4.6l1.8-.6s2.7-.5 2.4-1z" fill="#F5B008"/><path d="M36 151.3c-.4-.5-4.6-3.6-4.6-3.6-.9-1.2-2.4-.8-4.5 1.5-.1-1.6-1.2-2.8-2.5-2.9-2.4-.4-3 1-3 1s-.8-4.7-5.6-3c-2.5.9-4.1 4-3.8 7.1 0 0-2.6-.8-4.8 2.9-1.3 2.3-2 5.1-2 8 0 0-4.5 2-5.1 7.2l-.1 1.3v.1c0 1.2 0 2.3.2 3.4.1.6.4 1.2.9 1.5l4.7 3.3c.2-1.5 0-3-.4-4.4L29 157.5c1.2-1.3 2-2.9 2.6-4.6l1.8-.6s2.7-.5 2.4-1z" fill="#000" opacity=".1"/><path d="M8.5 179.5l25.3-18.3s3.1-3.3 3-7.2c-.3-3.8-2.3-4.4-5.3-1 0 0 0-3.3-2.5-3-1.3.1-2.5 1-3.2 2.3 0 0 .4-5.7-4.3-4-2.5 1-4.4 3.6-4.8 6.8 0 0-2.7-.9-4.9 2.8-1.3 2.4-2 5.2-2 8 0 0-4.5 2-5.1 7.2-.6 5.1 1.4 7.4 3.8 6.4z" fill="#F5B008"/></g><g><path d="M115 243.1c-.6-1-9.6-7.6-9.6-7.6-1.8-2.5-5.2-1.6-9.7 3.2 0 0-.1-5.3-5.2-6.1-5-.9-6.5 2-6.5 2s-1.7-10-12-6.2c-9.2 3.4-7.8 15-7.8 15s-5.8-1.9-10.4 6a35 35 0 00-4.2 17s-9.7 4.4-11 15.4l-.1 2.8v.3c0 2.4.1 4.7.5 7 .2 1.4.8 2.5 1.8 3.2l10.2 7.3c.3-3.2 0-6.4-1-9.3l50.7-36.7c2.4-2.7 4.3-6.1 5.5-9.9l4-1.2s5.5-1.2 4.8-2.2z" fill="#F5B008"/><path d="M115 243.1c-.6-1-9.6-7.6-9.6-7.6-1.8-2.5-5.2-1.6-9.7 3.2 0 0-.1-5.3-5.2-6.1-5-.9-6.5 2-6.5 2s-1.7-10-12-6.2c-9.2 3.4-7.8 15-7.8 15s-5.8-1.9-10.4 6a35 35 0 00-4.2 17s-9.7 4.4-11 15.4l-.1 2.8v.3c0 2.4.1 4.7.5 7 .2 1.4.8 2.5 1.8 3.2l10.2 7.3c.3-3.2 0-6.4-1-9.3l50.7-36.7c2.4-2.7 4.3-6.1 5.5-9.9l4-1.2s5.5-1.2 4.8-2.2z" fill="#000" opacity=".1"/><path d="M56.6 303.2l54-39s6.5-7.2 6.1-15.3c-.4-8-4.7-9.4-11.1-2.4 0 0-.2-6.8-5.3-6-5 .6-7 4.7-7 4.7s1-12-9.2-8.3c-5.3 1.9-9.3 7.5-10.1 14.3 0 0-5.8-1.8-10.4 6a35 35 0 00-4.2 17.2s-9.7 4.3-10.9 15.3c-1.2 10.9 3 15.8 8.1 13.5z" fill="#F5B008"/></g></g></g></svg>