<svg width="315" height="308" xmlns="http://www.w3.org/2000/svg" xmlns:xlink="http://www.w3.org/1999/xlink"><defs><linearGradient x1="27.4%" y1="9.8%" x2="79.7%" y2="97.1%" id="b"><stop stop-color="#FFF" offset="0%"/><stop stop-color="#DDD" offset="100%"/></linearGradient><circle id="a" cx="133.5" cy="133.5" r="133.5"/><linearGradient x1="50%" y1="0%" x2="50%" y2="100%" id="c"><stop stop-color="#FFD967" offset="0%"/><stop stop-color="#FFB947" offset="100%"/></linearGradient></defs><g fill="none" fill-rule="evenodd"><path d="M150.6 308c16.1 0 31.7-2.9 46-8.2 8.2-3 47.7-14.7 118.4-35.3-30.9-14.5-43.5-30.5-37.7-47.8A133.5 133.5 0 10150.5 308z" fill="#D74700"/><mask id="d" fill="#fff"><use xlink:href="#a"/></mask><use fill="url(#b)" xlink:href="#a"/><path d="M133.5 41a52.5 52.5 0 0128.3 96.7c19.1 7 32.2 20.8 32.2 36.8V238H74v-63.5c0-15.8 12.8-29.5 31.6-36.5a52.5 52.5 0 0127.9-97z" fill="url(#c)" mask="url(#d)"/><ellipse fill="#D74700" cx="115" cy="84.5" rx="6" ry="14.5"/><ellipse fill="#D74700" cx="152" cy="84.5" rx="6" ry="14.5"/></g></svg>