<svg width="565" height="565" xmlns="http://www.w3.org/2000/svg" xmlns:xlink="http://www.w3.org/1999/xlink"><defs><radialGradient cx="39.1%" cy="26.3%" fx="39.1%" fy="26.3%" r="87.2%" gradientTransform="rotate(57.7 .6 .4) scale(1 1.73521)" id="a"><stop stop-color="#FFCE47" offset="0%"/><stop stop-color="#FF9E00" offset="100%"/></radialGradient><path d="M45.4 41.3c17 0 33.2-1.2 47.6-3.8l1.2-1-.6-21.5-1-.9c-16 2.3-32.4 3.8-47 3.8-9 0-18-.4-27-1.3l-1.1.7-.8 21.6 1.2 1c9.2 1 19 1.4 27.5 1.4z" id="c"/><filter x="-3.2%" y="-9.2%" width="112.9%" height="136.8%" filterUnits="objectBoundingBox" id="b"><feOffset dx="5" dy="5" in="SourceAlpha" result="shadowOffsetOuter1"/><feColorMatrix values="0 0 0 0 0.839215686   0 0 0 0 0.282352941   0 0 0 0 0  0 0 0 1 0" in="shadowOffsetOuter1"/></filter><path d="M55.5 126.8c16.9 0 35.2-.5 53-2.5l1-1.3-2.2-22.8L106 99a335 335 0 01-48.9 3.8c-25.4 0-33.6-2.4-36.2-18.2l-1.2-.6L.8 90.3l-.8 1c1.8 17 10 35.5 55.5 35.5z" id="e"/><filter x="-2.3%" y="-5.9%" width="109.1%" height="123.4%" filterUnits="objectBoundingBox" id="d"><feOffset dx="5" dy="5" in="SourceAlpha" result="shadowOffsetOuter1"/><feColorMatrix values="0 0 0 0 0.839215686   0 0 0 0 0.282352941   0 0 0 0 0  0 0 0 1 0" in="shadowOffsetOuter1"/></filter><path d="M193.9 137.4c47.9-2.9 66.7-20.4 66.7-42.4 0-23-20.2-33.3-38.9-33.3-13.4 0-25.7 3-35.4 8.8 3-8 5.6-16.2 7.7-24.9 14.2-1.7 27.8-4 40.8-6.8l.7-1.4-2.1-19.6-1-.8c-11.2 3-22.3 5.2-33.5 7 1.4-6.7 2.4-13.8 3.6-21.4l-.7-1L180.4 0l-1.1 1c-1.2 8.9-2.3 17.4-3.8 25.6-10 .8-20 1-30.4 1l-1 1.3 1.1 19.1 1 1.1c8.3-.2 16.7-.6 24.9-1.2-4.1 17.6-10 33.3-18.9 50.7l.3 1.4 18.6 9.1 1.5-.4c11-20.4 27.5-28.4 43.8-28.3 11 .2 19 4.1 19 12.8 0 12.6-15.8 23-56.4 23.2l10.8 18.6c1 2 2.1 2.6 4 2.4z" id="g"/><filter x="-2.1%" y="-1.8%" width="108.6%" height="107.3%" filterUnits="objectBoundingBox" id="f"><feOffset dx="5" dy="5" in="SourceAlpha" result="shadowOffsetOuter1"/><feColorMatrix values="0 0 0 0 0.839215686   0 0 0 0 0.282352941   0 0 0 0 0  0 0 0 1 0" in="shadowOffsetOuter1"/></filter><path d="M356.1 34.4l1.6-.4L368 16.3l-.3-1.6c-13.7-7.1-25-10.9-36.8-14l-1.5.7-9.4 16.5.4 1.3c13.3 3.8 23.4 8.3 35.7 15.2z" id="i"/><filter x="-5.2%" y="-7.4%" width="120.8%" height="129.6%" filterUnits="objectBoundingBox" id="h"><feOffset dx="5" dy="5" in="SourceAlpha" result="shadowOffsetOuter1"/><feColorMatrix values="0 0 0 0 0.839215686   0 0 0 0 0.282352941   0 0 0 0 0  0 0 0 1 0" in="shadowOffsetOuter1"/></filter><path d="M334 136c42.4-2.2 71-15 71-44.6 0-19.2-13.7-35-39.1-35-16.6 0-32 6.5-43.5 18.5 1.4-11.4 3-21.2 6-32.3l-.8-1.4-19-3.7-1.5.7a296.9 296.9 0 00-7 64.6l1 1.3 18.6 1.7 1.5-.8c12.3-21.6 29.2-29.2 42.9-29.2 12.6 0 15.8 6.7 15.8 15.9 0 14.5-22.7 22.6-63.4 23.8l12.6 18.6c1.2 1.8 2.1 2 4.9 2z" id="k"/><filter x="-2.4%" y="-2.5%" width="109.5%" height="110.2%" filterUnits="objectBoundingBox" id="j"><feOffset dx="5" dy="5" in="SourceAlpha" result="shadowOffsetOuter1"/><feColorMatrix values="0 0 0 0 0.839215686   0 0 0 0 0.282352941   0 0 0 0 0  0 0 0 1 0" in="shadowOffsetOuter1"/></filter></defs><g fill="none" fill-rule="evenodd"><circle stroke="#FFAD00" stroke-width="10" fill="url(#a)" cx="282.5" cy="282.5" r="277.5"/><g fill="#3B3B3B" fill-rule="nonzero"><path d="M108.4 175l.6-.6v-8.9l-.6-.5-11.5.3h-2.1v-8.6l-.6-.7h-11l-.6.6v8.7h-2.9l-11-.3-.7.6v8.8l.6.6 11.1-.3h17.2zM143.8 243l-.4-22v-25h7l.6-.5v-9.7l-.5-.6-9.4.2h-16.3v-11.6c8.8-1.4 16.9-3.4 25.7-6.7v-1a57.4 57.4 0 00-8.2-8.1h-.8c-5.9 2.5-12 4.7-19.4 5.8l-8.8-1.6-.6.7.3 15.2V201c0 17.7-2.2 25.6-11 35.6l8.3 5.8c.6.4 1 .6 1.3.6.5 0 .8-.4 1.4-1 8.7-10.2 11.8-20.4 11.8-43.7v-2.5h6.5V221l-.4 22h13z"/><path d="M110.4 196l.6-.6v-9.1l-.6-.7-7.6.2c.8-2.2 1.5-4.7 2.2-7l-.6-.6-9.7-2.2-.8.5c-.7 3.1-1.4 6.3-2.3 9.4H87c-.8-3.3-1.7-6.8-2.6-9.2l-.8-.7-9.2 1.9-.5.8 1.9 7.2-9.3-.3-.6.7v9l.6.7 10.3-.3h22.8l10.7.3zM95.6 243l-.6-19c2.2 2.1 4.5 4.6 6.5 7h.9l6.3-6.9v-.9c-3.1-3-6-5.4-9.4-7.7l-1 .2L95 219v-5.6h4l10.6.3.5-.5v-9.5l-.5-.4-10.7.3H95v-5.1l-.5-.5H83.6l-.5.5v5h-4.9l-10.2-.2-.6.5v9.3l.7.6 10.1-.3h2a76.7 76.7 0 01-16.2 16l6.2 7.5c.5.6.9 1 1.3 1s.8-.4 1.5-.8c3.8-3.3 7.4-7.3 10.5-11.9l-.9 17.8h13zM160 240c.4 0 .9-.2 1.4-.6 6.7-6 11-12.4 13.5-20.2 2.3 3 4.4 6.5 6.1 10h1.1l8.6-6 .3-1a63.2 63.2 0 00-9.9-12.6l-1-.1-3.4 2.4c.6-3.1 1-6.2 1.2-9.3h.2l10.2.2.6-.4v-10.5l-.6-.5-10 .3v-10.4l9 .3.5-.5v-10.4l-.6-.5-8.8.3v-13.9l-.8-.6h-11.3l-.7.7v13.8h-.1l-10.3-.3-.5.6V181l.6.6 10.2-.3h.1v10.4H163l-10.3-.3-.5.6v10.3l.6.5 10.2-.2h2.2c-.4 4.3-1 7.8-1.8 11a34 34 0 01-12.4 17.8l7.9 8c.4.4.8.6 1.2.6z"/><path d="M233.9 159l.7.7-.3 9.8v31l.3 12.8-.8.6-8.4-.2v14c0 2 .3 2 1.7 2 2.3 0 3-.5 3.4-9.5l9.6 4.5c.9.4 1 .6.9 1.5-.4 5.7-1.6 10.7-4 12.6-2.8 2.4-5.2 3-12.1 3h-.3c-10.2 0-11.3-1-11.3-9v-19.2h-2.8c-1 17.5-9.3 26-26.2 29.2l-1.1.2c-.7 0-1-.2-1.3-.6l-6.9-9.2c16.3-2.7 22.4-7 23.4-19.4l-5.9.1-.6-.6.3-12.8v-31l-.3-10 .6-.5 13.2.3h15.6l12.6-.3zm-12.1 39h-17.4v5.4h17.4V198zm0-14.3h-17.4v5h17.4v-5zm0-14h-17.4v4.8h17.4v-4.8zM293.1 156h1c1.3 3.4 3 6.6 4.7 9.5 2-2.1 3.9-4.4 5.9-7.1l.8-.1 8.7 6v.8c-3.8 3.9-6.7 6.5-9.4 8.7l2.9 3.2c3-2.7 5.5-5.5 8-9h.9l8.3 5.9v1c-3 3.4-6.1 6.3-9.3 8.9 4 2.8 8.4 5.2 13.4 7.3l-7.9 9.4c-.3.3-.6.5-1 .5l-1.6-.5a74 74 0 01-19.2-14.3v5l-.7.7-9.2-.3h-9l-9.2.3-.6-.7v-3.4c-2.9 3-6 5.7-9.5 8.2l6.5.2h33.2l10-.3.5.6-.2 8v7.3l.2 8.4-.7.8-9.5-.3h-33.8l-9.7.3-.7-.7.5-8.8v-7l-.1-5.9a96 96 0 01-9.2 4.7c-.4 0-.8-.2-1.1-.7l-7-8.9a88.5 88.5 0 0015.7-8.8c-2.3-2.2-5-4.2-7.5-5.9l.1-1 6.3-6.3h1c2.5 1.6 5.6 3.7 8.4 5.8 1.8-2 3.4-4.2 4.9-6.7H259l-12 .3-.6-.7v-9.8l.6-.7 12 .3h13.7l5.6-.5 5.2 4.9c.4.3.8.9.8 1.5a82 82 0 01-8.3 15.2l4.4.2h9l5.6-.2c-4.8-6-8.7-13-12-21.2l.2-.9 10-3.2zm5 49.3h-28v6.3h28v-6.3z"/><path d="M333.6 241c11.4-2 20-4 28.6-6.5 1-.3 1.5-.7 1.5-1.8v-5.5l3.3 6.6.8.1c5.4-2.8 9.7-5.4 13-7.9 1-.8 1.3-1 1.2-2.3l-.6-9.7c-5.8 3.5-12.8 7-18.8 9.5l-.3.8.2.5-8.1 1.7v-5.1l6.1 2c.7.2 1 0 1.3-.5 1.5-3.3 2.7-6.7 3.7-10.6l-.4-.8-7.4-2.4-1 .2c-.7 3.9-1.4 7-2.3 10.1v-12.6h1.7l9 .2.6-.4V198l-.5-.7-9 .3h-1.8v-6l8.5.3.5-.5v-8.8l-.5-.4-9 .2h-11.7c2.9-3.3 5.5-6.7 8-10.4 3.5 2.7 6.8 6 10 9.3l1.2-.1 6.7-8.1-.1-1c-3.6-3.2-8-6.5-12.2-9.4l1.4-2.8-.2-1-10.5-3.9-.8.2c-5 10.6-11 18.5-17.7 24.7l5.5 4.4v7l.6.6 8.7-.3h.3v6h-3.2l-8.8-.3-.5.6v8.6l.6.5 8.7-.2h3.2v15.8c-1.1-5.1-2.3-9.4-3.6-12.8l-1-.4-7 2.4-.5.8c1.7 4.8 2.8 9.3 3.7 13.7l.7.4 7.3-2.5.4-.5v4.5c-4.2.7-8.6 1.1-13.6 1.7l-.7.8 4 10 .8.3z"/><path d="M395.7 231.7L395 218c2.9 7 7 13 12.2 18 .5.5 1 .7 1.3.7.5 0 1-.4 1.7-1.3l6.8-9.1c-4.5-3.1-8.7-7-12.3-11.3 3.2-2.6 6.3-5.6 10-9.1v-1l-8.4-6.6h-1c-2.3 3-4.4 5.5-6.8 8.2a83 83 0 01-3.3-6.3v-3.6h7.4l12.5.3.6-.6v-9.3l-.6-.6-8 .2.8-17.3.4-9.6-.6-.6-12.8.3h-14.2l-12-.3-.6.6v9.3l.6.6 12-.3h15.2l-.2 3.8H382l-11.2-.3-.6.7v9l.6.6 11.2-.3h13.1v3.8H378l-12.4-.2-.6.6v9.3l.6.6 12.4-.3h5.7v32.7c0 2.2-.6 2.5-2.5 2.7-1.6.2-4.5.3-7.5.3l4.5 9.7c.5 1 .9 1.1 2.4 1.1 11.4 0 15-2.4 15-11.3z"/><path d="M375.7 215l7.3-7v-1c-3-3.6-6-6.3-9.5-9h-.9l-6.6 6.1v.9c3.3 3 6 5.8 8.8 10h1zM482.7 162l.7.7-.1 13.7 11-1.6 1 .5 1.6 11-.5.8c-3.7.6-8.2 1.3-13 1.7 0 8.3.4 16 .9 23 7.2 3 12.3 6.9 16.7 11.3v1l-7.2 9.5-1 .2a59.1 59.1 0 00-9.1-9c-1.7 8.6-8 12.2-17.5 12.2s-18.2-4.1-18.2-14.3c0-10 9-14.5 17.3-14.5 2.7-.1 3.6 0 5.8.3l-.7-18.7c-6.2.5-12.9.7-19 .8l-.7-.8-.2-11.1.6-.6c6.6 0 12.9-.2 19-.5l-.1-14.8.7-.8h12zm-11.8 57.4c-1.7-.5-3-.9-5.8-.8-3.7 0-5.6 1.5-5.6 3.4 0 1.5 1.4 3.1 5.7 3.1 5 0 6-1.7 5.7-5.7zM435.3 239c3.4 0 5.8-2.1 6-6.1.4-6.3 1.2-10 4.7-20.2l-2.7-1.4c-1.4 2-2.7 3.9-4.5 5.7-1.8 1.8-2.3 1.6-2.8-.2a25 25 0 01-.5-5.7 117 117 0 013.3-25.8 99.1 99.1 0 003.6-20.7l-.6-.9-12.3-1.7-.6.5c-.1 5.5-1.2 11.9-2.6 18.6a165.4 165.4 0 00-3.3 32.2 38 38 0 005.2 21.7c1.6 2 4.2 4 7.1 4zM325.4 240l.6-.6V230l-.6-.7-15.2.3h-8.4l3-5.3v-1l-11.9-3.2-.8.4c-1 3-2.1 6-3.6 9h-9c-1.5-3.5-3.4-6.9-5.1-9.2l-1-.3-10.5 2.9-.2.8c1 2 2.2 3.9 3 5.9h-7.4l-15.7-.3-.6.7v9.4l.6.6 15.7-.3h51.9l15.2.3z"/></g><g fill-rule="nonzero"><g transform="translate(80 283)"><use fill="#000" filter="url(#b)" xlink:href="#c"/><use fill="#FFF" xlink:href="#c"/></g><g transform="translate(80 283)"><use fill="#000" filter="url(#d)" xlink:href="#e"/><use fill="#FFF" xlink:href="#e"/></g><g transform="translate(80 283)"><use fill="#000" filter="url(#f)" xlink:href="#g"/><use fill="#FFF" xlink:href="#g"/></g><g transform="translate(80 283)"><use fill="#000" filter="url(#h)" xlink:href="#i"/><use fill="#FFF" xlink:href="#i"/></g><g transform="translate(80 283)"><use fill="#000" filter="url(#j)" xlink:href="#k"/><use fill="#FFF" xlink:href="#k"/></g></g></g></svg>