<svg width="325" height="325" xmlns="http://www.w3.org/2000/svg" xmlns:xlink="http://www.w3.org/1999/xlink"><defs><path d="M37.5 52.3c2.5 0 5-.2 7.4-.5 1.2-.2 5.4 2.5 12.6 7.9-1.5-7-1.5-10.7 0-11.4C68 43.7 75 35.7 75 26.5 75 12.2 58.2.7 37.5.7S0 12.2 0 26.5c0 14.2 16.8 25.8 37.5 25.8z" id="a"/><path d="M44 63.4c3 0 5.9-.2 8.7-.6 1.3-.2 2.9 4.2 4.6 13.2 5-10.9 8.4-16.7 10.2-17.5C79.8 52.8 88 43 88 31.7 88 14.2 68.3 0 44 0S0 14.2 0 31.7s19.7 31.7 44 31.7z" id="c"/><path d="M37.5 51.6c2.5 0 5-.2 7.4-.5 1.2-.2 1 7-.6 21.6 7.3-16 11.7-24.4 13.2-25C68 43 75 35 75 25.7 75 11.6 58.2 0 37.5 0S0 11.6 0 25.8C0 40 16.8 51.6 37.5 51.6z" id="e"/></defs><g fill="none" fill-rule="evenodd"><g fill-rule="nonzero"><path d="M168.2 322.6l153.1-81a6.9 6.9 0 003.7-5.9c0-2.4-1.2-4.7-3.4-6L173 143a7.7 7.7 0 00-7.5 0l-162 88.5a6.9 6.9 0 00-3.6 6c0 2.4 1.4 4.7 3.6 6l144.4 79a21.4 21.4 0 0020.2 0z" fill="#AA4AE8"/><path d="M81.8 204.1l-21.9 14s-4.4.8-5.3-3.4c-1-4.1-9.8-9.2-16.2-5.4-6.3 3.8-.5 9 6.3 10 6.7.8 6.2 2.4 4.7 4.3-1.4 1.8-19.6 12.7-19.6 12.7L51.6 250s4 1.7 2.4 3.9-6.1-3.2-11 2.1c-5 5.3 5 10 11 9.2 6-.8 6.3-3.3 6.3-5.2 0-2 1.7-2.8 3.5-2L90 273l20.4-13s-9.3.5-13-4.5c-3.7-5-2.6-10.7 4.5-11.5 7.2-.8 17.1 2.7 16.9 10l22.4-12.6-25.8-15.9s-3.7 11.7-17.3 8.6c-13.7-3.1-8-13.4 9.5-14l-25.8-16z" fill="#FA05BE"/><path d="M35.6 197.4v15s2.5 3.4 8.3 2.7c5.8-.6 8.2-9.6 8.2-9.6" fill="#9F129B"/><path d="M29 221.9v14.5l12.8 6.5-.9 2.4v14s6.7 1.7 10 0c3.3-1.5 4.8-6.9 8.2-7.2 3.4-.4 37.7 10.5 37.7 10.5l13-2.6v-14.5s-17.4 8.7-23.4.2M140.4 241.9v-14.3l-33.5-6.7v-14.3l-11-.3c-.2.1-15 4-8.2 13.2 6.8 9.1-4.1 17.4 5.7 19" fill="#F5B008"/><g opacity=".4" fill="#00275E"><path d="M81.4 203.7l-21.9 14s-4.3.8-5.2-3.4c-1-4.1-9.9-9.2-16.2-5.4-6.4 3.8-.5 9 6.2 10 6.8.8 6.2 2.4 4.8 4.2a245.1 245.1 0 01-19.6 12.7l21.7 13.7s4 1.7 2.4 3.9-6.1-3.2-11 2c-5 5.4 5 10.1 11 9.3 6-.8 6.3-3.3 6.3-5.3 0-1.9 1.8-2.8 3.5-1.9l26.2 15 20.4-13s-9.3.5-13-4.5c-3.7-5-2.6-10.6 4.5-11.5 7.2-.8 17.1 2.7 16.9 10l22.4-12.6L115 225s-3.7 11.6-17.3 8.5c-13.7-3-8-13.3 9.5-13.9l-25.8-16z"/><path d="M35.3 198v14.5s2.6 3.3 8.4 2.8c5.8-.6 8.3-9.4 8.3-9.4M29.5 221.4v14.4l12.8 6.6-1 2.4v14s6.7 1.6 10 0 4.7-7 8.1-7.3C62.8 251 97 262 97 262l13-2.6V245s-17.3 8.6-23.3.1M140.8 240.9v-14.5l-33.6-6.7v-14.4L96 205c-.2 0-15 4-8.2 13.3 6.9 9.2-4.1 17.6 5.8 19.2"/></g><path d="M81.8 189.3l-21.9 14s-4.4.8-5.3-3.4c-1-4.2-9.8-9.2-16.2-5.4-6.3 3.8-.5 9 6.3 10 6.7.8 6.2 2.4 4.7 4.3a245.2 245.2 0 01-19.6 12.7l21.8 13.7s4 1.7 2.3 4c-1.5 2.1-6-3.3-11 2s5 10 11 9.3c6-.9 6.4-3.4 6.4-5.4 0-2 1.7-2.8 3.5-1.9l26.2 15 20.4-13s-9.3.5-13-4.5c-3.7-5-2.6-10.7 4.5-11.5 7.2-.8 17.1 2.7 16.9 10l22.4-12.7-25.8-15.8s-3.7 11.7-17.3 8.6c-13.7-3.2-8.1-13.4 9.4-14l-25.7-16z" fill="#D99BFF"/><g transform="translate(54.6 152)"><path d="M0 77.5l1-15.7c.3-2.8 1.2-15.2 8.7-19 9.5-5 20.5-11.4 30.6-8.4 8.1 2.4 11 31.6 10.8 33.5C51 71.4 25.6 90 0 77.5z" fill="#8EA7D9"/><path d="M16.6 39.6s-1.7 10.9 8 11.7c6.9.6 5.4-5.2 5.4-5.2s3.3 2.9 6.8.7c3.6-2.3-2.2-10.9-4.9-11.5-2.6-.6-9-.4-15.3 4.3z" fill="#FFF"/><circle fill="#F4C458" transform="rotate(-48 14.6 11.8)" cx="14.6" cy="11.8" r="8"/><path d="M36.6 18.9a10 10 0 002.1-5.7c.1-1 0-2-.1-3-.3-1-1-2-2-2.5l-1.8-1.6S14.1 2 11.7 14.4c-.5 3.5-.2 14 9 18.4 9.4 4.4 5.1-11.4 5.1-11.4" fill="#F4C458"/><path d="M31.3 36.1L19 30l1 8.8.3.5c2.2 2.1 5.7 2.7 9 2.5.8 0 1.4-.7 1.5-1.4l.5-4.2zM37 15.4s.8-4-3.7-4.7c-1.2-.2-2.4-.2-3 1-1 1.4-1.1 3-2.4 4.2a4.6 4.6 0 01-4.8.7c0 1.4.2 2.4 1.8 2.8 1.6.5 11-1.4 12.2-4z" fill="#FCDED2"/><path d="M21 12.1c5-1.8 9.7-2.9 15-2.1.5 0 .8.4.9.9.4-2.1.9-7.6-3.4-9.2-5.4-2-14.4.5-17 5.5A15.9 15.9 0 0015 15c1.9-1.3 4-2.3 6.1-3z" fill="#F4C458"/><path d="M31.3 39l-.1 2s-7.8-.3-9-7.4l9.1 5.5z" fill="#EAB1A2"/><path d="M37.1 15.8v11.3c0 3.2-3 11.7-6.3 11.7-5.2 0-10.3-6.5-10.3-7.9 0 0-5.2-3.3-2.3-5.9 3-2.5 3.2 1.8 3.2 1.8s1.5-2.4 1.6-8.8a26 26 0 0014.1-2.2z" fill="#FCDED2"/><path d="M44.3 75.6l1-1c-.1-6.3-.8-12.7-2-18.9-.1-1-1.4-.6-1.2.5 1.2 6.4 1.8 13 2 19.6l.2-.2zM13.9 81.7h.5l.4-21.3c0-.5-.2-.9-.6-.9-.3 0-.6.4-.6.9l-.4 21.2h.7z" fill="#5D84C1"/></g><g><path d="M250 206l-22 14s-4.3.8-5.2-3.4c-1-4.2-9.8-9.2-16.2-5.4-6.4 3.7-.5 9 6.2 10 6.8.8 6.3 2.4 4.8 4.3-1.4 1.8-19.6 12.7-19.6 12.7l21.7 13.8s4 1.7 2.4 3.9-6-3.2-11 2c-5 5.4 5 10.2 11 9.4 6-.9 6.4-3.4 6.4-5.4 0-2 1.7-2.8 3.4-2l26.3 15.1 20.4-13s-9.3.5-13-4.5c-3.7-5.1-2.6-10.7 4.5-11.5 7.2-.9 17.1 2.6 16.9 10l22.4-12.7-25.8-15.9s-3.7 11.7-17.4 8.6c-13.6-3.1-8-13.4 9.5-14L250 206z" fill="#F5B008"/><path d="M204.6 199.3v15s2.5 3.4 8.3 2.7c5.8-.6 8.2-9.7 8.2-9.7M198 223.8v14.5l12.8 6.6-1 2.4v14s6.8 1.7 10.1 0c3.3-1.6 4.8-7 8.2-7.3a401 401 0 0137.7 10.6l13-2.6v-14.5s-17.4 8.7-23.4.1M308.5 243v-14.3L275 222v-14.3s-10.8-.3-11-.2c-.2 0-15 3.9-8.1 13.1 6.8 9.2-4.1 17.5 5.7 19.2" fill="#F5B008"/><g opacity=".4"><path d="M250 206l-21.8 14s-4.4.9-5.3-3.3c-1-4.2-9.8-9.3-16.2-5.5-6.3 3.8-.5 9.1 6.3 10 6.7.8 6.2 2.5 4.7 4.3-1.4 1.8-19.6 12.8-19.6 12.8L220 252s4 1.7 2.3 3.9c-1.6 2.2-6-3.2-11 2-5 5.4 5 10.1 11 9.3 6-.8 6.4-3.4 6.4-5.3 0-2 1.7-2.8 3.5-2l26.2 15 20.4-13s-9.3.6-13-4.5c-3.7-5-2.6-10.6 4.5-11.4 7.2-.9 17.1 2.6 16.8 10l22.4-12.7-25.7-15.8S280 239 266.3 236c-13.6-3.1-8-13.4 9.5-14L250 206z" fill="#38D600"/><path d="M204 200.3V215s2.5 3.3 8.4 2.7c5.8-.6 8.2-9.4 8.2-9.4M198.1 223.8v14.5l12.8 6.5-1 2.4v14s6.8 1.7 10 0c3.4-1.6 4.8-6.9 8.2-7.3a399 399 0 0137.6 10.6l13-2.6v-14.5s-17.4 8.7-23.4.2M309.4 243.3v-14.5l-33.6-6.7v-14.5l-11.1-.3c-.2.1-15 4-8.2 13.3 6.9 9.3-4.1 17.7 5.8 19.4" fill="#00275E"/></g><path d="M250 191.1l-22 14s-4.3.9-5.2-3.3c-1-4.2-9.8-9.3-16.2-5.5-6.4 3.8-.5 9.1 6.2 10 6.8.8 6.3 2.5 4.8 4.3a245.1 245.1 0 01-19.6 12.8l21.7 13.7s4 1.7 2.4 4c-1.6 2.2-6-3.3-11 2-5 5.4 5 10.1 11 9.3 6-.8 6.4-3.4 6.4-5.3 0-2 1.7-2.8 3.4-2 1.8.9 26.3 15 26.3 15l20.4-13s-9.3.6-13-4.5c-3.7-5-2.6-10.7 4.5-11.5 7.2-.8 17.1 2.7 16.9 10.1l22.4-12.8-25.8-15.8s-3.7 11.7-17.4 8.5c-13.6-3-8-13.4 9.5-14l-25.7-16z" fill="#D99BFF"/><path d="M278 236.3l-1-17c-.4-3-1.3-16.3-9.2-20.6-10-5.3-21.4-12.2-32-9-8.6 2.6-11.5 34.1-11.4 36.2.2 3.8 26.8 23.8 53.6 10.4z" fill="#4B1B13"/><path d="M262.3 195.7a15 15 0 00-6 11c-.4 6.5-1.3 33.4-1.3 33.4s-13.8-.8-22.4-7c0 0 2-31.2 4.7-37.4 2.8-6 10.3-6 10.3-6l14.7 6z" fill="#F5B008"/><path d="M262.3 195.7a15 15 0 00-6 11c-.4 6.5-1.3 33.4-1.3 33.4s-13.8-.8-22.4-7c0 0 2-31.2 4.7-37.4 2.8-6 10.3-6 10.3-6l14.7 6z" fill="#FFF"/><path d="M240.5 170.9a13 13 0 01-3.4-6c-1.2-4.2.9-10.2 5.2-10.8 4.4-.6 5.7 1.8 5.7 1.8s16.3-3 18.8 10.3c.5 3.7 2.5 17.1-8.1 20-10.6 3-6.8-12.6-6.8-12.6" fill="#4B1B13"/><path d="M240 168.1v12c0 3.5 1.4 12.8 6.7 12.5 5.3-.3 10.7-6.9 10.7-8.4 0 0 5.4-3.5 2.4-6.3-3-2.7-3.3 1.9-3.3 1.9s-1.6-2.5-1.8-9.4c-5 .7-10-.1-14.6-2.3z" fill="#FFAC73"/><path d="M257.7 192.8c-2.7 2.7-7.1 3.1-11.2 2.5-.6 0-1.1-.5-1.2-1.2l-.3-4 14-7.1-1 9.4-.3.4z" fill="#FFAC73"/><path d="M247.9 195.6l-1.6-.2c-.6 0-1.1-.5-1.2-1.1v-2c2.8 0 8-.8 10.6-6.4a12 12 0 01-7.8 9.7z" fill="#E5894A"/></g><g><path d="M164.8 143.5l-21.9 14s-4.4.8-5.3-3.4c-1-4.1-9.8-9.2-16.2-5.4-6.3 3.8-.5 9 6.3 10 6.7.8 6.2 2.4 4.7 4.2-1.4 1.9-19.6 12.8-19.6 12.8l21.8 13.7s4 1.6 2.4 3.8c-1.6 2.2-6.1-3.2-11 2.1-5 5.3 5 10 11 9.3 6-.9 6.3-3.4 6.3-5.4 0-1.9 1.7-2.7 3.5-1.9l26.2 15 20.4-13s-9.3.6-13-4.5c-3.7-5-2.6-10.6 4.5-11.4 7.2-.9 17.1 2.6 16.9 10l22.4-12.7-25.8-15.8s-3.7 11.7-17.3 8.6c-13.7-3.2-8-13.4 9.5-14l-25.8-16z" fill="#F5B008"/><path d="M118.6 137.6v14.9s2.5 3.4 8.3 2.8c5.8-.7 8.2-9.6 8.2-9.6M112 162v14.5l12.8 6.5-.9 2.4v14s6.7 1.6 10 0 4.8-7 8.2-7.3c3.4-.3 37.7 10.6 37.7 10.6l13-2.6v-14.5s-17.4 8.7-23.4.2M223.4 181.2V167l-33.5-6.6V146l-11-.3c-.2.1-15 4-8.2 13.1 6.8 9.2-4.1 17.4 5.7 19" fill="#F5B008"/><g opacity=".4"><path d="M164.4 143.9l-21.8 13.9s-4.4.8-5.3-3.3c-1-4.2-9.8-9.2-16.2-5.5-6.4 3.8-.5 9 6.2 10 6.8.8 6.2 2.4 4.8 4.2a245.2 245.2 0 01-19.6 12.7l21.7 13.7s4 1.6 2.4 3.8c-1.6 2.2-6.1-3.2-11 2.1-5 5.3 5 10 11 9.2 6-.8 6.4-3.3 6.4-5.3s1.7-2.8 3.4-2l26.2 15 20.4-13s-9.2.6-13-4.4c-3.7-5-2.6-10.6 4.6-11.4 7.1-.8 17 2.6 16.8 10l22.4-12.7-25.8-15.7s-3.7 11.6-17.3 8.5c-13.7-3-8-13.3 9.5-13.9l-25.8-16z" fill="#9F129B"/><path d="M118.4 138.1v14.5s2.5 3.4 8.3 2.8c5.8-.6 8.3-9.4 8.3-9.4M112.5 161.5v14.4l12.8 6.5-1 2.4v14s6.7 1.6 10 0 4.7-7 8.1-7.3C146 191.2 180 202 180 202l13-2.5V185s-17.3 8.7-23.3.2M223.8 181v-14.5l-33.6-6.7v-14.5l-11.1-.2c-.2 0-15 4-8.2 13.2 6.9 9.3-4.1 17.6 5.8 19.3" fill="#00275E"/></g><path d="M164.8 129.5l-21.9 14s-4.4.8-5.3-3.4c-1-4.2-9.8-9.2-16.2-5.5-6.3 3.8-.5 9.1 6.3 10 6.7.8 6.2 2.5 4.7 4.3a245.3 245.3 0 01-19.6 12.7l21.8 13.7s4 1.7 2.3 3.9c-1.5 2.2-6-3.2-11 2-5 5.4 5 10.1 11 9.3 6-.8 6.4-3.3 6.4-5.3s1.7-2.8 3.5-2l26.2 15 20.4-13s-9.3.6-13-4.4c-3.7-5-2.6-10.7 4.5-11.5 7.2-.8 17.1 2.7 16.9 10l22.4-12.7-25.8-15.7s-3.7 11.6-17.3 8.5c-13.7-3.1-8-13.4 9.4-14l-25.7-16z" fill="#D99BFF"/><path d="M148.5 109.5c.1-.3.3-.6.6-.8-.8-1.4-.6-3.2.3-4.5.4-.4.8-.6 1.2-.7.2-1 .8-2 1.6-2.6 0-1.6 1-3.1 2.6-3.7l.7-.4h1.6a4.8 4.8 0 013-2.5c1.4-.3 2.8 0 4 .8 0-.2.2-.3.4-.4 1.1-.7 2.4-.9 3.7-.5 1.1.1 2.2.7 2.8 1.8l.2.4c1.2-.5 2.5-.2 3.3.9.3.4.5.8.6 1.3.7 0 1.5.1 2.1.5 1 .7 1.4 1.8 1.3 3l.4.5c1.1.3 2.1 1 2.7 2 .3.7.5 1.4.4 2.1a3 3 0 012.6 2.8c.1 1-.3 1.9-1 2.4.6 1 .7 2.3.1 3.3-.3.5-.7 1-1.1 1.3 1 1 1.3 2.7.5 4-.5.8-1.3 1.4-2.2 1.5l-.1.2-.3.5c.3 1.4.5 3.2-1.1 3.6-.6.2-1.2.2-1.7 0-.7 1-2 1.2-3 .6l-.5.1c-.7.2-1.4-.2-1.6-1-.3-1.1-.3-2.4.1-3.6a21.4 21.4 0 00-1.3-2.7c-.1-.3-.4-.5-.7-.8-.6 0-1.1-.4-1.2-1-.2-.8-.2-1.6.1-2.3a2.9 2.9 0 01-1.4-2.3v-.7c-.6.2-1.1.2-1.7 0-.6-.3-1.2-.8-1.5-1.5a3.6 3.6 0 01-4.2 1c-.6-.3-1-.9-1.3-1.6-.5.3-1.1.5-1.7.5-.7 0-1.3-.4-1.6-1-.3.3-.6.5-1 .6l-.4 5v.2c.3.5.2 1.1 0 1.5-.4.5-1 .7-1.5.6a6.5 6.5 0 01-4.1-3.2 7 7 0 01-.7-5.2z" fill="#312725"/><path d="M192 172.3l-1-16.3c-.3-3-1.3-15.9-9-20-9.8-5.1-21.1-11.8-31.5-8.7-8.5 2.6-11.4 33-11.3 35 .2 3.7 26.4 23 52.8 10z" fill="#FF8386"/><path d="M175.5 134.5c0 .6-10 12.2-11.7 11.2-1.7-1.1-2.4-8.5-3.4-7.8-1 .7-4.8 5.4-5.4 5-.5-.3.8-13 2-15 1-2.2 18.5 1.9 18.5 6.6z" fill="#2B415D"/><path d="M154.9 107.3v12c0 3.4 1.3 12.7 6.6 12.4 5.3-.3 10.8-6.9 10.8-8.4 0 0 5.3-3.5 2.3-6.2-3-2.8-3.3 1.9-3.3 1.9s-1.6-2.6-1.7-9.4c-5 .7-10.1-.1-14.7-2.3z" fill="#C27A62"/><path d="M170.9 132c-2.7 2.5-7.1 3-11.2 2.4-.7 0-1.2-.5-1.3-1.2 0-1.3 0-2.6-.2-4l14-7.1-1 9.4-.3.4z" fill="#C27A62"/><path d="M162.7 134.7l-1.6-.2c-.6 0-1-.5-1.2-1.2v-2c2.8 0 8-.7 10.7-6.3a12 12 0 01-8 9.7z" fill="#A8523B"/><path d="M174.6 176.8h-.7V160c0-.5.3-1 .8-1 .4 0 .8.5.8 1v16.7h-1zM147.8 170.1h-.1l-.3-.3-.4-.3-.4-.3c0-6.6.2-13.1.4-19.6 0-1.2 1.3-1.2 1.3 0a545 545 0 00-.5 20.5z" fill="#BC424B"/><path d="M151.7 108.6c0-.5.5-.9 1-1v-.5c.1-1.7 2.8-1.7 2.7 0l.1.3c.1-.7.7-1.2 1.4-1.3l.6-.1c.7 0 1.3.5 1.3 1.3v.6l.7 1c.3.4 1.5 1.5 1.8 1-.3-.4-.4-1-.3-1.4.2-.5.7-.8 1.2-.8.2-.3.6-.4 1-.5.7 0 1.3.6 1.3 1.4v.1c.9.3 1.8.2 2.6-.1l.4-.1.2-.4c.4-.6 1.2-.8 1.8-.4a1.3 1.3 0 01.4 2h.5c.3-.7 1-1 1.7-.9.6.2 1 .9 1 1.5-.3 1-1 1.7-1.9 2v.3c.4 0 .8.3 1 .7.2.4.1.8-.1 1.2l-.7.7a34.6 34.6 0 01.2.7c.7 1.8.5 3.8-.5 5.6-.2.3-.6.6-1.1.6-.5 0-1-.3-1.2-.6-.8-1.7-1.2-3.5-1-5.4l-.6-.1c-1-.4-1.8-1.2-2.2-2.2-1-.2-2-.8-2.5-1.7-.7.4-1.5.5-2.3.4-1-.2-1.8-.8-2.4-1.5-.7 1-1.8 1.6-3 1.6-1-.1-2-.6-2.5-1.4-.6-.7-.8-1.7-.6-2.6z" fill="#312725"/></g></g><g transform="translate(23 75.3)"><mask id="b" fill="#fff"><use xlink:href="#a"/></mask><use fill="#FFA8E5" xlink:href="#a"/><path d="M56.7-4l26.9 16.6L63 62.3 24 54.5A79.3 79.3 0 0045.6 32c4-7 7.7-19 11.1-36z" fill="#BD7CAA" mask="url(#b)"/></g><g transform="translate(127)"><mask id="d" fill="#fff"><use xlink:href="#c"/></mask><use fill="#F9DB5D" xlink:href="#c"/><path d="M60.4-3.8L93-7v88l-65.1-9.3c13.4-14.4 22-26 25.8-34.7 3.7-8.7 6-22.3 6.7-40.8z" fill="#D3B94C" mask="url(#d)"/></g><g transform="translate(223 76)"><mask id="f" fill="#fff"><use xlink:href="#e"/></mask><use fill="#65D3AE" xlink:href="#e"/><path d="M44.3-4.3L80-6v84l-66.2-5.3a358 358 0 0130.5-40c11.3-12.8 11.3-25.1 0-37z" fill="#51AE8F" mask="url(#f)"/></g></g></svg>