<svg width="570" height="150" xmlns="http://www.w3.org/2000/svg"><path d="M570 0v150H0V0h570zm-77.8 40.3c-13.7 0-21.9 7.5-24 17.5l13.9 3c1.3-7 4-9.8 8.4-9.8 3.8 0 7.3 2.5 7.3 7.6 0 5.7-3.9 9.6-9.9 9.6h-4.3l-2.7 12.6h6c6.8 0 11.9 3 11.9 10 0 4.4-2.2 8.5-7.8 8.5-5.8 0-9-4.6-9.6-11l-15.7 6c4.7 11 12.7 16 25.8 16 15.5 0 24.9-8.6 24.9-20 0-10.4-6.1-16.1-15.9-17.8 9.8-2.7 13.3-9.6 13.3-15 0-11.2-9.2-17.2-21.6-17.2zm-295.7 0c-13.7 0-22.7 7.6-22.7 20.4 0 10.4 6.3 16.4 18.7 20.7C203.2 85.2 206 87.1 206 92c0 4.4-3 6.5-7.1 6.5-7.2 0-10.7-4.2-11.8-11.8l-16 2C173 102.7 182 110 198 110c15.3 0 24.5-8.1 24.5-20.7 0-11.2-6.1-16.6-20.6-21.2-9.7-3.1-13-5.6-13-10.2 0-4.1 2.5-7 7-7 5.7 0 9 4.3 9.5 12.5l15.5-3.2c-2-13-10.4-20-24.4-20zm56.6 0c-13.7 0-22.8 7.6-22.8 20.4 0 10.4 6.4 16.4 18.7 20.7 10.7 3.8 13.7 5.7 13.7 10.5 0 4.4-3 6.5-7.2 6.5-7.2 0-10.7-4.2-11.8-11.8l-16 2c1.8 14.1 10.9 21.4 26.9 21.4 15.3 0 24.4-8.1 24.4-20.7 0-11.2-6-16.6-20.5-21.2-9.8-3.1-13-5.6-13-10.2 0-4.1 2.5-7 6.9-7 5.7 0 9 4.3 9.6 12.5l15.5-3.2c-2-13-10.5-20-24.4-20zm91 0c-17 0-29 10.4-29 34.8 0 24.3 12 34.8 29 34.8 16.9 0 28.8-10.5 28.8-34.8 0-24.4-12-34.8-28.9-34.8zM87.7 41H64V109h14.3V82.5c0-9.5-.2-18.7-.9-27.9h1L91.4 109h12.8l13-54.4h.9c-.8 9.3-1 18.6-1 27.9V109h14.4V41.1h-23.1l-6.3 27c-1.6 6.6-3 16.4-3.4 23H98c-.5-6.6-2-16.2-3.7-23.2l-6.5-26.8zm73.8 0h-16.1V109h16V41.1zm143 0h-16V109h16V41.1zm101.4 0h-22.7V109h14.1V90.9c0-9.5-.5-25.1-1.6-36.3h.8c1 4.7 2.2 9.4 3.9 14l14.4 40.4h22.6V41.1h-14v20c0 11.3.6 23.2 1.7 34.4h-.8c-1-4.7-2.3-9.4-4-13.9L406 41.1zm-62 10.5c7.7 0 12 6.2 12 23.5 0 17.2-4.3 23.5-12 23.5-7.6 0-12-6.3-12-23.5 0-17.3 4.4-23.5 12-23.5z" fill="#FFF" fill-rule="evenodd"/></svg>