<svg width="326" height="326" xmlns="http://www.w3.org/2000/svg"><defs><linearGradient x1="50%" y1="46.5%" x2="30.8%" y2="65.9%" id="a"><stop stop-color="#7F3500" offset="0%"/><stop stop-color="#843D0A" offset="4%"/><stop stop-color="#FFF" offset="100%"/></linearGradient><linearGradient x1="64.9%" y1="32.9%" x2="40%" y2="60.4%" id="b"><stop stop-color="#7F3500" offset="0%"/><stop stop-color="#843D0A" offset="4%"/><stop stop-color="#FFF" offset="100%"/></linearGradient><linearGradient x1="64.9%" y1="32.9%" x2="40%" y2="60.4%" id="c"><stop stop-color="#7F3500" offset="0%"/><stop stop-color="#843D0A" offset="4%"/><stop stop-color="#FFF" offset="100%"/></linearGradient><linearGradient x1="49.9%" y1="46.6%" x2="30.8%" y2="65.8%" id="d"><stop stop-color="#7F3500" offset="0%"/><stop stop-color="#843D0A" offset="4%"/><stop stop-color="#FFF" offset="100%"/></linearGradient><linearGradient x1="72.4%" y1="28.9%" x2="30%" y2="80.2%" id="e"><stop stop-color="#7F3500" offset="0%"/><stop stop-color="#843D0A" offset="4%"/><stop stop-color="#FFF" offset="100%"/></linearGradient><linearGradient x1="72.5%" y1="28.9%" x2="30.1%" y2="80.2%" id="f"><stop stop-color="#7F3500" offset="0%"/><stop stop-color="#843D0A" offset="4%"/><stop stop-color="#FFF" offset="100%"/></linearGradient><linearGradient x1="25%" y1="60.3%" x2="58.8%" y2="44%" id="g"><stop stop-color="#FFF" stop-opacity="0" offset="0%"/><stop stop-color="#1B1464" offset="100%"/></linearGradient><linearGradient x1="29.7%" y1="62.3%" x2="82.2%" y2="27.3%" id="h"><stop stop-color="#FFF" stop-opacity="0" offset="0%"/><stop stop-color="#1B1464" offset="100%"/></linearGradient><linearGradient x1="11.4%" y1="63.4%" x2="67.3%" y2="43.8%" id="i"><stop stop-color="#FFF" stop-opacity="0" offset="0%"/><stop stop-color="#1B1464" offset="100%"/></linearGradient></defs><g fill-rule="nonzero" fill="none"><g><path d="M139 209.6l125.3-79c4-2.5 7.4-6.4 3.5-9L142 44.3c-1.9-1.3-4.7-2-6.7-.9L3.7 125c-4 2.5-4.6 9.4-.7 11.8l119.4 72.8a15.8 15.8 0 0016.6.1z" fill="#2C9135"/><path d="M57.7 151.6a4.7 4.7 0 00-2 4c0 1.6.7 3.1 2 4a4343 4343 0 0066.4 40.3c5.3 3.1 11.7 3 16.8-.3 19.1-12.3 65.8-42.4 85-54.6 2-1.2 3.1-3.4 3.1-5.7 0-2.4-1-4.5-2.9-5.8-16.1-11-51-33.8-64.2-42.6a9.7 9.7 0 00-10.7 0l-93.5 60.7z" fill="#FFEACB"/><path d="M139.2 184.8c-3-2.6-6-5.3-9.1-7.6h-.2l-20.7 14h-.1v.3c2 1 13.8 8.2 17.7 10.7h.2c1.9-1.4 9.4-6.4 16.7-11.6.1-.1 4.4-6.8 4.3-6.9-1.8-1.4-7.1 2.6-8.8 1z" fill="url(#a)" opacity=".5" style="mix-blend-mode:multiply"/><path d="M105 142.7c-5.3-4.6-10.5-9.5-16.3-13.6l-30.3 22.1s17.4 17.7 25 22.4c3-2.3 18.2-13.6 31.4-23-3.3-2.5-6.6-5.1-9.8-7.9z" fill="url(#b)" opacity=".5" style="mix-blend-mode:multiply"/><path d="M193.7 137c-5.3-4.6-10.5-9.4-16.3-13.5l-30.3 22.1s17.4 17.7 25 22.4c3-2.3 18.2-13.6 31.4-23a184 184 0 01-9.8-8z" fill="url(#c)" opacity=".5" style="mix-blend-mode:multiply"/><path d="M205.8 141.8s3.6-4 6-5.5c2.3-1.4 5.8-2.9 7.4-4.1 1.7-1.3 3.4-2.3.7-4.6-2.6-2.2-2.9 1.5-6.4 1-3.4-.4-4.8-2.5-6.3-1.7-1.6.9-2 7.7-5.6 10.2" fill="#442827"/><path d="M183 120a252 252 0 00-6.5 26.8c-.2 3.6 1.8 10.4 12.8 6.8 11-3.6 19.8-14 19.8-14s2-7.7-5-10.9l-4.8 4.2s4.2-8 2.7-15.1c0 0-16.8-2.1-23.7-7 0 0-16.6 16.7-18.6 24.3-2 7.6 5.2 10.1 8.8 9.4 3.5-.8 12-7 12-7" fill="#F5B008"/><path fill="#442827" d="M199.3 133l-6.7 6.8 8.4-11.1z"/><rect fill="#BC532A" x="185.8" y="31.2" width="9.7" height="68.3" rx="1.3"/><path d="M214.5 45.1c-2.3-10.3-12.1-55.7-29.7-42.4-9 6.9-11.5 17.6-15 28-3 8.7-5.6 17.8-5.7 27-.3 19 17.8 21.3 31.6 21.2 8 0 19.2-5 21-14.2C218 59 216 52.6 215 47l-.4-2z" fill="#BFD044"/><path d="M215.4 47.1l-.5-2c-2-9-9.9-45.7-23.8-44.8 4 19.3 10.2 39.7 7 59.4-1.1 7-3.6 13.5-7.4 19.1l5.4.2c8 0 19.3-5 21.1-14.3 1.2-5.6-.7-12.1-1.8-17.6z" fill="#8DA30D"/><path d="M106.7 96l2.8 4.1s11.2-4.5 12.2-5.4c1-.8 2.8-6 3.8-6.2 1-.2 0 4.6 0 4.6s4.5-3 5.8-3.2c1.4-.2 3.5.4 3.8 1.3.3 1-2.3 5.2-3.4 5.8-1.8.7-3.6 1.4-5.4 1.8 0 0-12.7 9.9-18.4 10.7-5.8 1-9.4-11-9.4-11l8.2-2.5z" fill="#FDC2B0"/><path d="M71.6 138s-4.1-3-5.4-2.3c-3.5 2-5 11.3-4 15.5 1 4.2 7 6 8.8 4.5 2.2-1.8-1.6-6.2-1.6-6.2" fill="#442827"/><path d="M92.7 128.7c.6.8 6.4 23.2 6.6 26.8.2 3.6-1.9 10.4-12.9 6.8-11-3.6-19.8-14-19.8-14s-2-7.7 5-10.9l4.9 4.2s-4.3-8-2.8-15.1c0 0 18.7-1.6 25.6-6.6 0 0 14.7 16.3 16.7 23.9 2 7.5-5.2 10.1-8.7 9.3-3.6-.8-12.1-6.9-12.1-6.9" fill="#AE65B4"/><path fill="#442827" d="M76.5 141.6l6.7 6.9-8.5-11.1z"/><path d="M103.7 81.3s5.9 14 4.4 15.2a92.1 92.1 0 01-10.4 4.7l-1-10.9" fill="#F5B008"/><path d="M75.7 110.5s-4-.4-9.4-6.7c0 0 2.9-9.4 9.5-15.2 6.6-5.9 15.8-10.4 22.7-8.3 6.8 2.1-1.1 26-1 27.9.2 2 2.9 13 2.9 13s-16.5 7-26.6 5.3l2-16z" fill="#F5B008"/><path d="M76 109.2c.7 0-2.4 5-2 5.5.3.4 9.4 7.1 11 7.8 1.6.7 9-1.7 9.5 0s-3.2 1.4-3.2 1.4 3.8 3.6 4.4 5.2c.6 1.5-.7 5-1.3 5.2-.6.1-6.3-2.3-7.4-3.2a33.4 33.4 0 01-3.3-4.2s-12.9-2.6-17.1-7.7c-4.3-5.1 1.2-14 1.2-14 2.3 2.1 5.2 3.5 8.3 4z" fill="#FDC2B0"/><path d="M104.5 77.8s2.7 0 3.5-2.2c.8-2.3-1.7-4.5-1.7-4.5s.6-3.9-4.2-6.2c-4.9-2.3-7.7.6-7.7.6s-3.5-.7-5.4 1.8c-2 2.6-2.3 4.9-1.7 6.7a4.4 4.4 0 00-.3 3.8c.8 2.2 2.4 6.3 5.9 6.3" fill="#452729"/><path d="M105.3 75.4s-4 10.5-6 11.6c-3.4 1.8-7 .8-7.8-3 0 0-3.3-4-1.6-6 1.8-2 3.3.8 3.3.8s2-6.7 7-6.5c5.1.2 5 3.1 5 3.1z" fill="#FDC2B0"/><path d="M105.2 75.4s0 .8-3.2-1c-3-2-7.7 3.9-8.6 7.5 0 0-1-6 .5-8.6 1.6-2.6 3.2-4 6.2-3.3 3 .5 5.8 2.4 5 5.4z" fill="#452729"/><path d="M194.5 82c-4-1.8-8.2-2.5-12.4-2-2.1.3-4 1.2-5.6 2.6-2 2-2.8 5-4 7.6-1.6 3.8-3.4 7.4-5.5 11-1.8 3.3-3.4 6.8-5.7 9.8l6.4 5.2 9.7-12.1 14.5 8-12.9 7c-1 2.1 8.3 8.5 8.3 8.5s14.5-1.6 17.5-17c4.2-22-10.3-28.7-10.3-28.7z" fill="#FF9A22"/><path fill="#FFF7F0" d="M145.8 112.2l1.3-1.5"/><path d="M177 98.5s-.4 14 .3 15.5c.8 1.6 14.6 8 14.6 8l8.7-11.5-23.6-12z" fill="#FF9A22"/><path d="M181.9 74s-1.8 6-.6 7.9c1.1 1.9 6-.1 6-.1" fill="#DD654A"/><path d="M181.1 71.2s1.2 11.5 5.7 12.1c4.6.7 6.2-5.4 6.2-5.4s0-7.9-1.5-9.3c-1.6-1.4-8.4-1-10.4 2.6z" fill="#FDBA45"/><path d="M179.3 70.2s3.4 4 5.3 5c1.9.9 3.8 0 4.6 1.5.8 1.5-.4 11 1.8 12.4 2.2 1.4 5.6-4 7.6-1.8s1.6 6.8 4.5 7.4c2.8.7 5.5-4.2 2.5-7.5-3-3.2-3.5-5-2.1-6.3 2-2-1-8.3-3.8-9.1-2.7-1-4.1-7.1-9-8-4.8-1-10.8 2.7-11.4 6.4z" fill="#DD654A"/><path d="M178.1 94c0 6.5 0 13 .2 19.4 0 .8-1 .8-1 0-.3-6.4-.3-12.9-.3-19.4 0-.3.3-.5.6-.5s.5.2.5.5zM179.3 118.7c7-3.3 12.1-10 13.8-18 .2-.7 1.2-.4 1 .3a26.7 26.7 0 01-14.3 18.7c-.7.3-1.2-.7-.5-1z" fill="#F26250"/><path d="M182.7 65.7s8 2.1 8.3 9.7c0 0 1.3-4.7-.5-8.3a6 6 0 00-5.5-3.3s-2.3.5-2.3 1.9z" fill="#6B2215"/><path fill="#EA813B" d="M114 175.3v11.9l18.6 10.8 23.3-15.7v-13"/><path d="M114 175.3l19 10.6s24-16.3 22.9-16.5L138 158.7 114 175.3z" fill="#FC9956"/><path d="M123.2 169c-.1-1.3 2.3-17.2 11.7-15.3 9.5 2 10.2 18.6 9.5 24.3l3.4-2.4s1.7-20.4-11.6-24.4c-12.2-3.6-17.5 15.2-16.6 20.2" fill="#EA813B"/><path d="M138.3 162.8c-.2 0-3.9-.5-4.1 2.4-.2 2.8 0 5.6 5 5.9 5.2.3 4-7.6 2.4-8.3-1-.4-2.2-.4-3.3 0z" fill="#DD4123"/><path d="M138.6 162s-.6-3.3 2.8-4.4c0 0 1 2.8-2.8 4.3z" fill="#6D8F07"/><path d="M138.4 159.6c0-.5-.8-.5-.8 0 0 1.2.2 2.3.3 3.5 0 .5.9.5.8 0-.2-1.2-.3-2.3-.3-3.5z" fill="#42210B"/><path d="M137.3 172c-.2 0-3.9-.5-4 2.3-.3 2.9-.2 5.7 5 6 5.1.2 4-7.7 2.3-8.4-1-.3-2.2-.3-3.3 0z" fill="#DD4123"/><path d="M137.6 171s-.6-3.2 2.8-4.2c0 0 1 2.8-2.8 4.3z" fill="#6D8F07"/><path d="M137.4 168.8c0-.6-.8-.6-.8 0l.3 3.4c0 .5.9.5.8 0a50 50 0 01-.3-3.4z" fill="#42210B"/><path d="M127.4 167.8c-.2 0-3.9-.5-4.1 2.4-.3 2.9-.1 5.7 5 6 5.2.2 4-7.7 2.4-8.4-1.1-.4-2.3-.4-3.3 0z" fill="#DD4123"/><path d="M127.7 167s-.7-3.3 2.7-4.3c0 0 1 2.7-2.7 4.2z" fill="#6D8F07"/><path d="M127.4 164.7c0-.6-.7-.6-.7 0l.3 3.4c0 .5.8.5.8 0l-.4-3.4z" fill="#42210B"/><ellipse fill="#FC9956" cx="159.2" cy="155.6" rx="10.6" ry="5.7"/><ellipse fill="#FC9956" cx="130.6" cy="141.6" rx="10.6" ry="5.7"/><path d="M152.8 155.3s-.4-5.7 6.2-5.8c6.7 0 6 6.4 6 6.4s-6.4 3.7-12.2-.6zM124.1 141.2s-.3-5.7 6.3-5.8c6.6 0 5.9 6.4 5.9 6.4s-6.4 3.7-12.2-.6z" fill="#DD654A"/><path d="M185.2 125.8c-1.5-1-2.9-2.2-4.1-3.6l-1.8 1.3c-.6.6-4.4 2-4 3 .5.8 3-.4 3-.4s-3.1 3.3-3 4.5c.2 1.2 1 4 2 3.6a9.3 9.3 0 003.5-2.7l4.4-5.7zM166.7 115.4c-1.5-1-2.9-2.2-4.1-3.6l-1.8 1.3c-.6.6-4.4 2-4 3 .5.8 3-.4 3-.4s-3.1 3.3-3 4.5c.2 1.2 1 4 2 3.6a9.3 9.3 0 003.5-2.6l4.4-5.8z" fill="#FDC2B0"/><path d="M143.6 130.4c-1.4-1.2-2.7-2.4-4.2-3.5h-.1l-9.6 6.4v.1l8.2 5 7.8-5.3 2-3.2c-.9-.7-3.3 1.2-4.1.5z" fill="url(#d)" opacity=".5" style="mix-blend-mode:multiply"/><path d="M136.8 129.7s.3 3.7 5.8 3.7c5.6 0 5.5-3.2 5.5-3.2v-19.3s.2-4.3-3.2-5.5c-3.4-1.1-7.7 0-8.1 5.3-.5 5.3 0 19 0 19z" fill="#F5B008"/><path d="M140.6 105.8v-6.9s-.8 0-1-.6c-.1-.6-.4-2.4 2.8-2.4 3 0 3 2.4 2.5 2.7a2 2 0 01-.8.3v7.3" fill="#F5B008"/><g opacity=".2" fill="#442827"><path d="M136.8 129.6s.3 3.7 5.9 3.7c5.6 0 5.4-3.2 5.4-3.2v-19.3s.2-4.3-3.2-5.4c-3.4-1.2-7.6 0-8 5.2-.5 5.3 0 19 0 19z"/><path d="M140.6 105.7V99s-.8-.1-1-.7c-.1-.6-.3-2.4 2.8-2.4 3.1 0 3 2.4 2.5 2.7a2 2 0 01-.8.4v7.2"/></g><path d="M128.4 64c-3 2.7-10.8 7.2-13.8 9.8 2.4 1.5 7.1 3.6 8.4 4.4h.2l9.8-6.8c-2.5-1.5-2.3-5.6-4.6-7.4z" fill="url(#e)" opacity=".5" style="mix-blend-mode:multiply"/><rect fill="#BC532A" x="126.6" y="25.4" width="6.6" height="47" rx="1.3"/><path d="M146.4 35c-1.6-7-8.4-38.3-20.5-29.2-6.1 4.7-7.9 12.1-10.4 19.3-2 6-3.7 12.2-3.8 18.6-.2 13 12.2 14.6 21.7 14.5 5.5 0 13.3-3.4 14.6-9.8.7-3.8-.6-8.3-1.3-12l-.3-1.4z" fill="#BFD044"/><path d="M147 36.4l-.3-1.4c-1.4-6.3-6.9-31.4-16.5-30.8 2.9 13.3 7 27.3 4.8 40.9-.7 4.7-2.4 9.2-5 13.1h3.7c5.5 0 13.3-3.4 14.5-9.7.8-3.8-.5-8.4-1.3-12.1z" fill="#8DA30D"/><path d="M33.4 121.8c-4.8 4.4-17.5 11.7-22.4 16 3.9 2.3 11.6 5.8 13.7 7.1h.2L41 133.8c-4-2.5-3.8-9.1-7.6-12z" fill="url(#f)" opacity=".5" style="mix-blend-mode:multiply"/><path d="M17.9 120.3c2.6 3.2-.1 5.7 0 10.9l.3 1.2c2.4 2 5.3 3.3 8.4 3.8 0-4 6.4-6.9 6.1-11.4-.3-4.8-6.3-2.2-4-7.5 2-5.3 1.3-12-2.2-14.5-2.6-1.9-5.5-6-6.9-8v1.7c.3 3.2-1 6.6-2.4 9-1.4 2.3-3.4 4.2-4.5 6.7l-.3.8c-1 4.2 3.2 4.5 5.5 7.3z" fill="#CEC300"/><path d="M20.7 110.8c.6 2.7 2.5 4.8 3.5 7.3 1.2 3.1-.1 6-.6 9.1-.5 3.3.6 6 2.2 8.8l.5.1a22 22 0 01-2-4.2 10 10 0 01-.2-5c.5-2.8 1.6-5.5.7-8.4-.8-2.6-2.8-4.6-3.5-7.3-1-3.2.8-6.4.2-9.6-.4-1.6-1-3.1-1.8-4.5l-.1-.2v.9c.6 1 1 2.3 1.4 3.6.7 3.1-1 6.3-.3 9.4z" fill="#2E6300"/><path d="M45.7 113.6c2.8-1.2 5.6-5.5 3.6-8.1-2-2.6-1.6-6.4-1.6-6.4a4.8 4.8 0 01-2.4 2.6c-5.7 2.1-6.3 5.7-6.4 8.4 0 2.7 3 8.6-6.2 11.7-8.6 2.9-2.6 13.4-1.7 14.8 1.9 0 3.7 0 5.6-.3 2-1.1 4-2.1 6.1-3 5.5-2.1 3.5-7.3 1-10.3-2.4-3-.8-8.2 2-9.4z" fill="#CFE217"/><path d="M47.6 99.7c-1.4 2.3-1.7 5-2.4 7.6-.8 2.8-2.5 5-3.8 7.4-.7 1.1-1.1 2.4-1.4 3.7l-.4 4.3c0 1.5-.5 3-1.2 4.5-.8 1.3-1.6 2.5-2.5 3.6a16.4 16.4 0 00-3.3 5.8h.5c.6-2.1 2-4 3.2-5.6 1.6-2.1 3.2-4.2 3.6-6.9.5-3 .2-5.9 1.5-8.6 1.2-2.3 2.9-4.3 3.8-6.7 1-2.9 1-6.1 2.7-8.8.2-.3-.2-.5-.3-.3z" fill="#2E6300"/><path d="M30.4 136.6c-1-4.1-.2-8.5 2.3-11.9 2.8-3.8 4.5-7.3 2.6-11.3a17.4 17.4 0 01-1.7-7.8c-2.8 6.1-5.6 8.3-5 11.6.6 3.4-.1 4.9-2 10-1.4 3.7 0 7.3.9 9.1l3 .3z" fill="#9ABC0C"/><path d="M28.8 136.5h.5c-1.1-3.5-1.5-7.1.1-10.6l2.9-5.3c.8-2 1-4 .7-6a21 21 0 01.9-8.5c0-.3-.4-.4-.5-.1-.7 2.3-1 4.8-1 7.2.1 1.3.4 2.6.3 4 0 1.2-.4 2.3-.9 3.4-.9 2-2 3.6-3 5.5-.8 2-1.2 4.3-.9 6.5.2 1.3.5 2.6 1 3.9z" fill="#2E6300"/></g><g transform="translate(66.1 138)"><path d="M256.3 87.7l-99.7-62a4.4 4.4 0 00-4.7 0L2.7 117a5 5 0 00-2.4 4.3 5 5 0 002.4 4.4L98 184.4c4.8 3 10.6 3 15.4 0l142.8-88a5 5 0 002.4-4.3 5 5 0 00-2.4-4.4z" fill="#FFB324"/><path d="M145.9 68.4l23-14.6-12.7-8.6L134.6 58c3.6 3.6 7.5 7 11.3 10.4z" fill="url(#g)" opacity=".3" style="mix-blend-mode:multiply"/><path d="M158 153l57.1-35-19.4-13.2-54 32.2c4.6 3.5 11.6 12.3 16.3 16z" fill="url(#h)" opacity=".3" style="mix-blend-mode:multiply"/><path d="M41 149.2l95.4-60.7-19.5-13.2L22 132c4.8 3.4 14.3 13.7 19 17.3z" fill="url(#i)" opacity=".3" style="mix-blend-mode:multiply"/><path d="M200 108.5s3.8-3.5 5.4-1.7c1.5 1.7.8 5.7 5 4.2.8-.3-1.4-5.5-1.5-7.3-.2-2-.2-5.1-2.3-5.6-2-.4-6.4 5.7-10.3 5.9" fill="#F9DFDE"/><path d="M204.6 116.3s3.7-3.5 5.3-1.8c1.5 1.7 1 5.8 5 4.2 1-.3-1.3-5.5-1.6-7.4-.2-1.8-.2-5-2.3-5.4-2-.4-6.3 5.7-10.3 6" fill="#FFE8E6"/><path fill="#FFE4A3" d="M83 136.7l26.9 19.2 69.9-46.6-26-18.3z"/><path fill="#D37211" d="M149.9 120v-14l11.6-6.8v13.7z"/><path d="M149.9 106l-11.3-6.8s-.3 14 0 14.1c.3.3 11.3 6.6 11.3 6.6v-13.8z" fill="#F7931E"/><path fill="#FFB266" d="M138.6 99.2l11.3-7.4 11.6 7.4-11.6 6.9z"/><path d="M187.5 75.5s-12.6 8-26.4 0l-.6 10.6s15 6.4 25.7 3.8" fill="#F5B008"/><path d="M187.5 75.5s-12.6 8-26.4 0l-.6 10.6s15 6.4 25.7 3.8" fill="#333" opacity=".6"/><path d="M161 77.7l-1.8-1-2-1.5c-.6-.5-1.3-1-2-1.2a1 1 0 00-1 .4c-.2.3-.3.7-.2 1 .2.9 1.4 1.7 2 2.3l.4-1-.5 1v.4l-2.2 3.4-.2.6-.2.4 2.4.3c1.6.4 3.3.5 5 .4l.3-5.5z" fill="#FFE8E6"/><path d="M157.7 81c-1.6-.7-1.5-2.4-1.3-4 0-.2-.3-.4-.4 0-.3 1.8-.2 3.7 1.6 4.5.2 0 .4-.4.1-.5z" fill="#42210B"/><path fill="#D37211" d="M151.5 99.3V85.7L163 79v13.5z"/><path d="M151.5 85.7l-11-6.8s-.3 13.7 0 14l11 6.4V85.7z" fill="#F7931E"/><path fill="#FFB266" d="M140.5 79l11-7.3L163 79l-11.4 6.8z"/><path d="M191 98.5c-1.4.4-17 8.7-15.8 17.8.9 6.9 14.1 3.4 14.1 3.4l12.6-11.8" fill="#D13B51"/><path d="M164.5 95.4a1 1 0 000-.7 1 1 0 00-.5-.6l-.1-1a1 1 0 00-.7-.4l-3.4-1a35.7 35.7 0 01-4.2-2.4c-1-.6-1.8-1.4-2.5-2.3l-1-1.1c-.5-.4-.8-.7-1.1-1.2-.6-.8-1.2-1-1.7-.1-.5 1 .5 1.9 1.1 2.9a28.7 28.7 0 00-2.8-.4c-.8.8-1 1.5-.4 2v.7c-.5.5-1 1.9 0 2 .3.1.5.4.4.7a3 3 0 001 2.7c1.4.7 2.8.6 4.4.8a84 84 0 019.4 2.8c.4.2.8 0 1-.2.3-.3.4-.8.3-1.2h.3c1 .3 1.5-1.6.5-2z" fill="#FFE8E6"/><path d="M147.2 89.8h-.1l3.3.5s.2 0 .2-.2c0-.1 0-.2-.2-.2l-3-.4-.2.3zM147.6 92.4l3 .3c.2 0 .3-.4 0-.5l-3.1-.3.1.5zM148.1 94.7h2.8c.3 0 .3-.4 0-.4l-3-.1.2.5z" fill="#42210B"/><path d="M187.1 75.4c-7.2 9.5-18 15-29.4 15.2l-2.5 8.7s18 6.3 29.6-4.2l3.4 9.6s8.6.8 16.5-3c0 0-.3-23.5-16-31.3" fill="#F5B008"/><path d="M187.1 75.4s-11 15.1-29.4 15.2l-2.5 8.7s18 6.3 29.6-4.2l3.4 9.6s8.6.8 16.5-3c0 0-.3-23.5-16-31.3" fill="#333" opacity=".1"/><path d="M178.9 65s-.6 10.5 4.3 11.7c5.5 1.5 9.2-6.6 6.7-11.2-2.4-4.6-9.7-4.1-11-.6z" fill="#FFE8E6"/><path d="M182 60.5c-2 .6-3.5 2.1-4.4 4.1l-.1.5v1.2c0 1.1.5 2 1.5 2.5-.2-1.8.4-3.6 1.6-4.8 0 0-.5 1.1 4.7 3.7 0 0 3.7 5.1 2.7 7.8 0-.3.8-.7 1-.9.7-.7 1.5-1.5 2.1-2.4 4.4-6.3-2.8-13.9-9-11.7z" fill="#E54B5D"/><path d="M180.6 64s.1 4.8 5.5 5.6c3.3.6-3.6 7-.4 9s9.3-2.5 10.8-5.8c1.4-3.3-3.4-13-11.1-13.4 0 0-5.6-1.1-7.8 5.6" fill="#E54B5D"/><path d="M188.3 69.6c-.9-1.6-3 .1-3 1.6l.2.3h.3v.2h-.2c-.6 0-.7.9-.2 1 1.4.2 3.9-1.3 3-3zm-1.8.9l.1.1h.5l-.1.1c-.2.3-.4.4-.7.4 0-.3 0-.5.2-.6z" fill="#FFE8E6"/><path d="M206.1 107l-1.8.4c.3 0 .7-1.5.8-1.8 1-3 .6-6.5-1.3-9.2l-15.3 5.6c-3.1 1.6-15.1 14-9.7 20.8 4 5 19 .7 28.4-4.2l-1-11.6z" fill="#E54B5D"/><path d="M206 106.6c-6.7 1.4-13.3 4-19.3 7.6-.9.5-.1 2 .8 1.4 5.8-3.5 12.1-6 18.7-7.3l-.1-1.7z" fill="#D13B51"/><path d="M96 76.5s-3.8-2.7-4.9-2c-3.3 1.8-4.6 10.4-3.8 14.4 1 3.9 6.5 5.6 8.2 4.2 2-1.7-1.5-5.8-1.5-5.8" fill="#442827"/><path d="M115.8 68c.5.7 5.9 21.6 6 25 .2 3.2-1.7 9.5-12 6.2-10.2-3.3-18.4-13-18.4-13s-1.8-7.2 4.7-10.1l4.5 3.9s-4-7.4-2.6-14.1c0 0 17.4-1.5 23.8-6.1 0 0 13.7 15.2 15.6 22.2 2 7-4.9 9.4-8.1 8.7-3.3-.7-11.3-6.5-11.3-6.5" fill="#AE65B4"/><path fill="#442827" d="M100.6 80l6.3 6.3L99 76z"/><path d="M110.8 57.8c.5.1 3.1 6.2 3.4 6.6.3.4 3 3.3 4.3 3.9 1.3.6 7.5-.6 8 .8.4 1.4-2.7 1.2-2.7 1.2s3.2 3 3.7 4.4c.4 1.3-.6 4.3-1.1 4.4-.5.1-5.4-2-6.3-2.7-1-1.1-2-2.3-2.8-3.5 0 0-11-2.3-14.5-6.6-3.6-4.4 1-12 1-12 2 2 4.4 3.1 7 3.5zM122.6 53.5s9.2 9.3 9.8 10.4c.7 1.1 4 6.9 4.7 6 .6-.7-.8-3.4-.8-3.4s5.4 4.6 6.3 3.6c1-1 0-5.3-.6-6.5-.6-1.2-4.8-3-5.3-3.4L126.4 47" fill="#FFD0B0"/><path d="M105.8 31.7a22 22 0 0111.6-1.8c2 .2 3.7 1 5.2 2.4 1.9 1.9 2.6 4.7 3.7 7 1.5 3.6 3.2 7 5.1 10.3 1.7 3 3.2 6.3 5.4 9.1l-6 4.8-9-11.2-13.6 7.4 12 6.5c1 2-7.7 8-7.7 8s-13.5-1.5-16.3-16c-4-20.4 9.6-26.5 9.6-26.5z" fill="#FF9A22"/><path fill="#FFF7F0" d="M151.1 59.8l-1.1-1.3"/><path d="M122.1 47s.4 13.1-.3 14.5a86.5 86.5 0 01-13.6 7.4l-8-10.6L122 47z" fill="#FF9A22"/><path d="M117.6 24.3s1.6 5.5.6 7.3c-1.1 1.8-5.7-.1-5.7-.1" fill="#DD654A"/><path d="M118.3 21.7s-1 10.7-5.3 11.3c-4.3.6-5.8-5.1-5.8-5.1s0-7.3 1.4-8.7c1.5-1.3 7.9-.8 9.7 2.5z" fill="#FDBA45"/><path d="M120 20.7s-3.2 3.8-5 4.7c-1.7.8-3.5 0-4.3 1.3-.7 1.4.4 10.2-1.7 11.6-2 1.4-5.2-3.7-7-1.7-1.9 2.1-1.5 6.4-4.1 7-2.7.6-5.2-4-2.4-7 2.8-3 3.2-4.7 2-6-1.9-1.9 1-7.6 3.5-8.4 2.5-.9 3.8-6.6 8.3-7.5 4.5-1 10.1 2.6 10.7 6z" fill="#DD654A"/><path d="M121.1 43c0 6 0 12-.2 18 0 .7 1 .7 1 0 .2-6 .2-12 .2-18 0-.3-.3-.5-.5-.5-.3 0-.5.2-.5.4zM120 65.9A24 24 0 01107.2 49c-.2-.6-1.2-.3-1 .3a24.9 24.9 0 0013.3 17.4c.6.3 1.1-.6.5-1z" fill="#F26250"/><path d="M116.8 16.5s-7.4 2-7.7 9c0 0-1.2-4.3.4-7.6 1-2 3-3.2 5.1-3.1 0 0 2.2.5 2.2 1.7z" fill="#6B2215"/><path fill="#F7931E" d="M151.6 38.2v12.4h18.9V38.2"/><ellipse fill="#AD5802" cx="161" cy="38.2" rx="9.4" ry="4.9"/><ellipse fill="#F7931E" cx="161" cy="51.1" rx="9.4" ry="4.9"/><path d="M171.6 9.3c-2-.8-4.7-3.7-7.2-3.7a73.8 73.8 0 00-1.3 24v9.9c0 .2.1.3.3.3.2 0 .3-.1.3-.3V30c1-.3 1.8-.8 2.7-1.3 1.8-1.2 3.1-3 3.8-5 1.5-4.6.6-9.6 2-14.1l-.6-.3z" fill="#297600"/><path d="M167.5 1.9c-1.1.7-2 1.7-2.7 3a5 5 0 00-.4.8v.2c-.3.5-.4 1-.5 1.5.2-.4.6-.7 1-.8.5-.2 1-.3 1.5-.2l1.5.9 2 1.3c3 2.2 7.2 2.4 9.6-.7l.1-.4c.4-2-5.2-9.9-12-5.6z" fill="#5FAD00"/><path d="M178.2 9.2l.4-.3-.1-.2c-1.9-2.1-4-4.1-6.5-5.1-1.9-.8-3.9-1-5.8-.7a8 8 0 00-.6.9c2.2-.6 4.6-.4 6.7.6a18.8 18.8 0 015.9 4.8zM146.6 13.7a8.5 8.5 0 00-4.3 8c.3 6 9.4.2 11.9-4.8 2.4-5 2.8 2.1 2.8 2.1" fill="#297600"/><path d="M154.8 11.6a15.6 15.6 0 00-8.2 2.1c.6.4 1.2.8 1.8 1 1.2.4 2.3 1.2 3 2.3l.3 1c.6 1.9.1 4.2.9 6.2.7 2 2.2 3.7 4.4 3.8 2.6.2 3.8-2.5 4.3-4.8.5-2.2 1.2-5.4.4-7.7-1-2.7-4.5-3.7-6.9-3.9z" fill="#5FAD00"/><path d="M158.2 20.9c-1-3.8-3.4-7.3-6.7-9H151.2l-.6.3c3.9 1.5 6.3 5.6 7.3 9.8 1.3 5.4.9 11.2.9 16.7 0 .2.1.3.3.3.1 0 .2-.1.2-.3 0-5.8.5-12.1-1.1-17.8z" fill="#297600"/><path fill="#D37211" d="M117.4 142.7v-7.5l6.3-3.7v7.4z"/><path d="M117.4 135.2l-6.1-3.8s-.2 7.6 0 7.7c.1.2 6.1 3.6 6.1 3.6v-7.5z" fill="#F7931E"/><path fill="#FFB266" d="M111.3 131.4l6.1-4 6.3 4-6.3 3.8z"/><path fill="#D37211" d="M125.1 125.7v-7.5l6.3-3.8v7.5z"/><path d="M125.1 118.2l-6.1-3.8s-.2 7.5 0 7.7l6.1 3.5v-7.4z" fill="#F7931E"/><path fill="#FFB266" d="M119 114.4l6.1-4 6.3 4-6.3 3.8z"/><path d="M85.4 64.3l2.6 3.9s10.4-4.2 11.4-5c1-.8 2.5-5.6 3.5-5.9.9-.2 0 4.4 0 4.4s4.2-2.8 5.4-3c1.3-.2 3.2.4 3.5 1.2.3.9-2.1 4.8-3.2 5.4-1.6.7-3.3 1.2-5 1.7 0 0-11.8 9.1-17.1 10-5.4.7-8.7-10.4-8.7-10.4l7.6-2.3z" fill="#FDC2B0"/><path d="M52.7 103.4s-3.8-2.8-5-2.1c-3.3 1.8-4.6 10.5-3.7 14.4.8 4 6.5 5.6 8.1 4.2 2-1.7-1.4-5.7-1.4-5.7" fill="#442827"/><path d="M72.4 94.7c.5.8 5.9 21.7 6 25 .2 3.4-1.7 9.7-12 6.4A48 48 0 0148 113s-1.8-7.2 4.7-10.2l4.5 4s-4-7.5-2.6-14.2c0 0 17.4-1.5 23.8-6 0 0 13.7 15 15.6 22.1 2 7-4.8 9.5-8.1 8.7a53.5 53.5 0 01-11.2-6.5" fill="#AE65B4"/><path fill="#442827" d="M57.2 106.8l6.3 6.4-7.9-10.3z"/><path d="M80.4 50.2s7.5 12.5 6.3 16c-.6 1.6-9.7 4.3-9.7 4.3L76 60.3" fill="#6492DF"/><path d="M56.6 77.8s-3.7-.3-8.8-6.2c0 0 2.7-8.8 8.8-14.2 6.1-5.4 14.8-9.6 21.2-7.6 6.4 2-1 24-1 25.9.2 1.8 2.7 12 2.7 12s-15.3 6.6-24.8 5l1.9-14.9z" fill="#8BBCFE"/><path d="M56.9 76.6c.5 0-2.3 4.7-2 5.1.3.4 8.8 6.7 10.3 7.3 1.4.6 8.3-1.5 8.8 0 .5 1.6-2.9 1.3-2.9 1.3s3.5 3.4 4 4.8c.6 1.4-.6 4.8-1.2 4.9-.5.1-5.8-2.1-6.8-3a31.1 31.1 0 01-3.2-3.9S52 90.7 48 86c-3.9-4.8 1.2-13 1.2-13 2.2 2 4.8 3.3 7.7 3.7z" fill="#FDC2B0"/><path d="M83.4 47.4s2.5 0 3.2-2.1c.8-2.1-1.6-4.2-1.6-4.2s.6-3.6-4-5.7c-4.4-2.2-7 .5-7 .5s-3.3-.6-5.1 1.7c-1.8 2.4-2.1 4.5-1.6 6.2a4 4 0 00-.2 3.5c.8 2 2.3 5.9 5.5 5.9" fill="#452729"/><path d="M84 45.2s-3.6 9.7-5.5 10.8c-3.2 1.6-6.5.7-7.3-2.8 0 0-3-3.8-1.4-5.7 1.6-1.8 3 .8 3 .8s1.9-6.2 6.6-6c4.7 0 4.7 2.9 4.7 2.9z" fill="#FDC2B0"/><path d="M84 45.2s0 .7-3-1c-2.9-1.8-7.2 3.6-8 7 0 0-1-5.6.5-8 1.4-2.4 3-3.6 5.7-3.1 2.8.5 5.4 2.2 4.8 5z" fill="#452729"/></g></g></svg>