<svg width="326" height="298" xmlns="http://www.w3.org/2000/svg"><defs><linearGradient x1="17.7%" y1="57.7%" x2="37.8%" y2="52.9%" id="a"><stop stop-color="#FFF" offset="0%"/><stop stop-color="#F7931E" offset="100%"/></linearGradient><linearGradient x1="35.3%" y1="61.7%" x2="77.1%" y2="25.5%" id="b"><stop stop-color="#FFF" offset="0%"/><stop stop-color="#F7931E" offset="100%"/></linearGradient><linearGradient x1="38.6%" y1="62%" x2="73.2%" y2="28.2%" id="c"><stop stop-color="#FFF" offset="0%"/><stop stop-color="#F7931E" offset="100%"/></linearGradient></defs><g fill="none" fill-rule="evenodd"><g transform="translate(1 .7)"><ellipse fill="#FE0000" cx="292.4" cy="293.2" rx="29.3" ry="2.9"/><path d="M270 287.9v-22h6.3v-5h-18v5h6.4v22h5.3zm10.7 0c2.2 0 4-1 5-3.2v2.8h5v-20.7h-5.3v12.7c0 2.7-1.1 3.8-2.6 3.8-1.7 0-2.5-1-2.5-3.8v-12.7h-5.2v14c0 4.9 2.4 7.1 5.6 7.1zm21.7 0c4.3 0 5.7-4.2 5.7-10.2 0-6.6-2.5-8.7-7-8.7-1 0-2 .5-2.9 1.4v-10.6H293v27.8h5.2V285c1.4 2 2.8 2.9 4.2 2.9zm-1.6-4.7c-2 0-3-1.7-3-5.2s1-5.3 2.9-5.3 3 1.8 3 5.3c0 3.4-1.1 5.2-2.9 5.2zm16 5.9c2.9 0 5.4-1 6.8-5.2l-4.5-1.6c-.4 1.7-1.1 2.7-2.3 2.7-1.5 0-2.7-1.3-3-4.7H324v-3.1c0-5-2.2-9.2-7.8-9.2-4.4 0-7.7 3.6-7.7 10.8 0 6.6 3 10.3 8.1 10.3zm2.5-11.7h-6c.4-3.7 1.7-4.7 3-4.7 1.7 0 3 1.5 3 4.7z" fill="#3B3B3B" fill-rule="nonzero"/><path d="M2.1 191l132.1 76.5c3.4 2 7.6 2 11 0l152.3-86.8a6.2 6.2 0 000-10.8L161.8 91.2c-1.3-.8-3-.8-4.3 0L2.1 183.6a4.3 4.3 0 000 7.5z" fill="#FF7076" fill-rule="nonzero"/><path fill="url(#a)" fill-rule="nonzero" style="mix-blend-mode:multiply" d="M26 201.7l30.2 18.9 110.5-64-20.8-5z"/><path d="M56.2 96.8v112.8c0 2.5 1.4 4.8 3.6 6 2.2 1.3 4.9 1.2 7 0l165.5-95.7a3.7 3.7 0 001.8-3.2V6.3C234.1 4 233 2 231 .8a6.5 6.5 0 00-6.4 0L58 93.6c-1.2.7-1.9 1.9-1.9 3.2zm161.4 13.3L75 190.6c-1.1.6-2.6.6-3.8 0a3.7 3.7 0 01-1.9-3.3v-84.9c0-1.3.8-2.5 2-3.2l142.5-80c1.2-.6 2.6-.6 3.8.1 1.1.7 1.9 1.9 1.9 3.2V107c0 1.3-.8 2.5-2 3.2z" fill="#ED1C24" fill-rule="nonzero"/><path d="M70.2 97.3c-5.5 2-1.2 107.8-1.2 107.8l115.3-69.3 39.4-24.7V12.6L70.2 97.3z" fill="#4F4E6E" fill-rule="nonzero"/><path d="M130.2 125.8V94.1c0-4 2.8-7.6 6.8-8.2 2.3-.3 4.6.4 6.4 1.8a7.5 7.5 0 012.7 5.8V144a128.5 128.5 0 01-16-18.2z" fill="#000" fill-rule="nonzero" opacity=".3"/><path d="M219.2 89S141 84.3 136 86.5c-5 2.3-7 10.4-5.1 21.7 1.9 11.4 39.2 57 39.2 57" fill="#F5B008" fill-rule="nonzero"/><path d="M164.7 112.3c-11.3-6.8-23.1-12.7-34.5-19.3a11 11 0 013.7-6.2c21.7 10.4 43 21.4 64.7 32l-6.6 10-27.3-16.5zM167.6 122.4c-12.7-8-25.9-15.2-38.3-23.6v-1.5c11 6.4 22.5 12.3 33.4 19 9.2 5.5 18.2 11.2 27.4 16.6l-1.6 2.6-20.9-13z" fill="#FFF" fill-rule="nonzero" opacity=".5"/><path d="M243.5 113.8c-.2-.8-8.2-36.5-44.5-21.3-32.8 13.7-33.8 54.6-31.6 64.6 1.8 8.1 10.3 19.2 26.8 23.2" fill="#8C0000" fill-rule="nonzero"/><ellipse fill="#CE4242" fill-rule="nonzero" transform="rotate(-66.6 208.8 136.5)" cx="208.8" cy="136.5" rx="46.1" ry="33.3"/><path d="M174.2 138.9l35.4 9 7.7-16-32-19.3s-9.1 13.6-11 26.3z" fill="#FFF" fill-rule="nonzero"/><ellipse fill="#F7D600" fill-rule="nonzero" transform="rotate(-63.1 212.5 139.4)" cx="212.5" cy="139.4" rx="9" ry="7.3"/><g transform="translate(220.1 70.6)"><path d="M61.6 93.8s.2 6 .9 6.9c.7 1 7 4.2 7.4 5.7.4 1.6-.7 3.7-3.8 2.9-3-.8-10.4-5.4-10.4-5.4V91M37.2 100.6l-.8 6.4s2.8 10 1.7 11.1c-1.2 1.2-5.2 2.5-6.8 0-1.5-2.5.7-11.7.7-11.7l.1-7" fill="#42210B" fill-rule="nonzero"/><path d="M1.3 16l1.8.5a2 2 0 01-.8-1.3c0-.3 0-.7.4-1a1 1 0 011 0l5 2.4v-.3c-.3-.8-.4-1.6-.4-2.4.4-1.3 1.7-.6 2.2.5.7 1.4.8 3 2.2 4.2a77.4 77.4 0 005.4 1.8c.4 0 .7.4.7.8s-.3.8-.7.9c.3.2.4.5.4.8 0 .3-.2.6-.5.7.4.7 0 1.7-1 1.4-2.2-.9-4.4-1.5-6.8-2a127 127 0 01-6.9-.5c-1.2-.2-1.2-2 0-1.9h.2l-2-.3c-1-.2-.8-2 .2-1.8H2.6l-1-.2c-.5-.2-1.1-.4-1.4-1a.9.9 0 01.1-1 1 1 0 011-.3z" fill="#F9C882" fill-rule="nonzero"/><path d="M8.7 17.6l.2-.2.2.3c-.4 1.1 0 2.4 1 3.2.2.2-.1.4-.3.3-1-1-1.5-2.3-1.1-3.6z" fill="#42210B" fill-rule="nonzero"/><path d="M77.8 10l-1.4 1.3c.2-.5.2-1 0-1.5a1 1 0 00-1.7-.2L71.5 14v-.4c-.2-.8-.6-1.5-1-2.2-1-1-1.8.3-1.7 1.5.2 1.6.8 3 .2 4.6-.4.8-1 1.6-1.7 2.2l-2 2c-.4.3-.4.7-.2 1 .2.4.6.6 1 .5v.9c.2.2.5.4.9.4 0 .8.9 1.5 1.5.7 1.5-1.8 3.1-3.5 5-5l5.6-3.8c1-.7.1-2.3-.9-1.6l-.1.1 1.6-1.3c.8-.6-.3-2-1.1-1.4l-.2.1-.6.4.7-.7c.5-.4.8-1 .8-1.5a1 1 0 00-.6-.8 1 1 0 00-1 .2z" fill="#F9C882" fill-rule="nonzero"/><path d="M72 14.9c0-.1-.1-.1-.2 0v.3a3 3 0 01.8 3.2c-.1.3.3.4.4.1.4-1.2 0-2.7-1-3.6zM76.3 11a58 58 0 00-3.2 3.3c-.1.2.2.4.3.2l3.2-3.3c.2-.2 0-.5-.3-.3zM78.3 12.2l-3.8 3c-.2.1.1.4.3.2l3.8-2.9c.2-.2-.1-.4-.3-.3zM78.6 14.4l-3.3 2c-.2.2 0 .5.2.4l3.3-2c.2-.2 0-.5-.2-.4z" fill="#42210B" fill-rule="nonzero"/><path d="M51.8 32.5s8 31.3 8.3 36.1l2.7 30.8s-7 3.7-12 2L46.3 69 42 38s8-7.8 10-5.6z" fill="#174399" fill-rule="nonzero"/><path d="M36.7 40C31 63 29.9 85.1 27 105.3c4.5 3 10.6 2.5 14.7-1 1.9-20.6 6.8-44.9 7.5-65.5l-12.6 1z" fill="#174399" fill-rule="nonzero"/><path d="M14.4 15.5a37.4 37.4 0 0015.3 3A74 74 0 0045 14.8c.7-.2 8-3 10.6-.6 2.7 2.3 2 9.9 2 9.9l9.8-8.2c3.6 1.2 5 4.9 5.4 8.5l-.4.4-2.1 2.3c-3.3 3.5-7 7.6-11.6 9-2 .6-4 .5-5.7-.3-1.4-.5-3.4-2.1-5-1.6-.4.2-.7.4-1.2.4-1.1-.1-2.6-1.9-3.7-2.4-2.9-1.5-6.3-1.7-9.6-1.9-3.5-.1-7-.5-10.5-1.2-1-.1-11.8-2.8-12-2.4 1.7-3.5 2.9-7.3 3.4-11.2z" fill="#FFF" fill-rule="nonzero"/><path d="M52.6 8.4c.7 3.3 0 7.8-3.6 8.4-4.6.6-5.8-2.4-5.6-6.3.2-3 1.9-7.7 6-6.4 1 .4 2 1.2 2.4 2.1.4.7.6 1.4.8 2.2z" fill="#F9C882" fill-rule="nonzero"/><path d="M52.8 9.1c2-1 3-3 3-5-.3-2-2.3-4.7-4.6-3.7-1.6.7-1.2.7-1.2.7-.8-.8-2-1.3-3.1-1-2.2.1-2.6 1.5-2.6 1.5s-2.5.8-3.2 2.3c-.8 1.8 1 7 1.8 8.6.8 1.5 1.3-1.6 1.6-2.8a3 3 0 011.8-2.2c1.4-.4 2 .8 3.2 1.3a4 4 0 003.3.3z" fill="#42210B" fill-rule="nonzero"/><path d="M44 41.2c-2.5 0-5-.4-7.3-1.3l-.5-15.2 18.7 8.6-1.5 7c-3 .8-6.2 1.1-9.4.9z" fill="#FF7EAC" fill-rule="nonzero"/><path d="M53.5 40c1.1-4.4 1.8-8.8 2.1-13.2 0-.6 1-.6 1 0-.4 4.5-1.1 9-2.2 13.4-.2.5-1 .3-.9-.3z" fill="#42210B" fill-rule="nonzero"/><ellipse stroke="#42210B" stroke-width=".5" cx="52.4" cy="11.2" rx="1.9" ry="2.1"/><ellipse stroke="#42210B" stroke-width=".5" cx="47.4" cy="11.7" rx="1.9" ry="2.1"/><path stroke="#42210B" stroke-width=".5" d="M50.5 11.6l-1.2.1M45.5 11.7l-2.3-1.8"/></g><path d="M233.5 104l4.3 1.4c.2.1.1.6-.1.5a51.7 51.7 0 00-4.5-1.8l.3-.1zM232.6 106l5.1.5c.3 0 .2.3 0 .3l-5.3-.6c-.2 0-.1-.3.2-.3zM233.4 108l4.3.2c.3 0 .3.3 0 .3a63 63 0 01-4.3-.1c-.3 0-.3-.4 0-.4z" fill="#42210B" fill-rule="nonzero"/><path fill="url(#b)" fill-rule="nonzero" style="mix-blend-mode:multiply" d="M277.3 171.7l-47.8 22.4 14.3 8.1 43.7-24.6z"/><g transform="translate(113.4 180.6)" fill-rule="nonzero"><path fill="url(#c)" style="mix-blend-mode:multiply" d="M27.2 53.4L0 69.3l17.5 9.9L44 64.7z"/><ellipse fill="#F5B008" cx="29.5" cy="56.3" rx="19.2" ry="13.4"/><ellipse fill="#974C26" cx="29.5" cy="48.6" rx="14.5" ry="5.7"/><path d="M30.4 48.6A78.2 78.2 0 0038 36.4a47.6 47.6 0 005.3-14.7 66.3 66.3 0 00.5-2.3v-.6l.2-4.3c0-5-.9-10-2.8-14.5a62.3 62.3 0 00-10.4 26.3l-.2 1.4-.1 1.3a84.7 84.7 0 000 19.6zm6.1-39l1-1.2v1l-1 .2z" fill="#999A1C"/><path d="M30.8 48.6a120.5 120.5 0 00-.3-14.3A56.2 56.2 0 0026 16.9l-.3-.6-2.2-3.7A36.5 36.5 0 0013.1 1.9a61.2 61.2 0 005.6 27.7l.6 1.3.6 1.2a65 65 0 005 8.5c1.9 2.8 3.8 5.4 5.9 8zm-16.4-36c0-.6.1-1 .3-1.6 0 .3.2.6.5.9l-.8.6z" fill="#999A1C"/><path d="M31 49.6a61.3 61.3 0 00-8.2-11.5 37 37 0 00-3.9-3.5l-1.1-.9h-.1l-.4-.3c-.8-.4-1.6-1-2.4-1.3a24 24 0 00-9.3-2.5c2.9 5 6.8 9.4 11.5 12.8l.9.6.7.5.7.5 1.2.6a60.5 60.5 0 0010.3 5zM9.7 35.1l-.3-1c.1.2.3.3.5.3a2 2 0 00-.2.6z" fill="#999A1C"/><path d="M30.4 48.6A78.2 78.2 0 0038 36.4a47.6 47.6 0 005.3-14.7 66.3 66.3 0 00.5-2.3v-.6l.2-4.3c0-5-.9-10-2.8-14.5a62.3 62.3 0 00-10.4 26.3l-.2 1.4-.1 1.3a84.7 84.7 0 000 19.6zm6.1-39l1-1.2v1l-1 .2z" fill="#5B8C24"/><path d="M30.8 48.6a120.5 120.5 0 00-.3-14.3A56.2 56.2 0 0026 16.9l-.3-.6-2.2-3.7A36.5 36.5 0 0013.1 1.9a61.2 61.2 0 005.6 27.7l.6 1.3.6 1.2a65 65 0 005 8.5c1.9 2.8 3.8 5.4 5.9 8zm-16.4-36c0-.6.1-1 .3-1.6 0 .3.2.6.5.9l-.8.6z" fill="#999A1C"/><path d="M31 49.6a61.3 61.3 0 00-8.2-11.5 37 37 0 00-3.9-3.5l-1.1-.9h-.1l-.4-.3c-.8-.4-1.6-1-2.4-1.3a24 24 0 00-9.3-2.5c2.9 5 6.8 9.4 11.5 12.8l.9.6.7.5.7.5 1.2.6a60.5 60.5 0 0010.3 5zM9.7 35.1l-.3-1c.1.2.3.3.5.3a2 2 0 00-.2.6z" fill="#80CA00"/></g><g transform="translate(170 291.3)" fill="#FE0000"><ellipse cx="11.6" cy="2.5" rx="11.6" ry="2.5"/><ellipse cx="33.1" cy="2.5" rx="7.4" ry="2.5"/><ellipse cx="53.4" cy="2.5" rx="11.6" ry="2.5"/><ellipse cx="77" cy="2.5" rx="8" ry="2.5"/></g><path d="M213.1 258.7a2.7 2.7 0 013.4 1.9h0l1.2 6.6c.3 1.6-.1 3.3-1.2 4.5a1.8 1.8 0 01-3-.6h0l-2.4-8.7a3 3 0 012-3.7z" stroke="#3B3B3B" fill="#3B3B3B"/><path d="M220.4 261c.6-.2 1.4-.1 2.1.2.8.4 1.3 1 1.4 1.8.2.8 0 1.7-.3 2.9a67.7 67.7 0 00-6.3 12.3c-1 2.8-1.1 4.9-.3 6 .4.6 1 .9 1.7 1 .9.2 1.9 0 3-.2 2.6-.6 5.9-2.1 10-4.5.9-.4 1.7-.4 2.4-.1.7.2 1.4.7 2 1.5.3.5.5 1 .3 1.5 0 .4-.3.9-.9 1.4-.9.7-2.4 1.5-4.8 2.3-5 2.2-9 3.4-12.2 3.7-3.3.2-5.7-.6-7-2.4-1.4-1.8-1.6-4.8-.3-9.3a84 84 0 017.3-16.4 4 4 0 011.9-1.6z" stroke="#FF6C6C" fill="#FF6C6C"/><path d="M232.6 260.5c.7-.2 1.3-.2 1.7 0 .8.7.8 1 .8 1.2 0 2.2-4.6 7.9-6 9.1-1 .9-2.5 1.3-4.4 1.2h-.7l.3-.6c1.3-4 2.7-6.6 4-8 1.2-1.2 3-2.4 4.3-2.9zM236.3 267a3 3 0 011.5.5c.4.4.6.8.6 1.4-.2.9-3.7 3.8-6.6 5.7-1.3.9-2.4 1.5-3 1.7-1.3-.5-1.2-.9-.8-1.6l1.5-2.5c1.2-2 2-3.4 3.3-4.4a5 5 0 013.5-.8z" stroke="#FF6C6C" fill="#FF6C6C"/><g><path d="M198.6 269.7c.8-2.6 2.7-5.4 5.2-3.6 1.6 1.2.5 4.4-3.4 9.6 1.8 0 2.2.7 1 2.2-1.9 2.1-2.8 3-3.4 3-1.3 0-.2-8.6.6-11.2z" stroke="#3B3B3B" fill="#3B3B3B"/><path d="M203.6 275.7c1-3.5 7.3-11 6.7-7.5-.6 3.4-1.6 11.3-2.5 13.4-.9 2.1-5.6 7.4-5.7 5.3 0-2 .4-7.7 1.5-11.2z" fill="#FF6C6C"/></g><g fill="#3B3B3B" stroke="#3B3B3B"><path d="M256.4 280.9c-.3 1-1.8 4-5 5.3-2 .8-4.4 1.1-7.5.2a9.3 9.3 0 01-5.6-4.6c-.8-1.6-1.2-3.2-1.2-4.5 0-1 0-1.8.3-2.1 1.1-.6 1.3-.3 1.6.2 1.3 2.5 4.1 4.2 6.8 4.8 2.4.5 4.1.4 5.1 0 .5 0 .9-.3 1-.6.1-.3 0-.6-.1-.9-.2-.5 0-.6.1-.7 1-.5 1.9-.2 2.7.3l1.4 1.2c.4.5.5 1 .4 1.4zM248.7 265.5c1.7.9 3 2 3.8 3.2.4.6.7 1.3.8 1.9.2.6 0 1.2-.2 1.7s-.5.7-.8.9a2 2 0 01-1.2.1 14 14 0 01-3.6-1.6l-1.5-.8h0l-.7-.4-.9-.4c-1.4-.7-2.6-1.3-3.3-2-.3-.3-.5-.7-.6-1 0-.4 0-.8.2-1.2.2-.6.7-1 1.3-1.2.5-.3 1.2-.5 2-.5 1.3 0 3 .4 4.7 1.3z"/></g><g fill="#3B3B3B" stroke="#3B3B3B"><path d="M193 270.3a2.3 2.3 0 01-1.6 2.9h0l-5.1.9c-1.3.2-2.6-.2-3.6-1a1.5 1.5 0 01.6-2.6h0l6.8-1.8a2.4 2.4 0 012.9 1.6z"/><path d="M183.7 260.5h.2c.4 0 .8.2 1 .4.4.4.7 1 .7 2v.3l.7 15.8c5.7 0 9 .1 10 .4.8.9.7 1.2.6 1.5-.1.5-.5 1.2-1 1.9a7.9 7.9 0 01-4 2.5c-1.5.4-3.3-.2-5.2-1.7l-.3-.2v3.2c0 1.3-.6 2.4-1.7 3.2a8 8 0 01-4.5 1c-1.7 0-4.1-1-6.2-2.3-2.5-1.6-4.3-3.6-4.4-4.6 0-.5.2-1 .9-1.4a10 10 0 012.3-1c1.8-.7 4.4-1.3 7.8-1.9h.5l-1-16.4c0-.5.3-1 .8-1.5a5.7 5.7 0 012.7-1.2h.1zm-4 23c-1 0-2 .2-2.8.5-.3.1-.5.3-.7 1.1 0 .2.2.3.5.4.5.3 1.2.4 2.1.4.7 0 1.7 0 2.4-.7l.2-.4c0-.2-.1-.5-.3-.6-.2-.4-.8-.7-1.4-.7z"/></g></g><path d="M76 17l28.1-15.8c1.3-.7 3-.7 4.3 0 1.3.8 2 2.1 2.1 3.6v17.7c0 1.4-.8 2.8-2 3.5L80.3 42c-1.3.8-3 .8-4.3 0a4.1 4.1 0 01-2.1-3.5v-18c0-1.5.8-2.8 2-3.6z" fill="#ED1C24" fill-rule="nonzero"/><path d="M87 17.6c0 3 .5 10.6.5 14 0 .2.2.4.4.5l.7-.1L100 22a.6.6 0 00-.2-1.1l-11.8-4a.7.7 0 00-.6 0l-.3.7z" fill="#615959" fill-rule="nonzero"/><path d="M88 18.5c0 3 .5 10.6.5 14 0 .2.1.4.3.5h.7L101 22.9a.6.6 0 00-.1-1l-11.8-4a.7.7 0 00-.7 0l-.3.6z" fill="#FFF" fill-rule="nonzero"/><path d="M212.8-10.7l28-15.7c1.4-.8 3-.8 4.3 0 1.3.7 2.1 2 2.1 3.5v17.7c0 1.5-.8 2.8-2 3.6l-28 16c-1.4.8-3 .8-4.4 0a4.1 4.1 0 01-2-3.6v-18c0-1.4.7-2.8 2-3.5z" fill="#F24C4C" fill-rule="nonzero"/><path fill="#F24C4C" fill-rule="nonzero" d="M234.1 2.3l5.2 6 4.2-11.5"/><path d="M229.6-6.7s-3.6-5.5-7-1.3c-2.1 2.4 1.6 9.8 6.8 10.5 4.7.7 11.4-15 4.7-15.2-4.3-.1-4.5 6-4.5 6z" fill="#FFF" fill-rule="nonzero"/><path d="M30.9 89.4V140c0 1 .5 2 1.4 2.4 1 .5 2 .5 3 0l71.9-40.5c.9-.5 1.4-1.4 1.4-2.4V48.3c0-1-.5-2-1.4-2.4a3 3 0 00-2.8 0L32.9 86a4 4 0 00-2 3.4z" fill="#ED1C24" fill-rule="nonzero"/><path fill="#FFF" fill-rule="nonzero" d="M41.2 88.8v44.5l60-33.8V55z"/><path d="M41.2 132.3l14.4-30.7a6.6 6.6 0 018.5-3.2l7 3L85 79.2a4.6 4.6 0 016.5-1.3l9.7 7.1v14l-60 33.4z" fill="#ED1C24" fill-rule="nonzero"/></g></svg>