<svg width="326" height="325" xmlns="http://www.w3.org/2000/svg"><defs><linearGradient x1="17.7%" y1="57.7%" x2="37.8%" y2="52.9%" id="a"><stop stop-color="#FFF" offset="0%"/><stop stop-color="#F7931E" offset="100%"/></linearGradient><linearGradient x1="35.3%" y1="61.7%" x2="77.1%" y2="25.5%" id="b"><stop stop-color="#FFF" offset="0%"/><stop stop-color="#F7931E" offset="100%"/></linearGradient><linearGradient x1="38.6%" y1="62%" x2="73.2%" y2="28.2%" id="c"><stop stop-color="#FFF" offset="0%"/><stop stop-color="#F7931E" offset="100%"/></linearGradient></defs><g fill="none" fill-rule="evenodd"><g transform="translate(160.2 317.2)" fill="#FE0000"><ellipse cx="13.6" cy="3.7" rx="13.6" ry="3"/><ellipse cx="38.6" cy="3.7" rx="8.7" ry="3"/><ellipse cx="63.8" cy="3.7" rx="13.6" ry="3"/><ellipse cx="89.4" cy="3.7" rx="9.4" ry="3"/><ellipse cx="133.2" cy="3.6" rx="29.3" ry="2.9"/></g><path d="M213.1 284.9a2.6 2.6 0 013.3 2l1.4 7c.3 1.6-.1 3.3-1.3 4.6a1.5 1.5 0 01-2.5-.6l-2.8-9.5a2.8 2.8 0 012-3.5z" fill="#3B3B3B"/><path d="M219.9 289c1-1.5 2.4-2 3.8-1.3 1.5.6 1.8 2.1 1 4.4-7.3 11.3-9.8 18.3-7.6 21 2.2 2.8 8.2 1.5 17.9-4 1.7-.6 3.1-.1 4.4 1.4 1.2 1.6-.8 3.3-6 5-11.5 4.9-18.8 5.4-21.9 1.6-3-3.8-.2-13.1 8.4-28z" fill="#FF6C6C"/><path d="M231.3 290c2.3-2.4 6.8-4.6 6.8-2.3 0 2.4-5.2 8.4-6.8 9.7a7 7 0 01-4.7 1.3 24 24 0 014.7-8.8zM236.4 295c2-1.5 5.8-1 5.5.6-.2 1.7-13.5 10.7-11 7 2.5-3.9 3.4-6.2 5.5-7.6z" fill="#FF6C6C"/><path d="M195.6 296c1-2.8 3.2-6 6-3.9 2 1.3.7 4.9-4 10.7 2.2 0 2.6.8 1.2 2.4-2.2 2.4-3.2 3.5-3.9 3.5-1.5 0-.3-9.7.7-12.6z" fill="#3B3B3B"/><path d="M202.7 303.4c1.3-3.9 7.2-12.9 6.5-9-.6 3.9-1.9 12.6-2.9 15-1 2.3-8 9-8 6.8-.2-2.3 3.2-9 4.4-12.8z" fill="#FF6C6C"/><g fill="#3B3B3B"><path d="M246.3 314.4c-9.2-2.8-8-14.4-6.4-11.4 1.6 3 5 4.9 8.4 5.6 6.8 1.4 8.8-.8 7.6-2.5-1.2-1.7 4.8.9 4.3 2.6-.4 1.8-4.6 8.5-13.9 5.7zM248.9 297.2c3.7 1.8 6.5 3.8 7.6 1.8 1-2-1.2-5-5-6.9-3.7-1.8-7.5-1.7-8.5.2-1 2 2.1 3 5.9 4.9z"/></g><g fill="#3B3B3B"><path d="M190 296.8a2 2 0 01-1.6 2.5l-5.9 1c-1.3.2-2.6-.2-3.6-1a1.1 1.1 0 01.4-2l8-2c1.2-.3 2.4.4 2.7 1.5z"/><path d="M181.4 288.7l.7 18.2a69 69 0 0112 .4c1.8.6-1.8 4.9-4.9 5.5-2 .5-4.4-.5-7-2.9v5c0 2.4-2.5 4.1-6.6 4.1-4 0-11.7-5.2-11.9-7.3 0-1.4 4.5-2.8 13.6-4.4l-1.2-18.6c0-1 .9-1.6 2.6-2.2 1.8-.6 2.7.1 2.7 2.2zm-6.5 22c-2 0-4.8.9-4.8 2s1.4 1.9 3.5 1.9c1 0 2.5 0 3.5-1s0-2.8-2.2-2.8z"/></g><path d="M271 315.6v-22h6.2v-5h-17.9v5h6.3v22h5.3zm10.6 0c2.2 0 4-1 5-3.2v2.8h5v-20.7h-5.3v12.7c0 2.7-1.1 3.8-2.6 3.8-1.7 0-2.5-1-2.5-3.8v-12.7H276v14c0 4.8 2.4 7 5.6 7zm21.7 0c4.3 0 5.7-4.3 5.7-10.2 0-6.7-2.5-8.7-7-8.7-1 0-1.9.4-2.9 1.4v-10.7H294v27.8h5.2v-2.5c1.4 1.9 2.8 2.9 4.2 2.9zm-1.6-4.7c-2 0-3-1.7-3-5.2s1-5.4 2.9-5.4 3 1.9 3 5.3-1.1 5.3-2.9 5.3zm16 5.8c3 0 5.4-1 6.8-5.1L320 310c-.4 1.7-1.1 2.6-2.3 2.6-1.5 0-2.7-1.2-3-4.6H325v-3.1c0-5.1-2.2-9.3-7.8-9.3-4.4 0-7.7 3.6-7.7 11 0 6.5 3 10.1 8.2 10.1zm2.5-11.7h-6c.4-3.6 1.7-4.7 3-4.7 1.7 0 3 1.6 3 4.7z" fill="#3B3B3B" fill-rule="nonzero"/><path d="M3 218.7l132.1 76.5c3.4 2 7.6 2 11 0l152.4-86.9a6.2 6.2 0 000-10.7l-135.7-78.7c-1.4-.8-3-.8-4.4 0L3 211.3a4.3 4.3 0 000 7.4z" fill="#FF7076" fill-rule="nonzero"/><path fill="url(#a)" fill-rule="nonzero" style="mix-blend-mode:multiply" d="M27 229.3l30.1 19 110.5-64-20.8-5z"/><path d="M76 44l28.1-15.8c1.3-.7 3-.7 4.3 0 1.3.8 2 2.1 2.1 3.6v17.7c0 1.4-.8 2.8-2 3.5L80.3 69c-1.3.8-3 .8-4.3 0a4.1 4.1 0 01-2.1-3.5v-18c0-1.5.8-2.8 2-3.6z" fill="#ED1C24" fill-rule="nonzero"/><path d="M87 44.6c0 3 .5 10.6.5 14 0 .2.2.4.4.5l.7-.1L100 49a.6.6 0 00-.2-1.1l-11.8-4a.7.7 0 00-.6 0l-.3.7z" fill="#615959" fill-rule="nonzero"/><path d="M88 45.5c0 3 .5 10.6.5 14 0 .2.1.4.3.5h.7L101 49.9a.6.6 0 00-.1-1l-11.8-4a.7.7 0 00-.7 0l-.3.6z" fill="#FFF" fill-rule="nonzero"/><path d="M57.1 124.5v112.8c0 2.5 1.4 4.8 3.6 6 2.2 1.2 4.9 1.2 7 0l165.5-95.7a3.7 3.7 0 001.9-3.3V34c0-2.2-1.2-4.3-3.2-5.4a6.5 6.5 0 00-6.4 0L59 121.3c-1.2.6-1.9 1.9-1.9 3.2zm161.4 13.2L76 218.2c-1.2.7-2.7.7-3.9 0a3.7 3.7 0 01-1.8-3.2v-85c0-1.2.7-2.5 1.9-3.1l142.5-80c1.2-.6 2.6-.6 3.8 0 1.2.7 1.9 2 1.9 3.3v84.4c0 1.3-.8 2.5-2 3.1z" fill="#ED1C24" fill-rule="nonzero"/><path d="M212.8 16.3l28-15.7c1.4-.8 3-.8 4.3 0 1.3.7 2.1 2 2.1 3.5v17.7c0 1.5-.8 2.8-2 3.6l-28 16c-1.4.8-3 .8-4.4 0a4.1 4.1 0 01-2-3.6v-18c0-1.4.7-2.8 2-3.5z" fill="#F24C4C" fill-rule="nonzero"/><path fill="#F24C4C" fill-rule="nonzero" d="M234.1 29.3l5.2 6 4.2-11.5"/><path d="M229.6 20.3s-3.6-5.5-7-1.3c-2.1 2.4 1.6 9.8 6.8 10.5 4.7.7 11.4-15 4.7-15.2-4.3-.1-4.5 6-4.5 6z" fill="#FFF" fill-rule="nonzero"/><path d="M71.2 125c-5.5 2-1.2 107.8-1.2 107.8l115.2-69.4 39.4-24.7V40.2L71.2 125z" fill="#4F4E6E" fill-rule="nonzero"/><path d="M131.1 153.5v-31.8c0-3.9 2.8-7.6 6.8-8.1 2.3-.3 4.6.3 6.4 1.8a7.5 7.5 0 012.7 5.7v50.6a128.5 128.5 0 01-15.9-18.2z" fill="#000" fill-rule="nonzero" opacity=".3"/><path d="M220 116.7s-78-4.8-83-2.6c-5 2.3-7 10.4-5.2 21.7 1.9 11.3 39.2 56.9 39.2 56.9" fill="#F5B008" fill-rule="nonzero"/><path d="M165.6 140c-11.3-6.8-23-12.7-34.5-19.4a11 11 0 013.7-6.1c21.7 10.3 43 21.3 64.7 31.9l-6.6 10c-9.1-5.3-18.2-11-27.3-16.4zM168.6 150c-12.8-7.9-26-15.1-38.4-23.5V125c11 6.4 22.5 12.3 33.4 18.9l27.4 16.7-1.6 2.5-20.8-13z" fill="#FFF" fill-rule="nonzero" opacity=".5"/><path d="M244.4 141.4c-.2-.8-8.2-36.5-44.5-21.3-32.8 13.8-33.8 54.6-31.6 64.6 1.9 8.2 10.4 19.2 26.8 23.2" fill="#8C0000" fill-rule="nonzero"/><ellipse fill="#CE4242" fill-rule="nonzero" transform="rotate(-66.6 209.7 164.2)" cx="209.7" cy="164.2" rx="46.1" ry="33.3"/><path d="M175.1 166.5l35.4 9 7.7-16-32-19.3s-9.1 13.6-11 26.3z" fill="#FFF" fill-rule="nonzero"/><ellipse fill="#F7D600" fill-rule="nonzero" transform="rotate(-63.1 213.4 167)" cx="213.4" cy="167" rx="9" ry="7.3"/><g transform="translate(221 98.3)"><path d="M61.6 93.8s.2 6 .9 6.9c.7 1 7 4.2 7.4 5.7.4 1.6-.7 3.7-3.8 2.9-3-.8-10.4-5.4-10.4-5.4V91M37.2 100.6l-.8 6.4s2.8 10 1.7 11.1c-1.2 1.2-5.2 2.5-6.8 0-1.5-2.5.7-11.7.7-11.7l.1-7" fill="#42210B" fill-rule="nonzero"/><path d="M1.3 16l1.8.5a2 2 0 01-.8-1.3c0-.3 0-.7.4-1a1 1 0 011 0l5 2.4v-.3c-.3-.8-.4-1.6-.4-2.4.4-1.3 1.7-.6 2.2.5.7 1.4.8 3 2.2 4.2a77.4 77.4 0 005.4 1.8c.4 0 .7.4.7.8s-.3.8-.7.9c.3.2.4.5.4.8 0 .3-.2.6-.5.7.4.7 0 1.7-1 1.4-2.2-.9-4.4-1.5-6.8-2a127 127 0 01-6.9-.5c-1.2-.2-1.2-2 0-1.9h.2l-2-.3c-1-.2-.8-2 .2-1.8H2.6l-1-.2c-.5-.2-1.1-.4-1.4-1a.9.9 0 01.1-1 1 1 0 011-.3z" fill="#F9C882" fill-rule="nonzero"/><path d="M8.7 17.6l.2-.2.2.3c-.4 1.1 0 2.4 1 3.2.2.2-.1.4-.3.3-1-1-1.5-2.3-1.1-3.6z" fill="#42210B" fill-rule="nonzero"/><path d="M77.8 10l-1.4 1.3c.2-.5.2-1 0-1.5a1 1 0 00-1.7-.2L71.5 14v-.4c-.2-.8-.6-1.5-1-2.2-1-1-1.8.3-1.7 1.5.2 1.6.8 3 .2 4.6-.4.8-1 1.6-1.7 2.2l-2 2c-.4.3-.4.7-.2 1 .2.4.6.6 1 .5v.9c.2.2.5.4.9.4 0 .8.9 1.5 1.5.7 1.5-1.8 3.1-3.5 5-5l5.6-3.8c1-.7.1-2.3-.9-1.6l-.1.1 1.6-1.3c.8-.6-.3-2-1.1-1.4l-.2.1-.6.4.7-.7c.5-.4.8-1 .8-1.5a1 1 0 00-.6-.8 1 1 0 00-1 .2z" fill="#F9C882" fill-rule="nonzero"/><path d="M72 14.9c0-.1-.1-.1-.2 0v.3a3 3 0 01.8 3.2c-.1.3.3.4.4.1.4-1.2 0-2.7-1-3.6zM76.3 11a58 58 0 00-3.2 3.3c-.1.2.2.4.3.2l3.2-3.3c.2-.2 0-.5-.3-.3zM78.3 12.2l-3.8 3c-.2.1.1.4.3.2l3.8-2.9c.2-.2-.1-.4-.3-.3zM78.6 14.4l-3.3 2c-.2.2 0 .5.2.4l3.3-2c.2-.2 0-.5-.2-.4z" fill="#42210B" fill-rule="nonzero"/><path d="M51.8 32.5s8 31.3 8.3 36.1l2.7 30.8s-7 3.7-12 2L46.3 69 42 38s8-7.8 10-5.6z" fill="#174399" fill-rule="nonzero"/><path d="M36.7 40C31 63 29.9 85.1 27 105.3c4.5 3 10.6 2.5 14.7-1 1.9-20.6 6.8-44.9 7.5-65.5l-12.6 1z" fill="#174399" fill-rule="nonzero"/><path d="M14.4 15.5a37.4 37.4 0 0015.3 3A74 74 0 0045 14.8c.7-.2 8-3 10.6-.6 2.7 2.3 2 9.9 2 9.9l9.8-8.2c3.6 1.2 5 4.9 5.4 8.5l-.4.4-2.1 2.3c-3.3 3.5-7 7.6-11.6 9-2 .6-4 .5-5.7-.3-1.4-.5-3.4-2.1-5-1.6-.4.2-.7.4-1.2.4-1.1-.1-2.6-1.9-3.7-2.4-2.9-1.5-6.3-1.7-9.6-1.9-3.5-.1-7-.5-10.5-1.2-1-.1-11.8-2.8-12-2.4 1.7-3.5 2.9-7.3 3.4-11.2z" fill="#FFF" fill-rule="nonzero"/><path d="M52.6 8.4c.7 3.3 0 7.8-3.6 8.4-4.6.6-5.8-2.4-5.6-6.3.2-3 1.9-7.7 6-6.4 1 .4 2 1.2 2.4 2.1.4.7.6 1.4.8 2.2z" fill="#F9C882" fill-rule="nonzero"/><path d="M52.8 9.1c2-1 3-3 3-5-.3-2-2.3-4.7-4.6-3.7-1.6.7-1.2.7-1.2.7-.8-.8-2-1.3-3.1-1-2.2.1-2.6 1.5-2.6 1.5s-2.5.8-3.2 2.3c-.8 1.8 1 7 1.8 8.6.8 1.5 1.3-1.6 1.6-2.8a3 3 0 011.8-2.2c1.4-.4 2 .8 3.2 1.3a4 4 0 003.3.3z" fill="#42210B" fill-rule="nonzero"/><path d="M44 41.2c-2.5 0-5-.4-7.3-1.3l-.5-15.2 18.7 8.6-1.5 7c-3 .8-6.2 1.1-9.4.9z" fill="#FF7EAC" fill-rule="nonzero"/><path d="M53.5 40c1.1-4.4 1.8-8.8 2.1-13.2 0-.6 1-.6 1 0-.4 4.5-1.1 9-2.2 13.4-.2.5-1 .3-.9-.3z" fill="#42210B" fill-rule="nonzero"/><ellipse stroke="#42210B" stroke-width=".5" cx="52.4" cy="11.2" rx="1.9" ry="2.1"/><ellipse stroke="#42210B" stroke-width=".5" cx="47.4" cy="11.7" rx="1.9" ry="2.1"/><path stroke="#42210B" stroke-width=".5" d="M50.5 11.6l-1.2.1M45.5 11.7l-2.3-1.8"/></g><path d="M234.4 131.6l4.3 1.5c.2.1.1.5-.1.4a51.7 51.7 0 00-4.5-1.7l.3-.2zM233.5 133.6l5.1.6c.3 0 .2.3 0 .3l-5.2-.6c-.3 0-.2-.4 0-.3zM234.3 135.7l4.3.1c.3 0 .3.4 0 .4a63 63 0 01-4.3-.2c-.2 0-.2-.3 0-.3z" fill="#42210B" fill-rule="nonzero"/><path fill="url(#b)" fill-rule="nonzero" style="mix-blend-mode:multiply" d="M278.2 199.4l-47.8 22.4 14.3 8 43.8-24.6z"/><g transform="translate(114.3 208.3)" fill-rule="nonzero"><path fill="url(#c)" style="mix-blend-mode:multiply" d="M27.2 53.4L0 69.3l17.5 9.9L44 64.7z"/><ellipse fill="#F5B008" cx="29.5" cy="56.3" rx="19.2" ry="13.4"/><ellipse fill="#974C26" cx="29.5" cy="48.6" rx="14.5" ry="5.7"/><path d="M30.4 48.6A78.2 78.2 0 0038 36.4a47.6 47.6 0 005.3-14.7 66.3 66.3 0 00.5-2.3v-.6l.2-4.3c0-5-.9-10-2.8-14.5a62.3 62.3 0 00-10.4 26.3l-.2 1.4-.1 1.3a84.7 84.7 0 000 19.6zm6.1-39l1-1.2v1l-1 .2z" fill="#999A1C"/><path d="M30.8 48.6a120.5 120.5 0 00-.3-14.3A56.2 56.2 0 0026 16.9l-.3-.6-2.2-3.7A36.5 36.5 0 0013.1 1.9a61.2 61.2 0 005.6 27.7l.6 1.3.6 1.2a65 65 0 005 8.5c1.9 2.8 3.8 5.4 5.9 8zm-16.4-36c0-.6.1-1 .3-1.6 0 .3.2.6.5.9l-.8.6z" fill="#999A1C"/><path d="M31 49.6a61.3 61.3 0 00-8.2-11.5 37 37 0 00-3.9-3.5l-1.1-.9h-.1l-.4-.3c-.8-.4-1.6-1-2.4-1.3a24 24 0 00-9.3-2.5c2.9 5 6.8 9.4 11.5 12.8l.9.6.7.5.7.5 1.2.6a60.5 60.5 0 0010.3 5zM9.7 35.1l-.3-1c.1.2.3.3.5.3a2 2 0 00-.2.6z" fill="#999A1C"/><path d="M30.4 48.6A78.2 78.2 0 0038 36.4a47.6 47.6 0 005.3-14.7 66.3 66.3 0 00.5-2.3v-.6l.2-4.3c0-5-.9-10-2.8-14.5a62.3 62.3 0 00-10.4 26.3l-.2 1.4-.1 1.3a84.7 84.7 0 000 19.6zm6.1-39l1-1.2v1l-1 .2z" fill="#5B8C24"/><path d="M30.8 48.6a120.5 120.5 0 00-.3-14.3A56.2 56.2 0 0026 16.9l-.3-.6-2.2-3.7A36.5 36.5 0 0013.1 1.9a61.2 61.2 0 005.6 27.7l.6 1.3.6 1.2a65 65 0 005 8.5c1.9 2.8 3.8 5.4 5.9 8zm-16.4-36c0-.6.1-1 .3-1.6 0 .3.2.6.5.9l-.8.6z" fill="#999A1C"/><path d="M31 49.6a61.3 61.3 0 00-8.2-11.5 37 37 0 00-3.9-3.5l-1.1-.9h-.1l-.4-.3c-.8-.4-1.6-1-2.4-1.3a24 24 0 00-9.3-2.5c2.9 5 6.8 9.4 11.5 12.8l.9.6.7.5.7.5 1.2.6a60.5 60.5 0 0010.3 5zM9.7 35.1l-.3-1c.1.2.3.3.5.3a2 2 0 00-.2.6z" fill="#80CA00"/></g><path d="M30.9 116.4V167c0 1 .5 2 1.4 2.4 1 .5 2 .5 3 0l71.9-40.5c.9-.5 1.4-1.4 1.4-2.4V75.3c0-1-.5-2-1.4-2.4a3 3 0 00-2.8 0L32.9 113a4 4 0 00-2 3.4z" fill="#ED1C24" fill-rule="nonzero"/><path fill="#FFF" fill-rule="nonzero" d="M41.2 115.8v44.5l60-33.8V82z"/><path d="M41.2 159.3l14.4-30.7a6.6 6.6 0 018.5-3.2l7 3L85 106.2a4.6 4.6 0 016.5-1.3l9.7 7.1v14l-60 33.4z" fill="#ED1C24" fill-rule="nonzero"/></g></svg>