<svg width="323" height="325" xmlns="http://www.w3.org/2000/svg"><defs><linearGradient x1="68.9%" y1="41.3%" x2="23.6%" y2="59.6%" id="a"><stop stop-color="gray" offset="0%"/><stop stop-color="#FFF" offset="100%"/></linearGradient><linearGradient x1="22.3%" y1="70.8%" x2="64.8%" y2="20.3%" id="b"><stop stop-color="#2D8CFF" offset="0%"/><stop stop-color="#1E61B2" offset="100%"/></linearGradient><linearGradient x1="38.3%" y1="60.8%" x2="62.2%" y2="39.5%" id="c"><stop stop-color="#2D8CFF" offset="0%"/><stop stop-color="#1D559A" offset="100%"/></linearGradient><linearGradient x1="35.2%" y1="58.6%" x2="65.4%" y2="37.4%" id="d"><stop stop-color="#2D8CFF" offset="0%"/><stop stop-color="#1A559D" offset="100%"/></linearGradient></defs><g transform="translate(-830 -759)" fill="none" fill-rule="evenodd"><g transform="translate(830 759)"><path d="M177.2 191.3a4 4 0 011.8 3.4 4 4 0 01-1.7 3.4l-83.5 51.4c-3.5 2-7.6 2-11-.1L4 199.3c-1.3-.8-2-2.2-2-3.8 0-1.6.7-3 2-3.8l83.8-52.9c1.8-1 4-1 5.7 0l83.7 52.5z" fill="#2273D5" fill-rule="nonzero"/><path d="M80.3 192C67.9 199.8 59 205 40 216.8c14.4 9.5 25.6 18.2 27.2 19.2l42.8-27.2c-3.3-1.8-14.3-8.6-29.7-16.8z" fill="url(#a)" fill-rule="nonzero" style="mix-blend-mode:multiply"/><path d="M197 175V73.6c0-1.5-.7-3-1.9-3.7-7.7-4.9-95-59-112-69.5-.3-.3-.7-.3-1.1-.3l-4 2.2c.7.5 1.6.8 2.5.7V11l.2 96.3c0 2 73 46 74.6 47l36.8 23c-1.2 1-1.8 2.5-1 2.7.9.2 3-1.1 4.2-2 .3 0 .5-.3.8-.5.6-.6 1-1.5.9-2.4z" fill="#F5B008" fill-rule="nonzero"/><path d="M197 175V73.6c0-1.5-.7-3-1.9-3.7-7.7-4.9-95-59-112-69.5-.3-.3-.7-.3-1.1-.3l-4 2.2c.7.5 1.6.8 2.5.7V11l.2 96.3c0 2 73 46 74.6 47l36.8 23c-1.2 1-1.8 2.5-1 2.7.9.2 3-1.1 4.2-2 .3 0 .5-.3.8-.5.6-.6 1-1.5.9-2.4z" fill="#3795A5" fill-rule="nonzero"/><path d="M77 3.8a2 2 0 011-1.6c.5-.3 1.1-.3 1.7 0L192 71.8c1.2.8 1.9 2.2 1.9 3.7v101.4c.1 2-2 4-3.8 2.9L152.1 156c-1.5-1-74.9-45-74.9-47l-.2-96V3.7z" fill="#F5B008" fill-rule="nonzero"/><path fill="#FFF" fill-rule="nonzero" d="M89 68v37.8l43 27.2V95.2zM135 97v37.8l43 27.2v-37.8zM89 27v37.8L132 92V54.2zM135 55v37.8l43 27.2V82.2z"/><ellipse fill="#3795A5" fill-rule="nonzero" transform="rotate(-19.6 110.3 56.9)" cx="110.3" cy="56.9" rx="5.1" ry="8"/><path d="M98 70.8s2.8-10.8 10.1-8.5c7.3 2.4 11.9 9 11.9 22.7" fill="#3795A5" fill-rule="nonzero"/><ellipse fill="#3795A5" fill-rule="nonzero" transform="rotate(-19.6 155.5 85.1)" cx="155.5" cy="85.1" rx="5.1" ry="8"/><path d="M144 98.8s2.8-10.8 10.1-8.5c7.3 2.4 11.9 9 11.9 22.7" fill="#3795A5" fill-rule="nonzero"/><ellipse fill="#3795A5" fill-rule="nonzero" transform="rotate(-19.6 108.6 97.3)" cx="108.6" cy="97.3" rx="5.1" ry="8"/><path d="M96 110.8s2.8-10.8 10.1-8.5c7.3 2.4 11.9 9 11.9 22.7" fill="#3795A5" fill-rule="nonzero"/><ellipse fill="#3795A5" fill-rule="nonzero" transform="rotate(-19.6 152.4 125.3)" cx="152.4" cy="125.3" rx="5.1" ry="8"/><path d="M141 138.8s2.8-10.8 10.1-8.5c7.3 2.4 11.9 9 11.9 22.7" fill="#3795A5" fill-rule="nonzero"/><path d="M90.1 160.5a14 14 0 00-12.1-3.1c-4.8 1.1-9 4.5-13.8 5.3-.8.2-3.8 0-4.3.4C46.4 177.5 84.2 176 84.2 176L95 165.9c-1.1-2.8-3-3.9-4.9-5.4zM72.5 181.2L71 223.8c0 1.6 2.4 1.6 2.5 0l1.5-42.6c0-1.6-2.5-1.6-2.5 0zM101.6 204.8c-7.2-7.4-14-15.3-20.6-23.4-1-1.2-2.7.6-1.7 1.8 6.5 8.2 13.4 16 20.6 23.5 1.1 1 2.8-.7 1.7-1.9zM63.8 177.6A654.7 654.7 0 0048 212.1c-.6 1.4 1.4 2.7 2 1.3 5-11.7 10.2-23.2 15.7-34.5.8-1.4-1.3-2.7-2-1.3z" fill="#F8997C" fill-rule="nonzero"/><path d="M98.2 151s5 1.1 6.2 2.4c1.2 1.3 3 6.5 2.5 8-.5 1.7-2-.8-2.6-1.8-.7-1.1-1.5-2.1-2.4-3-1.7.2-3.4 0-5-.8" fill="#FCBF81" fill-rule="nonzero"/><path d="M101 197.6c.7-.8 1.2-1.6 1-2.5-.5-1.5-2.6-2.2-4-2-1.3 0-2.8.7-4.2 1.2-1.4.5-3 .7-4.6.6a1 1 0 01-.6-.4c-.9-.2-1.6-.9-1.9-1.8l-4.6-1.7-1.1 10.8c.3 5.4 8.1 2.3 8.1 2.3l.4-2.8c0-.3 3 .7 4.3.5l1.6-.8c1-.5 1.8-1.1 2.7-1.7 1-.5 2-1 2.8-1.7z" fill="#E55600" fill-rule="nonzero"/><path d="M84.2 159.3l-5.2.7c.7 11.7 1.5 23.3 2.4 35 4.5 2 6.3 1 9.1-2 .6-11.1 1.5-22.8 1.5-34l-7.8.3z" fill="#34323D" fill-rule="nonzero"/><path d="M66 156s-.7 12.7 5.2 15.5c5.8 2.8 18 1.4 23.8-2.3 3.1-2 6.3-3.8 9.7-5.3 0 0 1.5-5.5-2.2-7.9-3.7-2.4-11.9-5.3-19.2 0" fill="#34323D" fill-rule="nonzero"/><path d="M90.6 121l.6-1.3.2.2.2-.1.5-.8v.3c0 .4.4.7.8.6.2 0 .4-.1.5-.3.2-.2.2-.4.2-.6l.2-.3v.2c0 .3.2.4.4.5.3 0 .5 0 .6-.2l.3-.2h.4l1.9-.8-.2-.2v-.3a18.5 18.5 0 012.4-1.6v-.1c.2-.6.2-1.3 0-1.9.3-.5.5-1.1.3-1.7h-.1l-.3-.4a2 2 0 01-.3-.6v-.3l-.9-1.2c.8-1.3 1.1-2.8 1-4.3 0-.3-.2-.5-.5-.6-.2 0-.5 0-.7.3l-.7 1.5-.2.2a82 82 0 01-4.2 7.7c-.2.4-3.4 4.9-3 5 0 .2-2.6 6.3.6 1.3zm1.8-1.9h.2c.2.1.4.2.6.1 0 .2 0 .3-.2.4h-.4a.5.5 0 01-.2-.4z" fill="#FCBF81" fill-rule="nonzero"/><path d="M91.4 119.3c.7-.6 1.3-1.3 1.7-2 .2-.4.5-.7.9-.8.3-.1.7 0 1 .1l.1-1.1c0-2 3-2 2.9 0 0 1.5-.3 3-1.1 4.4a12 12 0 01-3.2 2.9c-.4.3-.9.3-1.3 0-.5-.2-.8-.7-.8-1.2h-.2c-.2-.4-.4-.8-.4-1.2 0-.4.1-.8.4-1z" fill="#FCBF81" fill-rule="nonzero"/><path d="M95.2 121a6 6 0 002.4-3.5H98l1-.8.7-.5c.4-.6 0-1.2-.1-1.8h-.1l.2-.3c.2-.4.4-1 .4-1.5-.1-.5-.6-.8-.8-1.3.1-.5-.2-1-.6-1.2-.6-.3-1 .2-1.3.6l-2 3c0 .3.2.5.3.3a52.8 52.8 0 012.2-3.4c1.3-.7 1 1 .8 1.6l-.4.8-1 1.7v.2c.6 2.2-.3 4.5-2.1 5.7-.2.2 0 .5.1.4zm2.6-6h-.2v-.2c.6-.9 1.2-1.9 1.6-3l.2.4c.3.4.3.8 0 1.2-.2.6-.9 2-1.6 1.6zm-.1 2.2v-1.9c.6.3 1.1 0 1.5-.6l.2.7c0 .4 0 .7-.3.8l-1.4 1z" fill="#34323D" fill-rule="nonzero"/><path d="M77 127s8 .3 10-1.7c2.2-2 5.2-8.3 5.2-8.3s5.5 3.7 5.8 5.8c.2 2.2-5.8 12.5-8.5 13.2" fill="#BA3E00" fill-rule="nonzero"/><path d="M114 205.6c.7-.8 1.2-1.6 1-2.5-.5-1.5-2.6-2.2-4-2-1.3 0-2.8.7-4.2 1.2-1.5.5-3 .7-4.6.6a1 1 0 01-.6-.4c-.9-.2-1.6-1-1.9-1.8l-4.6-1.7S94 209 94 209.8c.3 5.4 8.2 2.3 8.2 2.3l.3-2.8c0-.3 3 .7 4.3.5l1.6-.8c1-.5 1.8-1.1 2.7-1.7 1-.5 2-1 2.8-1.7z" fill="#E55600" fill-rule="nonzero"/><path d="M96 156.7c-1.5-.8-3.2-.7-5-.7l.3 9.6.1 1.1 2.4 36.3c4.3 2 6.1 1 8.8-2 .6-12.8 1.7-26.4 1.3-39.2-2.5-2.7-4.8-3.5-8-5.1z" fill="#34323D" fill-rule="nonzero"/><path d="M65.5 153.9l.1 2.6c2.5 3.6 5.5 5.6 10.3 5.5 3.8-.1 7-2 10-4.2a239 239 0 00-3.2-29.5c-.1-.7-2-1.2-2.5-1.6-1.3-.7-.5-2-1.8-2.8A40.9 40.9 0 0073 121c-3.2 0-8.4 2.5-8.8 7-.4 6.8.3 11 .7 17.7l.7 8.2z" fill="#E55600" fill-rule="nonzero"/><path d="M76.3 108.4c.4 0 3.7 8.4 2.4 13.5-1.3 5-9.2-.2-11.2-4-2-3.9 1.3-11.7 8.8-9.5z" fill="#FCBF81" fill-rule="nonzero"/><path d="M76.7 109.3s0 2.7-2.2 3.5c-2.3.9-4.2 1.5-4.1 2.6.1 1.1 4.1-.1 4.1 2.4 0 1.7-.2 3.3-.6 5-.3 1.2-7.1-2.6-9.4-9a5.8 5.8 0 013.7-8.2c.2 0 .8-1.8 3.6-2.4 2.7-.6 3.5.5 3.5.5 1.3-.8 3-.6 4 .4 2.6 2.1 2 6-1 7.6l-1.6-2.4z" fill="#34323D" fill-rule="nonzero"/><path d="M78 135.4s8.2 16.4 12.8 17.8c3.2 1 6.6 1.5 10 1.8 0 0 .5-4.5 0-6.5 0 0-7.4-3.6-8-5.7-.8-2.2-7-17.2-13.9-18.8" fill="#E55600" fill-rule="nonzero"/><path d="M85.3 147.6L79 140l7 15-.7-7.4z" fill="#34323D" fill-rule="nonzero"/><path d="M94.5 165.7a17.5 17.5 0 01-8.6 7c-4.9 1.6-12 .8-14.5-4.7-4.7-10.2-.3-22.9-5.2-32.7a9.3 9.3 0 00-5.7-5.2c-3.2-.7-5.4 1.9-6.6 5-2 5.5-2 12.4-1.9 18.3 0 4.7.3 9.5 1 14.2 0 0 3 19.8 26.2 14.5 4-.8 7.9-2.4 11.4-4.6 1.8-1.2 3.4-2.7 4.7-4.6 1.4-2.2.5-4.9-.8-7.2zM17.4 173.2a25.5 25.5 0 00-4.4 16.2c.6 9.5 5.4 12.2 5.4 12.2l5.6.4s6.8-2.5 5.9-14.7c-.8-11.6-4.2-14.3-4.2-14.3" fill="#F5B008" fill-rule="nonzero"/><ellipse fill="#003B94" fill-rule="nonzero" cx="21.5" cy="173.5" rx="4.5" ry="1.5"/><ellipse fill="#F5B008" fill-rule="nonzero" cx="21.5" cy="200.5" rx="4.5" ry="1.5"/><path d="M20 173.3l-5-31.9c-.2-.7-1.1-.4-1 .3l5 31.9c.1.7 1 .4 1-.3zM21 173.7h.3c.2 0 .3.1.4.3.3-8.8.4-17.6.2-26.5 0-.7-.8-.7-.8 0 .2 8.7.2 17.5-.1 26.2zM32 142.4a314.7 314.7 0 00-10 31c0 .2.1.5.4.6.2 0 .5 0 .6-.4 2.8-10.5 6-20.8 10-31 .2-.6-.8-.9-1-.2z" fill="#007F68" fill-rule="nonzero"/><path d="M16 155.3s-.5 0-2.8-2.9c-2.3-2.8.6-4.9-.8-8-1.3-3.1.6-7.3 1-10.4a16 16 0 002 6.1c1.8 3 2.7 5.5 2.6 9.1-.2 2.3-.5 4.6-1 6.8M20.9 160s-.6-.1-2.4-3.4c-1.8-3.4 1.8-4.6 1-8-.6-3.3 2.4-6.7 3.6-9.6-.3 2.2 0 4.4.7 6.4 1.2 3.3 1.6 6 .6 9.4a32 32 0 01-2.7 6.2" fill="#007F68" fill-rule="nonzero"/><path d="M26.8 154s-.5-.4-1.6-4c-1.1-3.5 2.6-4 2.6-7.4 0-3.4 3.5-6 5.2-8.6-.7 2-.9 4.2-.6 6.4.5 3.3.4 6-1.3 9.2-1 2-2.3 3.7-3.7 5.4" fill="#007F68" fill-rule="nonzero"/><path d="M83 55.9v27.7c0 .8-.5 1.6-1.1 2-.7.5-1.6.5-2.3 0L53.1 69.4a2.5 2.5 0 01-1.1-2.1V39.4c0-.8.4-1.6 1.1-2 .7-.5 1.5-.5 2.2 0l26.5 16.4c.7.4 1.2 1.2 1.2 2z" fill="#8EA3FF" fill-rule="nonzero"/><path fill="#8EA3FF" fill-rule="nonzero" d="M77 84.4L88 91l-5.5-14"/><path d="M55.6 51.5L77 64.8c.6.4 1.4.2 1.7-.5.3-.6.2-1.4-.4-1.8L56.8 49.2c-.6-.4-1.3-.2-1.7.5-.3.6-.1 1.4.5 1.8zM55.6 59.5L77 72.8c.6.4 1.4.2 1.7-.5.3-.6.2-1.4-.4-1.8L56.8 57.2c-.6-.4-1.3-.2-1.7.5-.3.6-.1 1.4.5 1.8z" fill="#F2F2F2" fill-rule="nonzero"/><ellipse fill="#2D8CFF" fill-rule="nonzero" cx="206" cy="260.5" rx="117" ry="64.5"/><path fill="url(#b)" fill-rule="nonzero" d="M137.3 224L107 239.9l5.3 18.1 38.7-29.6"/><path fill="url(#c)" fill-rule="nonzero" d="M230.6 207L180 237.5l53.3 30.5 51.7-29.3"/><path d="M282.4 104.7l-43.3-28a4.8 4.8 0 00-4-.4h-.1l-1 .5-4 2 2.2 1 1.3 121.6c0 4.4 2.1 8.4 5.6 10.6l40.3 25.8-.6 4.2 5.5-3.2c1-.6 1.7-1.9 1.7-3.2V111.5a8 8 0 00-3.6-6.8z" fill="#F5B008" fill-rule="nonzero"/><path d="M282.4 104.7l-43.3-28a4.8 4.8 0 00-4-.4h-.1l-1 .5-4 2 2.2 1 1.3 121.6c0 4.4 2.1 8.4 5.6 10.6l40.3 25.8-.6 4.2 5.5-3.2c1-.6 1.7-1.9 1.7-3.2V111.5a8 8 0 00-3.6-6.8z" fill="#3F3D56" fill-rule="nonzero" opacity=".3"/><path d="M276.9 241.5l-42.3-26.8a12.5 12.5 0 01-5.6-10.6V81.3c0-1.2.6-2.3 1.5-2.9 1-.6 2-.5 3 0l45 29a8 8 0 013.5 6.7v124.2c0 1.3-.7 2.5-1.7 3.2-1 .7-2.4.7-3.4 0z" fill="#F4F4F4" fill-rule="nonzero"/><path fill="#FFF" fill-rule="nonzero" d="M279 122l-48-30v107.7l48 30.3z"/><path d="M231.8 138.8l-.8 60.8 48 30.4v-75.8c0-.8-1.9-1.3-2.4-1.4-2.6-.5-6.2 0-8 2.4-2.2 2.7-2.9 6.7-4 10-.8 2.7-2 6.3-4.7 7-9.2 2.5-5.5-39.9-13.1-43.7-13.3-6.5-15 10.3-15 10.3" fill="#F5B008" fill-rule="nonzero"/><path d="M242 188v6.6c0 .5-.2 1-.6 1.2-.4.3-.9.3-1.2 0l-5.6-3.4c-.4-.2-.6-.7-.6-1.2v-6.8c0-.5.2-1 .6-1.2.4-.3.9-.3 1.3 0l5.5 3.6c.4.2.6.7.6 1.1z" fill="#FFAC99" fill-rule="nonzero"/><path d="M184 136a36.8 36.8 0 00-10.2 15.7c-3.5 10.3 5.4 27.3 5.4 27.3l13.8-11.5" fill="#FF8F6F" fill-rule="nonzero"/><path d="M183.5 272.9l2.6-1.6c2.1-1.2 5.2-2.5 6.5-4.8.6-1 .5-2.2-.1-3.1-2-2.5-6.2 1.6-8.4-1.2-.4-.5-.6-9.2-.6-9.2l-8.3 2.4s-1.4 17.4-1.2 18.5c.2 1 3 2.1 3 2.1a7 7 0 002.4-1c.8-.7 0-8.8 1.2-7.7 1 1.1 1.5 5.6 1.5 5.6h1.4z" fill="#F5B008" fill-rule="nonzero"/><path d="M171.4 225l-2.4 34.5s3.9 5.7 16.9 2.5v-23.2M186.1 232c-.3 3 0 35.8 0 35.8s3.5 7.2 18.9 0l-.2-27.9" fill="#EE6300" fill-rule="nonzero"/><path d="M171 236c1 .8 1.4-3.3 2.4-2.6 4 2.5 8 4.6 12.3 6H186.5c.2 0 .4.2.5.5 2.6.8 5.3 1.5 8 2 3.5.6 6.4-2.2 10-2.4 0-15.3 0-58.9-5.8-68l-17.3-6.5c0 1.6-8.4 12.3-8.2 25.4.2 14.7-1.5 28.6-1.8 33.2l-1 12.4z" fill="#EE6300" fill-rule="nonzero"/><path d="M201 154l-1.7 18s-13.5.6-19.3-3.8V153" fill="#FF8F6F" fill-rule="nonzero"/><path d="M224.1 137.9l-1.4 2c.8-1.6 1.5-3.3 2-5 .4-1.2-1.4-1.6-1.8-.5l-.2.6.5-1.9c0-.5-.2-1-.7-1a1 1 0 00-1.1.6 52 52 0 01-1.4 4.8l.7-4.3c0-1.2-1.8-1.2-1.9 0-.2 1.7-.5 3.3-.9 4.9l-.1-1.7a1 1 0 00-.4-.7 9 9 0 00-.2-.6 1 1 0 00-1-.7 1 1 0 00-.8 1l-.1 7.3-1.3 2a32.7 32.7 0 014.7 4.3 159.6 159.6 0 007.1-10.1c.7-1-1-2-1.7-1z" fill="#FFB5A9" fill-rule="nonzero"/><path d="M195 135s6.4 1.8 9 6.2c1.6 3 3 6.2 4.3 9.4l4.7-7.8s5.7 2 8 5c0 0-6.8 15.7-12.7 17-6 1.4-12.2-9.3-12.2-9.3s-1.3 4.5-1-.3" fill="#FF8F6F" fill-rule="nonzero"/><path d="M199 154.7c-1.4-2-2.2-4.5-2.4-7 0-3 1.5-5 3-7.2s2.8-4.6 3.6-7.2c.7-2.6 1.1-5.3 1.7-8v-.2c0-3.2-1-6.2-4.2-7.4-8.2-3.4-11.3 6.6-12.3 10.7s-1.3 7-4.6 7.9c-3.2.8-6.4 4.7-4.7 9.2 1.7 4.4-.3 2.3-3 5-2.6 2.7-3.1 6.9.1 9.4 3.3 2.6 21 5 23 3.8.8-.5 1.3-1.4 1.5-2.3.3-2.4-.5-4.6-1.8-6.7z" fill="#007F68" fill-rule="nonzero"/><path fill="#ADE000" fill-rule="nonzero" d="M231 92v25.7l11 7.3V98.7L231 92"/><path d="M141.4 202.3a25.5 25.5 0 00-4.4 16.1c.6 9.5 5.4 12.2 5.4 12.2l5.7.4s6.7-2.5 5.8-14.7c-.8-11.6-4.2-14.3-4.2-14.3" fill="#F5B008" fill-rule="nonzero"/><ellipse fill="#003B94" fill-rule="nonzero" cx="145.5" cy="202.5" rx="4.5" ry="1.5"/><ellipse fill="#F5B008" fill-rule="nonzero" cx="145.5" cy="229.5" rx="4.5" ry="1.5"/><path d="M144 203.3l-5-31.9c-.2-.7-1.1-.4-1 .3l5 32c.2.6 1.1.3 1-.4zM145 202.7h.3c.2 0 .3.1.4.3.3-8.8.4-17.6.2-26.5 0-.7-.8-.7-.8 0 .2 8.7.2 17.5-.1 26.2zM156 172.4a314.5 314.5 0 00-10 31c0 .2.1.5.4.6.2 0 .5 0 .6-.4 2.8-10.5 6.1-20.8 10-31 .2-.6-.8-.9-1-.2z" fill="#007F68" fill-rule="nonzero"/><path d="M140 184.3s-.5 0-2.8-2.9c-2.3-2.8.6-4.9-.7-8-1.4-3.1.5-7.3 1-10.4a16 16 0 002 6.1c1.7 3 2.6 5.5 2.5 9.1-.2 2.3-.5 4.6-1 6.8M144.9 189s-.6-.1-2.4-3.4c-1.8-3.4 1.8-4.6 1.1-8-.7-3.3 2.3-6.7 3.5-9.6-.3 2.2 0 4.4.7 6.4 1.2 3.3 1.6 6 .6 9.4a32 32 0 01-2.6 6.2M152.8 183s-.5-.4-1.6-4c-1.1-3.5 2.6-4 2.6-7.4 0-3.4 3.5-6 5.2-8.6-.7 2-.9 4.2-.6 6.4.6 3.3.4 6-1.2 9.2-1.1 2-2.4 3.7-3.8 5.4M235.2 107l3.3 1.4s1.2-1.7.7-2.5a3.6 3.6 0 00-4-1.8c-2 .5-1.7 3.9-2.7 4.6-1 .6-1.9 2-1.4 3 .8 1.6 2 2.6 1.2 3.3-.8.8-1.7.2-.8 1 .8 1 8.4 4.3 8.5 2.4 0-1.8-2.3-3-1.2-3.9 1-.8 1.5-1.7.9-2.6-.6-1-.6-2 0-3 .3-.7.3-1.6 0-2.3-.4-.8-1-1.3-1.9-1.4" fill="#007F68" fill-rule="nonzero"/><path d="M231 115.1s.8-6 3-6.1c2.2 0 5.1 1.5 5.4 2.7.3 1.2.7 5.3.7 5.3l1.9-4v7.5l-2.6 2.5-8.4-5.7v-2.2z" fill="#FF8F6F" fill-rule="nonzero"/><path d="M236.3 106c-.7.4-1.5.7-2.3.8v.4c0 1.6 1 2.8 2 2.8s2-1.2 2-2.8v-.2c-.7-.2-1.3-.5-1.7-1z" fill="#FFDDB0" fill-rule="nonzero"/><g fill-rule="nonzero"><path d="M231 65v28c0 .9-.5 1.7-1.1 2.1-.7.5-1.6.5-2.3 0l-26.5-16.5a2.5 2.5 0 01-1.1-2.2v-28c0-.8.4-1.6 1.1-2 .7-.5 1.5-.5 2.2 0l26.5 16.5c.7.4 1.2 1.3 1.2 2.1z" fill="#8EA3FF"/><path d="M205.3 61.8l19.6 12c.6.3 1.3 0 1.6-.6.3-.6.1-1.3-.4-1.7l-19.5-12.1c-.6-.3-1.4-.1-1.7.5-.4.7-.2 1.5.4 1.9zM204.8 69l19.6 12c.6.3 1.3.1 1.7-.5.3-.7.1-1.5-.4-1.9l-19.7-12c-.6-.4-1.3-.2-1.7.5-.3.6-.1 1.4.5 1.8z" fill="#F2F2F2"/><path fill="#8EA3FF" d="M211.6 84.5l15 19.8-.2-10.4z"/></g><g transform="translate(0 274)" fill="#2D8CFF"><ellipse cx="11.6" cy="2.5" rx="11.6" ry="2.5"/><ellipse cx="33.1" cy="2.5" rx="7.4" ry="2.5"/><ellipse cx="53.4" cy="2.5" rx="11.6" ry="2.5"/><ellipse cx="77" cy="2.5" rx="8" ry="2.5"/></g><path d="M44 244.4a2.7 2.7 0 013.4 1.8h0l1.2 6.7c.4 1.6 0 3.2-1.2 4.5a1.8 1.8 0 01-3-.7h0L42 248a3 3 0 012-3.6z" stroke="#3B3B3B" fill="#3B3B3B"/><path d="M51.3 246.8c.7-.3 1.4-.3 2.1.1.8.4 1.3 1 1.4 1.8.2.7 0 1.7-.3 2.8a67.7 67.7 0 00-6.3 12.3c-1 2.9-1.1 5-.2 6.1.4.5 1 .8 1.7 1 .8.1 1.8 0 3-.2 2.5-.6 5.8-2.1 9.9-4.5.9-.4 1.7-.4 2.4-.2.7.3 1.4.8 2 1.6.4.5.5 1 .4 1.4-.1.5-.4 1-1 1.4-.8.8-2.4 1.6-4.7 2.4-5 2.2-9.1 3.4-12.3 3.6-3.3.3-5.6-.5-7-2.3-1.4-1.8-1.5-4.9-.3-9.3a84 84 0 017.4-16.4 4 4 0 011.8-1.6z" stroke="#FF6C6C" fill="#FF6C6C"/><path d="M63.5 246.2c.7-.2 1.3-.3 1.7-.1.8.7.8 1 .8 1.3 0 2.2-4.6 7.8-6 9-1 1-2.5 1.4-4.4 1.3H55c0-.2 0-.4.2-.7 1.3-3.9 2.7-6.6 4-8 1.3-1.2 3-2.3 4.3-2.8zM67.2 252.6a3 3 0 011.6.6c.4.4.6.8.5 1.4-.2.8-3.6 3.8-6.6 5.7-1.3.9-2.4 1.5-3 1.6-1.3-.4-1.2-.8-.8-1.5l1.5-2.5c1.2-2 2-3.4 3.3-4.4a5 5 0 013.5-.9z" stroke="#FF6C6C" fill="#FF6C6C"/><g><path d="M29.5 255.3c.8-2.6 2.7-5.3 5.2-3.5 1.7 1.2.5 4.4-3.4 9.5 1.9 0 2.2.8 1 2.2-1.9 2.2-2.8 3.2-3.4 3.2-1.3 0-.2-8.7.6-11.4z" stroke="#3B3B3B" fill="#3B3B3B"/><path d="M34.5 261.4c1-3.5 7.3-11 6.7-7.6-.6 3.5-1.6 11.3-2.5 13.4-.9 2.2-5.6 7.4-5.7 5.4 0-2 .4-7.7 1.5-11.2z" fill="#FF6C6C"/></g><g fill="#3B3B3B" stroke="#3B3B3B"><path d="M87.3 266.6c-.3 1-1.8 4-5 5.3-2 .8-4.4 1-7.5.1a9.3 9.3 0 01-5.5-4.5c-.9-1.6-1.3-3.3-1.3-4.6 0-1 .1-1.7.3-2 1.1-.6 1.3-.3 1.6.1 1.3 2.6 4.1 4.2 6.8 4.8 2.4.5 4.1.5 5.1.1.5-.1.9-.4 1-.7.2-.2 0-.6-.1-.8-.2-.5 0-.6.2-.8.9-.5 1.8-.1 2.6.4.6.3 1.1.8 1.4 1.2.4.5.5 1 .4 1.4zM79.6 251.2c1.7.8 3 2 3.8 3.2.5.6.7 1.3.9 1.9 0 .6 0 1.2-.3 1.7-.2.4-.5.7-.8.9a2 2 0 01-1.2 0 14 14 0 01-3.6-1.6l-1.5-.8h0l-.7-.3-.9-.4c-1.4-.7-2.6-1.4-3.3-2l-.6-1c0-.5 0-.8.2-1.3.3-.5.7-.9 1.3-1.2.5-.2 1.2-.4 2-.4 1.3 0 3 .4 4.7 1.3z"/></g><g fill="#3B3B3B" stroke="#3B3B3B"><path d="M24 256a2.3 2.3 0 01-1.7 2.8h0l-5.1 1c-1.3.2-2.6-.2-3.6-1a1.5 1.5 0 01.6-2.6h0l6.8-1.9a2.4 2.4 0 013 1.7z"/><path d="M14.7 246.2h.1c.4 0 .8.2 1 .4.5.4.7 1 .8 2v.2l.6 15.9c5.7 0 9 .1 10 .4.8.9.7 1.2.7 1.5-.2.5-.6 1.2-1.2 1.8A7.9 7.9 0 0123 271c-1.6.4-3.4-.2-5.3-1.8l-.2-.2v3.3c0 1.3-.7 2.4-1.8 3.1a8 8 0 01-4.4 1.2c-1.8 0-4.2-1.1-6.3-2.5-2.5-1.6-4.3-3.5-4.4-4.6 0-.4.2-.9.9-1.4a10 10 0 012.3-1c1.8-.6 4.4-1.2 7.9-1.8l.5-.1-1-16.3c0-.6.2-1 .7-1.5a5.7 5.7 0 012.7-1.2h.2zm-4.1 23c-1 0-2 .1-2.7.5-.4 0-.6.2-.8 1 0 .2.3.4.5.5.5.2 1.2.4 2.1.4.7 0 1.7 0 2.4-.7l.2-.5-.2-.6c-.3-.4-.8-.7-1.5-.7z"/></g></g><ellipse fill="#34323D" fill-rule="nonzero" transform="rotate(-14.6 964.3 804.6)" cx="964.3" cy="804.6" rx="1.9" ry="3.5"/><path fill="url(#d)" fill-rule="nonzero" d="M1004.2 1027l-41.2 21.1 27.9 12.9 47-27"/><path d="M1077 904.7c-.2-.7-.6-1.2-1.2-1.6-.6-.3-1.3 0-1.6.5-.2.2-.2.5-.1.8-.2.8 0 1.7.6 2.3.5.4 1.2.4 1.7 0 .5-.6.7-1.3.5-2z" fill="#5A2500" fill-rule="nonzero"/><ellipse fill="#BABABC" fill-rule="nonzero" transform="rotate(-13.4 1080.3 978)" cx="1080.3" cy="978" rx="2.2" ry="3.3"/><path d="M1078 856.1c0 .5.2.8.6 1l9.7 5.7c.4.3.8.3 1.1 0 .4-.2.6-.5.6-1v-.2c0-.4-.2-.8-.6-1l-9.7-5.5c-.4-.2-.8-.1-1.2 0-.3.3-.5.6-.5 1z" fill="#CCC" fill-rule="nonzero"/><ellipse fill="#CCC" fill-rule="nonzero" transform="rotate(-20.3 1074.2 852.7)" cx="1074.2" cy="852.7" rx="1.1" ry="1.6"/><ellipse fill="#F2F2F2" fill-rule="nonzero" transform="rotate(-17.6 1097 965.7)" cx="1097" cy="965.7" rx="4.7" ry="6.8"/><ellipse fill="#C4B7B3" fill-rule="nonzero" transform="rotate(-12.3 1096.7 964)" cx="1096.7" cy="964" rx="1.7" ry="2.6"/><path d="M1100 971.1s-1-4.5-3.7-5c-2.7-.6-3.3 2.7-3.3 2.7.7 1.4 2 2.5 3.5 3 2.6.8 3.5-.7 3.5-.7z" fill="#C4B7B3" fill-rule="nonzero"/><ellipse fill="#FFF" fill-rule="nonzero" transform="rotate(-23.3 1067.6 948.7)" cx="1067.6" cy="948.7" rx="1.8" ry="2.7"/><path d="M1012.7 1032l-3.7-2.2 1-5.8s5.5.6 6 2.7M1027.7 1041l-3.7-2.2 1-5.8s5.5.6 6 2.7" fill="#003B94" fill-rule="nonzero"/><path d="M1029.5 1040.8l2.6-1.5c2.1-1.2 5.2-2.5 6.5-4.9.6-1 .5-2.1-.1-3-2-2.5-6.2 1.6-8.4-1.2-.4-.5-.6-9.2-.6-9.2l-8.3 2.4s-1.4 17.4-1.2 18.5c.2 1 3 2.1 3 2.1a7 7 0 002.4-1c.8-.7 0-8.8 1.2-7.7 1 1.2 1.5 5.6 1.5 5.6h1.4z" fill="#F5B008" fill-rule="nonzero"/><path d="M1070 915.3s4.3-1.9 8 3.6a3.7 3.7 0 01-4.3.7 10 10 0 01-3.7-4.3z" fill="#BF34AC" fill-rule="nonzero"/><path d="M1081 907.2l-2.4 5.6c-.6 1.2-.4 1.3-1 2.5-.1.4-1.7 6.2-2 6.4-.2 3.2.6-.5.6-.5-.2.8 0-.3-.2.4l-.5.8.3-2.3c0 .4-.3.7-.6.8-.3.1-.6 0-.9-.2a1 1 0 01-.3-.8l-.2 1.5c-.3 0-.2-.2-.4-.5-.2 0-.4.3-.6.2-.5 0-.6 0-.6-.6l-.4-.7c-.3 0-.7.1-.8-.3-.3 0-.5-.8-.6-1.2-1-4.2-1.4-8.5-1.4-12.9 0-1 1.5-1.4 1.8-.4l.5-2.4c0-.3.2-.6.5-.7.3-.2.7-.3 1 0 .4.1.6.5.5 1v.5c0-.9.3-1.7.5-2.6 0-.3.2-.6.5-.7.3-.2.7-.1 1 .1.2.2.3.6.3.9l-.1 1.8c.2-.3.6-1.4 1-1.3 2 .4 1 4.3.8 5.8l-.1 1.5a24 24 0 002-2.3c.7-.9 2.1-.2 1.7.6z" fill="#FFDDB0" fill-rule="nonzero"/><path d="M1071.6 905.2l.4 4.5c0 .2-.2.3-.3.3-.2 0-.3 0-.4-.2a68 68 0 01-.3-4.5c0-.3.6-.4.6 0zM1074 903.3l-.4 6.5c0 .3-.6.2-.6-.1l.4-6.5c0-.3.6-.2.6.1z" fill="#603813" fill-rule="nonzero"/><path d="M1076.8 909.3h-1.4l.9-7c0-.3-.5-.4-.6 0a78 78 0 00-.9 7.2 4.5 4.5 0 00-2.8 3.2c0 .1 0 .3.2.3.1 0 .3 0 .3-.2a4 4 0 014.2-2.9c.3 0 .4-.5 0-.6z" fill="#603813" fill-rule="nonzero"/><path d="M1078 919.4s-5.2-.4-8.5-3.4c0 0-7.6 24.2-.4 29.4 7.1 5.3 16-4.5 11.8-4.7-.4 0 1-17 1-17l-3.8 6.6-.2-11z" fill="#E055C6" fill-rule="nonzero"/><path d="M1104 931.4c-.6-2.9-1.8-6.5-4.5-7.7-2.4-.8-4.9-1.5-7.3-2-2.7-.8-5.5-1.2-8 .2-2.2 1.1-4.5 4.8-5 7.5-.7 3-.5 7.7-.5 8.3-.9 11-.4 20.7-.7 31.8 0 .5.8 1.2.8 1.2 4 3 5.1 3 9.3 5.4l7 4.3 4.7 2.7c.7.4 3.8 2.6 4.5 2.9.4-4 .7-7.9.8-11.8.7-14.2 2-28.7-1-42.8z" fill="#E055C6" fill-rule="nonzero"/><path d="M1096 919l-.5 4.2s-3.7 1.1-5.3.7c-1.6-.4 5.8-4.9 5.8-4.9z" fill="#FFDDB0" fill-rule="nonzero"/><path d="M1084.3 906c-.3.3-.2 1.7-.3 2.1v4.5c.2 3.6 0 8.4 3.3 10.5 3.9 2.7 7.8-1.3 9-5.1.5-1.6 1.3-9.4-.1-11-1.5-1.6-5.7-7.5-12-1z" fill="#FFDDB0" fill-rule="nonzero"/><path d="M1096.4 917.2c0 .6 0 1.6.4 1.8.3.2 1.6-2.1 1.8-2.4.8-1.2 1.6-2.6 2.1-4 .7-1.6 1.6-3.3 1.2-5-.2-1-.8-1.9-1.5-2.5-.2-.1-.8-.5-1-.8a7.6 7.6 0 00-2.6-3.6c-2-1.5-5.1-.1-5.1-.1-.5-.5-1-1-1.5-1.3-2.3-1-5.2.4-6.5 3.1-1.2 2.8-1 7.1 1.3 9l.2-2.8c1.2.3 2.4 0 3.7.3.8 0 1.7.4 2.4 1l.9.8c.5 1 1.3 2.6 2.4 2.8 2 .4 1.4-.1 2.3 0 .9.3-.7 2.6-.5 3.7z" fill="#603813" fill-rule="nonzero"/><path d="M1088.4 914.7l.6-2.2c0-.2-.1-.4-.3-.5-.2 0-.5 0-.5.3-.5 1.4-1 2.9-1.2 4.3 0 .8.5 1.7 1.4 1.3.5-.2.3-1-.3-.8-.5.2 0-1.3 0-1.3l.3-1zM1090.3 918.2c-.4.8-1.1 1-1.7.7-.5-.3-.8.5-.4.8 1 .6 2.1.2 2.7-1 .3-.5-.3-1-.6-.5zM1085.5 913a.5.5 0 000 1 .5.5 0 000-1zM1091.5 914a.5.5 0 000 1 .5.5 0 000-1zM1094.7 920c-.8 1.4-1.7 2.8-3.1 3.4-1.5.5-3.1.3-4.4-.7-.1-.1-.3.2-.1.3 1.3 1 3 1.3 4.5.7 1.6-.6 2.5-2 3.4-3.4.1-.2-.2-.4-.3-.2z" fill="#603813" fill-rule="nonzero"/><path d="M1093 954.5v24c0 .3.2.5.5.5s.5-.2.5-.5v-24c0-.3-.2-.5-.5-.5s-.5.2-.5.5z" fill="#751968" fill-rule="nonzero"/><path d="M902.7 1048.1c.3.5.4 1 .5 1.7V1057.5c.1 1.3 1.2 2.4 2.6 2.5h.8V1049.8c0-.6.2-1.2.5-1.7a3.4 3.4 0 015.9 0l.4 1.7v7.7c.1 1.3 1.2 2.4 2.6 2.5h.8v-10.2a6.8 6.8 0 00-11.9-4.5 6.8 6.8 0 00-9-1.1c-.6-.8-2-1.2-3-1.2v17h1c1.4-.1 2.4-1.1 2.4-2.5v-6.9l.1-.8c0-.6.2-1.2.5-1.7a3.4 3.4 0 015.8 0h0zm-67.3 11.9H849.1v-.8a2.6 2.6 0 00-2.6-2.6H838l10.2-10.2v-.8c-.1-1.5-1.1-2.5-2.5-2.6H832v.9a2.6 2.6 0 002.6 2.5h8.5l-10.2 10.2v.9c.1 1.4 1.1 2.4 2.5 2.5h0zm54-8.5a8.5 8.5 0 11-17 0 8.5 8.5 0 0117 0zm-5.3-3.9a5.1 5.1 0 11-7.2 7.2 5.1 5.1 0 017.2-7.2h0zm-17.9-2.1a8.5 8.5 0 11-12 12 8.5 8.5 0 016-14.5h0c2.2 0 4.4.9 6 2.5zm-2.7 2.1a5.1 5.1 0 11-7.2 7.2 5.1 5.1 0 017.2-7.2h0z" stroke="#2D8CFF" fill="#2D8CFF"/></g></svg>