<svg width="585" height="186" xmlns="http://www.w3.org/2000/svg"><g fill="none" fill-rule="evenodd"><g transform="translate(0 158)" fill="#FFCE33"><ellipse cx="61.5" cy="14" rx="61.5" ry="14"/><ellipse cx="175.5" cy="14" rx="39.5" ry="14"/><ellipse cx="283.5" cy="14" rx="61.5" ry="14"/><ellipse cx="408.5" cy="14" rx="42.5" ry="14"/><ellipse cx="526" cy="14" rx="54" ry="14"/></g><path d="M232 5l5-1a10 10 0 0112 8l9 42c0 3-1 6-3 8l-5 6a7 7 0 01-11-3l-14-47a10 10 0 017-13z" fill="#3B3B3B"/><path d="M265 24c6-8 11-10 18-7 7 4 8 10 4 21-33 53-44 85-34 98s37 7 81-19c8-3 15 0 20 7 6 7-3 15-27 23-52 23-86 25-100 7-13-17-1-61 38-130z" fill="#FF6C6C"/><path d="M317 28c11-11 32-21 32-10s-24 39-32 45c-5 4-12 6-21 6 7-20 14-34 21-41zM341 51c9-6 26-4 25 3-1 8-62 50-50 33 11-18 15-29 25-36z" fill="#FF6C6C"/><path d="M157 59c4-14 14-28 28-19 8 7 2 23-19 50 10 0 12 4 5 11-9 12-14 17-17 17-7 0-2-46 3-59z" fill="#3B3B3B"/><path d="M190 93c5-18 32-60 29-42s-9 59-13 70c-5 11-36 42-37 31 0-10 15-41 21-59z" fill="#FF6C6C"/><g fill="#3B3B3B"><path d="M399 143c-42-13-37-67-29-53 7 14 23 23 38 26 31 6 40-4 34-12-5-8 22 4 20 13-2 8-21 39-63 26zM410 63c17 8 30 18 35 9 5-10-5-24-22-33-17-8-35-8-40 1-4 9 10 14 27 23z"/></g><g fill="#3B3B3B"><path d="M560 36c-3 11-24 23-64 36 51 3 77 20 77 48 0 12-10 56-45 56-34 0-79-56-48-56 32 0 66 35 66-9 0-36-91-19-66-37 18-11 37-27 59-46 16-5 23-2 21 8z"/><path d="M521 41c23-5 40-8 38-15-1-8-23-17-46-12-22 6-36 23-35 30 2 8 21 2 43-3z"/></g><g fill="#3B3B3B"><path d="M124 63a9 9 0 01-7 12l-31 5c-3 1-6 0-8-2l-4-3a5 5 0 012-9l36-10a10 10 0 0112 7z"/><path d="M85 25l4 85h10c25 0 40 1 45 2 7 3-9 23-23 26-9 2-20-3-32-14v23c0 12-11 19-30 19-18 0-53-24-54-34 0-6 20-13 62-20l-6-87c0-4 4-7 12-10s12 1 12 10zM56 128c-10 0-22 4-22 9s6 9 16 9c4 0 11 0 16-5 5-4 0-13-10-13z"/></g></g></svg>