<svg width="434" height="142" xmlns="http://www.w3.org/2000/svg"><g transform="translate(3 1)" fill="none" fill-rule="evenodd"><ellipse fill="#FFCE33" cx="51.5" cy="130.5" rx="42.5" ry="9.5"/><ellipse fill="#FFCE33" cx="136.5" cy="130.4" rx="27.5" ry="9.5"/><ellipse fill="#FFCE33" cx="210.5" cy="130.4" rx="42.5" ry="9.5"/><ellipse fill="#FFCE33" cx="297.5" cy="130.4" rx="29.5" ry="9.5"/><ellipse fill="#FFCE33" cx="386.5" cy="130.5" rx="37.5" ry="9.5"/><path d="M171.8 7a9.3 9.3 0 0111.7 7.2h0l5 26.3a11 11 0 01-2.4 9.3h0l-2.5 2.8a5.7 5.7 0 01-9.7-2.2h0l-9-31a10 10 0 016.9-12.3z" stroke="#3B3B3B" stroke-width="2" fill="#3B3B3B"/><path d="M198.7 15.6c2.3-.8 4.7-.7 7.3.5a8 8 0 014.8 6 19 19 0 01-1.3 9.7 240.8 240.8 0 00-23.2 44.4c-3.8 10.8-4.3 18.4-1 22.7 1.6 2 4 3.2 6.9 3.8 3.1.5 7 .2 11.5-.8 9.4-2.2 21.7-7.6 37-16.3a12 12 0 018.3-.5c2.5.8 4.9 2.6 7 5.3a5.5 5.5 0 011.2 4.7c-.3 1.5-1.4 3-3.1 4.5a57 57 0 01-17.5 8.5 150 150 0 01-45.1 13c-12 1-20.5-2-25.5-8.2-5-6.3-5.4-17.1-.8-32.7A298.2 298.2 0 01192.4 21c2-3 4-4.7 6.3-5.5z" stroke="#FF6C6C" stroke-width="2" fill="#FF6C6C"/><path d="M244.1 13.6c2.4-.7 4.3-.9 5.7-.4.8.3 1.4.8 1.8 1.6.4.6.6 1.4.6 2.4 0 7.7-16.8 27.7-22.2 32a23 23 0 01-16.8 4.3l.4-1.3c5-14 10-23.5 15-28.6a45.1 45.1 0 0115.5-10zM257.5 36.8c2 .3 4 1 5.1 2 1.3 1 2 2.4 1.7 4-.4 2.4-7.8 8.9-15.9 14.8l-.7.5c-2.4 1.8-4.9 3.5-7.3 5-4.7 3-8.9 5.2-11.1 5.8-.7.2-1.2.2-1.6 0-1.5-1.5-1.4-2.6-.3-4.4 2.2-3.3 4-6.3 5.6-9a48.8 48.8 0 0112.2-15.7c3.4-2.5 8.3-3.4 12.3-3z" stroke="#FF6C6C" stroke-width="2" fill="#FF6C6C"/><path d="M113 31.4c3-9.4 10.2-19.2 19.3-12.8 6 4.3 1.9 15.8-12.6 34.4 6.8 0 8 2.6 3.5 7.8C116.4 68.6 113 72 111 72c-4.9 0-1-31.2 2-40.6z" stroke="#3B3B3B" stroke-width="3" fill="#3B3B3B"/><path d="M149.8 48.1c1-.4 1.8-.5 2.4-.3.7.2 1.2.8 1.6 1.7.3.7.4 1.7.4 3 0 12.1-2.7 27.4-5.9 35-1.8 4.3-8 12.2-13.3 17a19 19 0 01-5.9 4c-.8.3-1.5.2-2 0-.4-.4-.7-1-.7-1.9a93.8 93.8 0 014.8-23l.4-1.3A822.6 822.6 0 01136 68c2.2-6.8 7-14.3 11-18 1-.8 2-1.5 2.8-1.9z" stroke="#FF6C6C" fill="#FF6C6C"/><path d="M340.7 86.3c-1 3.7-6.6 14-18.3 19-7 2.9-16 3.9-27.4.4a33.6 33.6 0 01-20.2-16.3 38 38 0 01-4.6-16.1c-.2-3.5.4-6.2 1.1-7.5.3-.5.7-1 1-1.1.7-.4 1.3-.5 1.9-.3.7.2 1.5.7 2.3 2.1 4.9 9.3 15.4 15.3 25.5 17.5 9 1.9 15.2 1.7 19 .4 2-.7 3.3-1.6 3.9-2.7.2-.5.3-1 .2-1.6 0-.6-.4-1.3-.8-1.9l-.7-1.3c-.2-.8 0-1.4.2-1.8.3-.4.8-.8 1.6-1h1.5c1.8.3 4.7 1.5 7.5 3.2 2 1.3 3.8 2.8 5 4.3 1.3 1.6 1.7 3.2 1.3 4.7zM312.6 31a38 38 0 0113.9 11.5c1.6 2.3 2.6 4.6 3 6.7.4 2.2.1 4.3-.8 6.2a6 6 0 01-3 2.9c-1.1.5-2.6.6-4.2.3-3.4-.6-8-3-13.2-5.8l-5.6-2.9-5.6-2.8A50 50 0 01285 40a7.3 7.3 0 01-2.2-3.7 6 6 0 01.7-4c1-1.9 2.5-3.3 4.5-4.3s4.4-1.4 7.1-1.5a38 38 0 0117.5 4.5z" stroke="#3B3B3B" stroke-width="3" fill="#3B3B3B"/><path d="M414 18.2c.4 1.2.4 2.8 0 4.7-1.8 7.2-15.7 15.2-42 24 16.5 1.6 29 5 37.5 10.4C418.5 63 423 71 423 81c0 5.2-2.9 16.1-10.5 24-5 5.1-12 8.9-21.6 8.9a52.8 52.8 0 01-33.2-15.8c-4.5-4.6-7.3-9.2-7.3-12.5 0-1.6.7-3 2.2-3.8a11 11 0 015.8-1.3c7.4 0 15 2.8 21.9 5.4 7.3 2.7 13.7 5.1 17.9 3 1.6-.7 2.8-2.2 3.6-4.5.9-2.3 1.3-5.4 1.3-9.5 0-2.7-.7-4.9-2-6.8a16.4 16.4 0 00-6.1-5c-7.2-3.8-17.8-5-26.3-6a39.2 39.2 0 01-13-2.7c-.5-.3-.8-.7-1-1.1a2 2 0 01.2-1.5c.4-.8 1.4-1.8 3.2-3A464.8 464.8 0 00398.6 17c6-2 10.3-2.4 12.7-1.4 1.4.5 2.3 1.4 2.7 2.7z" stroke="#3B3B3B" fill="#3B3B3B"/><path d="M381.2 7a43 43 0 0119.8.2c3.4.8 6.3 2 8.5 3.4 2.3 1.5 3.8 3.2 4.2 4.7.2 1.1 0 2.1-.7 3a9 9 0 01-3.4 2.3 96 96 0 01-16.4 4.5l-5.4 1.2h0l-1.4.3-6 1.4a107 107 0 01-17.6 3.4c-1.8 0-3.2 0-4.3-.5-1-.5-1.7-1.3-2-2.4-.4-1.5.2-3.7 1.6-6 1.3-2.2 3.3-4.6 5.9-6.8a41 41 0 0117.2-8.6z" stroke="#3B3B3B" fill="#3B3B3B"/><path d="M84.5 47.6a7.8 7.8 0 01-6.2 9.8h0L58 60.9c-3.4.6-7-.3-9.6-2.7h0L47 57a5 5 0 012-8.7h0l25.2-6.7a8.4 8.4 0 0110.3 6z" stroke="#3B3B3B" stroke-width="3" fill="#3B3B3B"/><path d="M54.7 13.8c1.5 1.3 2.5 3.7 2.6 7.5v.4l2.4 57.2H65c17.9 0 28.5.5 31.8 1.6 1.1.3 1.8 1 2.2 2 .3.7.4 1.7 0 3a28.8 28.8 0 01-18 15.7c-6.1 1.2-13-1-20.4-7.2l-.4-.4v12.5c0 4.6-2.3 8.4-6.5 11a30 30 0 01-16 4c-6.4 0-15.3-3.9-23-8.7-9-5.6-16-12.6-16.2-16.3 0-1 .2-1.8.9-2.7a9 9 0 012.3-2 37 37 0 018.3-3.7c6.9-2.3 17-4.6 30.5-6.9l.8-.1-3.7-59c0-1.8.8-3.5 2.6-5a21 21 0 016.7-3.5c3.5-1.2 6-.9 7.8.6zM35.5 94.4c-3.4 0-7.4.7-10.3 1.9-1.2.5-2.2 1-2.9 1.7-.3.3-.6.7-.6 1.1 0 .6.1 1.2.5 1.7.4.6 1 1 1.7 1.5 1.8 1 4.3 1.5 8 1.5h.8c2.6 0 6.2-.1 8.6-2.6.5-.6.8-1.2.8-1.9a4 4 0 00-.9-2.3 7 7 0 00-5.7-2.6z" stroke="#3B3B3B" stroke-width="3" fill="#3B3B3B"/></g></svg>