<svg width="80" height="80" xmlns="http://www.w3.org/2000/svg"><path d="M40 0a40 40 0 110 80 40 40 0 010-80zm8.3 19c-1.8-1.3-3.7-1-5.6 1-15 18.2-21 30.2-17.8 36 3.2 6 13 6.9 29.6 3 7.4-1 10.4-2.9 9.1-5.3-1.3-2.4-3.1-3.4-5.5-3-14.2 5.1-22.5 5.5-24.8 1.3-2.2-4.2 2.8-13.1 15.1-26.7 1.7-3 1.6-5.1-.1-6.4zM23.8 30c.9-5-5.8.3-8.3 5.3-2.6 4.9-6.4 12.2-6.8 15.3-.4 3 8.2-3.6 10-6.5 2-3 4.2-9 5.1-14zM70.7 34c.8-2.2-4.1-3.7-7.2-2.2-3.1 1.5-5 4.4-9.1 9-2.4 2.6 3.2.6 8.5-2l.5-.2c3.6-1.7 7-3.7 7.3-4.6zm-3.2-11.6c.5-3.2-6-1.2-9.7 1.4a33.4 33.4 0 00-8.4 10.8c2.7.5 5 .3 6.6-.6 2.5-1.4 10.9-8.4 11.5-11.6z" fill="#FFD967" fill-rule="evenodd"/></svg>