<svg width="170" height="170" xmlns="http://www.w3.org/2000/svg"><path d="M85 0a85 85 0 110 170A85 85 0 0185 0zm17.5 40.2c-3.7-2.6-7.7-1.9-11.7 2.2C58.8 81 46.2 106.7 53 119c6.8 12.5 27.7 14.6 62.9 6.4 15.6-2.4 22.1-6.2 19.4-11.4-2.7-5.1-6.6-7.2-11.7-6.2-30.3 10.7-47.9 11.6-52.7 2.6-4.8-9 5.9-28 32.1-56.8 3.6-6.3 3.4-10.8-.4-13.5zM50.5 64c2-10.7-12.1.6-17.6 11.1-5.4 10.5-13.6 26-14.5 32.6-.8 6.5 17.5-7.6 21.5-13.8 4-6.2 8.8-19.3 10.7-30zm99.7 8.2c1.6-4.7-8.7-7.8-15.3-4.6-6.6 3.2-10.4 9.3-19.3 19-9 9.6 33-9.6 34.6-14.4zm-6.8-24.6c1.2-6.9-12.7-2.5-20.6 3a70.9 70.9 0 00-17.7 23c5.7 1 10.3.7 13.9-1.4 5.3-3 23.2-17.8 24.4-24.6z" fill="#FFD967" fill-rule="evenodd"/></svg>