<svg width="588" height="192" xmlns="http://www.w3.org/2000/svg"><g fill="none" fill-rule="evenodd"><g transform="translate(0 161)" fill="#FFCE33"><ellipse cx="61.5" cy="14" rx="61.5" ry="14"/><ellipse cx="175.5" cy="14" rx="39.5" ry="14"/><ellipse cx="283.5" cy="14" rx="61.5" ry="14"/><ellipse cx="408.5" cy="14" rx="42.5" ry="14"/><ellipse cx="526" cy="14" rx="54" ry="14"/></g><g stroke-width="3"><path d="M231.5 6.8l5-1.4a11.5 11.5 0 0114.4 8.9h0l8.1 42.2c.7 3.5-.3 7-2.6 9.8h0l-5 5.6a8.2 8.2 0 01-14-3.2h0L223.6 21a11.5 11.5 0 017.8-14.2h0z" stroke="#3B3B3B" fill="#3B3B3B"/><path d="M273.2 18.3c3.3-1.2 6.8-1 10.5.8 3.8 1.7 6.1 4.6 7 8.6.7 3.6.1 8.4-1.9 14a347 347 0 00-33.3 63.9c-5.5 15.5-6.2 26.5-1.4 32.6 2.3 2.9 5.6 4.7 9.8 5.4 4.5.8 10 .4 16.6-1 13.4-3.2 31.1-11 53-23.5 4.5-1.7 8.4-1.9 12-.7 3.6 1.2 7 3.7 10 7.6a8 8 0 011.8 6.9c-.5 2-2 4.3-4.5 6.5-4.7 4-13 8-25.2 12.1-26.4 11.3-48 17.6-64.7 18.8-17.3 1.3-29.4-2.8-36.6-11.9-7.2-9-7.8-24.6-1.2-47.1 6.3-21.9 19.3-50.2 39-85a20 20 0 019-8z" stroke="#FF6C6C" fill="#FF6C6C"/><path d="M338.5 15.5c3.3-1 6.2-1.3 8.2-.6a5 5 0 012.6 2.2c.5 1 .8 2 .8 3.5 0 11.2-24.1 40-31.8 46.3a33 33 0 01-24.4 6.1l.7-2c7-20.1 14.3-33.8 21.7-41.1 6-6 15.2-12 22.2-14.4zM357.6 48.9c3 .4 5.7 1.3 7.5 2.8a6.2 6.2 0 012.4 6c-.7 4.4-19.2 19.4-34.3 29a69.4 69.4 0 01-16 8.4c-1 .3-1.8.3-2.4.2-.5-.1-.9-.3-1.2-.6-1-2-.7-3.5.9-6 3-4.8 5.6-9 7.9-13 6.2-10.3 10.5-17.5 17.5-22.5 5-3.7 12-5 17.7-4.3z" stroke="#FF6C6C" fill="#FF6C6C"/></g><path d="M154.8 42.9c4.4-13.6 14.6-28 27.8-18.5 8.7 6.2 2.7 22.8-18.1 49.7 9.7 0 11.4 3.9 5 11.4-9.8 11.2-14.7 16.2-17.7 16.2-7 0-1.4-45.2 3-58.8z" stroke="#3B3B3B" stroke-width="3" fill="#3B3B3B"/><path d="M205.1 58c4.5-4.9 8.6-8.4 11.1-9.2.8-.3 1.5-.4 2-.3.7.2 1.2.6 1.6 1.2.5.9.7 2.3.3 4.6l-2.6 15.9-2.1 13.2h0l-.3 1.7-.6 4-.3 1.2a208 208 0 01-7.5 33.8 94.5 94.5 0 01-19.3 24.6c-3.3 3-6.4 5.3-8.5 6-1.4.4-2.4.2-3.1-.3-.7-.5-1.2-1.3-1.3-2.8-.5-10.6 2.3-40.4 8-58.7 3-9.6 13.7-25 22.6-34.9z" stroke="#FF6C6C" stroke-width="2" fill="#FF6C6C"/><g fill="#3B3B3B" stroke="#3B3B3B" stroke-width="3"><path d="M463.5 120c-1.4 5.2-9.5 19.9-26.1 26.8a56.3 56.3 0 01-39 .7 47.9 47.9 0 01-28.9-23.2 54 54 0 01-6.5-23c-.3-4.8.4-8.5 1.5-10.3a4 4 0 011.3-1.5c.7-.4 1.4-.5 2-.3 1 .2 2 1 3 2.8a55.1 55.1 0 0037.3 25.4 56 56 0 0027.8.6c3.1-1 5-2.5 6-4.3.3-.8.5-1.7.3-2.6 0-1-.5-2-1.2-3a6 6 0 01-.9-1.7c-.2-.9 0-1.5.2-2 .4-.6 1-1 1.8-1.2a6 6 0 012 0c2.5.5 6.7 2.2 10.5 4.6 2.8 1.7 5.4 3.8 7.1 5.9 1.7 2.1 2.3 4.3 1.8 6.2zM423.2 41.1A54.3 54.3 0 01443 57.5c2.2 3.2 3.7 6.3 4.2 9.3.6 3 .3 6-1 8.5a8 8 0 01-4 3.9c-1.5.7-3.5.8-5.7.4a74.6 74.6 0 01-18.9-8.2l-8-4.3-8.1-4c-7.6-3.6-14-6.7-17.4-10.1a9.8 9.8 0 01-3-5c-.3-1.7 0-3.5 1-5.4a13 13 0 016.2-5.8c2.8-1.3 6.2-2 10-2.1 7.3-.1 16.2 2 25 6.4z"/></g><g fill="#3B3B3B" stroke="#3B3B3B" stroke-width="3"><path d="M561.3 32.5c.6 1.9.6 4.3 0 7.3-2.6 10-21.4 21.5-57.6 33.9 22.2 2.3 39.1 7.2 50.8 14.6a39.1 39.1 0 0119.8 34.7c0 7.7-4 27.7-15.2 42a38 38 0 01-30.7 15.6c-17 0-36.9-13.7-49-27.7-6.8-8-11-16-11-21.8 0-3 1-5.5 3.2-7.2 2-1.5 4.8-2.4 8.8-2.4 10.8 0 22 4 31.9 7.8 10.2 3.7 19.2 7.3 25.1 4.5 2.1-1 3.8-3 4.9-6.2a41 41 0 001.7-13.4c0-3.6-1-6.7-2.7-9.2-2-3-5-5.2-8.5-7-10.3-5.5-25.5-7.2-37.5-8.6-9-1-16.4-2-19.2-3.9a4 4 0 01-1.6-2.1c-.2-.8-.2-1.7.3-2.6.6-1.3 2.1-2.8 4.8-4.6 17-11.7 36.4-27 58.2-45.8 9.3-3.1 15.5-3.6 19.2-2.2 2.2.8 3.6 2.3 4.3 4.3z"/><path d="M513.2 16a63 63 0 0128.8.2c5 1.3 9.3 3 12.5 5 3.6 2.3 5.7 5 6.3 7.3.4 1.8 0 3.4-1.2 4.9-1 1.3-2.7 2.5-5 3.6-5.3 2.3-13.7 4.2-23.8 6.5l-9.2 2h0l-.7.2-8.5 2a155 155 0 01-25.6 4.9c-2.7 0-4.8-.2-6.4-.9-1.8-.8-3-2-3.4-3.9-.6-2.4.2-5.7 2.4-9.3 1.8-3.1 4.8-6.6 8.6-9.9A59.8 59.8 0 01513.2 16z"/></g><g fill="#3B3B3B" stroke="#3B3B3B" stroke-width="3"><path d="M126 65.7a10.7 10.7 0 01-8.5 13.3h0l-31.2 5.6c-3.5.6-7-.4-9.6-2.7h0L73 78.7a6.6 6.6 0 012.7-11.4h0l36-9.7a11.4 11.4 0 0114.1 8.1z"/><path d="M83.2 17.3c2.2 1.8 3.5 5.2 3.5 10.4v.5l3.6 83.2h8.4c25.5 0 40.7.8 45.4 2.3 1.4.4 2.3 1.3 2.7 2.4.4 1 .5 2.4 0 3.9-.6 2.6-2.7 6-5.6 9.3a40.7 40.7 0 01-19.8 12.9c-9 1.9-19-1.7-30-11.2l-.5-.4V150a18 18 0 01-9 15.4 42.5 42.5 0 01-22.8 5.6c-9 0-21.7-5.5-32.6-12.4-12.7-8-22.7-17.8-23-23.1 0-1.1.3-2.3 1.1-3.4.7-1 1.8-1.9 3.2-2.8 2.6-1.7 6.6-3.5 11.9-5.2A338 338 0 0164 114l1-.2-5.4-85.7c0-2.4 1.2-4.7 3.6-6.8 2-1.8 5.2-3.4 9.5-4.9 4.7-1.6 8.1-1.2 10.4.8zM56.1 132.5c-5 0-10.8 1-15 2.7-1.8.8-3.4 1.6-4.4 2.6-.7.7-1.2 1.4-1.2 2.1 0 1 .3 2 .9 2.8a8 8 0 002.7 2.4 22.3 22.3 0 0011.5 2.3c3.9 0 10.3.2 14.3-4 .9-1 1.3-2 1.3-3.2 0-1.3-.5-2.6-1.3-3.7-1.7-2.3-4.8-4-8.8-4z"/></g></g></svg>