<svg width="598" height="190" xmlns="http://www.w3.org/2000/svg"><g fill="none" fill-rule="evenodd"><g fill="#3B3B3B"><path d="M229 5l5-1a10 10 0 0113 8l8 42c0 3 0 6-2 8l-5 6a7 7 0 01-12-3l-14-47a10 10 0 017-13zM148 39c4-14 14-28 28-18 8 6 2 22-19 49 10 0 12 4 5 12-9 11-14 16-17 16-7 0-2-45 3-59zM413 137c-42-13-37-67-29-53 7 14 23 23 38 26 31 7 40-4 34-12-5-7 22 5 20 13s-21 39-63 26zM573 40c-2 10-24 22-63 35 51 4 76 20 76 48 0 12-10 56-44 56s-80-56-48-56c31 0 65 35 65-9 0-36-91-19-65-36 17-12 36-27 58-46 17-6 24-3 21 8zM119 62a9 9 0 01-7 12l-31 5c-3 1-6 0-8-2l-4-3a5 5 0 012-9l36-10a10 10 0 0112 7z"/><path d="M80 24l4 85h10c25 0 40 1 45 2 7 3-9 23-23 26-9 2-20-3-32-14v23c0 12-11 20-30 20-18 0-53-25-54-34 0-7 20-14 62-21l-6-87c0-4 4-7 12-10s12 1 12 10zM51 127c-10 0-22 4-22 9s6 9 16 9c4 0 11 0 16-4 5-5 0-14-10-14zM424 57c17 9 30 18 35 9s-5-24-22-32c-17-9-35-9-40 0-4 10 10 14 27 23zM535 44c22-5 39-7 38-15-2-8-24-16-46-11s-37 22-35 30c2 7 20 1 43-4z"/></g><g fill="#FF6C6C"><path d="M263 24c5-7 11-9 17-6 7 3 8 10 5 20-33 53-45 86-35 98 10 13 37 7 82-18 7-3 14-1 20 6 5 7-4 15-28 23-52 23-85 25-99 8-14-18-2-61 38-131z"/><path d="M315 28c10-11 31-21 31-10s-24 39-31 45c-5 4-13 6-22 6 7-20 14-34 22-41zM181 73c5-18 32-60 29-42s-9 59-13 70c-5 11-36 42-37 32 0-11 15-42 21-60zM338 52c9-7 26-5 25 3s-61 49-50 32c11-18 16-29 25-35z"/></g></g></svg>